<svg xmlns="http://www.w3.org/2000/svg" width="468" height="440" viewBox="0 0 468 440">
  <g fill="none" fill-rule="evenodd" transform="translate(183 211)">
    <path fill="#FFF" d="M69,16.3669172 C69.0573218,21.2647794 70.6547613,25.699352 75.0501536,29.3679311 C81.2106245,34.5098835 90.1214603,34.4641165 96.3089699,29.3309964 C104.259395,22.7341381 104.286434,10.5440817 96.3662917,3.91269741 C90.1247049,-1.31356239 81.0851655,-1.31356239 74.8922482,3.96890241 C70.7120831,7.53310081 69.1330298,11.8086936 69,16.3669172 Z"/>
    <path fill="#000" d="M88,22.1449218 C88.0144814,23.3853054 88.4180506,24.5083609 89.5284804,25.4374285 C91.0848309,26.739628 93.3360196,26.7280375 94.899201,25.4280748 C96.9077565,23.7574205 96.9145874,20.6702887 94.9136825,18.9908906 C93.3368393,17.6673403 91.0531356,17.6673403 89.488588,19.0051245 C88.4325321,19.9077578 88.033608,20.9905517 88,22.1449218 Z"/>
    <path fill="#FFF" d="M33.2883513,17.0992688 C33.3358964,12.0608312 31.2190579,7.34965879 27.6380457,4.16223979 C21.3793787,-1.41011461 11.7568942,-1.38438371 5.5328054,4.22174259 C-1.83236632,10.856302 -1.84641374,22.2904839 5.50362999,28.9539906 C11.777425,34.6413302 21.5782037,34.6196197 27.8130982,28.8840347 C31.654528,25.3492482 33.0538674,21.1864662 33.2883513,17.0992688 Z"/>
    <path fill="#000" d="M19,22.1449218 C19.0144814,23.3853054 19.4180506,24.5083609 20.5284804,25.4374285 C22.0848309,26.739628 24.3360196,26.7280375 25.899201,25.4280748 C27.9077565,23.7574205 27.9145874,20.6702887 25.9136825,18.9908906 C24.3368393,17.6673403 22.0531356,17.6673403 20.488588,19.0051245 C19.4325321,19.9077578 19.033608,20.9905517 19,22.1449218 Z"/>
  </g>
</svg>
