<svg xmlns="http://www.w3.org/2000/svg" width="468" height="440" viewBox="0 0 468 440">
  <g fill="none" fill-rule="evenodd" transform="translate(183 211)">
    <path fill="#FFF" d="M69,16.3669172 C69.0573218,21.2647794 70.6547613,25.699352 75.0501536,29.3679311 C81.2106245,34.5098835 90.1214603,34.4641165 96.3089699,29.3309964 C104.259395,22.7341381 104.286434,10.5440817 96.3662917,3.91269741 C90.1247049,-1.31356239 81.0851655,-1.31356239 74.8922482,3.96890241 C70.7120831,7.53310081 69.1330298,11.8086936 69,16.3669172 Z"/>
    <path fill="#000" d="M74,16.1449218 C74.0144814,17.3853054 74.4180506,18.5083609 75.5284804,19.4374285 C77.0848309,20.739628 79.3360196,20.7280375 80.899201,19.4280748 C82.9077565,17.7574205 82.9145874,14.6702887 80.9136825,12.9908906 C79.3368393,11.6673403 77.0531356,11.6673403 75.488588,13.0051245 C74.4325321,13.9077578 74.033608,14.9905517 74,16.1449218 Z"/>
    <path fill="#FFF" d="M33.2883513,17.0992688 C33.3358964,12.0608312 31.2190579,7.34965879 27.6380457,4.16223979 C21.3793787,-1.41011461 11.7568942,-1.38438371 5.5328054,4.22174259 C-1.83236632,10.856302 -1.84641374,22.2904839 5.50362999,28.9539906 C11.777425,34.6413302 21.5782037,34.6196197 27.8130982,28.8840347 C31.654528,25.3492482 33.0538674,21.1864662 33.2883513,17.0992688 Z"/>
    <path fill="#000" d="M5,16.1449218 C5.01448145,17.3853054 5.41805058,18.5083609 6.52848042,19.4374285 C8.08483089,20.739628 10.3360196,20.7280375 11.899201,19.4280748 C13.9077565,17.7574205 13.9145874,14.6702887 11.9136825,12.9908906 C10.3368393,11.6673403 8.05313555,11.6673403 6.48858804,13.0051245 C5.43253213,13.9077578 5.03360798,14.9905517 5,16.1449218 Z"/>
  </g>
</svg>
