<svg xmlns="http://www.w3.org/2000/svg" width="468" height="440" viewBox="0 0 468 440">
  <g fill="none" fill-rule="evenodd" transform="translate(183 211)">
    <path fill="#FFF" d="M69,16.3669172 C69.0573218,21.2647794 70.6547613,25.699352 75.0501536,29.3679311 C81.2106245,34.5098835 90.1214603,34.4641165 96.3089699,29.3309964 C104.259395,22.7341381 104.286434,10.5440817 96.3662917,3.91269741 C90.1247049,-1.31356239 81.0851655,-1.31356239 74.8922482,3.96890241 C70.7120831,7.53310081 69.1330298,11.8086936 69,16.3669172 Z"/>
    <path fill="#000" d="M75,22.1449218 C75.0144814,23.3853054 75.4180506,24.5083609 76.5284804,25.4374285 C78.0848309,26.739628 80.3360196,26.7280375 81.899201,25.4280748 C83.9077565,23.7574205 83.9145874,20.6702887 81.9136825,18.9908906 C80.3368393,17.6673403 78.0531356,17.6673403 76.488588,19.0051245 C75.4325321,19.9077578 75.033608,20.9905517 75,22.1449218 Z"/>
    <path fill="#FFF" d="M33.2883513,17.0992688 C33.3358964,12.0608312 31.2190579,7.34965879 27.6380457,4.16223979 C21.3793787,-1.41011461 11.7568942,-1.38438371 5.5328054,4.22174259 C-1.83236632,10.856302 -1.84641374,22.2904839 5.50362999,28.9539906 C11.777425,34.6413302 21.5782037,34.6196197 27.8130982,28.8840347 C31.654528,25.3492482 33.0538674,21.1864662 33.2883513,17.0992688 Z"/>
    <path fill="#000" d="M6,22.1449218 C6.01448145,23.3853054 6.41805058,24.5083609 7.52848042,25.4374285 C9.08483089,26.739628 11.3360196,26.7280375 12.899201,25.4280748 C14.9077565,23.7574205 14.9145874,20.6702887 12.9136825,18.9908906 C11.3368393,17.6673403 9.05313555,17.6673403 7.48858804,19.0051245 C6.43253213,19.9077578 6.03360798,20.9905517 6,22.1449218 Z"/>
  </g>
</svg>
