<svg xmlns="http://www.w3.org/2000/svg" width="468" height="440" viewBox="0 0 468 440">
  <g fill="none" fill-rule="evenodd" transform="translate(183 211)">
    <path fill="#FFF" d="M69,16.3669172 C69.0573218,21.2647794 70.6547613,25.699352 75.0501536,29.3679311 C81.2106245,34.5098835 90.1214603,34.4641165 96.3089699,29.3309964 C104.259395,22.7341381 104.286434,10.5440817 96.3662917,3.91269741 C90.1247049,-1.31356239 81.0851655,-1.31356239 74.8922482,3.96890241 C70.7120831,7.53310081 69.1330298,11.8086936 69,16.3669172 Z"/>
    <path fill="#000" d="M81,9.14492182 C81.0144814,10.3853054 81.4180506,11.5083609 82.5284804,12.4374285 C84.0848309,13.739628 86.3360196,13.7280375 87.899201,12.4280748 C89.9077565,10.7574205 89.9145874,7.67028872 87.9136825,5.99089062 C86.3368393,4.66734032 84.0531356,4.66734032 82.488588,6.00512452 C81.4325321,6.90775782 81.033608,7.99055172 81,9.14492182 Z"/>
    <path fill="#FFF" d="M33.2883513,17.0992688 C33.3358964,12.0608312 31.2190579,7.34965879 27.6380457,4.16223979 C21.3793787,-1.41011461 11.7568942,-1.38438371 5.5328054,4.22174259 C-1.83236632,10.856302 -1.84641374,22.2904839 5.50362999,28.9539906 C11.777425,34.6413302 21.5782037,34.6196197 27.8130982,28.8840347 C31.654528,25.3492482 33.0538674,21.1864662 33.2883513,17.0992688 Z"/>
    <path fill="#000" d="M12,9.14492182 C12.0144814,10.3853054 12.4180506,11.5083609 13.5284804,12.4374285 C15.0848309,13.739628 17.3360196,13.7280375 18.899201,12.4280748 C20.9077565,10.7574205 20.9145874,7.67028872 18.9136825,5.99089062 C17.3368393,4.66734032 15.0531356,4.66734032 13.488588,6.00512452 C12.4325321,6.90775782 12.033608,7.99055172 12,9.14492182 Z"/>
  </g>
</svg>
