<svg xmlns="http://www.w3.org/2000/svg" width="468" height="440" viewBox="0 0 468 440">
  <g fill="none" fill-rule="evenodd">
    <path fill="#FFF" fill-rule="nonzero" d="M252.183858,205.434381 C257.529414,203.492024 262.75804,203.258775 268.095297,207.295391 C264.094806,200.958659 256.111174,200.283815 252.164244,205.406988 C252.014122,205.484185 251.864,205.561381 252.215542,205.380426 C252.007333,205.732375 252.095595,205.583793 252.183858,205.434381 Z" transform="rotate(-20 260.048 204.648)"/>
    <path fill="#FFF" fill-rule="nonzero" d="M197.033644,207.951099 C200.669285,205.652644 204.580852,204.792694 208.736191,205.144643 C209.564717,205.215198 210.402963,205.155434 211.713798,205.155434 C206.729186,201.339616 200.460658,202.774802 197.100195,208.004223 C197.027662,208.104662 196.955876,208.20593 197.033644,208.097191 L197.033644,207.951099 Z" transform="rotate(20 204.357 205.572)"/>
  </g>
</svg>
