<svg xmlns="http://www.w3.org/2000/svg" width="468" height="440" viewBox="0 0 468 440">
  <g fill="none" fill-rule="evenodd">
    <path fill="#FFF" fill-rule="nonzero" d="M272.183858,205.434381 C277.529414,203.492024 282.75804,203.258775 288.095297,207.295391 C284.094806,200.958659 276.111174,200.283815 272.164244,205.406988 C272.014122,205.484185 271.864,205.561381 272.215542,205.380426 C272.007333,205.732375 272.095595,205.583793 272.183858,205.434381 Z" transform="rotate(23 280.048 204.648)"/>
    <path fill="#FFF" fill-rule="nonzero" d="M177.033644,207.951099 C180.669285,205.652644 184.580852,204.792694 188.736191,205.144643 C189.564717,205.215198 190.402963,205.155434 191.713798,205.155434 C186.729186,201.339616 180.460658,202.774802 177.100195,208.004223 C177.027662,208.104662 176.955876,208.20593 177.033644,208.097191 L177.033644,207.951099 Z" transform="rotate(-23 184.357 205.572)"/>
  </g>
</svg>
