<svg xmlns="http://www.w3.org/2000/svg" viewBox="0 0 80 80"><defs><style>.cls-1{isolation:isolate;}.cls-2,.cls-9{fill:#10069f;}.cls-10,.cls-2,.cls-5{mix-blend-mode:multiply;}.cls-3{fill:#04047a;}.cls-4{fill:#060684;}.cls-10,.cls-5{opacity:0.4;}.cls-10,.cls-6,.cls-7,.cls-8{fill:none;stroke:#04047a;stroke-linecap:round;stroke-miterlimit:10;stroke-width:0.25px;}.cls-7{stroke-dasharray:1.61 1.61;}.cls-8{stroke-dasharray:1.66 1.66;}.cls-10{stroke-dasharray:2 2;}.cls-11{fill:#0f0fa8;}</style></defs><g class="cls-1"><g id="Layer_1" data-name="Layer 1"><path class="cls-2" d="M80,56.05a4,4,0,0,1-.89-1.54,2.46,2.46,0,0,1-.09-.39.15.15,0,0,1,0-.07.94.94,0,0,1,0-.16,20.5,20.5,0,0,0-.66-2.76C78,50.08,76.18,38.7,74.48,32.62l1.43-.93.9-.54h0v0l0,0a.13.13,0,0,0,0-.12,129.61,129.61,0,0,0-7.37-10.92c-.64.45-1.29.89-1.94,1.32a64,64,0,0,1-5.91,3.43c-1.89,1-3.8,1.84-5.75,2.62-.69.28-1.37.54-2.07.79a67.61,67.61,0,0,1-10,2.74,67.84,67.84,0,0,1-12.77,1.27l-1.91,0c-1.06,0-2.11-.09-3.17-.17a65.34,65.34,0,0,1-8.91-1.32l-1.29-.29c-1.2-.28-2.39-.6-3.56-1-.56-.16-1.1-.33-1.65-.51C9,31,7.76,32.67,7.73,32.71s0,0,0,0,0,0,0,0,0,0,0,0a0,0,0,0,0,0,0l0,0A9,9,0,0,0,11,36a10.89,10.89,0,0,0,3.54.91,1.38,1.38,0,0,1-.64.76,33.55,33.55,0,0,0-6.6,5.58A35.15,35.15,0,0,0,1,52.74c-.08.2-.17.39-.25.59C.48,54,.23,54.6,0,55.25a.18.18,0,0,0,.24.23,59.32,59.32,0,0,1,22.18-4c7.5.13,15.24,2,22.45,3.95,3.42.9,8,1.89,11.12,2.6,7,2,20.59-.73,24-1.81A.09.09,0,0,0,80,56.05Z"/><g id="Shirt_1" data-name="Shirt 1"><path class="cls-3" d="M14.64,36.31c0,.09,0,.19,0,.28a1.52,1.52,0,0,1-.06.32A10.89,10.89,0,0,1,11,36a9,9,0,0,1-3.26-3.13l0,0s.54.16,1.27.4a17.58,17.58,0,0,1,3.6,1.54C13.16,35.18,13.86,35.68,14.64,36.31Z"/><path class="cls-4" d="M17.07,30.71c-.37.72-.72,1.44-1.07,2.17L15.46,34l0,.06-.21.43a7,7,0,0,0-.58,1.85c-.78-.63-1.48-1.13-2-1.47a17.58,17.58,0,0,0-3.6-1.54c-.73-.24-1.26-.4-1.27-.4l0,0,0,0a0,0,0,0,1,0,0s0,0,0,0,0,0,0,0,0,0,0,0S9,31,10.57,29c.55.18,1.09.35,1.65.51,1.17.35,2.36.67,3.56,1Z"/><g class="cls-5"><path class="cls-6" d="M15.43,34q-.42-.33-.81-.6"/><path class="cls-7" d="M13.25,32.59a20.53,20.53,0,0,0-2.24-.9"/><path class="cls-6" d="M10.25,31.43l-1-.29"/></g><g class="cls-5"><path class="cls-6" d="M9,31.48l1,.29"/><path class="cls-8" d="M11.48,32.32a12.14,12.14,0,0,1,2.25,1.07"/><path class="cls-6" d="M14.41,33.86q.39.27.81.6"/></g><path class="cls-9" d="M79,54.05a93.38,93.38,0,0,1-9.51,2.29c-3,1.13-11-.06-13.46-.45l-.68-.12h0c-3.36-.73-7-1.72-10.72-2.71-7.21-1.91-15-3.83-22.46-4A59.71,59.71,0,0,0,1,52.74,35.15,35.15,0,0,1,7.3,43.25a33.55,33.55,0,0,1,6.6-5.58,1.38,1.38,0,0,0,.64-.76,1.52,1.52,0,0,0,.06-.32c0-.09,0-.19,0-.28a7,7,0,0,1,.58-1.85l.21-.43,0-.06L16,32.88c.35-.73.7-1.45,1.07-2.17A65.34,65.34,0,0,0,26,32c1.06.08,2.11.14,3.17.17l1.91,0A67.84,67.84,0,0,0,43.83,31a67.61,67.61,0,0,0,10-2.74c.18.53.38,1.06.59,1.59a56.62,56.62,0,0,0,2.68,5.4l.27.47c.63,1.11,1.08,1.85,1.09,1.87a.15.15,0,0,0,.09.06h.05l1.77-.22A40.59,40.59,0,0,0,68,36a37.19,37.19,0,0,0,6.48-3.38c1.7,6.08,3.47,17.46,3.81,18.51A20.5,20.5,0,0,1,79,53.89.94.94,0,0,0,79,54.05Z"/><path class="cls-9" d="M80,56.19C76.59,57.27,63,60,56,58c-3.09-.71-7.7-1.7-11.12-2.6-7.21-1.91-15-3.82-22.45-3.95a59.32,59.32,0,0,0-22.18,4A.18.18,0,0,1,0,55.25c.22-.65.47-1.29.73-1.92.08-.2.17-.39.25-.59A59.71,59.71,0,0,1,22.14,49.1c7.51.13,15.25,2,22.46,4,3.75,1,7.36,2,10.72,2.71h0l.68.12c2.42.39,10.49,1.58,13.46.45A93.38,93.38,0,0,0,79,54.05a.15.15,0,0,0,0,.07,2.46,2.46,0,0,0,.09.39A4,4,0,0,0,80,56.05.09.09,0,0,1,80,56.19Z"/><path class="cls-10" d="M79.09,54.51a92.88,92.88,0,0,1-10.21,2.43c-3.24.73-9.89-.14-12.57-.54l-.78-.11-.38-.07c-3.32-.73-6.86-1.7-10.55-2.67-7.21-1.91-15-3.83-22.46-4A59.29,59.29,0,0,0,.74,53.33c.08-.2.17-.39.25-.59A59.71,59.71,0,0,1,22.14,49.1c7.51.13,15.25,2,22.46,4,3.75,1,7.36,2,10.72,2.71h0l.68.12c2.42.39,10.49,1.58,13.46.45A93.38,93.38,0,0,0,79,54.05a.15.15,0,0,0,0,.07A2.46,2.46,0,0,0,79.09,54.51Z"/><path class="cls-4" d="M76.81,31.15l-.9.54-1.43.93A37.19,37.19,0,0,1,68,36a40.59,40.59,0,0,1-7.64,1.38l-1.77.22h0l0,0s.59-.49,1.46-1.15a27,27,0,0,1,6.24-3.71,36.87,36.87,0,0,1,7.77-1.35l1.45-.12c.73-.06,1.19-.08,1.21-.08Z"/><path class="cls-11" d="M76.86,31l0,.15v0h-.06s-.48,0-1.21.08l-1.45.12a36.87,36.87,0,0,0-7.77,1.35,27,27,0,0,0-6.24,3.71c-.87.66-1.44,1.14-1.46,1.15l0,0h0l-.11-.06s-.46-.76-1.09-1.87l-.27-.47a56.62,56.62,0,0,1-2.68-5.4c-.21-.53-.41-1.06-.59-1.59.7-.25,1.38-.51,2.07-.79,2-.78,3.86-1.65,5.75-2.62a64,64,0,0,0,5.91-3.43c.65-.43,1.3-.87,1.94-1.32A129.61,129.61,0,0,1,76.86,31Z"/><path class="cls-11" d="M58.45,37.54l.11.06h0A.15.15,0,0,1,58.45,37.54Z"/><path class="cls-11" d="M76.86,31a.13.13,0,0,1,0,.12l0,0Z"/><path class="cls-10" d="M57.69,36.07s4.3-3.66,7.73-4.89,10.46-1.55,10.46-1.55"/><path class="cls-10" d="M57.32,35.7s4.31-3.66,7.74-4.89,10.46-1.55,10.46-1.55"/></g></g></g></svg>