<svg id="Layer_1" data-name="Layer 1" xmlns="http://www.w3.org/2000/svg" xmlns:xlink="http://www.w3.org/1999/xlink" viewBox="0 0 80 80">
  <defs>
    <style>
      .cls-1 {
        fill: url(#linear-gradient);
      }

      .cls-2 {
        fill: url(#linear-gradient-2);
      }

      .cls-3 {
        fill: url(#linear-gradient-3);
      }

      .cls-4 {
        fill: url(#linear-gradient-4);
      }

      .cls-5 {
        fill: url(#linear-gradient-5);
      }

      .cls-6 {
        fill: url(#linear-gradient-6);
      }

      .cls-7 {
        fill: url(#linear-gradient-7);
      }

      .cls-8 {
        fill: url(#linear-gradient-8);
      }

      .cls-9 {
        fill: url(#linear-gradient-9);
      }

      .cls-10 {
        fill: url(#linear-gradient-10);
      }

      .cls-11 {
        fill: url(#linear-gradient-11);
      }

      .cls-12 {
        fill: url(#linear-gradient-12);
      }

      .cls-13 {
        fill: url(#linear-gradient-13);
      }

      .cls-14 {
        fill: url(#linear-gradient-14);
      }

      .cls-15 {
        fill: url(#linear-gradient-15);
      }

      .cls-16 {
        fill: url(#linear-gradient-16);
      }

      .cls-17 {
        fill: url(#linear-gradient-17);
      }

      .cls-18 {
        fill: url(#linear-gradient-18);
      }

      .cls-19 {
        fill: url(#linear-gradient-19);
      }

      .cls-20 {
        fill: url(#linear-gradient-20);
      }

      .cls-21 {
        fill: url(#linear-gradient-21);
      }

      .cls-22 {
        fill: url(#linear-gradient-22);
      }

      .cls-23 {
        fill: url(#linear-gradient-23);
      }

      .cls-24 {
        fill: url(#linear-gradient-24);
      }

      .cls-25 {
        fill: url(#linear-gradient-25);
      }

      .cls-26 {
        fill: url(#linear-gradient-26);
      }

      .cls-27 {
        fill: url(#linear-gradient-27);
      }

      .cls-28 {
        fill: url(#linear-gradient-28);
      }

      .cls-29 {
        fill: url(#linear-gradient-29);
      }

      .cls-30 {
        fill: url(#linear-gradient-30);
      }

      .cls-31 {
        fill: url(#linear-gradient-31);
      }

      .cls-32 {
        fill: url(#linear-gradient-32);
      }

      .cls-33 {
        fill: url(#linear-gradient-33);
      }

      .cls-34 {
        fill: url(#linear-gradient-34);
      }

      .cls-35 {
        opacity: 0.21;
      }

      .cls-36 {
        fill: #fff;
      }

      .cls-37 {
        fill: url(#linear-gradient-35);
      }

      .cls-38 {
        fill: url(#linear-gradient-36);
      }
    </style>
    <linearGradient id="linear-gradient" x1="16.46506" y1="126.85898" x2="16.46506" y2="-8.3169" gradientUnits="userSpaceOnUse">
      <stop offset="0" stop-color="#10069e"/>
      <stop offset="0.11309" stop-color="#251ca7"/>
      <stop offset="0.34723" stop-color="#5c54bd"/>
      <stop offset="0.5135" stop-color="#8680ce"/>
      <stop offset="0.54716" stop-color="#807acb"/>
      <stop offset="1" stop-color="#10069e"/>
    </linearGradient>
    <linearGradient id="linear-gradient-2" x1="22.27178" y1="82.712" x2="22.27178" y2="12.47182" xlink:href="#linear-gradient"/>
    <linearGradient id="linear-gradient-3" x1="25.8028" y1="47.64316" x2="25.8028" y2="24.80086" xlink:href="#linear-gradient"/>
    <linearGradient id="linear-gradient-4" x1="6.88831" y1="126.86185" x2="6.88831" y2="-8.31725" xlink:href="#linear-gradient"/>
    <linearGradient id="linear-gradient-5" x1="10.39805" y1="126.86185" x2="10.39805" y2="-8.31725" xlink:href="#linear-gradient"/>
    <linearGradient id="linear-gradient-6" x1="4.17887" y1="126.86185" x2="4.17887" y2="-8.31725" xlink:href="#linear-gradient"/>
    <linearGradient id="linear-gradient-7" x1="3.50773" y1="126.86185" x2="3.50773" y2="-8.31725" xlink:href="#linear-gradient"/>
    <linearGradient id="linear-gradient-8" x1="62.87478" y1="58.08761" x2="62.87478" y2="17.56225" xlink:href="#linear-gradient"/>
    <linearGradient id="linear-gradient-9" x1="55.42368" y1="146.80782" x2="55.42368" y2="-1.64926" xlink:href="#linear-gradient"/>
    <linearGradient id="linear-gradient-10" x1="67.03765" y1="146.77688" x2="67.03765" y2="-1.64029" xlink:href="#linear-gradient"/>
    <linearGradient id="linear-gradient-11" x1="52.7501" y1="146.77688" x2="52.7501" y2="-1.64029" xlink:href="#linear-gradient"/>
    <linearGradient id="linear-gradient-12" x1="17.18263" y1="146.77688" x2="17.18263" y2="-1.64029" xlink:href="#linear-gradient"/>
    <linearGradient id="linear-gradient-13" x1="22.63503" y1="146.74327" x2="22.63503" y2="-1.62947" xlink:href="#linear-gradient"/>
    <linearGradient id="linear-gradient-14" x1="18.31057" y1="146.77688" x2="18.31057" y2="-1.64029" xlink:href="#linear-gradient"/>
    <linearGradient id="linear-gradient-15" x1="11.49599" y1="146.77688" x2="11.49599" y2="-1.64029" xlink:href="#linear-gradient"/>
    <linearGradient id="linear-gradient-16" x1="13.55868" y1="146.77688" x2="13.55868" y2="68.36399" xlink:href="#linear-gradient"/>
    <linearGradient id="linear-gradient-17" x1="14.10623" y1="146.77688" x2="14.10623" y2="-1.64029" xlink:href="#linear-gradient"/>
    <linearGradient id="linear-gradient-18" x1="65.74071" y1="81.60749" x2="65.74071" y2="16.25986" xlink:href="#linear-gradient"/>
    <linearGradient id="linear-gradient-19" x1="67.57509" y1="153.62507" x2="67.57509" y2="5.37966" xlink:href="#linear-gradient"/>
    <linearGradient id="linear-gradient-20" x1="61.92358" y1="153.62507" x2="61.92358" y2="37.28668" xlink:href="#linear-gradient"/>
    <linearGradient id="linear-gradient-21" x1="67.52092" y1="153.62507" x2="67.52092" y2="5.37966" xlink:href="#linear-gradient"/>
    <linearGradient id="linear-gradient-22" x1="67.29066" y1="153.62507" x2="67.29066" y2="5.37966" xlink:href="#linear-gradient"/>
    <linearGradient id="linear-gradient-23" x1="68.85963" y1="153.62507" x2="68.85963" y2="5.37966" xlink:href="#linear-gradient"/>
    <linearGradient id="linear-gradient-24" x1="61.55162" y1="153.62507" x2="61.55162" y2="5.37966" xlink:href="#linear-gradient"/>
    <linearGradient id="linear-gradient-25" x1="59.14209" y1="153.62507" x2="59.14209" y2="5.37966" xlink:href="#linear-gradient"/>
    <linearGradient id="linear-gradient-26" x1="64.93417" y1="153.62507" x2="64.93417" y2="5.37966" xlink:href="#linear-gradient"/>
    <linearGradient id="linear-gradient-27" x1="34.74011" y1="165.0319" x2="34.74011" y2="-15.22205" xlink:href="#linear-gradient"/>
    <linearGradient id="linear-gradient-28" x1="32.13276" y1="165.0319" x2="32.13276" y2="-15.22205" xlink:href="#linear-gradient"/>
    <linearGradient id="linear-gradient-29" x1="56.42352" y1="101.04655" x2="56.42352" y2="6.30523" xlink:href="#linear-gradient"/>
    <linearGradient id="linear-gradient-30" x1="49.41435" y1="135.57875" x2="49.41435" y2="-3.02826" xlink:href="#linear-gradient"/>
    <linearGradient id="linear-gradient-31" x1="62.23759" y1="79.1001" x2="62.23759" y2="10.73622" xlink:href="#linear-gradient"/>
    <linearGradient id="linear-gradient-32" x1="65.36062" y1="46.43214" x2="65.36062" y2="16.96855" xlink:href="#linear-gradient"/>
    <linearGradient id="linear-gradient-33" x1="39.83407" y1="163.37304" x2="39.83407" y2="-14.56557" xlink:href="#linear-gradient"/>
    <linearGradient id="linear-gradient-34" x1="54.37539" y1="160.89584" x2="54.37539" y2="-13.67671" xlink:href="#linear-gradient"/>
    <linearGradient id="linear-gradient-35" x1="20.97871" y1="119.48107" x2="20.97871" y2="-43.07878" xlink:href="#linear-gradient"/>
    <linearGradient id="linear-gradient-36" x1="22.52225" y1="113.12238" x2="22.52225" y2="-37.55715" xlink:href="#linear-gradient"/>
  </defs>
  <g id="Whole_Shirt" data-name="Whole Shirt">
    <g>
      <g>
        <path class="cls-1" d="M23.86918,41.40484c-.01762.15564-.0323.30832-.044.464-.01174.1292-.02054.26134-.02936.39054-.0323.59314-.0323,1.18336-.00588,1.77064-.42284.23491-.8633.44928-1.31256.67243-.03817.01762-.13214.06755-.2496.1292a15.43855,15.43855,0,0,0-1.74128-3.02742,18.42817,18.42817,0,0,0-1.71191-1.55335A7.80662,7.80662,0,0,0,18.014,39.2231a3.22108,3.22108,0,0,0,.76053,1.02774,17.08543,17.08543,0,0,1,1.90278,5.33543,16.93981,16.93981,0,0,1-2.25809.65482c-.18205-.33475-.37293-.66362-.56084-.98664-.81633-1.39771-1.54749-2.84829-2.3227-4.27539a40.71962,40.71962,0,0,0-2.68093-4.16381c-.91028-1.26558-2.308-2.076-3.42383-3.14194q-.1806-.17177-.37-.34355A14.9422,14.9422,0,0,0,12.4055,32.951c.47569.45807.95725.79575,1.31844.70766-.11159-.31126-.24373-.61958-.38761-.92789.66069-.17032,1.31844-.3465,1.97619-.51975a1.31766,1.31766,0,0,0,.52269-.29364c1.568,1.8558,3.1713,3.68811,4.86853,5.41177A24.15543,24.15543,0,0,1,23.86918,41.40484Z"/>
        <path class="cls-2" d="M26.39741,34.65113c.03524.04406.07341.08809.10865.13214-.02936.04992-.06166.09983-.091.14682l-.0088.01762c-.047.07635-.094.14976-.13508.21729l-.00588.00882a.12138.12138,0,0,1-.02054.0323.21726.21726,0,0,0-.02056.03523l-.00294.00588c-.00881.01468-.01761.02936-.02643.0411-.091.14682-.17324.2819-.25547.40816-.01761.02643-.03229.05285-.047.07929a.178.178,0,0,0-.02056.02935c-.00881.01468-.01761.02938-.02643.047-.11159.17617-.21141.33473-.30244.48155-.01762.03232-.03818.06167-.05579.094-.06167.10278-.12041.19675-.17326.2907-.0088.0147-.01762.02937-.02642.047l-.00881.0088c-.01468.02644-.02642.04993-.04112.07341q-.08368.14978-.15856.29072c-.04111.07633-.07929.14974-.11452.22609l-.02642.05285c-.02056.04112-.03817.08517-.05873.12628v.00586l-.00588.00882c-.02056.047-.044.09689-.06459.14682-.39349-.417-.77227-.84274-1.13052-1.28908l-.10571-.13214c-.09691-.12333-.19085-.24665-.28188-.37293a.14912.14912,0,0,1-.02644-.03816l-.00294-.00294C22.73867,35.165,22.2571,34.425,21.755,33.70268c-.06753-.09984-.138-.19967-.20847-.29951-.09691-.13509-.19381-.27015-.29072-.40229-.05871-.08221-.12038-.1615-.18205-.24079-.19674-.26426-.40523-.52267-.62252-.77227-.09983-.12038-.20555-.23491-.31126-.34943-.7018-.75172-1.39772-1.50637-2.10245-2.24927l.185-.229c.32593-.40228.646-.80751.97488-1.20685q1.55922.46687,3.15075.8398c.40816.09691.81925.18793,1.22741.276-.0323.06167-.06753.12334-.09691.18794a3.19761,3.19761,0,0,0-.32887-.17618c.05579.15856.11158.31712.17325.47569v.00294c.07927.20554.1615.40815.24959.60782q.30391.70035.66951,1.36249A20.04918,20.04918,0,0,0,26.39741,34.65113Z"/>
        <path class="cls-3" d="M27.10509,30.57835a18.88084,18.88084,0,0,1-.12334,1.891q-.03081.27309-.07047.53737c-.044-.047-.08809-.094-.12626-.14388h-.00294c-.19086-.21731-.37291-.44634-.55205-.68125a20.637,20.637,0,0,0-1.72952-2.123q.94257-.11012,1.88516-.22315c.19086.19673.38173.40228.57846.60195l.00294.00294C27.01113,30.48733,27.0581,30.5343,27.10509,30.57835Z"/>
        <path class="cls-4" d="M4.44492,44.60258a.62244.62244,0,0,0-.082.28108c.11838.28512.2276.57466.33325.8659a2.058,2.058,0,0,0,.82052.70882,8.66258,8.66258,0,0,0,3.897.14154c-1.39931-1.909-2.73271-3.863-4.05651-5.83231A10.21751,10.21751,0,0,1,4.44492,44.60258Z"/>
        <path class="cls-5" d="M6.34,36.01619a19.39253,19.39253,0,0,1-1.67055-2.15814A1.61143,1.61143,0,0,0,3.978,35.10041,9.7602,9.7602,0,0,1,5.1748,38.26687,42.51193,42.51193,0,0,0,8.29256,41.4492c1.1181,1.07878,1.88759,2.45493,3.03839,3.49253a8.02593,8.02593,0,0,1,1.04252,1.172c.04205.0036.08377.0052.126.00991a35.05017,35.05017,0,0,0,4.31858.28722c-1.25308-1.19543-2.59046-2.30106-3.85793-3.53405C10.6775,40.66257,8.41282,38.41235,6.34,36.01619Z"/>
        <path d="M4.69619,45.74956c-.10565-.29124-.21487-.58078-.33325-.8659A1.42711,1.42711,0,0,0,4.69619,45.74956Z"/>
        <path d="M30.39531,23.4696c-.09922-.071-.06378-.04543,0,0Z"/>
        <path d="M13.72433,33.65739c-.11244-.311-.244-.61973-.38823-.92629-.02936.00752-.05848.01562-.08786.02312-.2765.07066-.55867.13565-.8429.19736C12.88044,33.40974,13.36407,33.7467,13.72433,33.65739Z"/>
        <path d="M27.111,29.718c.00294.29364.00294.5814-.00586.86036-.047-.044-.094-.091-.138-.138l-.00294-.00294c-.19673-.19967-.3876-.40522-.57846-.60195-.091-.09691-.17911-.18794-.27308-.279.28482.04992.56966.09689.85448.138C27.01407,29.70331,27.061,29.71211,27.111,29.718Z"/>
        <path d="M15.53483,40.98a40.15717,40.15717,0,0,0-2.68093-4.16465c-.90985-1.26569-2.30636-2.07555-3.42163-3.14132-.12181-.116-.246-.22987-.37027-.34363a9.465,9.465,0,0,1-1.19617-.08575,4.58415,4.58415,0,0,0-3.19635.61344A19.39253,19.39253,0,0,0,6.34,36.01619c2.07279,2.39616,4.33747,4.64638,6.62009,6.86061,1.26747,1.233,2.60485,2.33862,3.85793,3.53405.29606-.00621.58179-.01876.84065-.04643.24679-.02633.50408-.06959.76144-.12238-.18218-.33557-.373-.66389-.56195-.9877C17.04181,43.85664,16.31113,42.40658,15.53483,40.98Z"/>
        <path d="M11.331,44.94173c-1.1508-1.0376-1.92029-2.41375-3.03839-3.49253A42.51193,42.51193,0,0,1,5.1748,38.26687,10.63761,10.63761,0,0,1,5.36989,40.292c0,.15978-.00579.31791-.01271.47566,1.3238,1.96927,2.6572,3.92327,4.05651,5.83231.17039-.03961.33982-.0856.50761-.14154a5.99465,5.99465,0,0,1,2.45217-.34466A8.02593,8.02593,0,0,0,11.331,44.94173Z"/>
        <path d="M24.80883,37.705c-.06755.1615-.13508.33474-.20555.53149-.05873.16444-.11453.32887-.16444.49331-.02643.07929-.04991.15562-.07341.232-.01762.06461-.03817.13214-.05579.19967-.0323.10279-.05873.20555-.08515.30834-.05285.20553-.09985.40814-.1439.61369v.01174c-.01762.07929-.03229.15858-.047.23787-.0088.044-.01762.08809-.02644.12918-.01468.08223-.02936.16446-.04109.24667-.01762.10276-.03232.20555-.047.31125-.01761.12921-.03523.25547-.04991.38467a24.15543,24.15543,0,0,0-3.16544-4.07572c-1.69723-1.72366-3.30051-3.556-4.86853-5.41177.02641-.02056.05285-.044.07927-.06753.56086-.53737,1.01894-1.15988,1.52107-1.74128.20553-.23785.4052-.47864.602-.71942.70473.7429,1.40065,1.49755,2.10245,2.24927,1.30964,1.40066,2.25221,3.13315,3.43265,4.64538C23.96021,36.77708,24.37717,37.24691,24.80883,37.705Z"/>
        <path d="M26.91128,33.00676c-.01762.1145-.03523.229-.05579.34061a14.05847,14.05847,0,0,1-.34355,1.42709l-.00588.00881c-.03524-.044-.07341-.08808-.10865-.13214a20.04918,20.04918,0,0,1-2.1553-3.12139q-.36559-.66069-.66951-1.36249c-.08809-.19967-.17032-.40228-.24959-.60782v-.00294c-.06167-.15857-.11746-.31713-.17325-.47569a3.19761,3.19761,0,0,1,.32887.17618,5.28122,5.28122,0,0,1,1.02188.80163,20.637,20.637,0,0,1,1.72952,2.123c.17914.23491.36119.46394.55205.68125H26.785C26.82319,32.91279,26.86725,32.95977,26.91128,33.00676Z"/>
        <path d="M18.77472,40.25115a8.03166,8.03166,0,0,0-.75976-1.028A3.22512,3.22512,0,0,0,18.77472,40.25115Z"/>
        <path d="M18.77472,40.25115a17.05035,17.05035,0,0,1,1.90274,5.33641c.15908-.05666.26982-.09755.30818-.10994.08665-.02964.83048-.42854,1.24176-.64556A15.345,15.345,0,0,0,20.487,41.80532,18.257,18.257,0,0,0,18.77472,40.25115Z"/>
      </g>
      <g>
        <path class="cls-6" d="M5.1748,38.26687A9.7602,9.7602,0,0,0,3.978,35.10041q-.39846.10031-.79511.19878a25.78128,25.78128,0,0,0,1.85038,2.80552C5.07874,38.16034,5.12867,38.21187,5.1748,38.26687Z"/>
        <path class="cls-7" d="M2.72713,40.292c0,.34928-.01813.69344-.05095,1.03237.54787,1.05467,1.06932,2.12412,1.54012,3.2231.07624.01826.15232.0372.22862.05516a10.21751,10.21751,0,0,0,.91226-3.835Q4.60795,39.653,3.85785,38.535c-.66594-.98863-1.36924-1.94345-2.09232-2.88019-.03561.00914-.07171.01778-.10725.027A10.25917,10.25917,0,0,1,2.72713,40.292Z"/>
        <path d="M2.06938,43.95363c.70647.23373,1.42513.42094,2.14692.59379-.4708-1.099-.99225-2.16843-1.54012-3.2231A10.224,10.224,0,0,1,2.06938,43.95363Z"/>
        <path d="M5.35718,40.76761c.00692-.15775.01271-.31588.01271-.47566a10.63761,10.63761,0,0,0-.19509-2.02508c-.04613-.055-.09606-.10653-.14149-.16216a25.78128,25.78128,0,0,1-1.85038-2.80552q-.2482.06187-.49691.12422-.46157.11439-.92049.23143c.72308.93674,1.42638,1.89156,2.09232,2.88019Q4.60927,39.65279,5.35718,40.76761Z"/>
      </g>
    </g>
    <g>
      <g>
        <path class="cls-8" d="M64.84657,24.79071c-.25546.00588-.51093.00882-.76345.01176h-.00294c-.18794.00294-.37293.00586-.55793.00586q-1.31256.00882-2.61926-.01762.98223-.45807,1.94684-.95433c.2349-.12038.46689-.24076.69886-.367.11158-.05579.22317-.11744.33475-.17911.20848.36117.40815.7253.64307,1.06885.02642.04112.0558.08221.08515.12039h.00294c.03818.05873.07929.11746.12333.17325.02937.03524.05579.07047.08515.10865A.256.256,0,0,1,64.84657,24.79071Z"/>
        <path class="cls-9" d="M70.73992,31.99958c-.0235.00292-.04991.0088-.07341.01174a28.98018,28.98018,0,0,1-5.98732.276c-1.31843-.04992-2.64275-.14388-3.93769-.22905-.70768-.047-1.40653-.08809-2.09072-.12038q-.84567-.03966-1.68548-.08809-1.45354-.08369-2.8953-.185-1.04389-.07048-2.0819-.14682c-2.04373-.14975-4.07278-.30245-6.09008-.4199-.18793-.01176-.3788-.02349-.56966-.03523a38.44725,38.44725,0,0,0-4.31356-.10573c-.2907.0147-.58142.03524-.86918.06461-.01174,0-.02642.00294-.03818.00294.09985-.17913.19967-.367.29364-.56086.02938-.05873.05873-.11451.08809-.17618.01762-.03523.03523-.07341.05579-.11158q1.546-.12772,3.0891-.34061,1.74863-.23787,3.48843-.57848,1.29936-.25107,2.57815-.56085.8589-.20262,1.70312-.4346c.138-.03523.27309-.07341.40815-.11158.20261-.05579.40522-.11158.6049-.17324q.87653.0132,1.756.01174c1.34488.01176,2.69561.00588,4.04635-.02642.21729-.00294.43165-.00881.646-.01469.42578-.01174.85156-.02348,1.2744-.0411q.92055-.03523,1.83525-.091c.08515.0088.16737.01762.24958.02348a4.86952,4.86952,0,0,0,1.32432-.13506q1.42708-.11894,2.83655-.3054c.12626.14976.25546.29658.39348.4346.06168.06459.12627.12626.19088.185l.0088.0088c.06167.05579.12626.10864.19087.15855.07047.05874.14682.11159.22315.16444a3.57017,3.57017,0,0,1,.85156.84276,10.51521,10.51521,0,0,0,1.06885,1.18924c.094.094.18794.19086.279.28776.06459.06753.1292.13508.18791.20261.091.09691.18206.19674.26722.29952.11453.1292.229.26133.34062.39641a.02932.02932,0,0,1,.01175.01468c.01762.02055.03524.04405.05286.06755h.00294C70.549,31.76465,70.646,31.88211,70.73992,31.99958Z"/>
        <path class="cls-10" d="M66.546,42.6474l-.00486-.00007.993.02641C67.47979,42.67227,66.95807,42.65837,66.546,42.6474Z"/>
        <path class="cls-11" d="M67.81066,35.26117c-.80624.117-1.45005.12274-2.25089.31506a2.90718,2.90718,0,0,1-1.83777.09257c-.97191-.38352-.60275.37646-1.56131.53378a3.15632,3.15632,0,0,1-1.46656-.20195A27.2282,27.2282,0,0,0,57.29,34.64753c-3.92645-.72854-7.827-.78426-11.611-1.64172a55.53754,55.53754,0,0,0-6.06669-1.1547A15.77225,15.77225,0,0,1,36.892,34.987c1.635.04558,3.27438.09259,4.927.09061a20.70434,20.70434,0,0,1,6.54218.6919c-4.76821.281-9.128,1.54261-13.87,2.418q-.76392.14182-1.53152.28227c-.34086.32553-.68908.6706-1.0448,1.04109-.52867.548-1.071,1.15614-1.63068,1.83371,1.74131-.19154,3.48276-.2819,5.19264-.641a39.34752,39.34752,0,0,1,7.36314-.468c2.49328-.029,4.67979-1.345,7.11308-1.31221a74.27262,74.27262,0,0,1,7.6014.02152,44.18591,44.18591,0,0,0,7.89158.32045,79.63564,79.63564,0,0,0-11.68068,1.7734c-1.78179.37246-3.54533.88036-5.35942,1.19142-1.78211.30515-3.62406.1865-5.42683.38917-4.84138.54037-9.67987.85961-14.52631,1.11495-.61993.873-1.28039,1.87292-1.95263,3.006.24664.00294.49625.00588.74583.01175a36.95565,36.95565,0,0,1,7.5462.95315c.917.11811,1.83851.22561,2.77046.2997,2.70254.21537,5.1198-.3939,7.7765-.63556,2.789-.25237,5.59528-.10849,8.39919-.08288a39.31831,39.31831,0,0,1,7.32577.26866,29.32023,29.32023,0,0,0,8.1863.74472c-1.33217.68532-3.80285.46939-5.3503.5794-2.278.16015-4.535.46938-6.81013.69608-4.38063.43492-8.82164.6292-13.2171,1.152,1.9665.77543,3.931,1.55624,6.0135,2.2361,1.40332.00857,2.80673.07429,4.2217.02753,2.45738-.08241,4.9145-.16772,7.36127-.33427a124.15448,124.15448,0,0,1,14.32977-.52529c.50516.02347,1.011.05858,1.51713.09964.5543-.20194,1.11378-.4129,1.68371-.64277a3.473,3.473,0,0,1-.972-1.82057,19.98392,19.98392,0,0,0-.62251-2.63688c-.07377-.226-.14309-.45324-.21292-.68033-.79812-.31509-1.59562-.62888-2.40263-.9226a24.79311,24.79311,0,0,0-7.24826-1.16c-2.71826-.14056-5.442-.38237-8.13572-.38255a21.41879,21.41879,0,0,1-5.365-.29056c2.22929-.08676,4.5015-.0812,6.70982-.32751a41.78052,41.78052,0,0,1,5.79031-.7199c-.82874-.02208-.49134-.01321.00486.00007,2.01694.05317,3.93184-.42849,5.938-.42137a15.74689,15.74689,0,0,1,3.62848.613,17.54653,17.54653,0,0,1-.67438-2.81429,4.67234,4.67234,0,0,0-.18327-.7991,25.80722,25.80722,0,0,0-2.71362.1663,4.13732,4.13732,0,0,1,2.47127-.83776,19.85883,19.85883,0,0,0-1.97341-3.70043,8.79669,8.79669,0,0,0-.62542-.84057c-.64859.1418-.99906.65952-1.62682.87651A17.28586,17.28586,0,0,1,67.81066,35.26117Z"/>
        <path d="M63.90015,48.87921c1.54745-.11,4.01813.10592,5.3503-.5794a29.32023,29.32023,0,0,1-8.1863-.74472,39.31831,39.31831,0,0,0-7.32577-.26866c-2.80391-.02561-5.61017-.16949-8.39919.08288-2.6567.24166-5.074.85093-7.7765.63556-.932-.07409-1.85343-.18159-2.77046-.2997a62.99635,62.99635,0,0,1,9.08069,3.02215c4.39546-.52283,8.83647-.71711,13.2171-1.152C59.36515,49.34859,61.62216,49.03936,63.90015,48.87921Z"/>
        <path d="M48.3612,35.76949a20.70434,20.70434,0,0,0-6.54218-.6919c-1.65263.002-3.292-.045-4.927-.09061-1.17753,1.07946-2.48823,2.10376-3.9323,3.48279q.767-.14056,1.53152-.28227C39.23319,37.3121,43.593,36.05044,48.3612,35.76949Z"/>
        <path d="M48.406,42.2302c1.81409-.31106,3.57763-.819,5.35942-1.19142a79.63564,79.63564,0,0,1,11.68068-1.7734,44.18591,44.18591,0,0,1-7.89158-.32045,74.27262,74.27262,0,0,0-7.6014-.02152c-2.43329-.0328-4.6198,1.2832-7.11308,1.31221a39.34752,39.34752,0,0,0-7.36314.468c-1.70988.35909-3.45133.44945-5.19264.641-.03409.04127-.06759.08013-.1018.12194-.51441.62822-1.10118,1.38282-1.7296,2.26781,4.84644-.25534,9.68493-.57458,14.52631-1.11495C44.78191,42.4167,46.62386,42.53535,48.406,42.2302Z"/>
        <path d="M66.54116,42.64733l.00486.00007C66.04982,42.63412,65.71242,42.62525,66.54116,42.64733Z"/>
        <path d="M66.546,42.6474c.41205.011.93377.02487.98811.02634l-.993-.02641a41.78052,41.78052,0,0,0-5.79031.7199c-2.20832.24631-4.48053.24075-6.70982.32751a21.41879,21.41879,0,0,0,5.365.29056c2.69369.00018,5.41746.242,8.13572.38255a24.79311,24.79311,0,0,1,7.24826,1.16c.807.29372,1.60451.60751,2.40263.9226-.32215-1.04763-.61235-2.10431-.93814-3.15166q-.0714-.2299-.14195-.4598a15.74689,15.74689,0,0,0-3.62848-.613C70.47786,42.21891,68.563,42.70057,66.546,42.6474Z"/>
        <path d="M61.46939,52.65668c-2.44677.16655-4.90389.25186-7.36127.33427-1.415.04676-2.81838-.019-4.2217-.02753a39.04371,39.04371,0,0,0,10.83452,2.01051A42.79936,42.79936,0,0,0,77.31629,52.231c-.50617-.04106-1.012-.07617-1.51713-.09964A124.15448,124.15448,0,0,0,61.46939,52.65668Z"/>
        <path d="M66.38524,27.39823q-1.40944.185-2.83655.3054a4.86952,4.86952,0,0,1-1.32432.13506c-.08221-.00586-.16443-.01468-.24958-.02348q-.91617.05727-1.83525.091c-.42284.01762-.84862.02936-1.2744.0411-.21436.00588-.42872.01175-.646.01469-1.35074.0323-2.70147.03818-4.04635.02642q-.88092,0-1.756-.01174c.37-.1057.74-.21729,1.107-.33181q1.44473-.44487,2.863-.97195.69592-.25547,1.383-.53148c.72822-.28484,1.44764-.59022,2.16412-.90736.23491-.1057.46981-.21141.7018-.32006.091-.04111.17912-.08222.2672-.12334q1.30818.02643,2.61926.01762c.185,0,.37-.00292.55793-.00586h.00294c.25252-.00294.508-.00588.76345-.01176.07635.09985.15564.19969.23491.29658.07049.08809.1439.17326.21731.25547a1.34128,1.34128,0,0,1,.40814.94259v.01173a.77732.77732,0,0,0,.20262.52857C66.071,27.01651,66.22374,27.21032,66.38524,27.39823Z"/>
        <path d="M75.25488,39.22563q-.04394-.14035-.09275-.27855c-.04737-.13225-.09861-.26251-.1496-.39291a4.13732,4.13732,0,0,0-2.47127.83776A25.80722,25.80722,0,0,1,75.25488,39.22563Z"/>
        <path d="M58.65059,31.93775c-4.31014-.19884-8.55761-.59693-12.75187-.8401a36.69971,36.69971,0,0,0-5.75321-.07735l-.03923.00509q-.24069.43428-.494.82572a55.53754,55.53754,0,0,1,6.06669,1.1547c3.78408.85746,7.68459.91318,11.611,1.64172a27.2282,27.2282,0,0,1,3.40413,1.3531,3.15632,3.15632,0,0,0,1.46656.20195c.95856-.15732.5894-.9173,1.56131-.53378a2.90718,2.90718,0,0,0,1.83777-.09257c.80084-.19232,1.44465-.198,2.25089-.31506a17.28586,17.28586,0,0,0,2.97622-.37149c.62776-.217.97823-.73471,1.62682-.87651-.10015-.11836-.20282-.23455-.31129-.34572a10.9517,10.9517,0,0,1-.71354-.85156q-.32158-.4106-.64883-.81705l-.07495.01337C66.86167,32.66923,62.537,32.11351,58.65059,31.93775Z"/>
      </g>
      <g>
        <path class="cls-12" d="M11.4026,44.85536q-.62068,1.0223-1.15662,2.0904c.85608-.03023,1.70456-.01385,2.49684-.046,2.56239-.10566,5.07381-.32981,7.626-.2866,1.25078.02135,2.5011.05036,3.7505.09361a19.17367,19.17367,0,0,1-.33063-2.74133q-1.73615.08226-3.47418.16454C17.35165,44.27281,14.38063,44.5457,11.4026,44.85536Z"/>
        <path class="cls-13" d="M26.96707,29.765c.00294.229,0,.45221-.00294.67244q-.00879.41844-.02641.81045l-.00882.138c-.02056.35531-.047.69593-.08809,1.02774-.00294.044-.0088.091-.01468.13508-.01174.10571-.02643.21141-.04111.3142h-.00294q-.03084.23343-.07047.45808c-.07047.39346-.17912.84568-.3142,1.33017-.047.1615-.09689.33182-.14682.50213l-.02642.08809-.00294.00588c-.00881.01468-.01761.02936-.02643.0411-.96313.14682-1.92628.3788-2.8894.61959a.02656.02656,0,0,0-.01468.00292c-.15858.03817-.32008.07929-.47864.1204-.185.04406-.37292.091-.55792.13508h-.00294c-.59022.14682-1.18043.28189-1.77063.39347-.14682.02644-.29072.05579-.43754.08515-.57846.11746-1.15986.24079-1.74128.36413q.5462-.43608,1.11-.84863c.03524-.02349.06753-.04991.10277-.07341a.50511.50511,0,0,1,.04111-.02937c.17618-.12626.35531-.25253.53443-.37291a.27575.27575,0,0,1,.05285-.03524c.19968-.138.39935-.27016.602-.40228a1.3522,1.3522,0,0,0,.48157-.47277.81169.81169,0,0,0,.0646-.13507l.00294-.00587a1.27151,1.27151,0,0,0,.07634-.33476,2.83839,2.83839,0,0,1,.03818-.28188c.01468-.094.03229-.185.05285-.276.09691-.01176.19674-.02644.29364-.03818.4757-.06755.95727-.14388,1.39773-.24372a3.13526,3.13526,0,0,0,1.68843-.71942,22.93088,22.93088,0,0,0-2.97751-.19968c.04111-.094.08222-.18793.12626-.279s.08811-.185.13508-.276c.06167-.12038.12332-.24371.182-.36411.10571-.21141.2085-.42284.31126-.63425.12333-.24961.24373-.50213.36705-.75172.19674-.0235.39055-.044.58728-.06755.30832-.03523.61958-.07341.92791-.10864q.94257-.11012,1.88516-.22315Z"/>
        <path class="cls-14" d="M14.23268,40.95229q-.91893,1.0731-1.72255,2.20917c.4234-.00392.84923-.01365,1.28136-.03821,2.38175-.13678,4.82677-.02923,7.21031-.28595.9325-.10106,1.86151-.23548,2.78775-.38773.01819-.39585.048-.79217.09725-1.18861.05364-.42909.13083-.85862.22421-1.28765-1.40171.213-2.80616.41279-4.21222.59088A36.37945,36.37945,0,0,1,14.23268,40.95229Z"/>
        <path class="cls-15" d="M8.70269,50.60163A48.52,48.52,0,0,1,14.2893,48.5441a35.04447,35.04447,0,0,0-4.44648-.76559Q9.20565,49.15412,8.70269,50.60163Z"/>
        <path class="cls-16" d="M13.57973,48.37824c-.06043-.0141-.05168-.012,0,0Z"/>
        <path class="cls-17" d="M14.29238,48.54318l.00007,0c-.119-.02763-.24939-.05783-.37244-.08624C14.01867,48.47986,14.14658,48.50938,14.29238,48.54318Z"/>
        <path d="M24.11877,46.708q-1.872-.066-3.74977-.094c-2.55173-.044-5.06234.17914-7.62583.28484-.79283.0323-1.64143.01762-2.49593.047-.05873.1204-.12039.23785-.17912.35825-.07635.15856-.1527.31712-.22611.47569.3465.0323.693.07341,1.03656.12039.094.01468.18793.02643.28188.04111.00882,0,.01764.00294.02644.00294s.01762.00294.02643.00294c.0411.00586.08221.01174.12333.02056.138.02054.27308.044.41108.06459l.01176.00294c.02936.00294.06165.0088.091.01468s.05579.00881.08514.01467a.073.073,0,0,0,.0235.00294c.044.00882.08809.01468.1292.0235.20849.03817.417.07635.62252.11744q.24225.04407.48451.09691c.18205.03524.36117.07341.54323.11452.06167.01174.12038.0235.18205.03818.05579.01468.11159.02642.16738.03817a.05464.05464,0,0,1,.02055.00586c.05874.01176.11745.02644.17618.04112h.00882c.16444-.04992.32887-.09691.49625-.14682.02348-.00588.044-.01468.06459-.01762.18794-.05579.37881-.10864.56966-.15856.19088-.05285.38467-.10278.57848-.1527.42577-.10864.85743-.21435,1.295-.31125.32593-.07341.65775-.14388.9925-.21142.16738-.03231.33475-.06461.505-.0969.33769-.06461.67832-.12333,1.02188-.17912.08515-.01175.17031-.02643.2584-.04111.43164-.06753.86916-.1292,1.30962-.18206.04112-.00587.08223-.01175.12627-.01467.21436-.02644.43165-.04994.64895-.07341.20261-.02056.40816-.04112.61371-.05874.11451-.01175.232-.02055.34943-.02937.14974-.01174.30244-.02348.45514-.0323.185-.01468.37-.02641.5579-.03523Z"/>
        <path d="M24.84055,32.74052a22.85915,22.85915,0,0,0-2.97695-.20076c-.07024.161-.13691.3231-.19672.48756a5.90488,5.90488,0,0,0-.2061.71336C22.88051,33.5583,24.45818,33.26441,24.84055,32.74052Z"/>
        <path d="M18.30064,37.00982a30.03531,30.03531,0,0,0-3.38159,3.16467c-.23473.256-.46218.516-.68637.7778a36.37945,36.37945,0,0,0,5.66611-.3881c1.40606-.17809,2.81051-.37791,4.21222-.59088a13.94621,13.94621,0,0,1,.49227-1.73683A13.35526,13.35526,0,0,1,26.1958,35.288c-1.8989.28986-3.79885.90827-5.71543,1.27258C19.7571,36.69906,19.02975,36.85492,18.30064,37.00982Z"/>
        <path d="M13.79149,43.12325c-.43213.02456-.858.03429-1.28136.03821q-.58545.82974-1.10753,1.6939c2.978-.30966,5.94905-.58255,8.91186-.72536q1.73835-.08293,3.47418-.16454-.03447-.75527.00091-1.51589c-.92624.15225-1.85525.28667-2.78775.38773C18.61826,43.094,16.17324,42.98647,13.79149,43.12325Z"/>
        <path d="M26.65875,29.72093a.08.08,0,0,1-.03229.08515,6.96131,6.96131,0,0,1-2.126.25253c-.30833.03523-.61959.07341-.92791.10864-.19673.0235-.39054.04405-.58728.06755.10865-.22611.22317-.45222.33769-.67537v-.00294c.02056-.04111.12921-.2496.25547-.48745.84274.18206,1.68549.34357,2.53411.48745.16738.02936.33475.05874.50505.08221v.00294A.20576.20576,0,0,1,26.65875,29.72093Z"/>
        <path d="M26.96707,29.6945a.28262.28262,0,0,1,0,.07047c-.11452.01469-.22609.02643-.34061.04111-.07929.00882-.1615.02056-.24079.02938-.091-.09691-.17911-.18794-.27308-.279.16738.02936.33475.05874.50505.08515l.12334.01762C26.81439,29.67394,26.89072,29.6857,26.96707,29.6945Z"/>
      </g>
    </g>
    <g>
      <g>
        <path class="cls-18" d="M70.84562,24.50295c-.48155.05285-.95432.11159-1.40652.13214-1.53281.07047-3.07734.07341-4.616.12627-.047,0-.094,0-.141.00294-.19085.00587-.38172.01467-.5726.02055h-.00292c-.19381.0088-.39054.01468-.58436.02348-.96312.03525-1.92333.07049-2.88646.10572.44926-.20555.89266-.417,1.33606-.63721.29364-.14388.58728-.2907.878-.44046s.5814-.30244.86624-.45513c.05579-.02936.11158-.06166.16737-.091.09689-.04991.1938-.10277.2907-.15562.23491-.12626.46982-.25547.70181-.38761.16735-.0969.33473-.19087.50211-.2907a.1878.1878,0,0,0,.04111-.02349c.21435-.12333.42872-.24961.64013-.37587.22611-.13506.4522-.27014.67537-.40815.17326-.10572.34357-.21143.51681-.32007q.12334-.07487.24666-.15856c.18792-.11746.37585-.24079.56379-.36411h.00294V20.809c.05285.07341.0969.1439.14388.21731a16.719,16.719,0,0,0,2.5899,3.42677A.38775.38775,0,0,1,70.84562,24.50295Z"/>
        <path class="cls-19" d="M64.36317,49.11845c-.555-.00652-1.1085-.00127-1.661.0114a10.64571,10.64571,0,0,1,1.54241,1.26329,3.91346,3.91346,0,0,1,.76457,1.16589c1.62009.18829,3.23674.4047,4.84373.74739.17746.03778.35414.08069.53078.12372.42494-.73257,1.21595-1.97543,2.0643-3.2638C69.7586,49.20079,67.06776,49.15274,64.36317,49.11845Z"/>
        <path class="cls-20" d="M61.93356,30.27534c-.04563-.02846.00131.02142,0,0Z"/>
        <path class="cls-21" d="M65.848,26.28047c-2.47759.06721-4.72521,1.04982-7.17184,1.30444.308.58814.61056,1.17836.9002,1.77438a7.53563,7.53563,0,0,1,2.35716.916c.00825.13184-.73626.24539-1.77579.33965.2203.50249.42852,1.0106.616,1.52847.09988.2762.20478.55025.30888.82443,2.24982-.52149,4.54938-.82538,6.86179-1.16519,1.8944-.28161,3.857-.07418,5.77141-.1858a25.71143,25.71143,0,0,0,2.64976-.32832,15.47082,15.47082,0,0,0-1.91116-2.59539c-.10184-.11289-.20107-.228-.30226-.34145a18.05949,18.05949,0,0,1-6.6036-.47955c1.61576-.92917,3.63229-.62338,5.41633-.869q-.41242-.47477-.82435-.94983c-.19858-.2266-.38234-.467-.56789-.70584-.65587.1715-1.34841.24043-1.981.36114A23.11133,23.11133,0,0,1,65.848,26.28047Z"/>
        <path class="cls-22" d="M63.70155,45.64455a13.14349,13.14349,0,0,1-4.79218-.12668c-.19926-.04986-.39865-.10253-.59818-.15664-.35108,1.08583-.34841,1.96585.228,2.17775a8.90027,8.90027,0,0,1,1.26069.25048c.08374.00177.16706.00681.251.00665,1.52544-.00459,3.11641.23073,4.62629.11063a39.64585,39.64585,0,0,0,4.60422-.78069c1.52309-.30678,3.09271-.15774,4.60048-.51484.10766-.02568.21935-.04269.32959-.06286.03671-.05306.0749-.10873.11081-.16044.51387-.74291,1.12757-1.41534,1.63264-2.1612.20164-.29813.385-.60213.55441-.91049-1.12257.26869-2.24712.55353-3.40042.78092C69.98976,44.71669,66.85115,45.301,63.70155,45.64455Z"/>
        <path class="cls-23" d="M72.94515,34.57337c-3.64615.63733-7.36729.94809-11.057,1.28139a9.47628,9.47628,0,0,1,.066,1.9542,15.86317,15.86317,0,0,1,4.00369.41933c-.31413.83072-3.02933.86176-3.72052.95164-.175.02249-.35049.04272-.52581.06366a4.10238,4.10238,0,0,1-.63527,1.77952,9.22,9.22,0,0,0-1.33337,1.544c1.27975-.15437,2.52694-.53509,3.78912-.798,1.51079-.31185,2.97085-1.00057,4.52934-1.02977a40.158,40.158,0,0,1,4.95032.16129c1.4496.15449,2.894.34624,4.34182.47341a12.53872,12.53872,0,0,0,.56408-2.76839,13.0658,13.0658,0,0,0-3.66406-.78494,3.22542,3.22542,0,0,1-1.27759.04084,8.02957,8.02957,0,0,1,1.27759-.04084,18.25339,18.25339,0,0,1,2.25191-.52543,9.48177,9.48177,0,0,1,1.471.01993,12.92852,12.92852,0,0,0-.39941-3.04766A23.35772,23.35772,0,0,0,72.94515,34.57337Z"/>
        <path d="M65.00918,51.559c.51676,1.11787.782,2.39,1.746,2.77769a3.02647,3.02647,0,0,0,3.36217-1.41827c.05424-.11414.14722-.283.26629-.48831-.17664-.043-.35332-.08594-.53078-.12372C68.24592,51.96373,66.62927,51.74732,65.00918,51.559Z"/>
        <path d="M61.93356,30.27534c.00131.02142-.04563-.02846,0,0a7.53563,7.53563,0,0,0-2.35716-.916q.30249.62247.58137,1.2557C61.1973,30.52073,61.94181,30.40718,61.93356,30.27534Z"/>
        <path d="M65.95785,38.22829a15.86317,15.86317,0,0,0-4.00369-.41933,7.34661,7.34661,0,0,1-.19666,1.24089c-.01551.06178-.03072.12794-.046.19374.17532-.02094.3508-.04117.52581-.06366C62.92852,39.09005,65.64372,39.059,65.95785,38.22829Z"/>
        <path d="M71.57386,25.34864c-.65776.17031-1.35075.24078-1.98206.36117a22.91639,22.91639,0,0,1-3.74391.56966c-.047,0-.094.00294-.141.00588-.21141.0088-.4199.02349-.62837.044-.08517.0088-.16738.01762-.24961.02642-.138.01761-.27308.03523-.40816.05579-.13212.02056-.26133.04111-.39347.06461-.14976.02642-.29951.05579-.44633.08515h-.00294c-.14388.02935-.28483.05873-.42577.091-.15563.03523-.31127.07047-.46983.1057-.19673.047-.39641.09691-.59316.14388-.09395.0235-.185.047-.27894.06755-.14682.03524-.29658.07341-.4434.10865s-.29658.07341-.4434.1057c-.00588.00294-.01468.00294-.02056.00588-.14094.0323-.2819.06459-.42284.094-.13214.02935-.2672.05871-.40228.08515-.16444.03229-.32888.06459-.49331.091-.14976.02644-.29952.04992-.4522.07047-.14976.02056-.30246.04112-.45516.0558l-.185-.35237a6.6319,6.6319,0,0,0-.66949-.99543.44112.44112,0,0,1-.05285-.0969c.18205-.07048.36411-.14389.54322-.2173q1.17163-.47569,2.3227-1.01012c.96313-.03523,1.92334-.07047,2.88646-.10572.19382-.0088.39055-.01468.58436-.02348h.00292c.19088-.00588.38175-.01468.5726-.02055.047-.00294.094-.00294.141-.00294,1.53868-.05286,3.08321-.0558,4.616-.12627.4522-.02055.925-.07929,1.40652-.13214.06755.06461.13215.13214.19382.19967.06459.07048.12332.141.185.21143C71.34482,25.055,71.45934,25.20182,71.57386,25.34864Z"/>
        <path d="M68.06134,40.73933c-1.55849.0292-3.01855.71792-4.52934,1.02977-1.26218.2629-2.50937.64362-3.78912.798a11.04342,11.04342,0,0,0-1.43169,2.79414c.19953.05411.39892.10678.59818.15664a13.14349,13.14349,0,0,0,4.79218.12668c3.1496-.3435,6.28821-.92786,9.4074-1.54741,1.1533-.22739,2.27785-.51223,3.40042-.78092a11.41913,11.41913,0,0,0,.84411-1.94219c-1.44779-.12717-2.89222-.31892-4.34182-.47341A40.158,40.158,0,0,0,68.06134,40.73933Z"/>
        <path d="M69.28144,47.12605a39.64585,39.64585,0,0,1-4.60422.78069c-1.50988.1201-3.10085-.11522-4.62629-.11063-.084.00016-.1673-.00488-.251-.00665a9.84573,9.84573,0,0,1,2.90231,1.34039c.55247-.01267,1.106-.01792,1.661-.0114,2.70459.03429,5.39543.08234,8.08482.04789.59807-.90825,1.22126-1.8339,1.76352-2.618-.11024.02017-.22193.03718-.32959.06286C72.37415,46.96831,70.80453,46.81927,69.28144,47.12605Z"/>
        <path d="M67.94446,31.8027c-2.31241.33981-4.612.6437-6.86179,1.16519a12.976,12.976,0,0,1,.73648,2.42616q.03863.23069.069.46071c3.68969-.3333,7.41083-.64406,11.057-1.28139a23.35772,23.35772,0,0,1,4.63182-.30583c-.01891-.07574-.0368-.15162-.05691-.22718a11.36244,11.36244,0,0,0-1.15443-2.75178,25.71143,25.71143,0,0,1-2.64976.32832C71.80146,31.72852,69.83886,31.52109,67.94446,31.8027Z"/>
        <path d="M74.15221,28.35174q-.59811-.6705-1.18727-1.34853c-1.784.2456-3.80057-.06019-5.41633.869A18.05949,18.05949,0,0,0,74.15221,28.35174Z"/>
        <path d="M72.97591,37.86154a3.22542,3.22542,0,0,0,1.27759-.04084A8.02957,8.02957,0,0,0,72.97591,37.86154Z"/>
        <path d="M76.50541,37.29527a18.25339,18.25339,0,0,0-2.25191.52543,13.0658,13.0658,0,0,1,3.66406.78494c.03321-.36011.05434-.7237.06058-1.09152.00066-.06648-.00129-.13261-.00176-.19892A9.48177,9.48177,0,0,0,76.50541,37.29527Z"/>
      </g>
      <g>
        <path class="cls-24" d="M61.367,51.38262a29.05454,29.05454,0,0,1,3.24416.12915c.22523.02557.45019.05349.67527.08018a10.603,10.603,0,0,0-2.5842-2.4621c-1.60957.03694-3.20962.14492-4.80706.26943-.02573.07789-.05285.15537-.0783.23335A9.91226,9.91226,0,0,1,61.367,51.38262Z"/>
        <path class="cls-25" d="M58.5392,47.539c-.01875.05142-.03631.10337-.05491.15486.43633.0523.8745.08628,1.3156.09562A8.90027,8.90027,0,0,0,58.5392,47.539Z"/>
        <path class="cls-26" d="M64.7761,55.88421c.38433-.27816.74881-.58379,1.11875-.88058q-.96175-.34853-1.92137-.73173A9.98432,9.98432,0,0,1,64.7761,55.88421Z"/>
        <path d="M61.367,51.38262a10.76977,10.76977,0,0,1,1.02184.88982,10.588,10.588,0,0,1,1.58467,1.99946q.95974.38257,1.92137.73173c.14166-.11365.284-.22615.42874-.3351.14388-.10864.28776-.22023.43164-.33181A10.0272,10.0272,0,0,0,65.2864,51.592c-.22508-.02669-.45-.05461-.67527-.08018A29.05454,29.05454,0,0,0,61.367,51.38262Z"/>
        <path d="M59.79989,47.78946c-.4411-.00934-.87927-.04332-1.3156-.09562q-.30645.84789-.58915,1.70544c1.59744-.12451,3.19749-.23249,4.80706-.26943A9.84573,9.84573,0,0,0,59.79989,47.78946Z"/>
      </g>
    </g>
    <g>
      <path class="cls-27" d="M33.50415,36.73891q.56082.54489,1.118,1.082c.42445-.3079.878-.61153,1.354-.89386q-.83857-.66321-1.67094-1.33243C34.03082,35.97538,33.76157,36.36058,33.50415,36.73891Z"/>
      <path class="cls-28" d="M31.78784,39.43713c-.11929.20618-.20876.37594-.26855.49552a.14686.14686,0,0,0,.21894.18352c.28231-.21019.60965-.482.98874-.7969l.03475-.02883q-.2561-.3168-.50383-.63641C32.074,38.95131,31.91267,39.21955,31.78784,39.43713Z"/>
      <path class="cls-29" d="M59.32321,28.75193c-.01174.01173-.02055.02347-.03229.03523q-.58142.63864-1.1452,1.36835l-.00294-.00294c-1.28027-.77813-2.63394-1.45352-3.97-2.16412-.21729-.11158-.4346-.22611-.649-.34355q1.44473-.44487,2.863-.97195c.61371.42284,1.22447.85449,1.83231,1.28908.34357.24665.68712.49038,1.03067.737l.07047.05288Z"/>
      <path class="cls-30" d="M55.19464,35.39405c-.13508.35235-.26426.7106-.38467,1.06883-.12038.36119-.229.72824-.32887,1.09529h-.00294c-1.87636-1.18631-3.68517-2.47246-5.46463-3.788-.09984-.07341-.20261-.14975-.30245-.22316q-1.68695-1.25089-3.38272-2.48418-.8457-.61667-1.6943-1.22741,1.74863-.23787,3.48843-.57848,1.29936-.25107,2.57815-.56085.54178.60785,1.05123,1.23915c.41991.51681.82807,1.04536,1.23623,1.58272.68125.88972,1.36542,1.7912,2.09951,2.6545.35532.417.72236.82513,1.10409,1.21861Z"/>
      <path class="cls-31" d="M64.54119,24.52057c-.05579.03523-.11158.06753-.16737.10278-.07929.047-.15564.094-.23491.14388l-.02938.01762h-.00292l-.02349.01762h-.00294c-.30832.19379-.6284.40228-.96021.63425q-.185.12775-.37.26429c-.12332.08808-.24959.17911-.37291.27308l-.00882.0088q-.1938.14535-.3876.29952c-.12921.09984-.25841.20555-.39053.31419-.5638-.44633-1.08059-.93083-1.65613-1.36249.23491-.1057.46981-.21141.7018-.32006.091-.04111.17912-.08222.2672-.12334q.98223-.45807,1.94684-.95433c.2349-.12038.46689-.24076.69886-.367C63.8893,23.81291,64.21818,24.16526,64.54119,24.52057Z"/>
      <path class="cls-32" d="M66.15033,23.58974a.1528.1528,0,0,1-.07929.0969c-.03815.02054-.07633.03816-.1145.05872-.03818.01761-.07635.03817-.11453.05873h-.00294c-.18205-.12333-.36117-.24373-.54028-.367-.24079-.16444-.48451-.34062-.73118-.51975.2731-.14974.54324-.30244.81045-.461.2496.33768.49919.67537.74585,1.01012A.15286.15286,0,0,1,66.15033,23.58974Z"/>
      <path class="cls-33" d="M44.11563,35.071a.24412.24412,0,0,1-.0235.03523.15517.15517,0,0,1-.11158.047,19.21768,19.21768,0,0,0-5.24734.5814c-.07341.02056-.14388.04406-.21729.06461L38.51,35.79633H38.5071c-.32593-.17913-.64893-.36118-.96607-.5491-.14681-.08517-.28776-.17032-.43164-.25547-.047-.02643-.091-.05287-.13508-.08222-.01174-.00588-.02349-.01468-.03523-.02056-.15564-.094-.30832-.19085-.461-.28776-.17325-.11159-.34649-.22317-.51681-.33769-.14094-.094-.2819-.1938-.42284-.2907.35237-.42872.69006-.81631,1.00132-1.12465.30244-.30538.64013-.60783,1.00424-.91615.33182.24372.66363.48451,1.00425.71062.09984.06753.19967.13506.29951.19967.01468.0088.02936.01762.04112.02642a.26259.26259,0,0,1,.02936.01762c.0969.06461.19673.12626.29657.185.07341.047.14682.091.22317.13508.12627.07635.25547.14976.38467.22023.12038.06753.24079.13214.36411.1938.14976.07634.29658.14975.44926.22023q-.044-.0837-.09689-.16738-.04846-.08369-.10572-.16736c-.03524-.05579-.07047-.10866-.11157-.16446a8.13048,8.13048,0,0,0-.96315-1.11288v-.00294c-.32007-.31712-.66656-.62546-1.02479-.925.461-.34649.96606-.70474,1.524-1.07179.07634-.00588.14975-.0088.22609-.01762.10572.08515.21143.17032.31713.25253.20261.16738.40816.33181.61372.49331.58727.47278,1.18041.94259,1.77357,1.41241.1204.0969.23785.19087.35825.28484l.00292.00294a4.63847,4.63847,0,0,0-.46393.1703c-.04994.02055-.10279.044-.1527.06754-.10571.04992-.20849.10277-.31126.15856q-.141.07929-.2819.16738A6.12458,6.12458,0,0,1,44.098,34.91542.14959.14959,0,0,1,44.11563,35.071Z"/>
      <path class="cls-34" d="M57.347,31.2596c-.1292.19087-.2584.38761-.38172.59022-.17914.28482-.35237.57552-.51975.878-.09985.17911-.19673.35823-.2907.54028-.091.18208-.185.36413-.27308.54913l-.00294-.00294c-.64307-.69593-1.23623-1.41829-1.80883-2.14945-.8956-1.13932-1.74422-2.29626-2.66624-3.40329.138-.03523.27309-.07341.40815-.11158A24.23531,24.23531,0,0,1,54.1904,29.3392,20.38138,20.38138,0,0,1,57.347,31.2596Z"/>
      <path d="M35.53943,33.97344c-.40481.49668-.82432,1.05211-1.23431,1.6212q.83167.67058,1.67094,1.33243a10.87024,10.87024,0,0,1,2.541-1.12893c-.87875-.48128-1.73952-.98615-2.55578-1.5346C35.81952,34.16838,35.68052,34.06946,35.53943,33.97344Z"/>
      <path d="M61.59012,26.5966l-.00882.00588c-.17324.14388-.34943.29364-.52267.44926-.05287.04405-.10572.08809-.15564.138-.25546.22609-.51093.46394-.76345.71648-.08811.08221-.17326.16738-.25254.25253-.09395.094-.18792.19379-.28189.2907-.094.09984-.18793.19967-.2819.30246h-.00294l-.07047-.05288c-.34355-.24664-.6871-.49037-1.03067-.737-.60784-.43459-1.2186-.86624-1.83231-1.28908q.69592-.25547,1.383-.53148c.72822-.28484,1.44764-.59022,2.16412-.90736C60.50953,25.66577,61.02632,26.15027,61.59012,26.5966Z"/>
      <path d="M32.25789,38.654q.24835.31945.50383.63641c.52869-.43923,1.15551-.95822,1.86038-1.46951q-.55749-.537-1.118-1.082C33.03034,37.43522,32.60046,38.10036,32.25789,38.654Z"/>
      <path d="M65.83907,23.80409c-.33181.16737-.63719.33475-.93671.508-.0969.05579-.19379.10866-.28776.16738h-.00294l-.00881.00587-.06166.03524c-.323-.35531-.65189-.70766-.9925-1.05124.11158-.05579.22317-.11744.33475-.17911.229-.12039.45808-.24665.68417-.37293.24667.17913.49039.35531.73118.51975C65.4779,23.56036,65.657,23.68076,65.83907,23.80409Z"/>
      <path d="M38.33514,31.30089c-.28079.2129-.54213.42277-.79038.63119a17.96047,17.96047,0,0,0,3.092,1.9099A9.68017,9.68017,0,0,0,38.33514,31.30089Z"/>
      <path d="M54.4811,37.55817c-.02936.10571-.05579.21141-.08515.32006-.044.16444-.08223.32887-.1204.49625-.03524.14976-.07047.29952-.09983.45222-.0235.1057-.044.21141-.06461.31711a.1435.1435,0,0,1-.11744.11747.14891.14891,0,0,1-.1527-.06753c-.07047-.11747-.14094-.23493-.21729-.35238a14.979,14.979,0,0,0-5.30607-5.17392c-.14094-.07929-.28776-.15858-.44046-.24373a6.18126,6.18126,0,0,0-4.16087-.91615c-.044.0088-.0881.01762-.1292.02935-.03208.00707-.064.01631-.09606.02438-.06741.01613-.1343.03513-.201.05432-.047.01382-.09406.02749-.1405.04171l-.00292-.00294c-.1204-.094-.23785-.18794-.35825-.28484-.59316-.46982-1.1863-.93963-1.77357-1.41241-.20556-.1615-.41111-.32593-.61372-.49331-.1057-.08221-.21141-.16738-.31713-.25253q.229-.0132.45809-.03523H40.545q1.546-.12772,3.0891-.34061.85008.61221,1.6943,1.22741,1.69576,1.23327,3.38272,2.48418c.09984.07341.20261.14975.30245.22316,1.77946,1.3155,3.58827,2.60165,5.46463,3.788Z"/>
      <path d="M55.87883,33.81427l.00294.00294c-.08811.185-.1762.37-.25841.5579-.1527.33475-.29364.67537-.42872,1.01894l-.00294-.00294c-.38173-.39348-.74877-.80165-1.10409-1.21861-.73409-.8633-1.41826-1.76478-2.09951-2.6545-.40816-.53736-.81632-1.06591-1.23623-1.58272q-.51091-.62985-1.05123-1.23915.8589-.20262,1.70312-.4346c.922,1.107,1.77064,2.264,2.66624,3.40329C54.6426,32.396,55.23576,33.11834,55.87883,33.81427Z"/>
      <path d="M58.14572,30.15551c-.138.17618-.27309.35531-.40523.54031-.13212.18205-.26426.37-.39347.56378a20.38138,20.38138,0,0,0-3.15662-1.9204A24.23531,24.23531,0,0,0,51.81191,28.15c.20261-.05579.40522-.11158.6049-.17324.37-.1057.74-.21729,1.107-.33181.21435.11744.43166.232.649.34355,1.33606.7106,2.68973,1.386,3.97,2.16412Z"/>
    </g>
    <g class="cls-35">
      <path class="cls-36" d="M65.37806,22.45629l.43629.53892.21812.26943c.05133.09618.1911.15145.17841.33707l-.00123.00512c-.0241.11306-.14049.15718-.19044.187l-.19362.10947-.38479.22556c-.25631.1503-.51468.29864-.7612.45772a.11211.11211,0,0,1-.05687.01793l-.00823.00026-.00274.00009.08846-.03665-.0084.006-.02668.02037-.501.32929a.1653.1653,0,0,1-.08111.02457l-.00274.00009.07752-.02233c-.56083.39534-1.12165.788-1.6525,1.22009l.02349-.02029-.00838.009-.00232.00222-.02341.01977-.747.63119.01652-.0149a.27878.27878,0,0,1-.18115.07756l.15684-.05716a24.58225,24.58225,0,0,0-2.18285,2.1653.31063.31063,0,0,1-.22594.10514l-.008.00016-.00274.00006.22075-.09148.00036-.00062-.11817-.1483a.16866.16866,0,1,0-.1244.27358.29889.29889,0,0,0,.09468-.01651.31183.31183,0,0,0,.17919-.4312.29924.29924,0,0,0-.05477-.07844l.0029.42857C59.0104,29.65339,58.457,30.26833,58,30.9608A20.98387,20.98387,0,0,0,56.72593,33.084a22.30271,22.30271,0,0,0-1.03475,2.24675A23.576,23.576,0,0,0,54.92,37.673l-.00143.00508a.45849.45849,0,0,1-.4376.33377l-.00274,0,.437-.3322-.21029.883-.09349.44449-.04393.22337a.613.613,0,0,1-1.10533.23648l-.075-.11789-.12178-.19458-.249-.38218c-.169-.25123-.34175-.4965-.52337-.73679a15.51924,15.51924,0,0,0-2.477-2.60017A14.7516,14.7516,0,0,0,46.9939,33.503a5.09173,5.09173,0,0,0-3.28419-.5371l-.43426-.1096a.42028.42028,0,0,0,.10839.07856.44325.44325,0,0,0,.62286-.25918.42057.42057,0,0,0,.02066-.13319l-.3504.43016a4.43967,4.43967,0,0,0-.77266.24941,4.03354,4.03354,0,0,0-.73443.36708l-.04521-.76067a6.58271,6.58271,0,0,1,1.33776.85231l.5554.56917.2736.287a1.25761,1.25761,0,0,1,.16644.19513.55677.55677,0,0,1-.04723.61271l-.03736.04307a.55108.55108,0,0,1-.40038.16064l-.042-.00162-.16807-.00648-.33288-.00924-.66257-.00125q-.66273.01025-1.32449.06675a18.74431,18.74431,0,0,0-2.62167.4125,10.67953,10.67953,0,0,0-2.45344.94657,24.78291,24.78291,0,0,0-2.26732,1.41951l.05078-.10343-.00009.00273-.00021.00614a.12837.12837,0,0,1-.05074.09756l-1.29091.97112.00516-.00472-.69175.51128-.34309.25144c-.12066.12419-.35235-.027-.26109-.17365a.14094.14094,0,0,0,.238.14328l.31969-.28154.63039-.55869.00546-.005,1.22821-1.06063-.05079.10338-.00009-.00273a.12174.12174,0,0,1,.04311-.0972l.00783-.00656a25.05558,25.05558,0,0,1,2.21148-1.59847,9.87962,9.87962,0,0,1,2.5244-1.117,19.36358,19.36358,0,0,1,2.694-.53754q.68225-.08657,1.37028-.12529l.6882-.02682.34264-.00451.16964-.00039.04241-.0001a.23523.23523,0,0,0-.063.0069.24093.24093,0,0,0-.10952.06l-.03711.04277a.262.262,0,0,0-.01156.26639c.03072.0532-.064-.0539-.08972-.073l-.25091-.2392-.49392-.483a5.72481,5.72481,0,0,0-1.1726-.725.42973.42973,0,0,1-.2166-.56784.442.442,0,0,1,.17138-.193,4.8825,4.8825,0,0,1,.8541-.44259,5.32391,5.32391,0,0,1,.92133-.30912l-.35.4301a.45071.45071,0,0,1,.76324-.31381l-.43385-.10965a5.95171,5.95171,0,0,1,3.9299.542,15.70244,15.70244,0,0,1,3.25389,2.02032,15.33426,15.33426,0,0,1,2.61351,2.795c.18862.25665.36931.5206.54256.78591l.25316.4.12216.201.04764.07948a.31383.31383,0,0,0-.20057-.12829.32688.32688,0,0,0-.37183.25165l.04884-.232.104-.46378.233-.92228a.4405.4405,0,0,1,.42954-.33254l.00776.00015.00274,0-.43878.33866a24.41782,24.41782,0,0,1,.83909-2.43973,20.42873,20.42873,0,0,1,1.115-2.31793,21.778,21.778,0,0,1,1.41084-2.1488c.5003-.6945,1.10018-1.3125,1.65364-1.962l.003.42822a.31547.31547,0,0,1,.2191-.53163l-.24244.12493.05882-.06492a.27882.27882,0,0,1,.21164-.09182l.00945.0002.00274.00005-.23359.10515a24.69521,24.69521,0,0,1,2.333-2.1333l.15715-.0574a.2258.2258,0,0,0-.16386.066l.01684-.01514.809-.596-.02542.02173.00895-.00838.00946-.00885.01433-.0117c.56733-.40217,1.16178-.76227,1.7534-1.12292l.00565-.00345a.12957.12957,0,0,1,.07224-.019l.00274.00009-.08076.02446.53814-.30476-.02634.02015.00888-.00551.03682-.02287a.09221.09221,0,0,1,.052-.0139l.00274.00009-.06473.01809c.26482-.147.53283-.27784.80016-.41166l.40076-.20045c.11393-.06956.32491-.118.34027-.18735l-.00114.00473c.02984-.06131-.0772-.15973-.13167-.25773l-.19338-.28787Z"/>
    </g>
    <g>
      <path class="cls-37" d="M15.57662,32.01013c.75165.35992,1.50324.72387,2.26164,1.0826a12.00309,12.00309,0,0,1,4.10635-.24155,2.88152,2.88152,0,0,0-.30267.03125c-.19113.033-1.64441.55947-1.9339.66471a.14672.14672,0,0,0-.00587.27356,6.90471,6.90471,0,0,1,1.0756.57619A8.97891,8.97891,0,0,1,23.95056,36.545a19.39977,19.39977,0,0,0-1.9791-.84154,6.34961,6.34961,0,0,1,.67083,1.31313l.08631.22941c.90983,2.42118.96533,2.56924.93121,3.68834.14643.07438.29432.14915.44139.22366.22729-.46853.54036-1.1863.87621-2.01876a1.51255,1.51255,0,0,1-.32958-.48,4.34856,4.34856,0,0,1,.4921.07262c.43345-1.09867.88513-2.34148,1.2216-3.44152l.01927-.06531c-3.151-1.71178-6.27735-3.4591-9.4364-5.09955A20.625,20.625,0,0,0,15.57662,32.01013Z"/>
      <path class="cls-38" d="M27.111,29.718c.00294.29364.00294.5814-.00586.86036a18.88084,18.88084,0,0,1-.12334,1.891c-.047-.02055-.094-.03817-.14094-.05579-.20261-.08515-.40522-.1615-.61078-.232-.02347-.00882-.04991-.01762-.07341-.02643H26.1537l-.00294-.00294-.03231-.0088-.00586-.00294-.01176-.00294-.1057-.03524-.05873-.02055-.06166-.02056H25.8718l-.01174-.00294-.01763-.00586-.10277-.03523c-.02349-.00882-.047-.0147-.07047-.0235l-.1057-.03524a.50731.50731,0,0,1-.06168-.02055l-.05579-.01762c-.01468-.00588-.03229-.00882-.047-.01468l-.04993-.01762a.16632.16632,0,0,1-.03524-.01175.18639.18639,0,0,1-.05285-.01762l-.01762-.00586-.00588-.00294a.0418.0418,0,0,1-.01762-.00588c-.32593-.10277-.65187-.20849-.9778-.3142-.54031-.17617-1.08353-.35529-1.62384-.54322-.01468-.00588-.02935-.00882-.044-.01468a33.12958,33.12958,0,0,1-3.57361-1.44766c-.2584-.12332-.51681-.24665-.77813-.36411l-.2907-.13212c.2349-.23787.46687-.4581.70178-.66069.07929-.06755.15564-.13214.232-.19381.07927-.0646.15856-.12627.23491-.18794a.59938.59938,0,0,1,.05579-.044h.00294c.03817-.02938.07927-.05873.11744-.08809-.02641.03229-.05285.06753-.07927.09983q1.55922.46687,3.15075.8398c.40816.09691.81925.18793,1.22741.276-.0323.06167-.06753.12334-.09691.18794a5.28122,5.28122,0,0,1,1.02188.80163q.94257-.11012,1.88516-.22315c-.091-.09691-.17911-.18794-.27308-.279.28482.04992.56966.09689.85448.138C27.01407,29.70331,27.061,29.71211,27.111,29.718Z"/>
      <path d="M23.65225,41.16542l-.00918.27586a.14667.14667,0,0,0,.10768.146.14236.14236,0,0,0,.03914.00545.14735.14735,0,0,0,.12832-.07542q.04539-.08174.09951-.18983c.026-.05114.05457-.10985.08348-.16942-.14707-.07451-.295-.14928-.44139-.22366C23.65759,41.00709,23.655,41.0836,23.65225,41.16542Z"/>
      <path d="M14.635,33.61968a.14671.14671,0,0,0,.17406.2059c.03027-.0092,1.40327-.42243,3.02918-.73285-.7584-.35873-1.51-.72268-2.26164-1.0826C14.98047,32.93408,14.64066,33.60823,14.635,33.61968Z"/>
      <path d="M20.77777,34.39689a2.49556,2.49556,0,0,1,.40937.33771,7.33165,7.33165,0,0,1,.78432.96888,19.39977,19.39977,0,0,1,1.9791.84154A8.97891,8.97891,0,0,0,20.77777,34.39689Z"/>
      <path d="M24.97741,39.13926q.08057-.19974.16252-.40741a4.34856,4.34856,0,0,0-.4921-.07262A1.51255,1.51255,0,0,0,24.97741,39.13926Z"/>
      <path d="M26.98175,32.46939q-.03081.27309-.07047.53737c-.01762.1145-.03523.229-.05579.34061a14.05847,14.05847,0,0,1-.34355,1.42709q-.06168.21585-.13215.44927c-.03523-.02055-.07341-.03817-.10864-.05873l-.02056-.01174q-1.33017-.72236-2.64861-1.44764c-.14976-.08223-.29658-.16444-.44634-.24666H23.1527q-.68271-.37438-1.36249-.7429-.66948-.36559-1.339-.72824c-.62251-.33767-1.24209-.66949-1.8646-.99836q-.65628-.348-1.31258-.69007c-.10865-.05873-.22023-.11744-.32888-.17323.07929-.09985.1615-.19676.24667-.29658.18205-.21435.367-.417.552-.61078.06166-.06459.12627-.13214.18794-.19085l.2907.13212c.26132.11746.51973.24079.77813.36411a33.12958,33.12958,0,0,0,3.57361,1.44766c.01468.00586.02935.0088.044.01468.54031.18793,1.08353.36705,1.62384.54322.32593.10571.65187.21143.9778.3142a.0418.0418,0,0,0,.01762.00588l.00588.00294.01762.00586a.18639.18639,0,0,0,.05285.01762.16632.16632,0,0,0,.03524.01175l.04993.01762c.01468.00586.03229.0088.047.01468l.05579.01762a.50731.50731,0,0,0,.06168.02055l.1057.03524c.0235.0088.047.01468.07047.0235l.10277.03523.03231.0088.06166.02056.05873.02055.11746.03818.00586.00294.03231.0088.00294.00294h.00292c.0235.00881.04994.01761.07341.02643.20556.07047.40817.14682.61078.232C26.8878,32.43122,26.93478,32.44884,26.98175,32.46939Z"/>
    </g>
    <g class="cls-35">
      <path class="cls-36" d="M23.9191,41.51643l-.02686.03841.00067-.00067-.03968.02881.00639-.00772.00024.00274-.00468.00757-.02368.01128-.001.0003a.1674.1674,0,0,1-.20045-.07822.64794.64794,0,0,1-.02967-.21717l-.0216-.41375-.025-.40737a2.95406,2.95406,0,0,0-.0462-.37863l.00281-.07625a.06946.06946,0,0,0-.00457.06018l.00214.00082.00092-.00186-.0101-.0426-.03545-.14947-.003-.02924a.094.094,0,0,0,.0119.05236l-.01431-.04607c-.17445-.59151-.46124-1.1994-.70552-1.79413a14.02592,14.02592,0,0,0-.80224-1.73372l-.02968-.06558-.01276-.02587.02733.06152a6.45132,6.45132,0,0,0-.47079-.654c-.18365-.19944-.35313-.40887-.54452-.59876l-.02026-.02347-.0398-.03955.02337.02683a5.077,5.077,0,0,0-.50747-.36812,6.58917,6.58917,0,0,0-.6119-.3094l-.03826-.02051a.04959.04959,0,0,0,.02016.01241l.00636-.00329-.00323-.00633-.06792-.02252c-.01154-.00382.00442.00449-.02855-.01113l-.07288-.03461.22573.06-.00274.00005a.42442.42442,0,0,1-.17966-.03688l-.07443-.0336.05958.02467L19.56961,34.26l-.17653-.10811a.44056.44056,0,0,0,.30889.12883l-.32029-.13413-.00285-.00274.14561.098a.61094.61094,0,0,1-.17584-1.00954.6214.6214,0,0,1,.12163-.08643.66068.66068,0,0,1,.09254-.041l.06917-.02637.13833-.05274.55427-.20868c.38009-.13756.71584-.263,1.15931-.39808l.03815-.008a.09962.09962,0,0,0-.0329.00927l.10049-.022.08729-.01285.02893-.00232.0199-.00012.00274,0-.044.002c.06821-.00889.15672-.01816.26131-.024l-.08765.97257-.17246-.02712-.00959-.00151a.49574.49574,0,0,1-.41853-.4861l0-.00274.41073.48485A7.01414,7.01414,0,0,0,20.55871,33.26a10.4333,10.4333,0,0,0-1.14689.087c-.77246.075-1.54271.23051-2.323.37867l-.02234.00424a.3938.3938,0,0,1-.07732.00647l-.00274-.00006.11334-.014c-.3668.079-.7181.14707-1.07247.23477l-.52875.12474-.55814.14353.10562-.03623-.08743.03346-.00485.00132-.12871.0204-.01448.0023.12618-.0194a.56433.56433,0,0,1-.59557-.17855.55842.55842,0,0,1-.0708-.60971l-.02167.05233A.56783.56783,0,0,1,14.321,33.357l-.05167.09208.07024-.128-.02.039.07364-.13085-.05409.20025.00324-.00862.05246-.19737c.1133-.186.25984-.435.39323-.62916l.41544-.62825.01036-.01567a.24332.24332,0,0,1,.03632-.04267l.00291-.00268-.05058.0648a17.27391,17.27391,0,0,1,1.78564-2.2181,14.10334,14.10334,0,0,1,1.03779-.96784,9.03145,9.03145,0,0,1,1.13029-.84246c-.34886.31279-.65847.66581-.973,1.005a13.75068,13.75068,0,0,0-.8801,1.07181,25.755,25.755,0,0,0-1.52233,2.29854l-.03431.04727L15.73,32.382l-.00268.00291.04643-.058-.35.63624c-.12681.22439-.21526.40869-.33866.65481l.0523-.197-.0025.00862-.05425.20062-.026.05674-.02016.03938-.01179.02432-.06051.08589.00131.00756.00734-.001a.27344.27344,0,0,0,.04908-.0935l-.02185.05269a.272.272,0,0,0-.02759-.29047.27535.27535,0,0,0-.28652-.08682l-.00339.00683.00636.00353.1236-.02985.01448-.00349-.13316.0216-.02321.01011.106-.03635.49957-.15341.53494-.15007c.3529-.10314.71759-.19024,1.06351-.27985a.43356.43356,0,0,1,.097-.01375l.01675-.00026.00274-.00005-.09927.01066a20.96049,20.96049,0,0,1,2.40764-.44044,11.16785,11.16785,0,0,1,1.24547-.10985,7.87789,7.87789,0,0,1,1.28686.07067.48807.48807,0,0,1,.41093.48507l0,.00274-.42792-.48737.22063.03741a.48833.48833,0,0,1-.03331.96738l-.05434.00523-.17289.017-.04444.002-.00274,0,.04844-.00242-.07676.01059.1001-.022-.11473.0268.03776-.00785c-.309.09075-.71348.22856-1.07305.355l-.555.18819-.139.04647-.06949.02324c-.04388.01745.07-.02988.08606-.0573a.31678.31678,0,0,0-.0898-.52284l.14593.0982.00274.00286-.32-.13393a.48773.48773,0,0,1,.32613.13457l-.17615-.108.03772.01541.0541.02211.00585.00273.025.01321-.17928-.0368.00274.00005a.49166.49166,0,0,1,.2146.054l.01151.00608.1155.05979-.06443-.032.1079.05335-.03791-.02033a7.46125,7.46125,0,0,1,.6851.38424,5.193,5.193,0,0,1,.65589.52955l.00306.003.02061.02408.03627.04237-.02-.02318c.19455.227.36527.47384.54694.709a7.24611,7.24611,0,0,1,.46363.76874l.017.03535.0105.02652.01056.02661-.02951-.06521a14.19833,14.19833,0,0,1,.70315,1.89341A12.29646,12.29646,0,0,1,23.7577,39.827l-.01423-.04568a.22326.22326,0,0,1,.0177.08133l-.0029-.02884.01736.20837-.007-.04323a.23364.23364,0,0,1,.00126.11263l.00286-.07585a2.749,2.749,0,0,1-.00012.443l-.02956.41621-.04856.40935c-.0324.13548-.03109.28643.13091.2724l-.00059.0002.02292-.0062-.00449.00731.00025-.00274.00655-.008.03633-.018.001-.00093Z"/>
    </g>
  </g>
</svg>
