<svg xmlns="http://www.w3.org/2000/svg" xmlns:xlink="http://www.w3.org/1999/xlink" viewBox="0 0 80 80"><defs><style>.cls-1{fill:none;}.cls-2{isolation:isolate;}.cls-3{clip-path:url(#clip-path);}.cls-4{fill:#e6e6e6;}.cls-5{fill:#98a9b7;}.cls-6{opacity:0.4;mix-blend-mode:multiply;}.cls-7{fill:#95a7b7;}.cls-8{fill:#a7b5c1;}.cls-9{fill:#04047a;}.cls-10{fill:#a0733f;}.cls-11{opacity:0.2;mix-blend-mode:darken;}.cls-12{fill:#b58555;}</style><clipPath id="clip-path"><path class="cls-1" d="M78.41,25.6c-.11-.68-.21-1.36-.31-2-.19-1.26-.36-2.44-.59-3.48a.45.45,0,0,0-.2-.28.43.43,0,0,0-.35,0c-1.52.41-3.3.86-5.07,1.26l-.25.3c-.09.1-.17.2-.26.29-.69.8-1.41,1.56-2.15,2.32l-.38.38L68,25.2a27.87,27.87,0,0,1-2.34,2l-.13.1-.44.33-.59.47-.3.24-.29.23a10.5,10.5,0,0,1-1,.73A20.64,20.64,0,0,1,59.74,31a2.64,2.64,0,0,1-1.73.13,5.94,5.94,0,0,1-1.87-.69,3.42,3.42,0,0,1-1.4-2.13,4,4,0,0,1-.13-1.13,5.8,5.8,0,0,1,0-.48c0-.2,0-.4.07-.6a.5.5,0,0,0,0-.12c0-.18.07-.36.11-.55a27.66,27.66,0,0,1,1-2.78c0-.11.07-.21.1-.32a.49.49,0,0,0,0-.11l.21-.63.07-.22.08-.23c-2.93-.61-6.06-1.44-9.29-2.29l-1.73-.46c-6.37-1.68-13.09-3.33-19.63-3.74-.75,0-1.5-.08-2.24-.09h-.72c-1.8,0-3.54.11-5.2.27h-.06A59.42,59.42,0,0,0,6,17.18a.28.28,0,0,0-.14.1A33.4,33.4,0,0,0,3.2,22.92a.06.06,0,0,0,0,.07v0c-.14.38-.26.76-.39,1.15s-.31,1-.45,1.53a37.25,37.25,0,0,0-1.19,9.83,41.85,41.85,0,0,0,1,8.6A49.83,49.83,0,0,0,7.32,57.47,55.64,55.64,0,0,0,12,64.57l.34.45c.69.86,1.41,1.72,2.15,2.56,1,1.11,2,2.14,2.93,3.08l.1.07a28.73,28.73,0,0,0,7.1.85,27.86,27.86,0,0,0,7.41-.94h0a16.39,16.39,0,0,0,1.63-.54l.12,0h0a.25.25,0,0,0,.12-.11l.15-.3c.2-.36.38-.72.57-1.06.73-1.38,1.39-2.56,2-3.65l.37-.61.24-.39c.23-.38.47-.77.73-1.14s.25-.23.41-.17a2.56,2.56,0,0,0,.65.12l.11,0h0l.76.09,1.21.14a.51.51,0,0,1,.45.3c.14.26.31.54.51.88L43,65.48h0l3.8,6.21a.21.21,0,0,0,.13.1l.44.14h0a21.86,21.86,0,0,0,2.62.62,30.69,30.69,0,0,0,10.75-.07h.07a20.73,20.73,0,0,0,2.26-.56.29.29,0,0,0,.12-.07l.93-1.13v0q.3-.36.57-.72c.38-.51.75-1,1.11-1.55s.52-.75.79-1.12c.4-.55.75-1,1.06-1.52l.23-.33c.53-.8,1-1.58,1.43-2.35a0,0,0,0,0,0,0h0l0-.06c.2-.37.36-.67.5-1l.15-.3q.17-.31.3-.63c.1-.22.2-.44.29-.66A1.08,1.08,0,0,1,71,60a.24.24,0,0,0,.08-.09c2.62-5,7.12-14.81,7.84-23.61A45.67,45.67,0,0,0,78.41,25.6Z"/></clipPath></defs><g class="cls-2"><g id="Layer_1" data-name="Layer 1"><g id="Jeans_2" data-name="Jeans 2"><g class="cls-3"><g id="Jeans_2-2" data-name="Jeans 2"><path class="cls-4" d="M78.83,33.4c0,1,0,1.93-.11,2.84C78,45,73.47,54.83,70.9,59.76a1.26,1.26,0,0,0-.47.61c-.1.22-.19.43-.29.64l-.3.64-.15.29c-.16.32-.33.63-.5,1l0,0a0,0,0,0,1,0,0v0h0c-.46.83-1,1.63-1.48,2.42l-.17.26c-.35.51-.7,1-1.06,1.51-.57.78-1.11,1.59-1.68,2.36-.17.24-.35.48-.53.71s-.17.21-.26.32h0l-.15.17-.79,1a20.21,20.21,0,0,1-2,.5l-.52.1a29.64,29.64,0,0,1-5.33.46A26.73,26.73,0,0,1,47,71.58L43.3,65.51a1.3,1.3,0,0,0-.1-.15L42.39,64c-.17-.28-.34-.57-.5-.86a.75.75,0,0,0-.64-.42l-1-.11h-.06l-.74-.09-.24,0a2.71,2.71,0,0,1-.7-.13.49.49,0,0,0-.49,0,1,1,0,0,0-.2.21c-.3.44-.58.91-.86,1.37a1.74,1.74,0,0,0-.11.18c-.16.26-.32.52-.47.78q-.88,1.52-1.71,3.06c-.18.32-.35.65-.52,1s-.24.46-.36.69l-.06.11v0c-.47.19-1,.36-1.51.52l-.47.13a28,28,0,0,1-7.14.87,28.31,28.31,0,0,1-7-.84c-1-1-2-2-2.91-3.08-.67-.75-1.32-1.52-1.94-2.3l-.55-.69a55.94,55.94,0,0,1-4.68-7.08A49.27,49.27,0,0,1,2.38,44.07a41.78,41.78,0,0,1-1-8.56,36.14,36.14,0,0,1,1.18-9.76c.12-.44.25-.87.38-1.3L3,24.23a57.77,57.77,0,0,1,11.41-2.87l.52-.08.67-.09h.13a54,54,0,0,1,7.67-.42c7.29.12,14.81,2,21.81,3.82l4.36,1.15.12,0,.56.15.47.12c1.33.34,2.63.66,3.89.95a1.93,1.93,0,0,0,0,.24,4,4,0,0,0,.13,1.13,3.42,3.42,0,0,0,1.4,2.13,5.94,5.94,0,0,0,1.87.69A2.64,2.64,0,0,0,59.74,31a20.64,20.64,0,0,0,3.12-1.73,10.5,10.5,0,0,0,1-.73l.29-.23h.17a32,32,0,0,0,5.33-.67l.46-.09c2.79-.55,5.82-1.31,8.05-2a2,2,0,0,0,0,.24A49.87,49.87,0,0,1,78.83,33.4Z"/><path class="cls-4" d="M78.41,25.6a.25.25,0,0,0-.11-.17.22.22,0,0,0-.16,0h0l-.2.06-1.21.33-.78.21-.24.06-.64.17-.45.11-1.22.29-.17.05L71.92,27l-.18,0-.92.2-.58.12-.15,0-.21,0-.26.05h-.07l-.13,0-.36.06a36.74,36.74,0,0,1-3.77.53l-.46,0h-.36l-.3.24-.29.23h1.44c.63-.05,1.34-.13,2.1-.24l.35,0,.1,0,.35-.06.34-.05.34-.06.6-.11.22,0,.11,0,.35-.07.12,0c.46-.09.92-.18,1.39-.29l.49-.1.27-.06.46-.11h0l.47-.11,1.19-.29c.46-.11.9-.22,1.33-.34l.43-.11.14,0,.67-.18.11,0,.27-.08.19,0,.27-.07a49.18,49.18,0,0,1,.6,7.45c0,1,0,1.94-.11,2.83-.71,8.68-5.15,18.35-7.76,23.38a1.53,1.53,0,0,0-.51.68c-.09.21-.19.42-.29.64s-.19.41-.29.62l-.15.3c-.14.27-.29.57-.5.93l0,0,0,0h0c-.46.83-1,1.66-1.56,2.54a1,1,0,0,1-.08.11c-.31.47-.66,1-1.06,1.51l-.79,1.13c-.22.31-.43.62-.66.93s-.34.48-.52.71-.32.41-.48.62-.6.71-.89,1.07c-.55.17-1.12.31-1.71.44l-.58.12a30,30,0,0,1-5.4.48,26.73,26.73,0,0,1-8-1.15l-3.52-5.75h0l-.24-.4-.81-1.32c-.21-.33-.36-.6-.5-.86a1,1,0,0,0-.83-.54l-1.19-.14-.6-.07-.16,0h0l-.11,0a2.13,2.13,0,0,1-.25,0,1.37,1.37,0,0,1-.29-.07l-.1,0h-.06a.69.69,0,0,0-.67.22.76.76,0,0,0-.13.17c-.27.38-.51.78-.74,1.16l-.25.4c-.2.34-.41.68-.61,1h0c-.44.74-.88,1.53-1.35,2.4l-.49.9-.3.57a2.12,2.12,0,0,1-.11.21c-.08.15-.15.3-.23.44a12.4,12.4,0,0,1-1.3.45l-.5.15h0l-.42.11-.12,0a28.37,28.37,0,0,1-6.6.74,27.87,27.87,0,0,1-6.92-.83c-.93-.92-1.89-1.93-2.85-3-.58-.65-1.15-1.32-1.69-2-.27-.33-.53-.66-.79-1a55.16,55.16,0,0,1-4.67-7.05A49.41,49.41,0,0,1,2.61,44a41.48,41.48,0,0,1-1-8.5,36.32,36.32,0,0,1,1.17-9.7c.13-.46.26-.93.41-1.4L4.51,24l.21-.06.09,0,.34-.11.44-.14.71-.22.49-.14L7,23.18l.26-.07,1.06-.29.45-.11c1.17-.29,2.43-.57,3.79-.81l.58-.11.75-.12.41-.06.21,0,.31,0,.67-.09h.13l.46-.06.28,0c1.08-.12,2.19-.22,3.35-.28l.69,0q1.45-.06,3,0c7.18.12,14.68,1.95,21.75,3.81l1.73.45,2.7.72.13,0,.54.14.49.13c1.31.33,2.6.65,3.86.94a5.8,5.8,0,0,1,0-.48c-1.34-.31-2.7-.65-4.1-1L47,24.81l-1.73-.46c-7.1-1.87-14.63-3.7-21.87-3.83H21.32l-1,0-.87,0-.5,0h-.23l-.74.06-.54.05-.4,0-.74.08c-.43,0-.86.1-1.27.15l-.44.07h-.08l-.37.05-1,.17-.69.12-.59.11-1.23.25-.59.13-.86.2-.56.13-.33.09-.41.1-1.57.44L5.82,23l-.26.08-.23.07-.67.22-.34.11-.94.32-.28.1L2.93,24a.26.26,0,0,0-.15.16c-.16.51-.31,1-.45,1.53a37.25,37.25,0,0,0-1.19,9.83,41.85,41.85,0,0,0,1,8.6A49.83,49.83,0,0,0,7.32,57.47,55.64,55.64,0,0,0,12,64.57l.34.45c.69.86,1.41,1.72,2.15,2.56,1,1.11,2,2.14,2.93,3.08l.1.07a28.73,28.73,0,0,0,7.1.85,27.86,27.86,0,0,0,7.41-.94h0c.57-.16,1.12-.34,1.63-.54l.12,0h0a.25.25,0,0,0,.12-.11l.15-.3c.2-.36.38-.72.57-1.06.73-1.38,1.39-2.56,2-3.65l.37-.61.24-.39c.23-.38.47-.77.73-1.14s.25-.23.41-.17a2.56,2.56,0,0,0,.65.12l.11,0h0l.76.09,1.21.14a.51.51,0,0,1,.45.3c.14.26.31.54.51.88L43,65.48h0l3.8,6.21a.21.21,0,0,0,.13.1l.44.14h0a21.86,21.86,0,0,0,2.62.62,30.69,30.69,0,0,0,10.75-.07h.07a20.73,20.73,0,0,0,2.26-.56.29.29,0,0,0,.12-.07l.93-1.13v0q.3-.36.57-.72c.38-.51.75-1,1.11-1.55s.52-.75.79-1.12c.4-.55.75-1,1.06-1.52l.23-.33c.53-.8,1-1.58,1.43-2.35a0,0,0,0,0,0,0h0l0-.06c.2-.37.36-.67.5-1l.15-.3q.17-.31.3-.63c.1-.22.2-.44.29-.66A1.08,1.08,0,0,1,71,60a.24.24,0,0,0,.08-.09c2.62-5,7.12-14.81,7.84-23.61A45.67,45.67,0,0,0,78.41,25.6ZM50.73,26l-.46-.12h0l-.56-.15-.12,0-4.36-1.15c-7-1.85-14.52-3.7-21.81-3.82a54,54,0,0,0-7.67.42c0,.08-.05.16-.08.25l.46-.06.28,0c1.08-.12,2.19-.22,3.35-.28l.69,0q1.45-.06,3,0c7.18.12,14.68,1.95,21.75,3.81l1.73.45,2.7.72.13,0,.54.14.49.13c1.31.33,2.6.65,3.86.94a1.93,1.93,0,0,1,0-.24C53.36,26.69,52.06,26.37,50.73,26Zm19.45,1.79-.35.08.35-.07.12,0Zm4.4-1c.46-.11.9-.22,1.33-.34Z"/><path class="cls-4" d="M56.22,21.41l-.07.22-.21.63a.49.49,0,0,1,0,.11c0,.11-.07.21-.1.32a27.66,27.66,0,0,0-1,2.78c0,.19-.07.37-.11.55a.5.5,0,0,1,0,.12c0,.2-.06.4-.07.6a1.94,1.94,0,0,0,0,.24c-1.26-.29-2.56-.61-3.89-.95l-.46-.12h0l-.56-.15-.12,0-4.36-1.15c-7-1.85-14.52-3.7-21.81-3.82a54,54,0,0,0-7.67.42h-.13l-.67.09-.52.08A57.77,57.77,0,0,0,3,24.23l.09-.29.33-1s0-.09,0-.13A31.56,31.56,0,0,1,6.05,17.4,58.85,58.85,0,0,1,17.2,15.13l.52-.06c1.6-.15,3.26-.23,5-.24h.72c7.29.12,14.8,2,21.81,3.82C49.09,19.67,52.8,20.69,56.22,21.41Z"/><path class="cls-4" d="M78.18,25.63c-2.23.65-5.26,1.41-8.05,2l-.46.09a32,32,0,0,1-5.33.67h-.17l.3-.24.59-.47.44-.33.13-.1a27.87,27.87,0,0,0,2.34-2l.88-.87.38-.38c.74-.76,1.46-1.52,2.15-2.32.09-.09.17-.19.26-.29,1.87-.41,3.77-.89,5.38-1.33a.2.2,0,0,1,.26.15c.28,1.27.48,2.75.72,4.3a.49.49,0,0,0,0,.12c0,.27.08.54.13.82C78.15,25.48,78.17,25.56,78.18,25.63Z"/><path class="cls-5" d="M47,18.89l-1.73-.46c-6.37-1.68-13.09-3.33-19.63-3.74-.75,0-1.5-.08-2.24-.09h-.72c-1.8,0-3.54.11-5.2.27h-.06A59.42,59.42,0,0,0,6,17.18a.28.28,0,0,0-.14.1A33.4,33.4,0,0,0,3.2,22.92l0,.09c-.14.38-.26.76-.39,1.15a.24.24,0,0,0,.07.24.16.16,0,0,0,.09.05.2.2,0,0,0,.15,0l.11,0L4.51,24l.21-.06.09,0,.34-.11.44-.14.71-.22.49-.14L7,23.18l.26-.07,1.06-.29.45-.11c1.17-.29,2.43-.57,3.79-.81l.58-.11.75-.12.41-.06h0l.21,0,.31,0,.67-.09h.13l.46-.06.28,0c1.08-.12,2.19-.22,3.35-.28l.69,0q1.45-.06,3,0c7.18.12,14.68,1.95,21.75,3.81l1.73.45,2.7.72.13,0,.54.14.49.13c1.31.33,2.6.65,3.86.94a5.8,5.8,0,0,1,0-.48c-1.34-.31-2.7-.65-4.1-1L47,24.81l-1.73-.46c-7.1-1.87-14.63-3.7-21.87-3.83H21.32l-1,0-.87,0-.5,0h-.23l-.74.06-.54.05-.4,0-.74.08c-.43,0-.86.1-1.27.15l-.44.07h-.08l-.37.05-1,.17-.69.12-.59.11-1.23.25-.59.13-.86.2-.56.13-.33.09-.41.1-1.57.44L5.82,23l-.26.08-.23.07-.67.22-.34.11-.94.32c.11-.31.21-.62.33-.93a.64.64,0,0,0,0-.07h0a33.69,33.69,0,0,1,2-4.48l.09-.15.34-.61a58.82,58.82,0,0,1,10.86-2.22l.57-.06h0l.63-.06h.15c1.37-.11,2.8-.18,4.27-.18h.72c7.17.12,14.68,1.94,21.75,3.81l1.73.46c3.21.84,6.33,1.67,9.26,2.28l.07-.22.08-.23C53.37,20.57,50.24,19.74,47,18.89Zm31.09,4.7c-.19-1.26-.36-2.44-.59-3.48a.45.45,0,0,0-.2-.28.43.43,0,0,0-.35,0c-1.52.41-3.3.86-5.07,1.26l-.25.3c-.09.1-.17.2-.26.29,2-.43,4-.93,5.67-1.4.23,1,.4,2.19.58,3.43.05.29.09.58.14.87,0,0,0,.09,0,.13,0,.26.08.53.13.81l-1.21.33-.78.21-.24.06-.64.17-.45.11-1.22.29-.17.05L71.92,27l-.18,0-.92.2-.58.12-.15,0-.21,0-.26.05h-.07l-.13,0-.36.06a36.74,36.74,0,0,1-3.77.53l-.46,0h-.36l-.3.24-.29.23h1.44c.63-.05,1.34-.13,2.1-.24l.35,0,.1,0,.35-.06.34-.05.34-.06.6-.11.22,0,.11,0,.35-.08.12,0c.46-.09.92-.18,1.39-.29l.49-.1.27-.06.46-.11h0l.47-.11,1.19-.29,1.33-.34.43-.11.14,0,.67-.18.11,0,.27-.08.19,0,.27-.07.23-.07h0a.23.23,0,0,0,.17-.26C78.3,24.92,78.2,24.24,78.1,23.59ZM50.54,25.73,47,24.81l-1.73-.46c-7.1-1.87-14.63-3.7-21.87-3.83H21.32l-1,0-.87,0-.5,0h-.23l-.74.06-.54.05-.4,0-.74.08c-.43,0-.86.1-1.27.15l-.09.25.67-.09h.13a54,54,0,0,1,7.67-.42c7.29.12,14.81,2,21.81,3.82l4.36,1.15.12,0,.56.15h0l.46.12c1.33.34,2.63.66,3.89.95a1.94,1.94,0,0,1,0-.24C53.3,26.43,51.94,26.09,50.54,25.73Z"/><g class="cls-6"><path class="cls-7" d="M55.92,22.26a.06.06,0,0,0-.07,0s0,.07,0,.07h0a.49.49,0,0,0,0-.11Zm15.44-.09-.46.11s-.05,0-.05.07a.07.07,0,0,0,.06,0h0l.47-.1a.06.06,0,0,0,0-.07S71.39,22.17,71.36,22.17Zm-15.9,0-.46-.1s-.07,0-.07,0,0,.07,0,.07l.46.11h0a.07.07,0,0,0,.06-.05A.08.08,0,0,0,55.46,22.16ZM72.29,22l-.47.1a.06.06,0,0,0,0,.07.06.06,0,0,0,.06.05h0l.46-.11a.08.08,0,0,0,0-.07A.06.06,0,0,0,72.29,22ZM54.54,22l-.46-.1a.06.06,0,0,0-.08,0s0,.07,0,.07l.46.11h0a.06.06,0,0,0,.06-.05A.06.06,0,0,0,54.54,22Zm18.67-.2-.46.11a.06.06,0,0,0,0,.07.05.05,0,0,0,.06,0h0l.46-.11s.06,0,0-.07A.06.06,0,0,0,73.21,21.75Zm-19.6,0-.46-.11s-.06,0-.07.05,0,.06.05.07l.46.11h0a.06.06,0,0,0,.06-.05S53.65,21.75,53.61,21.74Zm20.52-.22-.46.12s0,0,0,.07,0,0,.05,0h0l.46-.11a.06.06,0,0,0,0-.08A.06.06,0,0,0,74.13,21.52Zm-21.44,0-.46-.11a.06.06,0,0,0-.07,0s0,.07,0,.07l.46.12h0a.06.06,0,0,0,0-.12Zm22.36-.23-.46.12a.08.08,0,0,0,0,.07.06.06,0,0,0,.06,0h0l.46-.12s0,0,0-.07A.06.06,0,0,0,75.05,21.29Zm-23.28,0-.46-.11a.06.06,0,0,0-.07,0,.05.05,0,0,0,0,.07l.45.12h0a.07.07,0,0,0,.06,0A.07.07,0,0,0,51.77,21.29ZM76,21.05l-.45.12s-.06,0-.05.07a.06.06,0,0,0,.06.05h0l.46-.13s.05,0,.05-.07A.07.07,0,0,0,76,21.05Zm-25.11,0-.45-.12a.08.08,0,0,0-.08,0,.08.08,0,0,0,0,.07l.46.12h0a.06.06,0,0,0,.06-.05S50.89,21.07,50.85,21.06Zm25.84-.21-.27.08a.06.06,0,0,0,0,.07.05.05,0,0,0,.06,0h0l.27-.07a.06.06,0,0,0,0-.07A.05.05,0,0,0,76.69,20.85Zm-26.75,0-.46-.12s-.07,0-.07,0a.06.06,0,0,0,0,.07l.46.12h0a.05.05,0,0,0,.06,0A.06.06,0,0,0,49.94,20.83ZM49,20.59l-.46-.12a.06.06,0,0,0,0,.11l.46.12h0s.06,0,.06,0A.06.06,0,0,0,49,20.59Zm-.92-.24-.45-.12a.06.06,0,0,0-.08,0s0,.06,0,.07l.45.12h0a.07.07,0,0,0,.06,0S48.14,20.35,48.1,20.35Zm-.91-.24L46.73,20a.05.05,0,0,0-.07,0,.06.06,0,0,0,0,.07l.46.12h0a.07.07,0,0,0,.06,0S47.22,20.11,47.19,20.11Zm-.92-.25-.46-.12a.06.06,0,0,0-.07,0,.07.07,0,0,0,0,.08l.46.12h0s.05,0,.05,0A.06.06,0,0,0,46.27,19.86Zm-.91-.24-.46-.12a.06.06,0,0,0-.08,0s0,.07,0,.07l.45.12h0a.06.06,0,0,0,.06,0A.07.07,0,0,0,45.36,19.62Zm-.92-.24L44,19.26a.06.06,0,1,0,0,.11l.46.12h0a.05.05,0,0,0,.06,0A.06.06,0,0,0,44.44,19.38Zm-.92-.24L43.06,19s-.07,0-.07,0,0,.07,0,.07l.46.12a0,0,0,0,0,0,0,.06.06,0,0,0,.06-.05A.06.06,0,0,0,43.52,19.14Zm-.92-.24-.46-.12s-.07,0-.07,0a.06.06,0,0,0,0,.07l.46.12h0a.06.06,0,0,0,.06-.05A.06.06,0,0,0,42.6,18.9Zm-.92-.23-.46-.12a.05.05,0,0,0-.07.05.06.06,0,0,0,0,.07l.46.11h0a.05.05,0,0,0,0,0A.06.06,0,0,0,41.68,18.67Zm-.92-.23-.46-.12a.05.05,0,0,0-.07.05.06.06,0,0,0,0,.07l.46.11h0a.05.05,0,0,0,.06,0S40.79,18.44,40.76,18.44ZM6.17,18.11l-.31.1-.14,0a.06.06,0,0,0,0,.08.07.07,0,0,0,.05,0h0l.43-.13s0,0,0-.08S6.2,18.1,6.17,18.11Zm33.67.1-.46-.11a.06.06,0,0,0-.08,0s0,.07.05.07l.46.12h0a.06.06,0,0,0,.06,0A.06.06,0,0,0,39.84,18.21ZM38.91,18l-.46-.11a.06.06,0,0,0-.07,0,.06.06,0,0,0,0,.08l.46.1h0a.05.05,0,0,0,.06,0S39,18,38.91,18ZM7.08,17.85,6.62,18a.07.07,0,0,0,0,.07.07.07,0,0,0,.06.05h0L7.11,18a.06.06,0,1,0,0-.11ZM38,17.77l-.46-.1s-.07,0-.07,0,0,.07,0,.07l.46.11h0a.05.05,0,0,0,.05-.05A.06.06,0,0,0,38,17.77ZM8,17.6l-.45.12a.06.06,0,0,0,0,.07.05.05,0,0,0,0,.05h0L8,17.71a.06.06,0,0,0,0-.07A.06.06,0,0,0,8,17.6Zm29.07,0-.46-.1s-.06,0-.07.05,0,.06,0,.07l.46.1h0a.06.06,0,0,0,.06-.05S37.1,17.57,37.06,17.56Zm-28.15-.2-.46.12a.06.06,0,0,0,0,.07.06.06,0,0,0,.06.05,0,0,0,0,0,0,0l.46-.11a.05.05,0,0,0,0-.07A.06.06,0,0,0,8.91,17.36Zm27.23,0-.47-.1a.06.06,0,1,0,0,.12l.46.1h0a.05.05,0,0,0,0-.05A.06.06,0,0,0,36.14,17.36Zm-26.3-.22-.46.11s-.06,0-.05.07a.06.06,0,0,0,.06.05h0l.46-.11s.06,0,.05-.07A.08.08,0,0,0,9.84,17.14Zm25.37,0-.46-.1s-.07,0-.07.05a.06.06,0,0,0,0,.07l.47.09h0a.06.06,0,0,0,.06-.05S35.24,17.17,35.21,17.17Zm-24.45-.23-.46.1a.08.08,0,0,0-.05.07.07.07,0,0,0,.06.05h0l.46-.11s.05,0,0-.07S10.79,16.93,10.76,16.94Zm23.52,0-.47-.09a.06.06,0,0,0-.06.05.06.06,0,0,0,0,.07l.47.09h0a.06.06,0,0,0,.06-.05A.08.08,0,0,0,34.28,17Zm-22.59-.23-.46.09s-.06,0-.05.07a.06.06,0,0,0,.06.05h0l.47-.1a0,0,0,0,0,0-.06A.05.05,0,0,0,11.69,16.75Zm21.66.05-.47-.08s-.06,0-.07.05a.08.08,0,0,0,0,.07l.47.08h0a.06.06,0,0,0,.06-.05A.08.08,0,0,0,33.35,16.8Zm-20.73-.23-.46.09a.06.06,0,0,0-.05.07s0,.05.06.05h0l.46-.08s.06,0,0-.07S12.66,16.57,12.62,16.57Zm19.8.07L32,16.56s-.06,0-.07.05a.05.05,0,0,0,.05.06l.47.08h0s.05,0,.05,0S32.45,16.64,32.42,16.64Zm-18.86-.23-.47.08a.08.08,0,0,0-.05.07.06.06,0,0,0,.06.05h0l.47-.08a.06.06,0,1,0,0-.12Zm17.92.07L31,16.41a.06.06,0,1,0,0,.11l.46.08h0a.06.06,0,0,0,.06-.05A.06.06,0,0,0,31.48,16.48Zm-17-.21-.47.07a0,0,0,0,0,0,.06.06.06,0,0,0,.06.06h0l.47-.06s.06,0,.05-.07A.05.05,0,0,0,14.5,16.27Zm16.05.07-.47-.07a.05.05,0,0,0-.07.05.08.08,0,0,0,0,.07l.47.06h0a.07.07,0,0,0,.06-.05A.06.06,0,0,0,30.55,16.34Zm-.94-.14-.47-.06a.06.06,0,1,0,0,.12l.47.06h0a.06.06,0,0,0,.06-.05A.08.08,0,0,0,29.61,16.2Zm-14.18-.06L15,16.2a.06.06,0,0,0,0,.07,0,0,0,0,0,.05.05h0l.47-.06a.08.08,0,0,0,.05-.07A.06.06,0,0,0,15.43,16.14Zm13.24-.06-.47,0s-.06,0-.07,0a.06.06,0,0,0,.05.06l.47.06h0a.06.06,0,0,0,.06-.05A.08.08,0,0,0,28.67,16.08ZM16.38,16l-.47.06a.06.06,0,0,0-.06.06s0,.06.06.06h0l.47-.06a.05.05,0,0,0,.05-.06A.06.06,0,0,0,16.38,16Zm11.35,0-.47-.05a.05.05,0,0,0-.07.05.08.08,0,0,0,0,.07l.47,0h0a.06.06,0,0,0,0-.11Zm-10.41-.05h0l-.45,0s-.06,0-.05.07a0,0,0,0,0,.05.05h0l.37,0h.1a.06.06,0,0,0,.06-.06S17.35,15.92,17.32,15.93Zm9.46,0-.47,0a.06.06,0,0,0-.06.06.06.06,0,0,0,.05.06l.47,0h0a.06.06,0,0,0,.06-.05A.07.07,0,0,0,26.78,15.88Zm-8.52,0-.27,0h-.2a.07.07,0,0,0-.05.07.06.06,0,0,0,.06.05H18l.26,0a.06.06,0,0,0,.06-.06A.07.07,0,0,0,18.26,15.84Zm.95-.06-.47,0a.06.06,0,0,0-.06.06s0,.06.06.06h0l.48,0s.06,0,.05-.07A.06.06,0,0,0,19.21,15.78Zm6.63,0-.47,0s-.06,0-.07.05a.09.09,0,0,0,.06.07,3.71,3.71,0,0,1,.47,0h0a.06.06,0,0,0,.05-.06A.05.05,0,0,0,25.84,15.81Zm-5.68-.08-.48,0a.06.06,0,0,0-.05.06.06.06,0,0,0,.06.06h0l.47,0a.07.07,0,0,0,.06-.07A.05.05,0,0,0,20.16,15.73Zm4.74,0-.48,0a.06.06,0,0,0,0,.12l.47,0h0a.06.06,0,0,0,.06-.06A.06.06,0,0,0,24.9,15.75Zm-3.79-.05h-.48a.05.05,0,0,0-.05.06.06.06,0,0,0,.05.06l.48,0a.06.06,0,0,0,.06-.06A.06.06,0,0,0,21.11,15.7Zm2.84,0-.48,0a.06.06,0,1,0,0,.12H24a0,0,0,0,0,.05-.05A0,0,0,0,0,24,15.71Zm-1.9,0h-.47a.07.07,0,0,0-.06.07.06.06,0,0,0,.06.05h.47a.06.06,0,0,0,0-.12Zm.95,0h-.47a.05.05,0,0,0-.06.06.06.06,0,0,0,.06.06H23a.06.06,0,0,0,0-.12Z"/></g><g class="cls-6"><path class="cls-7" d="M66,27.17l-.39,0-.13.1a.09.09,0,0,0,0,0h0l.47-.06a.05.05,0,0,0,0-.06A0,0,0,0,0,66,27.17ZM67,27l-.47.07a0,0,0,0,0,0,.06.05.05,0,0,0,0,0h0l.47-.06s.06,0,0-.07A.05.05,0,0,0,67,27Zm.93-.15-.47.08s0,0,0,.07,0,.05.06.05h0l.47-.07a.08.08,0,0,0,0-.07S67.92,26.88,67.89,26.89Zm.93-.17-.46.09a.05.05,0,0,0,0,.07s0,0,.06,0h0l.46-.08s.06,0,0-.07A.07.07,0,0,0,68.82,26.72Zm.93-.18-.32.06-.14,0s-.06,0-.05.07a.06.06,0,0,0,.06.05h0l.15,0,.31-.06s.06,0,0-.07S69.78,26.54,69.75,26.54Zm.93-.19-.46.1a.05.05,0,0,0,0,.07.05.05,0,0,0,.06,0h0l.47-.1s.05,0,0-.07A.06.06,0,0,0,70.68,26.35Zm.92-.2-.46.1a.06.06,0,0,0,0,.07.05.05,0,0,0,.05.05h0l.46-.1a.06.06,0,0,0,0-.07S71.64,26.14,71.6,26.15Zm.93-.22-.47.11a.07.07,0,0,0,0,.07.06.06,0,0,0,.06.05h0l.47-.11a.06.06,0,0,0,0-.07A.08.08,0,0,0,72.53,25.93Zm-18.21,0s-.07,0-.07,0a.06.06,0,0,0,0,.08l.42.09a.5.5,0,0,0,0-.12Zm19.13-.22-.46.12s0,0,0,.07,0,0,0,0h0l.46-.11a.06.06,0,0,0,0-.07A.08.08,0,0,0,73.45,25.71Zm-19.6.11-.46-.11a.08.08,0,0,0-.07.05s0,.06,0,.07l.46.11h0a.06.06,0,0,0,.06-.05S53.89,25.83,53.85,25.82Zm-.92-.21-.46-.12s-.06,0-.07.05,0,.06.05.07l.46.11h0a.07.07,0,0,0,.06,0A.05.05,0,0,0,52.93,25.61Zm21.44-.12-.46.11a.06.06,0,0,0,0,.07.05.05,0,0,0,0,0h0l.46-.12s0,0,0-.07A.06.06,0,0,0,74.37,25.49ZM52,25.38l-.45-.12a.08.08,0,0,0-.08,0s0,.06.05.07l.46.11a0,0,0,0,0,0,0,.06.06,0,0,0,0-.12Zm23.28-.13-.46.12a.06.06,0,0,0,0,.07.06.06,0,0,0,.06,0h0l.46-.12a.06.06,0,0,0,0-.07A.06.06,0,0,0,75.29,25.25Zm-24.19-.1L50.64,25s-.07,0-.07,0,0,.07,0,.08l.46.11h0a.06.06,0,0,0,.06-.05A.06.06,0,0,0,51.1,25.15ZM76.2,25l-.45.12s0,0,0,.08,0,0,.05,0h0l.46-.12a.06.06,0,0,0,0-.12Zm-26-.1-.46-.11a.06.06,0,0,0,0,.11l.46.12h0a.07.07,0,0,0,.06,0A.06.06,0,0,0,50.18,24.91Zm26.93-.16-.42.13h0a.06.06,0,0,0,0,.07.06.06,0,0,0,.06.05h0l.46-.14s0-.05,0-.08A.06.06,0,0,0,77.11,24.75Zm-27.85-.07-.46-.12a.06.06,0,1,0,0,.11l.46.12h0s0,0,0,0S49.29,24.68,49.26,24.68ZM78,24.46h0l-.23.07-.21.07a.06.06,0,0,0,0,.07.06.06,0,0,0,.06,0h0l.18-.05.23-.08h0a.06.06,0,1,0,0-.11Zm-29.67,0-.45-.13a.08.08,0,0,0-.08.05.08.08,0,0,0,0,.07l.46.12h0a.07.07,0,0,0,.06,0A.05.05,0,0,0,48.34,24.44Zm-.91-.25L47,24.07a.06.06,0,0,0-.07.05.06.06,0,0,0,0,.07l.46.12h0a.06.06,0,0,0,0-.12ZM46.51,24l-.46-.12a.06.06,0,0,0-.07,0A.07.07,0,0,0,46,24l.46.12h0a.08.08,0,0,0,.06,0A.08.08,0,0,0,46.51,24Zm-.92-.24-.46-.12a.06.06,0,0,0-.07,0s0,.06,0,.07l.46.12h0a.06.06,0,0,0,.06,0S45.63,23.72,45.59,23.71Zm-.91-.24-.46-.12a.07.07,0,0,0-.08,0,.08.08,0,0,0,0,.07l.46.12h0a.06.06,0,0,0,.06-.05A.06.06,0,0,0,44.68,23.47Zm-.92-.24-.46-.12a.06.06,0,0,0-.07,0s0,.07,0,.07l.46.12h0a.05.05,0,0,0,.06,0A.06.06,0,0,0,43.76,23.23ZM42.84,23l-.46-.12a.06.06,0,0,0-.07,0,.06.06,0,0,0,0,.08l.46.11h0a.06.06,0,0,0,.06-.05A.06.06,0,0,0,42.84,23ZM3.66,22.8l-.18.05-.28.07h0a.06.06,0,0,0,0,.07v0a.05.05,0,0,0,.05,0h0l.2-.05.26-.06h0a.06.06,0,0,0,0-.07h0A.06.06,0,0,0,3.66,22.8Zm38.26-.05-.46-.11a.06.06,0,0,0,0,.11l.46.12h0s.06,0,.06,0A.06.06,0,0,0,41.92,22.75ZM4.58,22.57l-.46.12s0,0,0,.07a.07.07,0,0,0,.06,0h0l.46-.12a.06.06,0,0,0,0-.07S4.61,22.56,4.58,22.57ZM41,22.52l-.46-.11s-.07,0-.07,0a.06.06,0,0,0,0,.07l.46.12h0s.06,0,.06,0A.06.06,0,0,0,41,22.52ZM5.5,22.33,5,22.45a.06.06,0,0,0,0,.07.05.05,0,0,0,0,.05s0,0,0,0l.46-.11a.06.06,0,0,0,0-.08A.07.07,0,0,0,5.5,22.33Zm34.58,0-.46-.11s-.07,0-.07.05a.06.06,0,0,0,0,.07l.46.11h0a.07.07,0,0,0,.06,0A.06.06,0,0,0,40.08,22.29ZM6.41,22.07,6,22.2a.06.06,0,0,0,0,.12H6l.45-.14a.06.06,0,1,0,0-.11Zm32.74,0L38.69,22a.06.06,0,0,0-.07.05s0,.06.05.07l.46.11h0a.06.06,0,0,0,.06-.05S39.19,22.08,39.15,22.07ZM7.32,21.81l-.46.13a.06.06,0,0,0,0,.07.05.05,0,0,0,.06,0h0l.46-.13a.06.06,0,1,0,0-.11Zm30.91,0-.46-.1a.06.06,0,0,0-.07,0s0,.07,0,.07l.46.11h0a0,0,0,0,0,.05,0A.06.06,0,0,0,38.23,21.85Zm-30-.29-.46.12a.06.06,0,0,0,0,.08.08.08,0,0,0,.06,0h0l.45-.12a.06.06,0,0,0,.05-.07S8.27,21.56,8.23,21.56Zm29.08.08-.47-.1s-.06,0-.07.05a.08.08,0,0,0,0,.07l.46.1h0a.06.06,0,0,0,.06-.05A.06.06,0,0,0,37.31,21.64ZM9.15,21.33l-.46.11a.06.06,0,0,0,0,.08.07.07,0,0,0,.06,0h0l.46-.11a.08.08,0,0,0,.05-.07A.06.06,0,0,0,9.15,21.33Zm27.23.11-.47-.1a0,0,0,0,0-.06.05.06.06,0,0,0,0,.07l.47.1h0a0,0,0,0,0,.05,0A.06.06,0,0,0,36.38,21.44Zm-.93-.2L35,21.15s-.06,0-.07.05a0,0,0,0,0,0,.06l.46.1h0a.06.06,0,0,0,.06-.05S35.48,21.25,35.45,21.24Zm-25.37-.13-.47.11a.06.06,0,0,0,0,.07.06.06,0,0,0,.06.05h0l.46-.11a.06.06,0,0,0,.05-.07A.08.08,0,0,0,10.08,21.11Zm24.44-.05-.46-.1S34,21,34,21a.06.06,0,0,0,0,.07l.47.09h0a.06.06,0,0,0,.06-.05A0,0,0,0,0,34.52,21.06ZM11,20.91l-.46.1a.06.06,0,0,0,0,.07.05.05,0,0,0,.05.05h0L11,21a.06.06,0,0,0,0-.07S11,20.91,11,20.91Zm22.59,0-.46-.09a.05.05,0,0,0-.07.05s0,.06,0,.07l.46.08h0a.06.06,0,0,0,.06,0A.05.05,0,0,0,33.59,20.88Zm-21.66-.15-.46.09a.06.06,0,0,0-.05.07.05.05,0,0,0,.06,0h0l.47-.09s0,0,0-.07S12,20.72,11.93,20.73Zm20.73,0-.47-.09a.06.06,0,0,0-.06.05s0,.07,0,.07l.47.08h0a.06.06,0,0,0,.06-.05A.06.06,0,0,0,32.66,20.71Zm-19.79-.15-.47.08a.08.08,0,0,0-.05.07.06.06,0,0,0,.06.05h0l.47-.08s0,0,0-.07A.06.06,0,0,0,12.87,20.56Zm18.86,0-.47-.08s-.07,0-.07.05a.08.08,0,0,0,0,.07l.47.07h0a.08.08,0,0,0,.06,0S31.76,20.55,31.73,20.55ZM13.8,20.4l-.47.08a0,0,0,0,0,0,.06,0,0,0,0,0,.05.05h0l.47-.07s.06,0,0-.07S13.83,20.39,13.8,20.4Zm17,0-.47-.07s-.06,0-.07.05a.06.06,0,0,0,.05.06l.47.08h0s0,0,.06-.05S30.82,20.4,30.79,20.4Zm-16-.11h0a.07.07,0,0,0-.06,0l-.47.07a.06.06,0,0,0,0,.06.06.06,0,0,0,.06.05h0l.47-.06h0a.07.07,0,0,0,0-.06A0,0,0,0,1,14.8,20.29Zm15.05,0-.47-.06a.06.06,0,1,0,0,.11l.47.07h0a.06.06,0,0,0,.06-.05S29.89,20.27,29.85,20.26Zm-14.17-.13-.34.05h-.13s-.06,0-.05.07a.06.06,0,0,0,.06,0h.07l.4-.05s.06,0,.06-.07A.08.08,0,0,0,15.68,20.13Zm13.23,0-.47-.06a.06.06,0,0,0-.06.05.05.05,0,0,0,.05.07l.47.06h0a.05.05,0,0,0,.05-.05A.05.05,0,0,0,28.91,20.14ZM16.62,20l-.47.06a.05.05,0,0,0,0,.06.06.06,0,0,0,.06.05h0l.47-.05a.06.06,0,0,0,.06-.06A.07.07,0,0,0,16.62,20ZM28,20,27.5,20a.05.05,0,0,0-.06.05s0,.06,0,.07l.47,0h0a.06.06,0,0,0,.05-.06A.05.05,0,0,0,28,20Zm-10.4-.1-.48,0A.08.08,0,0,0,17,20a.06.06,0,0,0,.06.05h0l.47,0a.07.07,0,0,0,.05-.07A.05.05,0,0,0,17.57,19.93Zm9.46,0-.47,0a.08.08,0,0,0-.07.05.07.07,0,0,0,.06.07l.47,0h0s.06,0,.06-.05S27.06,19.94,27,19.93Zm-8.52-.08-.47,0A.06.06,0,0,0,18,20S18,20,18,20h0l.47,0a.05.05,0,0,0,.05-.07A.06.06,0,0,0,18.51,19.85Zm7.58,0-.48,0a.05.05,0,0,0-.06.05.07.07,0,0,0,.06.07l.47,0h0a.06.06,0,0,0,.06,0S26.12,19.85,26.09,19.85Zm-6.63-.06-.48,0a.06.06,0,0,0-.05.06.06.06,0,0,0,.06.06h0l.47,0s.06,0,.06-.06A.06.06,0,0,0,19.46,19.79Zm5.68,0-.47,0a.06.06,0,0,0-.06.06.05.05,0,0,0,.05.06l.47,0h0a.06.06,0,0,0,0-.12Zm-4.74-.05-.47,0a.07.07,0,0,0-.06.07.06.06,0,0,0,.06.05h0l.47,0a.06.06,0,0,0,.06-.06A.07.07,0,0,0,20.4,19.74Zm3.79,0-.47,0a.06.06,0,1,0,0,.12l.47,0h0a.06.06,0,0,0,0-.12Zm-2.84,0h-.47a.06.06,0,1,0,0,.12l.47,0a.05.05,0,0,0,.06-.06S21.39,19.72,21.35,19.72Zm1.9,0h-.48a.06.06,0,0,0-.06.05.06.06,0,0,0,.06.06h.48a.06.06,0,0,0,.06-.06A.06.06,0,0,0,23.25,19.71Zm-.95,0h-.47a.05.05,0,0,0-.06.06.06.06,0,0,0,.06.06h.47a.06.06,0,0,0,.06-.06A.06.06,0,0,0,22.3,19.7Z"/></g><path class="cls-8" d="M39.26,62.75H39.2c-.1,0-10.83-2.74-16.49-8.4-5.24-5.24-10.29-15.08-9.78-25.28A32.28,32.28,0,0,1,17.28,15a.24.24,0,0,1,.33-.09.24.24,0,0,1,.09.32,31.8,31.8,0,0,0-4.3,13.87C12.9,39.13,17.88,48.84,23,54c5.58,5.58,16.17,8.25,16.28,8.28a.24.24,0,0,1-.06.47Z"/><g class="cls-6"><path class="cls-9" d="M40.3,62.52l-.38-.1a.06.06,0,0,0-.08,0,.06.06,0,0,0,0,.07l.36.1h.06a.07.07,0,0,0,0,0A.06.06,0,0,0,40.3,62.52Zm-.82-.22h0L39,62.16a0,0,0,0,0-.06,0h0v0a.08.08,0,0,0,0,0l.45.13h0l0,0A0,0,0,0,0,39.48,62.3ZM38.55,62l-.45-.15a.07.07,0,0,0-.08,0h0a.06.06,0,0,0,0,.06l.42.14h.06a.07.07,0,0,0,.05,0h0S38.58,62,38.55,62Zm-.9-.3-.45-.15a.07.07,0,0,0-.08,0v0s0,0,0,0l.45.16h0a.05.05,0,0,0,0,0h0A.07.07,0,0,0,37.65,61.72Zm-.9-.3-.44-.16s-.07,0-.08,0,0,0,0,.05h0l0,0,.44.16h.06l0,0A.06.06,0,0,0,36.75,61.42Zm-.89-.33-.44-.16a.06.06,0,0,0-.05.11l.06,0h0l.08,0h0l.07,0,.22.09h0a0,0,0,0,0,0,0S35.89,61.11,35.86,61.09ZM35,60.76l-.44-.18a.06.06,0,0,0-.07,0,0,0,0,0,0,0,.07l.44.18h0a.05.05,0,0,0,.06,0A.05.05,0,0,0,35,60.76Zm-.87-.35-.44-.19a.07.07,0,0,0-.08,0,.05.05,0,0,0,0,.07l.44.19h0a.05.05,0,0,0,.06,0A.06.06,0,0,0,34.1,60.41ZM33.22,60l-.43-.19a.06.06,0,0,0-.08,0,.07.07,0,0,0,0,.08l.43.19h0a.06.06,0,0,0,0-.11Zm-.86-.39-.43-.2a.06.06,0,0,0-.08,0,.06.06,0,0,0,0,.08l.43.2h0a.06.06,0,0,0,0-.12Zm-.86-.4L31.08,59a.06.06,0,0,0-.08,0,.05.05,0,0,0,0,.08l.43.21h0a.06.06,0,0,0,.06,0A.06.06,0,0,0,31.5,59.25Zm-.85-.42-.42-.22a.07.07,0,0,0-.08,0,.07.07,0,0,0,0,.08l.42.21h0a.05.05,0,0,0,.05,0A.06.06,0,0,0,30.65,58.83Zm-.84-.44-.41-.23s-.06,0-.08,0a.05.05,0,0,0,0,.08l.42.23h0a.05.05,0,0,0,.05,0A.06.06,0,0,0,29.81,58.39ZM29,57.93l-.41-.24a.06.06,0,0,0-.06.1l.41.24h0A.05.05,0,0,0,29,58,.05.05,0,0,0,29,57.93Zm-.82-.49-.4-.25a.06.06,0,0,0-.06.1l.4.25h0l.05,0A.07.07,0,0,0,28.17,57.44Zm-.8-.5L27,56.67a.06.06,0,0,0-.08,0,.05.05,0,0,0,0,.08l.39.27h0s0,0,.05,0A.05.05,0,0,0,27.37,56.94Zm-.78-.54-.38-.27a.05.05,0,0,0-.08,0,.05.05,0,0,0,0,.08l.38.28h0l.05,0A.07.07,0,0,0,26.59,56.4Zm-.75-.56-.38-.29a.06.06,0,0,0-.08,0,.05.05,0,0,0,0,.08l.37.3h0l.05,0A.07.07,0,0,0,25.84,55.84Zm-.74-.59-.36-.3a.06.06,0,0,0-.08.08l.36.31,0,0,0,0A.07.07,0,0,0,25.1,55.25Zm-.71-.62L24,54.3a.05.05,0,0,0-.08,0,.06.06,0,0,0,0,.08l.35.33h0a0,0,0,0,0,0,0A.06.06,0,0,0,24.39,54.63ZM23.71,54l-.33-.34a.06.06,0,0,0-.08,0,.05.05,0,0,0,0,.08l.33.35h.08A.07.07,0,0,0,23.71,54Zm-.65-.68-.32-.36a.06.06,0,0,0-.08,0,.06.06,0,0,0,0,.08l.32.36,0,0s0,0,0,0A.05.05,0,0,0,23.06,53.29Zm-.63-.71-.3-.36a.06.06,0,1,0-.09.07c.1.12.2.25.3.36s0,0,.05,0l0,0A.05.05,0,0,0,22.43,52.58Zm-.6-.73-.29-.37a.06.06,0,0,0-.09,0,.08.08,0,0,0,0,.08l.3.37a.05.05,0,0,0,.05,0l0,0A.05.05,0,0,0,21.83,51.85Zm-.58-.75L21,50.72a.06.06,0,0,0-.08,0,.05.05,0,0,0,0,.08c.1.13.19.26.29.38a.05.05,0,0,0,0,0,.05.05,0,0,0,0,0A.06.06,0,0,0,21.25,51.1Zm-.56-.76L20.42,50a.06.06,0,1,0-.09.07l.27.39,0,0h0A.05.05,0,0,0,20.69,50.34Zm-.53-.78-.26-.4a.06.06,0,0,0-.08,0,.07.07,0,0,0,0,.09l.26.39a.05.05,0,0,0,.05,0h0A.06.06,0,0,0,20.16,49.56Zm-.52-.8-.24-.4a.06.06,0,0,0-.08,0,.05.05,0,0,0,0,.08l.25.41,0,0h0A.07.07,0,0,0,19.64,48.76Zm-.49-.8c-.08-.14-.15-.28-.23-.41a.08.08,0,0,0-.09,0,.08.08,0,0,0,0,.08l.24.41a.07.07,0,0,0,.05,0h0A.06.06,0,0,0,19.15,48Zm-.47-.82-.22-.42a.06.06,0,0,0-.08,0,.06.06,0,0,0,0,.08l.23.41a.05.05,0,0,0,.05,0h0A0,0,0,0,0,18.68,47.14Zm-.44-.84c-.08-.14-.15-.28-.22-.42a.07.07,0,0,0-.08,0,.07.07,0,0,0,0,.08c.07.15.15.29.22.43a.05.05,0,0,0,.05,0h0A.06.06,0,0,0,18.24,46.3Zm-.43-.84L17.6,45a.06.06,0,0,0-.08,0,.07.07,0,0,0,0,.08l.21.43a.05.05,0,0,0,.05,0h0A.07.07,0,0,0,17.81,45.46Zm-.41-.86c-.06-.14-.13-.28-.19-.43a.07.07,0,0,0-.08,0s-.05,0,0,.08l.19.43a.07.07,0,0,0,.06,0h0A.06.06,0,0,0,17.4,44.6ZM17,43.74c-.07-.15-.13-.29-.19-.44a.06.06,0,1,0-.11.05l.19.43a.05.05,0,0,0,.05,0h0A.06.06,0,0,0,17,43.74Zm-.37-.88-.17-.44a.06.06,0,0,0-.08,0,.05.05,0,0,0,0,.07l.17.45a.06.06,0,0,0,.06,0h0A.06.06,0,0,0,16.65,42.86Zm-.5-1.33a.07.07,0,0,0-.08,0,.07.07,0,0,0,0,.08c.05.15.1.3.16.45a.07.07,0,0,0,.06,0h0a.05.05,0,0,0,0-.07Zm-.31-.9a0,0,0,0,0-.07,0,.06.06,0,0,0,0,.07l.15.45a.05.05,0,0,0,.06,0h0s.05,0,0-.08Zm-.28-.9a.06.06,0,0,0-.08,0s0,0,0,.08.09.3.14.45,0,0,.05,0h0a.06.06,0,0,0,0-.08C15.65,40,15.6,39.88,15.56,39.73Zm-.26-.91a.06.06,0,0,0-.07,0,.05.05,0,0,0,0,.07l.12.46a.07.07,0,0,0,.06,0h0a.05.05,0,0,0,0-.07Zm-.24-.92a.06.06,0,0,0-.11,0l.11.46a.07.07,0,0,0,.06,0h0a.06.06,0,0,0,0-.07ZM14.85,37s0,0-.07,0,0,0,0,.07.06.3.1.46a.06.06,0,0,0,.06.05,0,0,0,0,0,0,0s.05,0,.05-.07S14.89,37.13,14.85,37Zm-.18-.93a.06.06,0,0,0-.12,0l.09.47a.06.06,0,0,0,.06.05h0a.08.08,0,0,0,0-.07Zm-.16-.93s0,0-.07,0a.08.08,0,0,0,0,.07c0,.15,0,.31.08.47a.06.06,0,0,0,.06,0h0a.08.08,0,0,0,.05-.07C14.56,35.43,14.53,35.28,14.51,35.12Zm-.13-.93a.07.07,0,0,0-.07-.06.08.08,0,0,0-.05.07l.06.47a.06.06,0,0,0,.06,0h0s0,0,0-.07Zm-.11-.94a.06.06,0,0,0-.06-.06s-.06,0-.05.07,0,.31,0,.47a.06.06,0,0,0,.06.05h0a.05.05,0,0,0,.05-.07C14.3,33.56,14.29,33.4,14.27,33.25Zm-.07-1a.05.05,0,0,0-.06,0,.06.06,0,0,0-.06.06l0,.47s0,.06.06.06h0a.05.05,0,0,0,.05-.07Zm0-.94s0-.05-.06-.06a.05.05,0,0,0-.05.06c0,.16,0,.32,0,.48a0,0,0,0,0,0,.05h0a.06.06,0,0,0,.05-.06C14.16,31.68,14.16,31.52,14.15,31.36Zm0-.91v0a.06.06,0,1,0-.12,0v.47a.06.06,0,0,0,.06.06.06.06,0,0,0,.06-.06Zm0-1a.06.06,0,0,0-.06.06c0,.15,0,.31,0,.47a.06.06,0,0,0,.06.06.06.06,0,0,0,.06-.06c0-.15,0-.31,0-.47A.06.06,0,0,0,14.1,29.41Zm.05-.95a.06.06,0,0,0-.06.06l0,.47a.07.07,0,0,0,0,.07h0a.06.06,0,0,0,.06-.06l0-.47A.07.07,0,0,0,14.15,28.46Zm.09-.94a.08.08,0,0,0-.07.05c0,.16,0,.32,0,.47a.05.05,0,0,0,0,.07h0a0,0,0,0,0,.05-.05c0-.16,0-.32,0-.47S14.27,27.52,14.24,27.52Zm.12-.94a.08.08,0,0,0-.07.05l-.06.47s0,.06,0,.07h0a.06.06,0,0,0,.06-.05l.06-.47A.08.08,0,0,0,14.36,26.58Zm.15-.93s-.06,0-.07.05,0,.31-.08.46,0,.07.05.07h0a.06.06,0,0,0,.06-.05c0-.16,0-.31.08-.47A.06.06,0,0,0,14.51,25.65Zm.18-.93a.06.06,0,0,0-.07,0l-.09.47s0,.06.05.07h0a.06.06,0,0,0,.06-.05l.09-.46A.05.05,0,0,0,14.69,24.72Zm.22-.93s-.07,0-.07.05-.08.3-.11.46a.06.06,0,0,0,0,.07h0s.06,0,.06,0,.08-.31.11-.47A.06.06,0,0,0,14.91,23.79Zm.24-.91a.06.06,0,0,0-.07,0c0,.15-.09.3-.13.46a.06.06,0,0,0,.05.07h0a.07.07,0,0,0,.06,0l.12-.46A.06.06,0,0,0,15.15,22.88Zm.27-.91a.06.06,0,0,0-.07,0c0,.15-.1.3-.14.45a.07.07,0,0,0,0,.08h0s.05,0,.05,0,.09-.31.14-.46A.06.06,0,0,0,15.42,22Zm.3-.9a.06.06,0,0,0-.08,0l0,.08a1.83,1.83,0,0,1-.08.25s0,.08,0,.12a.06.06,0,0,0,0,.07h0a.05.05,0,0,0,0,0l.06-.16c0-.09.06-.17.08-.25v0A.05.05,0,0,0,15.72,21.07Zm.32-.89a.07.07,0,0,0-.08,0l-.16.45a.07.07,0,0,0,0,.08h0a.07.07,0,0,0,.05,0c.05-.15.11-.3.17-.44A.06.06,0,0,0,16,20.18Zm.35-.88a.06.06,0,0,0-.08,0l-.18.44a.07.07,0,0,0,0,.08h0a.05.05,0,0,0,0,0l.18-.44A.05.05,0,0,0,16.39,19.3Zm.37-.88a.07.07,0,0,0-.08,0c-.06.14-.13.28-.19.43a.06.06,0,0,0,0,.08h0a.05.05,0,0,0,.05,0c.06-.15.12-.29.19-.44A.07.07,0,0,0,16.76,18.42Zm.39-.86a.07.07,0,0,0-.08,0c-.06.14-.13.29-.2.43a.06.06,0,0,0,0,.08h0a.07.07,0,0,0,.05,0c.07-.14.13-.29.2-.43A.07.07,0,0,0,17.15,17.56Zm.42-.85a.06.06,0,0,0-.08,0l-.21.42a.06.06,0,0,0,0,.08h.07v0l0-.06.18-.37A.05.05,0,0,0,17.57,16.71Zm.44-.84H18a0,0,0,0,0,0,0l-.06.09c-.05.11-.11.22-.17.33a.05.05,0,0,0,0,.07h0a.05.05,0,0,0,0,0c.07-.13.14-.26.2-.39l0,0S18,15.89,18,15.87Zm.46-.83a.06.06,0,0,0-.08,0l-.12.19-.12.22a.07.07,0,0,0,0,.08h0a.07.07,0,0,0,.06,0,2.69,2.69,0,0,1,.16-.29l.07-.12A.07.07,0,0,0,18.47,15Z"/></g><path class="cls-8" d="M71,37.37a118.26,118.26,0,0,1-4,21.61c-.45,1.47-1.79,4.5-3.08,7.31a2.92,2.92,0,0,0-.14.31l-.08.16a1.19,1.19,0,0,1-.08.16.61.61,0,0,1,0,.12c-1,2.14-1.91,4.06-2.31,4.89-.06.11-.1.2-.13.27s-.07.13-.08.16a.24.24,0,0,1-.21.13.21.21,0,0,1-.23-.19.2.2,0,0,1,0-.15s0,0,.06-.1c.24-.51,1.32-2.75,2.5-5.3,1.38-3,2.89-6.37,3.36-7.91a125.63,125.63,0,0,0,3.7-18l.06-.48c.11-1,.2-2,.26-3a37.21,37.21,0,0,0-.76-9.42,2,2,0,0,1,0-.24c0-.08,0-.15,0-.23h0c-.05-.25-.11-.49-.16-.73l0-.12c-.2-.86-.4-1.62-.58-2.27l.38-.38c.27.9.57,2.06.86,3.41h0c0,.08,0,.15,0,.23s0,.16.05.23h0A37.62,37.62,0,0,1,71,37.37Z"/><path class="cls-7" d="M32,70.65h0a.23.23,0,0,1-.21-.26,37.94,37.94,0,0,1,1.29-6.09c.61-2,1.24-3,2-3.3a.24.24,0,0,1,.3.14.24.24,0,0,1-.14.31c-.58.21-1.15,1.21-1.7,3a36.94,36.94,0,0,0-1.27,6A.25.25,0,0,1,32,70.65Z"/><g class="cls-6"><path class="cls-7" d="M31.37,69.9a.08.08,0,0,0-.07,0,4.22,4.22,0,0,0-.05.42.08.08,0,0,0,0,0,.08.08,0,0,0,0,0l0,0h0a.06.06,0,0,0,.06-.06.24.24,0,0,0,0-.07c0-.08,0-.21.05-.37S31.4,69.9,31.37,69.9Zm.14-.94a.06.06,0,0,0-.06.05c0,.17-.06.33-.08.47a.08.08,0,0,0,.05.07h0a.06.06,0,0,0,.06,0c0-.14.05-.3.07-.47S31.55,69,31.51,69Zm.18-.93a.06.06,0,0,0-.08,0c0,.16-.06.31-.08.46s0,.06,0,.07h0a.05.05,0,0,0,.05,0l.09-.46A.06.06,0,0,0,31.69,68Zm.18-.93s-.06,0-.07.05l-.09.46a.06.06,0,0,0,0,.07h0a.05.05,0,0,0,.05-.05c0-.15.07-.3.1-.46S31.91,67.11,31.87,67.1Zm.22-.92s-.07,0-.07,0,0,.09,0,.13-.05.22-.07.33,0,.07,0,.07h0s.06,0,.06,0l.09-.39s0,0,0-.07S32.12,66.18,32.09,66.18Zm.23-.92a.06.06,0,0,0-.07,0l-.12.46a.06.06,0,0,0,0,.07h0a.07.07,0,0,0,.06,0,4.48,4.48,0,0,1,.12-.46A.06.06,0,0,0,32.32,65.26Zm.27-.91a.06.06,0,0,0-.07,0c-.05.15-.1.3-.14.45a.07.07,0,0,0,0,.08h0a.08.08,0,0,0,.06,0c0-.15.08-.31.13-.46A.06.06,0,0,0,32.59,64.35Zm.3-.9a.07.07,0,0,0-.08,0l-.15.44a.06.06,0,0,0,0,.08h0a.05.05,0,0,0,.05,0c0-.14.1-.29.16-.44A.07.07,0,0,0,32.89,63.45Zm.37-.87a.05.05,0,0,0-.08,0c-.06.13-.13.28-.19.43a.06.06,0,0,0,0,.08h0a.06.06,0,0,0,.06,0,3.46,3.46,0,0,1,.19-.43A.06.06,0,0,0,33.26,62.58Zm.49-.82a.08.08,0,0,0-.09,0c-.08.11-.17.25-.26.4a.07.07,0,0,0,0,.08h0a.05.05,0,0,0,0,0,3.3,3.3,0,0,1,.26-.39A.08.08,0,0,0,33.75,61.76Zm.73-.57a.05.05,0,0,0-.07,0h0a1.47,1.47,0,0,0-.38.25.05.05,0,0,0,0,.08s0,0,.05,0h0a1.21,1.21,0,0,1,.38-.24.1.1,0,0,0,0-.05A0,0,0,0,0,34.48,61.19Z"/></g><ellipse class="cls-10" cx="19.56" cy="17.88" rx="2.01" ry="1.36"/><g class="cls-11"><path class="cls-8" d="M20,16.16h-.25a2.5,2.5,0,0,0-1.85.91h0a1.31,1.31,0,0,0-.26.79,1.36,1.36,0,0,0,.26.79h0a2.47,2.47,0,0,0,1.85.91H20c1.3,0,2.36-.77,2.36-1.71S21.34,16.16,20,16.16Zm0,2.72H19.8c-.85-.07-1.42-.56-1.42-1s.57-.92,1.42-1H20a2,2,0,0,1,1.35.45h0a.79.79,0,0,1,.3.56.75.75,0,0,1-.3.55h0A2.09,2.09,0,0,1,20,18.88Z"/></g><path class="cls-12" d="M19.8,16.17h-.24a2.52,2.52,0,0,0-2.15,1,.3.3,0,0,0,0,.08,1.19,1.19,0,0,0-.18.64c0,.94,1.06,1.71,2.37,1.71h.24c1.2-.08,2.13-.81,2.13-1.7S21,16.26,19.8,16.17Zm0,2.7h-.24c-1,0-1.66-.53-1.66-1s.68-1,1.66-1h.24c.85.08,1.42.56,1.42,1S20.65,18.8,19.8,18.87Z"/><path class="cls-8" d="M16.34,42.48h-.06a.06.06,0,1,1,0-.12h.48a0,0,0,0,1,0,0s0,.06,0,.07Zm-.53,0h0l-.48,0a.05.05,0,0,1-.05-.06.06.06,0,0,1,.06-.06l.47,0a.06.06,0,0,1,.06.06A.06.06,0,0,1,15.81,42.47Zm1.42,0a.06.06,0,0,1-.06-.05.07.07,0,0,1,0-.07l.47,0s.07,0,.07.05,0,.07-.05.07l-.48,0Zm.94-.1a.06.06,0,0,1-.06-.05s0-.07.05-.07l.46-.09s.07,0,.07,0,0,.07,0,.07l-.47.1Zm.92-.21s0,0-.05,0a.06.06,0,0,1,0-.07l.44-.16a.07.07,0,0,1,.08,0,.06.06,0,0,1,0,.07,3,3,0,0,1-.45.16Zm.88-.37a.06.06,0,0,1,0-.11,3.73,3.73,0,0,0,.39-.25.05.05,0,0,1,.08,0,.06.06,0,0,1,0,.08l-.4.27Zm.73-.59h0a.05.05,0,0,1,0-.08,2,2,0,0,0,.24-.39.06.06,0,0,1,.11,0,2.19,2.19,0,0,1-.26.41A.06.06,0,0,1,20.7,41.18Zm.41-.84h0a.08.08,0,0,1-.05-.07,2.21,2.21,0,0,0,.07-.46.06.06,0,1,1,.12,0,3.11,3.11,0,0,1-.07.47A.06.06,0,0,1,21.11,40.34Zm.08-.94a.06.06,0,0,1-.06-.06,4.09,4.09,0,0,0,0-.47.06.06,0,0,1,0-.06s.07,0,.07,0a4.12,4.12,0,0,1,0,.48.06.06,0,0,1-.06.06Zm-.09-.94a.06.06,0,0,1-.06-.05c0-.16-.05-.31-.08-.47s0-.06.05-.07a.08.08,0,0,1,.07.05c0,.16.05.32.08.47a.08.08,0,0,1-.05.07Zm-.17-.93a.06.06,0,0,1-.06-.05c0-.15-.07-.31-.1-.46s0-.07,0-.07a.06.06,0,0,1,.07,0c0,.16.07.31.1.46s0,.07,0,.07Zm-.21-.93a.07.07,0,0,1-.06,0l-.11-.47a.06.06,0,0,1,0-.07.07.07,0,0,1,.08,0l.1.46a.06.06,0,0,1,0,.07Zm-.22-.92a.06.06,0,0,1-.06,0c0-.15-.07-.3-.11-.46a.08.08,0,0,1,.05-.07.06.06,0,0,1,.07,0c0,.16.07.31.11.47a.08.08,0,0,1,0,.07Zm-.21-.93a.05.05,0,0,1-.06,0c0-.16-.07-.31-.1-.47a.06.06,0,0,1,.12,0c0,.16.06.31.1.46s0,.07-.05.07Zm-.19-.92a.06.06,0,0,1-.06,0c0-.16-.05-.31-.08-.47a.06.06,0,0,1,.12,0c0,.16.05.31.08.47a.06.06,0,0,1-.05.06ZM20,32.89a.06.06,0,0,1-.06,0l-.06-.47a.08.08,0,0,1,.05-.07.07.07,0,0,1,.07.06c0,.15,0,.31.06.46s0,.07-.05.07ZM19.84,32a0,0,0,0,1-.05-.05,3.87,3.87,0,0,1,0-.48.06.06,0,0,1,0-.06s.06,0,.07.06,0,.31,0,.47a.05.05,0,0,1,0,.06Zm0-.95s-.05,0-.05-.06v-.47a.09.09,0,0,1,.07-.06.06.06,0,0,1,.05.06c0,.15,0,.29,0,.44v0A.05.05,0,0,1,19.8,31Zm0-.94h0a.07.07,0,0,1-.06-.07,2.89,2.89,0,0,1,0-.29,1.1,1.1,0,0,1,0-.18.06.06,0,0,1,.06-.05s.06,0,.06.07l0,.17,0,.29A.06.06,0,0,1,19.84,30.06Zm.13-.94h0s-.06,0-.05-.07.05-.31.08-.47a.06.06,0,1,1,.12,0l-.09.47A0,0,0,0,1,20,29.12Zm.17-.94h0a.05.05,0,0,1-.05-.07c0-.15.06-.3.1-.46a.05.05,0,0,1,.07,0,.06.06,0,0,1,0,.07l-.09.47A.07.07,0,0,1,20.14,28.18Zm.2-.92h0s-.05,0,0-.07.07-.3.11-.46,0,0,.07,0,.05,0,0,.07-.07.31-.11.46A.05.05,0,0,1,20.34,27.26Zm.21-.93h0a.06.06,0,0,1,0-.07c0-.15.07-.31.11-.46a.08.08,0,0,1,.07-.05.08.08,0,0,1,.05.08l-.12.46A.07.07,0,0,1,20.55,26.33Zm.24-.92h0a.06.06,0,0,1,0-.07l.12-.46a.06.06,0,0,1,.07,0s0,0,0,.07l-.12.46S20.81,25.41,20.79,25.41Zm.24-.92h0a.06.06,0,0,1,0-.07l.12-.46a.07.07,0,0,1,.08,0,.06.06,0,0,1,0,.07c0,.16-.08.31-.13.46S21.05,24.49,21,24.49Zm.25-.91h0a.06.06,0,0,1,0-.07c0-.16.09-.31.13-.46a.06.06,0,0,1,.11,0l-.12.46A.08.08,0,0,1,21.28,23.58Zm.26-.91h0a.06.06,0,0,1,0-.07l.13-.46a.06.06,0,0,1,.08,0s0,.05,0,.08l-.14.45A.05.05,0,0,1,21.54,22.67Zm.26-.91h0a.05.05,0,0,1,0-.07l.13-.46a.06.06,0,0,1,.07,0,.07.07,0,0,1,0,.08l-.13.45A.06.06,0,0,1,21.8,21.76Zm.27-.91h0a.05.05,0,0,1,0-.07c0-.15.09-.3.13-.45a.06.06,0,0,1,.08,0,.06.06,0,0,1,0,.07c-.05.15-.1.3-.14.45A.06.06,0,0,1,22.07,20.85Zm.28-.91h0s0,0,0-.07l.14-.45a.06.06,0,0,1,.07,0,.05.05,0,0,1,0,.07l-.14.46S22.37,19.94,22.35,19.94Zm.28-.91h0a.06.06,0,0,1,0-.08l.14-.45a.06.06,0,0,1,.12,0l-.15.45S22.65,19,22.63,19Zm.28-.9h0a.05.05,0,0,1,0-.07L23,17.6a.05.05,0,0,1,.07,0,.06.06,0,0,1,0,.07l-.14.45A.06.06,0,0,1,22.91,18.13Zm.29-.91h0a.07.07,0,0,1,0-.08l.15-.45a.06.06,0,0,1,.07,0,.07.07,0,0,1,0,.08l-.14.45A.08.08,0,0,1,23.2,17.22Zm.29-.9h0a.05.05,0,0,1,0-.07l.14-.45a.07.07,0,0,1,.08,0,.06.06,0,0,1,0,.07l-.15.46A.07.07,0,0,1,23.49,16.32Zm.3-.91h0a.06.06,0,0,1,0-.07c.08-.23.13-.38.15-.46a.06.06,0,0,1,.08,0,.06.06,0,0,1,0,.07q0,.12-.15.45A.06.06,0,0,1,23.79,15.41Z"/><path class="cls-7" d="M16.34,42.48h-.06a.06.06,0,1,1,0-.12h.48a0,0,0,0,1,0,0s0,.06,0,.07Zm-.53,0h0l-.48,0a.05.05,0,0,1-.05-.06.06.06,0,0,1,.06-.06l.47,0a.06.06,0,0,1,.06.06A.06.06,0,0,1,15.81,42.47Zm1.42,0a.06.06,0,0,1-.06-.05.07.07,0,0,1,0-.07l.47,0s.07,0,.07.05,0,.07-.05.07l-.48,0Zm.94-.1a.06.06,0,0,1-.06-.05s0-.07.05-.07l.46-.09s.07,0,.07,0,0,.07,0,.07l-.47.1Zm.92-.21s0,0-.05,0a.06.06,0,0,1,0-.07l.44-.16a.07.07,0,0,1,.08,0,.06.06,0,0,1,0,.07,3,3,0,0,1-.45.16Zm.88-.37a.06.06,0,0,1,0-.11,3.73,3.73,0,0,0,.39-.25.05.05,0,0,1,.08,0,.06.06,0,0,1,0,.08l-.4.27Zm.73-.59h0a.05.05,0,0,1,0-.08,2,2,0,0,0,.24-.39.06.06,0,0,1,.11,0,2.19,2.19,0,0,1-.26.41A.06.06,0,0,1,20.7,41.18Zm.41-.84h0a.08.08,0,0,1-.05-.07,2.21,2.21,0,0,0,.07-.46.06.06,0,1,1,.12,0,3.11,3.11,0,0,1-.07.47A.06.06,0,0,1,21.11,40.34Zm.08-.94a.06.06,0,0,1-.06-.06,4.09,4.09,0,0,0,0-.47.06.06,0,0,1,0-.06s.07,0,.07,0a4.12,4.12,0,0,1,0,.48.06.06,0,0,1-.06.06Zm-.09-.94a.06.06,0,0,1-.06-.05c0-.16-.05-.31-.08-.47s0-.06.05-.07a.08.08,0,0,1,.07.05c0,.16.05.32.08.47a.08.08,0,0,1-.05.07Zm-.17-.93a.06.06,0,0,1-.06-.05c0-.15-.07-.31-.1-.46s0-.07,0-.07a.06.06,0,0,1,.07,0c0,.16.07.31.1.46s0,.07,0,.07Zm-.21-.93a.07.07,0,0,1-.06,0l-.11-.47a.06.06,0,0,1,0-.07.07.07,0,0,1,.08,0l.1.46a.06.06,0,0,1,0,.07Zm-.22-.92a.06.06,0,0,1-.06,0c0-.15-.07-.3-.11-.46a.08.08,0,0,1,.05-.07.06.06,0,0,1,.07,0c0,.16.07.31.11.47a.08.08,0,0,1,0,.07Zm-.21-.93a.05.05,0,0,1-.06,0c0-.16-.07-.31-.1-.47a.06.06,0,0,1,.12,0c0,.16.06.31.1.46s0,.07-.05.07Zm-.19-.92a.06.06,0,0,1-.06,0c0-.16-.05-.31-.08-.47a.06.06,0,0,1,.12,0c0,.16.05.31.08.47a.06.06,0,0,1-.05.06ZM20,32.89a.06.06,0,0,1-.06,0l-.06-.47a.08.08,0,0,1,.05-.07.07.07,0,0,1,.07.06c0,.15,0,.31.06.46s0,.07-.05.07ZM19.84,32a0,0,0,0,1-.05-.05,3.87,3.87,0,0,1,0-.48.06.06,0,0,1,0-.06s.06,0,.07.06,0,.31,0,.47a.05.05,0,0,1,0,.06Zm0-.95s-.05,0-.05-.06v-.47a.09.09,0,0,1,.07-.06.06.06,0,0,1,.05.06c0,.15,0,.29,0,.44v0A.05.05,0,0,1,19.8,31Zm0-.94h0a.07.07,0,0,1-.06-.07,2.89,2.89,0,0,1,0-.29,1.1,1.1,0,0,1,0-.18.06.06,0,0,1,.06-.05s.06,0,.06.07l0,.17,0,.29A.06.06,0,0,1,19.84,30.06Zm.13-.94h0s-.06,0-.05-.07.05-.31.08-.47a.06.06,0,1,1,.12,0l-.09.47A0,0,0,0,1,20,29.12Zm.17-.94h0a.05.05,0,0,1-.05-.07c0-.15.06-.3.1-.46a.05.05,0,0,1,.07,0,.06.06,0,0,1,0,.07l-.09.47A.07.07,0,0,1,20.14,28.18Zm.2-.92h0s-.05,0,0-.07.07-.3.11-.46,0,0,.07,0,.05,0,0,.07-.07.31-.11.46A.05.05,0,0,1,20.34,27.26Zm.21-.93h0a.06.06,0,0,1,0-.07c0-.15.07-.31.11-.46a.08.08,0,0,1,.07-.05.08.08,0,0,1,.05.08l-.12.46A.07.07,0,0,1,20.55,26.33Zm.24-.92h0a.06.06,0,0,1,0-.07l.12-.46a.06.06,0,0,1,.07,0s0,0,0,.07l-.12.46S20.81,25.41,20.79,25.41Zm.24-.92h0a.06.06,0,0,1,0-.07l.12-.46a.07.07,0,0,1,.08,0,.06.06,0,0,1,0,.07c0,.16-.08.31-.13.46S21.05,24.49,21,24.49Zm.25-.91h0a.06.06,0,0,1,0-.07c0-.16.09-.31.13-.46a.06.06,0,0,1,.11,0l-.12.46A.08.08,0,0,1,21.28,23.58Zm.26-.91h0a.06.06,0,0,1,0-.07l.13-.46a.06.06,0,0,1,.08,0s0,.05,0,.08l-.14.45A.05.05,0,0,1,21.54,22.67Zm.26-.91h0a.05.05,0,0,1,0-.07l.13-.46a.06.06,0,0,1,.07,0,.07.07,0,0,1,0,.08l-.13.45A.06.06,0,0,1,21.8,21.76Zm.27-.91h0a.05.05,0,0,1,0-.07c0-.15.09-.3.13-.45a.06.06,0,0,1,.08,0,.06.06,0,0,1,0,.07c-.05.15-.1.3-.14.45A.06.06,0,0,1,22.07,20.85Zm.28-.91h0s0,0,0-.07l.14-.45a.06.06,0,0,1,.07,0,.05.05,0,0,1,0,.07l-.14.46S22.37,19.94,22.35,19.94Zm.28-.91h0a.06.06,0,0,1,0-.08l.14-.45a.06.06,0,0,1,.12,0l-.15.45S22.65,19,22.63,19Zm.28-.9h0a.05.05,0,0,1,0-.07L23,17.6a.05.05,0,0,1,.07,0,.06.06,0,0,1,0,.07l-.14.45A.06.06,0,0,1,22.91,18.13Zm.29-.91h0a.07.07,0,0,1,0-.08l.15-.45a.06.06,0,0,1,.07,0,.07.07,0,0,1,0,.08l-.14.45A.08.08,0,0,1,23.2,17.22Zm.29-.9h0a.05.05,0,0,1,0-.07l.14-.45a.07.07,0,0,1,.08,0,.06.06,0,0,1,0,.07l-.15.46A.07.07,0,0,1,23.49,16.32Zm.3-.91h0a.06.06,0,0,1,0-.07c.08-.23.13-.38.15-.46a.06.06,0,0,1,.08,0,.06.06,0,0,1,0,.07q0,.12-.15.45A.06.06,0,0,1,23.79,15.41Z"/><path class="cls-8" d="M67.82,40.87c-.94,0-2.07,0-3.27-.13-4.28-.35-7.44-1.37-9.39-3A14.34,14.34,0,0,1,51,30.37a21.23,21.23,0,0,1-.69-4.4.23.23,0,0,1,.23-.24h0a.23.23,0,0,1,.24.23c0,.08.26,7.66,4.74,11.41s14.77,3,14.87,3a.22.22,0,0,1,.26.21.24.24,0,0,1-.22.26S69.35,40.87,67.82,40.87Z"/><g class="cls-6"><path class="cls-7" d="M68.11,41.38h-.47a.06.06,0,0,0-.06.06.06.06,0,0,0,.06.06h.47a.06.06,0,1,0,0-.12Zm-1,0h-.47a.06.06,0,0,0-.06.06s0,0,.06.06h.47a.06.06,0,0,0,.06-.06A.05.05,0,0,0,67.16,41.38Zm2,0,0,0h-.47a.05.05,0,0,0-.06.06.06.06,0,0,0,.06.05h.47a.05.05,0,0,0,.06-.06S69.11,41.4,69.11,41.39Zm-2.89,0-.47,0s-.07,0-.07.06a.06.06,0,0,0,.06.06l.48,0h0s0,0,.06-.06A.06.06,0,0,0,66.22,41.35Zm3.78,0-.47,0a.06.06,0,0,0-.06.06s0,.06.06.06h0l.47,0a.06.06,0,0,0,.06-.06A.07.07,0,0,0,70,41.32Zm-4.73,0-.47,0a.05.05,0,0,0-.06,0,.07.07,0,0,0,.05.07l.48,0h0a.06.06,0,0,0,.06-.06A.06.06,0,0,0,65.27,41.31Zm-.94-.07-.47,0a.06.06,0,0,0-.07,0,.07.07,0,0,0,.06.07l.47,0h0a.06.06,0,0,0,.06-.06A.06.06,0,0,0,64.33,41.24Zm-.94-.09-.47,0a.05.05,0,0,0-.07,0,.06.06,0,0,0,0,.06l.47.06h0a.06.06,0,0,0,.06-.05A.07.07,0,0,0,63.39,41.15ZM62.45,41,62,41s-.06,0-.07.05a.08.08,0,0,0,.05.07l.47.07h0s.05,0,.06-.06A.06.06,0,0,0,62.45,41Zm-.94-.14-.46-.09s-.07,0-.07,0,0,.06.05.07l.46.08h0a.06.06,0,0,0,.06,0A.05.05,0,0,0,61.51,40.9Zm-.93-.18-.46-.1s-.06,0-.07.05,0,.06.05.07l.46.1h0a.06.06,0,0,0,.06-.05S60.61,40.73,60.58,40.72Zm-.92-.21c-.15,0-.31-.07-.46-.12a.06.06,0,0,0-.07,0,.06.06,0,0,0,0,.07l.46.12h0a.05.05,0,0,0,.05-.05A.06.06,0,0,0,59.66,40.51Zm-.91-.24-.45-.15a.06.06,0,0,0-.08,0,.06.06,0,0,0,0,.07l.45.15h0a.07.07,0,0,0,.06,0S58.78,40.27,58.75,40.27Zm-.9-.3-.44-.17a.07.07,0,0,0-.08,0,.06.06,0,0,0,0,.07l.45.17h0a.06.06,0,0,0,.06-.05A.06.06,0,0,0,57.85,40ZM57,39.62l-.42-.2a.06.06,0,0,0-.08,0,.05.05,0,0,0,0,.08l.44.2h0s0,0,0,0S57,39.64,57,39.62Zm-.84-.41L55.71,39a.06.06,0,0,0-.08,0,.08.08,0,0,0,0,.08l.42.24h0a.05.05,0,0,0,0,0A.08.08,0,0,0,56.13,39.21Zm-.81-.48-.39-.27s-.06,0-.08,0a.06.06,0,0,0,0,.08l.39.28h0l.05,0A.07.07,0,0,0,55.32,38.73Zm-.75-.57-.35-.32a.06.06,0,0,0-.08,0,.07.07,0,0,0,0,.09l.35.32h0s0,0,0,0A.05.05,0,0,0,54.57,38.16Zm-.68-.65c-.11-.11-.21-.23-.31-.35a.08.08,0,0,0-.09,0,.06.06,0,0,0,0,.09,3.49,3.49,0,0,0,.32.35l0,0a0,0,0,0,0,0,0A.06.06,0,0,0,53.89,37.51Zm-.61-.71L53,36.42a.06.06,0,0,0-.09,0,.06.06,0,0,0,0,.08l.28.38a.06.06,0,0,0,0,0h0A.06.06,0,0,0,53.28,36.8ZM52.73,36c-.09-.13-.17-.26-.25-.4a.06.06,0,0,0-.1.06l.25.41,0,0h0A.05.05,0,0,0,52.73,36Zm-.49-.8c-.08-.14-.15-.28-.22-.42a.06.06,0,0,0-.11,0c.07.15.15.28.23.42a.05.05,0,0,0,0,0h0A.06.06,0,0,0,52.24,35.23Zm-.43-.84c-.07-.15-.14-.29-.2-.43s0-.05-.08,0,0,0,0,.08.13.28.2.43a.05.05,0,0,0,0,0h0A.07.07,0,0,0,51.81,34.39Zm-.56-1.31a.06.06,0,0,0-.08,0,.06.06,0,0,0,0,.08c0,.14.11.29.17.44a.07.07,0,0,0,.06,0h0a.06.06,0,0,0,0-.08C51.36,33.38,51.3,33.23,51.25,33.08Zm-.32-.89s0,0-.08,0a.05.05,0,0,0,0,.07l.15.45a.05.05,0,0,0,.06,0h0s0,0,0-.07Zm-.28-.9a.06.06,0,0,0-.11,0c0,.15.08.31.13.46a.07.07,0,0,0,.06,0h0a.07.07,0,0,0,0-.08C50.74,31.59,50.69,31.44,50.65,31.29Zm-.24-.91s0-.06-.07-.05a.06.06,0,0,0-.05.07l.12.46a.06.06,0,0,0,.06.05h0s.05,0,.05-.08S50.45,30.53,50.41,30.38Zm-.21-.93a.06.06,0,0,0-.07,0s-.05,0-.05.07.07.3.1.46a.06.06,0,0,0,.06,0h0s.05,0,0-.07S50.23,29.6,50.2,29.45ZM50,28.52a.08.08,0,0,0-.07-.05s-.06,0-.05.07.05.31.08.47a.06.06,0,0,0,.06,0h0s.06,0,0-.07S50.05,28.67,50,28.52Zm-.15-.93s0-.06-.07-.06a.08.08,0,0,0-.05.07c0,.15.05.31.07.47a.06.06,0,0,0,.06.05h0s.05,0,.05-.07S49.9,27.73,49.88,27.59Zm-.11-.95a.06.06,0,1,0-.12,0c0,.14,0,.3.05.47a.06.06,0,0,0,.06.05h0s0,0,0-.07S49.78,26.79,49.77,26.64ZM49.72,26c0-.14,0-.22,0-.25h0a.06.06,0,0,0-.06-.06h0a.09.09,0,0,0-.06,0v0s0,.08,0,.23,0,.12,0,.2a.06.06,0,0,0,.06.06h0a.09.09,0,0,0,.06-.07A.92.92,0,0,1,49.72,26Z"/></g><path class="cls-8" d="M63.53,40.56h-.05a.25.25,0,0,1-.22-.24.36.36,0,0,1,0-.11c0-.14.13-.7.45-3a18.88,18.88,0,0,0,0-5.41,37,37,0,0,1-7-.25c-2.24-.48-5.66-1.42-5.69-1.43a.24.24,0,0,1-.17-.29.24.24,0,0,1,.29-.16s3.45.94,5.67,1.42a40.41,40.41,0,0,0,7.05.23.23.23,0,0,1,.24.19,18.17,18.17,0,0,1,0,5.76c-.26,1.87-.37,2.69-.47,3h0C63.67,40.53,63.61,40.56,63.53,40.56Z"/><g class="cls-6"><path class="cls-7" d="M62.05,32.6h-.48s0,0,0,.06,0,0,.06,0h.47a.06.06,0,1,0,0-.12Zm-.95,0h-.47a.06.06,0,0,0,0,.12h.47a.06.06,0,0,0,.06,0A.06.06,0,0,0,61.1,32.61Zm1.9,0h-.48a.07.07,0,0,0-.06.07.06.06,0,0,0,.06.05H63a.06.06,0,0,0,.06-.06S63,32.58,63,32.58Zm-2.85,0-.47,0h0a.06.06,0,0,0-.06.06.06.06,0,0,0,.06.06l.47,0a.06.06,0,1,0,0-.12Zm3.46,0h-.14a.05.05,0,0,0,0,0,0,0,0,0,0,0,0,0,0,0,0,0,0,0h.16a.06.06,0,1,0,0-.12Zm-4.4,0-.47,0s-.06,0-.07,0a.06.06,0,0,0,.06.06l.47,0h0s0,0,.06-.06A.06.06,0,0,0,59.21,32.55Zm-.94-.08-.47,0a.06.06,0,1,0,0,.12l.48.05h0a.06.06,0,0,0,.06-.05A.08.08,0,0,0,58.27,32.47Zm-.94-.12-.3-.06-.16,0a.06.06,0,0,0-.07,0s0,.06.05.07l.16,0,.3.06h0a.06.06,0,0,0,.06,0A.06.06,0,0,0,57.33,32.35Zm-.92-.2-.46-.1s-.07,0-.07,0,0,.07,0,.07l.46.11h0a.06.06,0,0,0,.06-.05A.06.06,0,0,0,56.41,32.15Zm-.93-.21L55,31.83a.06.06,0,0,0-.07,0s0,.06,0,.07l.46.11h0a.05.05,0,0,0,.06,0S55.52,32,55.48,31.94Zm-.92-.23-.46-.11a.06.06,0,0,0-.07,0,.06.06,0,0,0,0,.07l.45.12h0a.06.06,0,0,0,.06,0S54.6,31.72,54.56,31.71Zm-.91-.23-.46-.12a.06.06,0,0,0-.08,0s0,.07,0,.07l.46.12h0a.05.05,0,0,0,.06,0A.06.06,0,0,0,53.65,31.48Zm-.92-.24-.46-.12a.06.06,0,0,0-.07,0s0,.07,0,.07l.46.13h0a.06.06,0,0,0,.06-.05A.06.06,0,0,0,52.73,31.24ZM51.81,31l-.2-.06-.26-.07a.06.06,0,0,0-.07,0,.07.07,0,0,0,0,.08l.32.08.14,0h0s.05,0,.05,0S51.84,31,51.81,31Z"/></g><ellipse class="cls-12" cx="62.72" cy="32.93" rx="0.54" ry="0.52"/><path class="cls-10" d="M63.45,32.68l0-.08a.76.76,0,0,0-.7-.43.75.75,0,0,0-.69.43.31.31,0,0,0-.05.12.71.71,0,0,0,0,.21.77.77,0,0,0,1.54,0A.69.69,0,0,0,63.45,32.68Zm-1,.25a.29.29,0,0,1,.1-.22.37.37,0,0,1,.2-.07.31.31,0,0,1,.19.06.3.3,0,0,1,.11.23.29.29,0,0,1-.3.28A.3.3,0,0,1,62.42,32.93Z"/><path class="cls-12" d="M49.13,27.45a.53.53,0,1,1,.54-.52A.53.53,0,0,1,49.13,27.45Z"/><path class="cls-10" d="M49.13,26.17a.76.76,0,1,0,.78.76A.77.77,0,0,0,49.13,26.17Zm0,1a.29.29,0,1,1,0-.57.29.29,0,1,1,0,.57Z"/><path class="cls-12" d="M68.79,42.61a.53.53,0,0,1-.53-.53.54.54,0,0,1,1.07,0A.54.54,0,0,1,68.79,42.61Z"/><path class="cls-10" d="M69.11,41.39l-.06,0a.75.75,0,0,0-.26,0,.76.76,0,1,0,.77.76A.75.75,0,0,0,69.11,41.39Zm-.32,1a.29.29,0,1,1,0-.57.29.29,0,1,1,0,.57Z"/></g></g></g></g></g></svg>