<svg id="Layer_1" data-name="Layer 1" xmlns="http://www.w3.org/2000/svg" viewBox="0 0 80 80"><defs><style>.cls-1{fill:#4d4d4d;}.cls-2{fill:#656565;}.cls-3{fill:gray;}</style></defs><g id="Ball_Cap" data-name="Ball Cap"><g id="BallCap1"><ellipse class="cls-1" cx="56.07" cy="29.11" rx="2.4" ry="3.34" transform="translate(8.32 70.48) rotate(-68.34)"/><path class="cls-2" d="M78.15,62.09l0,.08A29,29,0,0,0,75.47,59c-1.46-1.46-14-11.47-28.78-17.52-1.55-.63-3.25-1.24-5-1.82l-.55-.18h0a44.19,44.19,0,0,0-6.56-6.66,41.64,41.64,0,0,0-8.4-5.48l.36-.2c5.62-3.09,15-4.83,30,1.19C84.39,39.58,78.6,60.62,78.15,62.09Z"/><path class="cls-1" d="M64.83,40.35A35.59,35.59,0,0,0,60.26,30L60,29.89a.09.09,0,0,0,0,.05v0l0,0a36.12,36.12,0,0,1,4.62,10.4c.85,3.65.35,8.2,0,10.62l.18.12s0,0,0,0C65.17,48.68,65.69,44.06,64.83,40.35Z"/><path class="cls-3" d="M41.35,39.29a44.2,44.2,0,0,0-6.51-6.62l-.1-.09a41.21,41.21,0,0,0-8.24-5.4l-.22-.12a29.09,29.09,0,0,0-12.8-3c-6.15,0-10,1.4-11.38,4.12-1.71,3.32.76,8.08,3.11,11.48l.21-.12.36-.19c-2.22-3.25-4.66-7.9-3.12-10.89,1.28-2.49,4.92-3.76,10.82-3.78h.07a28.61,28.61,0,0,1,12.46,3,40.41,40.41,0,0,1,7.8,5l.53.43a53,53,0,0,1,6.22,6.28l.54.18h0l.55.18Z"/><path class="cls-1" d="M41.1,39.52l-.54-.18c-8.3-2.64-17.27-4.89-20.57-4.7a28.26,28.26,0,0,0-8,1.83A57.33,57.33,0,0,0,5.78,39.3l-.36.19C1.55,34-2.84,24.4,13.48,24.35a29,29,0,0,1,12.66,3,41.7,41.7,0,0,1,8.14,5.26l.26.22A44.19,44.19,0,0,1,41.1,39.52Z"/></g></g></svg>