<svg id="Layer_1" data-name="Layer 1" xmlns="http://www.w3.org/2000/svg" xmlns:xlink="http://www.w3.org/1999/xlink" viewBox="0 0 80 80"><defs><style>.cls-1{fill:none;}.cls-2{clip-path:url(#clip-path);}.cls-3{fill:#f2f2f2;}.cls-4{fill:#e6e6e6;}</style><clipPath id="clip-path"><path class="cls-1" d="M77.32,42.26l-.06-.17a15.3,15.3,0,0,0-.87-1.88c-.14-.26-.29-.51-.45-.77s-.49-.74-.75-1.09-.37-.47-.56-.69l-.29-.33c-.2-.22-.4-.43-.61-.64A15.21,15.21,0,0,0,72,35.28l0,0a16.68,16.68,0,0,0-6-2.86c0-12.62-10.21-23.37-23.63-24.38S17.4,16.19,15.68,28.68A15.67,15.67,0,0,0,1.37,42.88C.8,51,6.92,58.15,15.25,59.4L13.57,69H14l.31,0h.55l.33,0h.36l.4,0h.43c1,0,2.29,0,3.78,0l.84,0,2.08.08L24,69h.13l1,.06h.16l1.56.13.83.07.72.07.74.08,1.51.18.17,0,1.49.19,1.53.23c1,.16,2.1.33,3.18.53l.8.15,1.55.31.76.16.9.2.88.2.58.14c.76.18,1.51.36,2.23.55l1.06.29.53.14.88.25-.88-.25,1-.36a18.2,18.2,0,0,0,2.6-1.24,2.49,2.49,0,0,0,.6-.47l.14-.14c2.51-2.72,5.07-5.41,7.63-8.09l.54-.55h0l0-.06,2.49-2.61,0,0,1.8-1.88.07,0-.07,0,2.62-2.74q2-2.13,4.07-4.24l.59-.67a2.92,2.92,0,0,1,2.08-1h.16A1.38,1.38,0,0,1,74,50.33c-.24,1-.51,2-.77,3-.31,1.17-.6,2.34-.88,3.52s-.53,2.18-.79,3.28c0,.15-.07.3-.1.45h0l.35-.23.66-.49.43-.35.41-.36.21-.19.22-.22.45-.45.42-.48.41-.49c.13-.17.26-.34.38-.52s.25-.35.37-.53.23-.36.34-.55a15.36,15.36,0,0,0,1.38-3c.11-.32.2-.65.29-1s.1-.39.14-.59a.32.32,0,0,0,0-.14c0-.21.09-.41.13-.61l0-.19c.09-.51.15-1,.19-1.56A14.73,14.73,0,0,0,77.32,42.26Z"/></clipPath></defs><g id="Chef_s_Hat" data-name="Chef&apos;s Hat"><g class="cls-2"><g id="Chef_hat_1" data-name="Chef hat 1"><path class="cls-3" d="M78.27,48.62c0,.53-.1,1.05-.19,1.56,0,0,0,0,0,.06a15.16,15.16,0,0,1-6.53,9.85c.26-1.1.52-2.19.79-3.28s.57-2.35.88-3.52c.26-1,.53-2,.77-3a1.38,1.38,0,0,0-1.25-1.7h-.16a2.92,2.92,0,0,0-2.08,1l-.59.67q-2,2.11-4.07,4.24L63.2,57.3l.07,0-.07,0-1.8,1.88,0,0-2.49,2.61,0,.06h0l-.54.55a16.47,16.47,0,0,1-5.87-2.64,15.93,15.93,0,0,1-2.29-2,15.67,15.67,0,0,1-2.06-2.61,26.3,26.3,0,0,1-9,.86A26.73,26.73,0,0,1,30.42,54l-.08,0a16.3,16.3,0,0,1-1.14,1.21h0c-.19.18-.39.37-.6.54h0l0,0a16.59,16.59,0,0,1-12,3.82c-.43,0-.87-.08-1.29-.15C6.92,58.15.8,51,1.37,42.88a15.67,15.67,0,0,1,14.31-14.2C17.4,16.19,29.07,7.08,42.48,8.07S66.16,19.83,66.11,32.45a16.68,16.68,0,0,1,6,2.86,15.88,15.88,0,0,1,5.2,6.78l.06.17A14.73,14.73,0,0,1,78.27,48.62Z"/><path class="cls-3" d="M61.35,59.23l-2.49,2.61,0,.06h0l-.54.55c-2.56,2.68-5.12,5.37-7.63,8.09l-.14.14a2.49,2.49,0,0,1-.6.47,18.2,18.2,0,0,1-2.6,1.24l-1,.36-.53-.14-1.06-.29c-.72-.19-1.47-.37-2.23-.55l-.58-.14-.88-.2-.9-.2-.76-.16-1.55-.31-.8-.15c-1.08-.2-2.15-.38-3.18-.53l-1.53-.23-1.49-.19-.17,0-1.51-.18-.74-.08-.72-.07-.83-.07-1.56-.13H25.1l-1-.06H24l-.94,0L21,68.9l-.84,0c-1.49,0-2.76,0-3.78,0h-.43l-.4,0h-.36l-.33,0h-.55L14,69h-.41l1.68-9.63.09-.52,0-.25h0L16,55h0l.63-3.62a68.83,68.83,0,0,1,13,.14l.52.05h0l1.86.19h.09l.66.07h0c1,.13,2.06.26,3.15.42h0c1.34.2,2.73.43,4.18.7s2.74.53,4,.81h0l.83.19h0c2.47.56,4.7,1.15,6.67,1.74h0c.28.08.56.16.82.25l.62.19,1.07.34h0c1.34.44,2.53.86,3.56,1.25h0C59.3,58.33,60.53,58.86,61.35,59.23Z"/><path class="cls-4" d="M64,44.85a14.29,14.29,0,0,1-4.11,7.7C55,57.47,46.41,59.86,37.31,58.19a35.07,35.07,0,0,1-12.22-5.64"/><path class="cls-3" d="M65.16,43.48a16,16,0,0,1-7.34,7.64c-7.6,4.06-19.13,3.86-30.21-1.33a50.48,50.48,0,0,1-13.95-11Z"/><path class="cls-4" d="M63.2,57.3l-1.8,1.88,0,0-2.49,2.61,0,.06h0l-.15-.06-.44-.19-.24-.1-.08,0a1.24,1.24,0,0,1-.2-.1l-.27-.13-.25-.14a3.5,3.5,0,0,1-.42-.24l-.3-.17-.24-.16L56,60.43l-.51-.36-.24-.18,0,0L55,59.69l0,0-.21-.18-.25-.21-.45-.43-.17-.17-.12-.12c-.18-.18-.35-.37-.52-.56s-.2-.23-.29-.35l-.15-.18v0c-.05-.05-.09-.11-.14-.17l-.13-.17h0l-.25-.35c-.06-.09-.13-.18-.19-.28h0l-.2-.31c-.1-.15-.19-.31-.29-.47h0l-.08-.15a.64.64,0,0,1-.08-.14.25.25,0,0,1,0-.07l0-.09h0l.26.18.27.17.28.18.26.16.3.16.3.16h0l.35.18,0,0,.35.16.36.16h0l.33.13.06,0,.31.11.09,0,.19.06.27.08.32.1.19.05.24.06.38.09.38.07.24,0,.39.06.13,0,.14,0,.16,0H58l.21,0h.16l.24,0h.06l.35,0h.35A13.71,13.71,0,0,0,63.2,57.3Z"/><path class="cls-4" d="M78.27,48.32c0,.22,0,.45,0,.68h0l0,.32c0,.3-.07.61-.13.92l0,.13c0,.2-.07.4-.12.61a.32.32,0,0,1,0,.14c0,.2-.09.4-.14.59s-.19.66-.29,1a15.36,15.36,0,0,1-1.38,3c-.11.19-.23.37-.34.55s-.24.36-.37.53-.25.35-.38.52l-.41.49-.42.48-.45.45-.22.22-.21.19-.41.36-.43.35-.66.49-.35.23h0c0-.15.07-.3.1-.45.26-1.1.52-2.19.79-3.28s.57-2.35.88-3.52c.26-1,.53-2,.77-3a1.38,1.38,0,0,0-1.25-1.7h0L73,48l.21-.64c0-.1.07-.21.1-.32s.12-.44.17-.66.11-.45.15-.67l.06-.34a15.55,15.55,0,0,0-1.59-10.06l0,0a15.21,15.21,0,0,1,1.69,1.41c.21.21.41.42.61.64l.29.33c.19.22.38.45.56.69s.52.72.75,1.09.31.51.45.77a15.3,15.3,0,0,1,.87,1.88l.06.17A15.52,15.52,0,0,1,78.27,48.32Z"/><path class="cls-3" d="M34,46.58C32.58,55,24.2,60.51,15.34,58.88c-4.25-.79-8.89-5.18-10-9Z"/><path class="cls-4" d="M34,46.82C32.3,55,24.08,60.23,15.39,58.63c-4.25-.78-8.89-5.17-10-9h.12a17.25,17.25,0,0,0,8.69,5.09C22.46,56.25,30.29,52.87,34,46.82Z"/><path class="cls-4" d="M61.4,59.18l0,0-2.49,2.61,0,.06h0l-.54.55c-2.56,2.68-5.12,5.37-7.63,8.09l-.14.14,1.9-10.87.41-2.36.08-.48h0l.13-.71,0-.13v-.08l1.16.37h0c1.43.47,2.69.92,3.76,1.34h0C59.48,58.33,60.63,58.83,61.4,59.18Z"/></g></g></g></svg>