<svg id="Layer_1" data-name="Layer 1" xmlns="http://www.w3.org/2000/svg" viewBox="0 0 80 80">
  <defs>
    <style>
      .cls-1 {
        fill: #8b6239;
      }

      .cls-2 {
        fill: #a57c52;
      }

      .cls-3 {
        fill: #603813;
      }

      .cls-4 {
        fill: #30302f;
      }

      .cls-5 {
        fill: #c59b6d;
      }
    </style>
  </defs>
  <g id="Cowboy_Hat" data-name="Cowboy Hat">
    <g>
      <path class="cls-1" d="M75.86511,56.26013a30.02812,30.02812,0,0,1-.72646,4.74958,8.15128,8.15128,0,0,1-1.32484,2.82634,4.45044,4.45044,0,0,1-5.01234,1.75542,9.19085,9.19085,0,0,1-3.50864-1.88129,27.93762,27.93762,0,0,1-4.49343-5.10066c-.53214-.71763-1.07312-1.42862-1.634-2.122a28.94965,28.94965,0,0,0-2.51058-2.76892,42.37732,42.37732,0,0,0-3.43577-3.06924c-.61826-.47253-1.19456-1.00246-1.8062-1.486a38.08793,38.08793,0,0,0-6.187-3.95246c-1.43084-.74191-2.8683-1.46836-4.35875-2.07337-.49019-.19874-.98479-.38642-1.48824-.55644a38.83653,38.83653,0,0,0-9.5389-1.921,83.44876,83.44876,0,0,1-10.47069-1.29172A39.03833,39.03833,0,0,1,12.67,37.30379,19.71283,19.71283,0,0,1,9.5654,35.4733a10.959,10.959,0,0,1-4.06949-4.42058,6.28317,6.28317,0,0,1-.19651-5.65709,10.69889,10.69889,0,0,1,5.98609-5.42524,42.53859,42.53859,0,0,1,4.38524-1.40213,40.95737,40.95737,0,0,1,5.71008-1.1747c2.47084-.382,4.18652-.42836,5.89557-.57189,1.53462-.12806,3.067-.14794,4.60385-.17665q1.00356-.01987,2.00052.011h.00219a39.608,39.608,0,0,1,7.50085.923c.05962.01325.117.02649.17664.03974A44.76656,44.76656,0,0,1,47.233,19.16a21.03352,21.03352,0,0,1,5.27731,2.7049,19.815,19.815,0,0,0,4.28587,2.292q.59618.2451,1.19016.50344l-3.703,3.87518c-1.89894,1.98727-3.7979,3.97233-5.677,5.97727,1.43966.80373,2.90361,1.5611,4.31458,2.41343.17664.106.35328.212.52773.32237a66.14265,66.14265,0,0,0,9.16793,4.68775c.14132-.60281.28485-1.20561.42615-1.80622q.57963-2.451,1.16145-4.89751.13581-.5763.2738-1.15261.48359-2.027.96714-4.05183a17.22613,17.22613,0,0,1,1.27186,1.3624,31.99745,31.99745,0,0,1,2.84842,4.06285q.55312.91414,1.04884,1.85479c.75073,1.41979,1.41316,2.88375,2.04026,4.36537.29368.69554.64254,1.37121.96272,2.05572a17.58653,17.58653,0,0,1,1.13053,3.48876c.3533,1.51916.69776,3.03831.94064,4.58176A16.776,16.776,0,0,1,75.86511,56.26013Z"/>
      <path class="cls-2" d="M70.61431,37.30821a7.69417,7.69417,0,0,1-.33121,1.199,1.99845,1.99845,0,0,1-.40851.68671c-.817.88986-1.475,1.899-2.20807,2.85285-.371.48357-.75737.95608-1.1504,1.422-.48136.57409-.97156,1.13715-1.45954,1.70463a14.974,14.974,0,0,1-1.96519,1.90336,4.408,4.408,0,0,1-1.90115.89648,5.3655,5.3655,0,0,1-1.07534.1104,14.019,14.019,0,0,1-5.20222-1.08637c-2.76452-1.07093-5.42525-2.38472-8.1721-3.49318-.722-.29147-1.46174-.552-2.20586-.78165a20.53584,20.53584,0,0,1-3.9348-1.7201q-.6591-.36765-1.30056-.76841a33.57435,33.57435,0,0,0-4.5928-2.30744,33.8847,33.8847,0,0,0-3.25912-1.19678l-.00442-.00221a5.62662,5.62662,0,0,1-.92519-.6845c-1.49485-1.369-2.99855-2.72919-4.47356-4.12027a18.81457,18.81457,0,0,1-3.38718-4.36757c-.212-.36655-.4372-.72647-.658-1.08639a2.33136,2.33136,0,0,1-.27381-.74852.90026.90026,0,0,1,.06183-.64256c.47475-.29147.94726-.58513,1.4198-.87439,1.52136-.92961,3.04493-1.85479,4.56188-2.791a25.29521,25.29521,0,0,0,2.663-1.98066c.54318-.43719,1.08858-.87439,1.65606-1.28068a19.66921,19.66921,0,0,0,1.793-1.49487h.00219a26.601,26.601,0,0,1,2.18379-1.86581,34.8108,34.8108,0,0,1,2.98091-2.14847,6.87629,6.87629,0,0,1,4.18873-1.11508,3.83354,3.83354,0,0,1,1.28289.34667c2.27652,1.07312,4.51331,2.21912,6.67722,3.51085,1.762,1.04884,3.63008,1.90115,5.48485,2.77334A23.18446,23.18446,0,0,1,61.42208,21.07l-.59618.62266c-.064.06626-.12586.1325-.18989.19873l-2.64969,2.76893-3.703,3.87518c-1.89894,1.98727-3.7979,3.97233-5.677,5.97727,1.43966.80373,2.90361,1.5611,4.31458,2.41343.17664.106.35328.212.52773.32237a66.14265,66.14265,0,0,0,9.16793,4.68775c.14132-.60281.28485-1.20561.42615-1.80622q.57963-2.451,1.16145-4.89751.13581-.5763.2738-1.15261.48359-2.027.96714-4.05183c.10821-.44823.21419-.89867.32239-1.34692.07066-.30029.14353-.6028.21419-.9031.11923-.50786.24067-1.01572.3599-1.52357A29.20759,29.20759,0,0,1,69.08411,30.918c.43941,1.00027.923,1.98506,1.2873,3.00961A6.32443,6.32443,0,0,1,70.61431,37.30821Z"/>
      <g>
        <path class="cls-1" d="M59.64679,21.19146c.329.234.66022.46811.98922.7l-2.64969,2.76893-3.703,3.87518c-1.89894,1.98727-3.7979,3.97233-5.677,5.97727,1.43966.80373,2.90361,1.5611,4.31458,2.41343a15.17,15.17,0,0,1-4.84673-1.84376c-.4107-.23846-.81479-.4946-1.21224-.764-.7375-.50124-1.4507-1.04-2.15066-1.58982-1.34913-1.0643-2.66736-2.16612-4.08273-3.13768a4.68989,4.68989,0,0,1-1.40876-1.49707,5.9164,5.9164,0,0,1-.753-2.33836,12.38417,12.38417,0,0,1,.32681-4.44707,6.45335,6.45335,0,0,1,2.59007-3.72943c.20535-.15457.41954-.30031.64034-.44162A13.34674,13.34674,0,0,1,46.57277,15.446a3.64421,3.64421,0,0,1,1.72229.09494c.86116.23185,1.72009.46812,2.58346.69555a12.47837,12.47837,0,0,1,3.23924,1.56552C55.96813,18.91934,57.88253,19.93506,59.64679,21.19146Z"/>
        <path class="cls-1" d="M66.71705,31.39057a4.71384,4.71384,0,0,1-2.5128,3.842q.13581-.5763.2738-1.15261.48359-2.027.96714-4.05183c.10821-.44823.21419-.89867.32239-1.34692.07066-.30029.14353-.6028.21419-.9031a10.06561,10.06561,0,0,1,.71541,2.5172A4.40738,4.40738,0,0,1,66.71705,31.39057Z"/>
      </g>
      <path class="cls-3" d="M66.56911,43.48861a15.39237,15.39237,0,0,1-1.35355,1.64944,17.25956,17.25956,0,0,1-1.88349,1.8857,4.53808,4.53808,0,0,1-2.16613,1.051V48.077a5.92793,5.92793,0,0,1-1.16365.10157A13.19684,13.19684,0,0,1,55.6325,47.366c-3.04494-1.08416-5.91986-2.56358-8.91841-3.75816-.70217-.2782-1.41318-.54538-2.13742-.75736a19.23823,19.23823,0,0,1-3.98559-1.7223q-.5763-.32458-1.14157-.67125a34.39924,34.39924,0,0,0-6.93778-3.24367,5.82415,5.82415,0,0,1-1.06429-.48357l-.00442-.00221a5.62662,5.62662,0,0,1-.92519-.6845c-1.49485-1.369-2.99855-2.72919-4.47356-4.12027a18.81457,18.81457,0,0,1-3.38718-4.36757c-.212-.36655-.4372-.72647-.658-1.08639a2.33136,2.33136,0,0,1-.27381-.74852.90026.90026,0,0,1,.06183-.64256.98234.98234,0,0,1,.37317-.35329c1.81724-1.07754,3.608-2.19925,5.412-3.29666a22.36777,22.36777,0,0,0,2.2721-1.6384c.15457-.12365.31355-.24067.47033-.36211.03753.00219.07727.0044.117.0044a.13559.13559,0,0,0,.0309.00221,1.85443,1.85443,0,0,0,.55644,1.59644,12.521,12.521,0,0,0,2.54371,2.54592A29.11471,29.11471,0,0,1,35.974,25.58994a24.86909,24.86909,0,0,0,3.24587,2.504q.43389.28815.87881.55863a20.56493,20.56493,0,0,1,2.90363,2.133A28.25349,28.25349,0,0,0,47.169,33.68476c.47473.28484.95389.55864,1.43746.828,1.43966.80373,2.90361,1.5611,4.31458,2.41343.17664.106.35328.212.52773.32237a66.14265,66.14265,0,0,0,9.16793,4.68775q1.13275.48355,2.27652.94284c.52112.20977,1.05326.3842,1.623.58957Z"/>
      <path class="cls-4" d="M62.61665,41.93634q-.55313,2.35159-1.10845,4.7032c-.106.44383-.212.88985-.318,1.33368-.00663.03312-.01546.06845-.0243.10157V48.077c-.31576,1.33147-.63813,2.66073-.95388,3.9922l-1.04664,4.41836a28.94965,28.94965,0,0,0-2.51058-2.76892,42.37732,42.37732,0,0,0-3.43577-3.06924c-.61826-.47253-1.19456-1.00246-1.8062-1.486a38.08793,38.08793,0,0,0-6.187-3.95246c-1.43084-.74191-2.8683-1.46836-4.35875-2.07337-.07949-.39084-.15236-.78388-.22743-1.1747a3.42256,3.42256,0,0,1-.04858-.83466c.00221-.042.00442-.08391.00884-.12586.00441-.09053.01546-.18107.0265-.27159a1.93692,1.93692,0,0,1,.382-.881c.06845-.09937.16119-.18989.15236-.3246-.01325-.26717.15678-.36211.37758-.435.63151-.20977,1.263-.41733,1.88791-.64918a16.94388,16.94388,0,0,0,2.44434-1.15924,2.89346,2.89346,0,0,0,.69113-.5763q.75183-.81479,1.51253-1.623c.17443-.18989.3533-.37978.53215-.56967,1.43966.80373,2.90361,1.5611,4.31458,2.41343.17664.106.35328.212.52773.32237A66.14265,66.14265,0,0,0,62.61665,41.93634Z"/>
      <path class="cls-2" d="M75.75876,52.38785a17.636,17.636,0,0,1-.118,5.987,17.22688,17.22688,0,0,1-.61226,3.07171,8.01818,8.01818,0,0,1-1.44575,2.6889,4.2281,4.2281,0,0,1-4.00355,1.61193,7.84008,7.84008,0,0,1-3.208-1.24919,17.95359,17.95359,0,0,1-4.64666-4.63531c-.95687-1.286-1.92219-2.56451-2.96707-3.77955a28.8851,28.8851,0,0,0-2.07562-2.34993c-.6485-.60688-1.30809-1.20426-1.97-1.7934-1.27891-1.1383-2.60472-2.22929-3.96514-3.26921a31.917,31.917,0,0,0-4.89325-3.10626c-1.50548-.7665-2.98505-1.58337-4.55264-2.2287a34.72055,34.72055,0,0,0-5.20278-1.68277,35.40957,35.40957,0,0,0-4.72668-.844c-1.966-.19244-3.94505-.26916-5.90375-.51384a42.76217,42.76217,0,0,1-9.288-1.77463c-.733-.26319-1.48084-.48855-2.23073-.69986A12.63877,12.63877,0,0,1,10.836,36.3123c-.56925-.34679-1.14458-.68643-1.69176-1.066a11.33966,11.33966,0,0,1-2.58936-2.485c-.33584-.44371-.64-.91311-.93563-1.38518a5.49214,5.49214,0,0,1-.92956-3.2727c.01353-.24388-.05194-.4829-.02605-.73231a3.8783,3.8783,0,0,1,.50085-1.7085c.36175-.58437.55443-1.26422.97679-1.81972.17521-.23045.33254-.50983.69375-.38252a.70364.70364,0,0,1,.43394.75688,6.00324,6.00324,0,0,1-.22782,1.31109,6.18809,6.18809,0,0,0-.24381,2.30422,5.58558,5.58558,0,0,0,4.3869,4.72239,6.59929,6.59929,0,0,0,3.92179-.33558c1.29695-.46763,2.554-1.03261,3.80765-1.6,1.803-.816,3.64749-1.52865,5.47434-2.28524,1.169-.48411,2.32723-.99349,3.5403-1.36725.40357-.12434.81879-.18967,1.22334-.318a11.05708,11.05708,0,0,1,2.08227-.441c.95474-.10863,1.86529-.42074,2.81961-.52467,1.81426-.19759,3.62946-.40994,5.44492-.56809a61.81987,61.81987,0,0,1,6.91014-.2129c1.91369.04772,3.81386.20343,5.70628.41517a20.93615,20.93615,0,0,1,5.28585,1.38424c1.59522.62455,3.19775,1.231,4.76635,1.92366a15.7933,15.7933,0,0,1,2.77122,1.58941,11.84475,11.84475,0,0,0,1.5313,1.07136,1.79945,1.79945,0,0,1,.493.44511,25.55987,25.55987,0,0,1,2.5786,3.64606,64.171,64.171,0,0,1,3.53785,7.17123,24.40391,24.40391,0,0,1,1.80172,5.20937C75.20091,49.23507,75.5586,50.70281,75.75876,52.38785Z"/>
      <path class="cls-5" d="M43.11688,25.2066c-1.6076.21493-3.19178.51719-4.79288.67447a16.944,16.944,0,0,0-3.03064.74884c-.59505.17145-1.2008.30612-1.80247.45438-.946.23309-1.89966.43855-2.83723.7015-1.278.35842-2.54557.75436-3.81429,1.145a16.87162,16.87162,0,0,0-2.182.7995c-1.449.6751-2.92291,1.29657-4.3764,1.96234-1.15046.527-2.28341,1.092-3.42839,1.631a10.9581,10.9581,0,0,1-3.61747,1.0795,7.84517,7.84517,0,0,1-4.29451-.66688,8.13113,8.13113,0,0,1-2.564-2.08464,6.4635,6.4635,0,0,1-1.15652-1.78269,6.22759,6.22759,0,0,1-.13575-3.98649,7.1214,7.1214,0,0,1,2.27733-3.45071,12.21908,12.21908,0,0,1,3.29909-2.23029c.08153-.03576.16477-.06882.24268-.11138a.23365.23365,0,0,1,.34669.07166c.093.1512-.01051.25811-.13.32456-.21351.1187-.43452.225-.65731.32567a6.21139,6.21139,0,0,0-2.53827,2.3975A11.2094,11.2094,0,0,0,6.45117,26.471a4.12141,4.12141,0,0,0,.86308,3.92054,8.1034,8.1034,0,0,0,2.559,2.10173,3.05933,3.05933,0,0,0,1.02156.29854,9.862,9.862,0,0,0,5.92812-1.07469c1.20256-.6225,2.44648-1.16679,3.68233-1.72288q2.36864-1.0658,4.755-2.09214a34.78059,34.78059,0,0,1,3.348-1.08049,30.87267,30.87267,0,0,1,5.15862-1.27435c1.118-.15218,2.233-.22794,3.353-.31819.77484-.06243,1.552-.06862,2.32583-.14477a17.1628,17.1628,0,0,1,2.38875.01724C42.26262,25.1192,42.68944,25.17048,43.11688,25.2066Z"/>
    </g>
  </g>
</svg>
