<svg id="Layer_1" data-name="Layer 1" xmlns="http://www.w3.org/2000/svg" viewBox="0 0 80 80">
  <defs>
    <style>
      .cls-1 {
        fill: #007fd2;
      }

      .cls-2 {
        fill: #b3eeaa;
      }

      .cls-3 {
        fill: #00569e;
      }

      .cls-4 {
        fill: #2bd6d0;
      }
    </style>
  </defs>
  <g>
    <path class="cls-1" d="M62.9591,71.50368c-4.08055,1.24288-10.97781,2.419-22.40936,3.19664-35.98932,2.44827-27.946-5.12181-27.946-5.12181l3.615-8.97907,4.74772-11.76939,5.625-13.95735-.00051-.00758L29.97838,26.449l6.23579-15.48089L51.51363,37.77568l5.15981,9.03577L64.82758,61.093l2.70953,4.74854S71.72276,68.825,62.9591,71.50368Z"/>
    <path class="cls-2" d="M56.67344,46.81145a6.51573,6.51573,0,1,1-6.43152-9.0708,6.962,6.962,0,0,1,1.27171.035Z"/>
    <circle class="cls-3" cx="33.79945" cy="49.67789" r="6.51723"/>
    <path class="cls-4" d="M39.12431,31.96039A6.51618,6.51618,0,0,1,26.59147,34.8727l-.00051-.00758L29.97838,26.449a6.518,6.518,0,0,1,9.14593,5.51144Z"/>
    <circle class="cls-2" cx="28.40839" cy="66.45387" r="6.51723"/>
    <path class="cls-3" d="M62.9591,71.50368A6.5144,6.5144,0,0,1,64.82758,61.093l2.70953,4.74854S71.72276,68.825,62.9591,71.50368Z"/>
    <path class="cls-4" d="M23.7,53.706a6.51466,6.51466,0,0,1-6.05617,6.94856,6.71355,6.71355,0,0,1-1.42506-.05513l4.74772-11.76939A6.51381,6.51381,0,0,1,23.7,53.706Z"/>
    <circle class="cls-4" cx="47.68852" cy="61.79764" r="6.51723"/>
    <polygon class="cls-3" points="46.438 10.273 43.666 12.843 44.894 16.418 41.138 16.866 40.033 20.482 36.732 18.635 33.711 20.913 32.126 17.479 28.345 17.544 29.078 13.835 25.983 11.664 28.755 9.094 27.527 5.518 31.282 5.071 32.387 1.454 35.689 3.301 38.71 1.024 40.295 4.458 44.076 4.393 43.343 8.102 46.438 10.273"/>
    <path class="cls-3" d="M39.91609,77.55913c-24.42006,1.58929-29.13357-1.39527-30.50415-4.536a4.913,4.913,0,0,1,1.27423-5.46844l2.03565-.12815A1.38821,1.38821,0,0,1,14.16943,68.534c.2.97583-.84774,2.09582.08667,2.563,1.40161.93441,3.563,2.293,25.31093.87811.26171-.017.525-.03471.79269-.05267,9.967-.678,17.29615-1.715,21.78406-3.08175a13.81007,13.81007,0,0,0,3.13915-1.29382,2.788,2.788,0,0,1-.04861-3.33077,2.82433,2.82433,0,0,1,3.92635-.63981,4.98831,4.98831,0,0,1,2.11544,4.74308c-.54956,3.37735-4.54321,4.96877-7.49914,5.87233-4.897,1.49141-12.64711,2.60612-23.03766,3.31278C40.46346,77.523,40.18707,77.5415,39.91609,77.55913Zm25.94782-9.456.01145-.00075Z"/>
  </g>
</svg>
