<svg id="Layer_1" data-name="Layer 1" xmlns="http://www.w3.org/2000/svg" viewBox="0 0 80 80">
  <defs>
    <style>
      .cls-1 {
        fill: #f3f1fa;
      }

      .cls-2 {
        opacity: 0.48;
      }

      .cls-3 {
        fill: #ff0061;
      }

      .cls-4 {
        opacity: 0.45;
      }

      .cls-5 {
        fill: #0adbdb;
      }
    </style>
  </defs>
  <g>
    <path class="cls-1" d="M70.54343,21.69756H9.24142a5.78046,5.78046,0,0,0-5.76394,5.81379L4.43566,43.2361A5.77066,5.77066,0,0,0,10.20453,49H29.90161c3.56821,0,3.91251-3.70287,4.24683-7.286.46913-5.01534,1.09793-8.304,5.41463-8.304,4.142,0,4.77578,2.95433,5.31972,7.82.40925,3.643.87332,7.77,5.12515,7.77H69.58525a5.757,5.757,0,0,0,5.76393-5.719l.96312-15.81957A5.77384,5.77384,0,0,0,70.54343,21.69756ZM29.722,41.9486a1.70918,1.70918,0,0,1-1.70673,1.7067H10.28939a1.706,1.706,0,0,1-1.70674-1.7067V28.749a1.70919,1.70919,0,0,1,1.70674-1.70673h17.7259A1.71241,1.71241,0,0,1,29.722,28.749Zm41.79957,0a1.70918,1.70918,0,0,1-1.70674,1.7067H52.08895a1.706,1.706,0,0,1-1.70673-1.7067V28.749a1.70918,1.70918,0,0,1,1.70673-1.70673h17.7259A1.71241,1.71241,0,0,1,71.52159,28.749Z"/>
    <g class="cls-2">
      <rect class="cls-3" x="8.58265" y="27.04226" width="21.13937" height="16.61305" rx="1.70674"/>
    </g>
    <g class="cls-4">
      <path class="cls-5" d="M52.089,27.04226H69.81488A1.70671,1.70671,0,0,1,71.52159,28.749v13.1996a1.70674,1.70674,0,0,1-1.70674,1.70674H52.089a1.70674,1.70674,0,0,1-1.70674-1.70674V28.749A1.70674,1.70674,0,0,1,52.089,27.04226Z"/>
    </g>
  </g>
</svg>
