<svg id="Layer_1" data-name="Layer 1" xmlns="http://www.w3.org/2000/svg" viewBox="0 0 80 80">
  <defs>
    <style>
      .cls-1, .cls-2 {
        fill: #c0272d;
      }

      .cls-2 {
        stroke: #ad1a25;
      }

      .cls-2, .cls-3, .cls-4 {
        stroke-miterlimit: 10;
      }

      .cls-3, .cls-4 {
        fill: none;
        stroke-linecap: round;
        stroke-width: 0.5px;
        stroke-dasharray: 2 2;
      }

      .cls-3 {
        stroke: #9e1822;
      }

      .cls-4 {
        stroke: #931625;
      }
    </style>
  </defs>
  <g>
    <path class="cls-1" d="M59.90549,12c-.8121,1.96027-1.4317,3.5145-1.67324,4.24612A156.49414,156.49414,0,0,1,26.25514,15.637c.483-.97663.94512-1.96728,1.4562-2.92992a69.52172,69.52172,0,0,0,9.26934,1.3582A69.69114,69.69114,0,0,0,55.7819,12.93113Q57.86644,12.52681,59.90549,12Z"/>
    <path class="cls-1" d="M7.93349,72.64276V54.62915c-.063-.87863-.10151-1.76425-.112-2.64989q-.021-1.81152.112-3.60551a38.87994,38.87994,0,0,1,1.20767-7.25654c.091-.34655.189-.68962.29055-1.02915a36.16657,36.16657,0,0,1,3.357-7.86916A35.88527,35.88527,0,0,1,24.33685,20.07217a1.50915,1.50915,0,0,0,.6441-.71062,160.5063,160.5063,0,0,0,32.46019.80862c-.007.091-.007.14-.007.14a41.91033,41.91033,0,0,0,2.83192,8.05116c1.61022,3.04545,2.32083,12.69983,2.59386,17.29949l.021.44107v.01049C63.35,55.5813,64.1166,72.81779,64.1166,72.81779Z"/>
    <path class="cls-1" d="M58.23225,16.24612c-.028.084-.049.154-.06651.21352a18.67989,18.67989,0,0,0-.7246,3.71053A160.5063,160.5063,0,0,1,24.981,19.36155a1.395,1.395,0,0,0,.10151-.42006,7.796,7.796,0,0,1,.89963-2.7584c.091-.182.18554-.36405.27305-.54608A156.49414,156.49414,0,0,0,58.23225,16.24612Z"/>
    <path class="cls-1" d="M72.75935,18.26239q-7.61884,1.32846-15.31821,1.90778a18.67989,18.67989,0,0,1,.7246-3.71053c.0175-.05952.0385-.12952.06651-.21352q6.5792-.54611,13.1094-1.65225c.25553.58457.49707,1.17616.7141,1.77826C72.28329,17.00572,72.53532,17.6288,72.75935,18.26239Z"/>
    <g>
      <path class="cls-2" d="M45.82646,44.28866V59.92542a1.51635,1.51635,0,0,1-1.51572,1.51572H29.024V44.28866Z"/>
      <path class="cls-2" d="M29.024,44.28866V61.44114H13.73733a1.51635,1.51635,0,0,1-1.51573-1.51572V44.28866Z"/>
    </g>
    <g>
      <path class="cls-3" d="M28.23642,47.26409V60.741H14.22361a1.426,1.426,0,0,1-1.38942-1.45889V47.26409Z"/>
      <path class="cls-3" d="M29.63662,47.26409V60.741H43.64943a1.426,1.426,0,0,0,1.38942-1.45889V47.26409Z"/>
    </g>
    <path class="cls-4" d="M72.34279,18.07093Q64.86293,19.22485,57.304,19.72805a177.96972,177.96972,0,0,1-31.868-.70237"/>
    <path class="cls-4" d="M26.687,16.4906a173.53279,173.53279,0,0,0,31.39375.52908q6.45916-.47436,12.87025-1.43517"/>
  </g>
</svg>
