<svg xmlns="http://www.w3.org/2000/svg" viewBox="0 0 68.15097 78">
  <defs>
    <style>
      .cls-1 {
        isolation: isolate;
      }

      .cls-2 {
        fill: #2b2729;
      }

      .cls-3 {
        fill: #f68e1e;
      }

      .cls-4 {
        fill: #f7981d;
      }

      .cls-11, .cls-5, .cls-7 {
        fill: #fffbe8;
      }

      .cls-5 {
        opacity: 0.18;
      }

      .cls-11, .cls-5 {
        mix-blend-mode: lighten;
      }

      .cls-6 {
        fill: #8cc63f;
      }

      .cls-7 {
        opacity: 0.44;
      }

      .cls-8 {
        fill: #7aaf27;
      }

      .cls-9 {
        fill: #ff0061;
      }

      .cls-10 {
        fill: #2b2522;
        mix-blend-mode: darken;
      }

      .cls-10, .cls-13 {
        opacity: 0.15;
      }

      .cls-11 {
        opacity: 0.31;
      }

      .cls-12 {
        fill: #20bcb4;
      }

      .cls-13 {
        fill: #0099a8;
        mix-blend-mode: multiply;
      }

      .cls-14 {
        fill: #2bd6d0;
      }
    </style>
  </defs>
  <g class="cls-1">
    <g id="Layer_2" data-name="Layer 2">
      <g id="Layer_1-2" data-name="Layer 1">
        <g id="Whole_Balloons" data-name="Whole Balloons">
          <g>
            <path class="cls-2" d="M49.56716,40.52l-.24,1.51-.09.55-.46,2.85v.01l-.01.08h-.01l-.63,3.95-1.14,7.07-.32,1.95-.42,2.64-1.38,8.57-.26,1.62995-.13995.88-.94,5.79h-.38l.92-5.72.14-.84.32995-2.06v-.01l.08-.49.68-4.21v-.03l.59-3.6.55-3.45.29-1.79,1.03-6.41.58-3.59.08-.49.43-2.7.08-.48.27-1.67Z"/>
            <g>
              <path class="cls-3" d="M47.892,43.49129a4.08629,4.08629,0,0,1-1.34205,4.29049c-1.9598,1.50142,4.90537,2.77713,3.62143.67357A4.0816,4.0816,0,0,1,50.4715,43.971a1.32174,1.32174,0,0,0-2.57953-.47972Z"/>
              <g>
                <path class="cls-4" d="M49.48386,45.612c-5.13194-.95359-12.30894-9.66112-11.4123-20.11094.89276-10.44982,9.82429-16.16475,17.925-14.6593C64.09924,12.34763,70.35828,20.885,67.40886,30.95274c-2.94744,10.06849-12.79305,15.61272-17.925,14.6593Z"/>
                <path class="cls-3" d="M59.84652,12.15282a15.94853,15.94853,0,0,1,3.29219,15.54967c-2.94943,10.06847-12.795,15.61268-17.927,14.65911a7.05663,7.05663,0,0,1-1.58991-.5156,11.51818,11.51818,0,0,0,5.862,3.76585c5.132.95361,14.97756-4.59062,17.925-14.65911,2.45948-8.39542-1.48726-15.72285-7.56234-18.79992Z"/>
                <path class="cls-5" d="M43.80191,20.399a1.1902,1.1902,0,0,1-.48415-.16936,1.20223,1.20223,0,0,1-.39893-1.6563,16.00457,16.00457,0,0,1,4.0436-4.44323,1.2058,1.2058,0,1,1,1.45244,1.92516,13.62347,13.62347,0,0,0-3.4355,3.77817,1.20942,1.20942,0,0,1-1.17746.56556Z"/>
                <path class="cls-5" d="M43.44364,22.334a1.14915,1.14915,0,1,1-.99928-1.27517,1.14782,1.14782,0,0,1,.99928,1.27517Z"/>
              </g>
            </g>
          </g>
          <g>
            <g>
              <polygon class="cls-2" points="29.837 78 29.467 78 28.867 73.45 28.697 72.15 28.487 70.59 27.867 65.85 27.147 60.4 26.737 57.29 26.577 56.07 26.437 55.02 26.127 52.65 25.937 51.19 25.907 50.97 25.807 50.21 24.987 44.02 24.987 43.99 24.597 41.06 23.987 36.41 23.957 36.18 24.327 36.17 24.357 36.39 25.007 41.36 25.407 44.36 25.407 44.39 26.167 50.13 26.267 50.88 26.297 51.14 26.497 52.63 26.847 55.32 26.997 56.45 27.157 57.64 27.587 60.89 28.117 64.95 28.717 69.51 28.977 71.5 29.167 72.94 29.837 78"/>
              <path class="cls-6" d="M22.52249,30.91406a3.93283,3.93283,0,0,1-.08713,4.32947c-1.40792,1.91259,5.28881,1.25875,3.53426-.34487a3.93744,3.93744,0,0,1-.93151-4.23012,1.27325,1.27325,0,0,0-2.51562.24552Z"/>
              <path class="cls-6" d="M39.70773,10.68487c-3.73567-.13328-7.33263-.19713-11.06828-.33042-1.99083-3.11351-4.12033-6.29627-6.11115-9.41A1.84388,1.84388,0,0,0,20.50846.04583a1.83963,1.83963,0,0,0-1.78168,1.31124q-1.9056,5.20116-3.81313,10.40216Q9.48443,13.15609,4.05524,14.55335C2.39751,14.98,2.291,17.393,3.48587,18.32342q4.32539,3.37238,8.65074,6.74418-.32829,5.32818-.65846,10.656A2.2456,2.2456,0,0,0,14.98339,37.849q4.49964-3.01649,8.99734-6.03322,5.04583,1.98107,10.09156,3.962a2.2406,2.2406,0,0,0,2.963-2.8273q-1.47282-5.13229-2.94558-10.26523,3.49457-4.22035,6.99107-8.44094c.96443-1.165.337-3.49853-1.373-3.55948Z"/>
            </g>
            <path class="cls-7" d="M18.60478,11.59354a1.09855,1.09855,0,0,1-.46285-.01871,1.082,1.082,0,0,1-.7785-1.32007A14.36249,14.36249,0,0,1,19.666,5.376a1.086,1.086,0,0,1,1.75841,1.275,12.18585,12.18585,0,0,0-1.956,4.14775,1.08714,1.08714,0,0,1-.86371.79487Z"/>
            <path class="cls-7" d="M18.80814,13.3509a1.03326,1.03326,0,1,1-1.19683-.83439,1.02977,1.02977,0,0,1,1.19683.83439Z"/>
            <path class="cls-8" d="M22.52718.94a1.84355,1.84355,0,0,0-2.02-.89,1.50092,1.50092,0,0,0-.37.04,1.66812,1.66812,0,0,0-.3.08c1.87,2.93,4.71,7.26,6.58,10.18.75.03,1.47-.02,2.22,0C26.91714,7.66,24.24716,3.64,22.52718.94Zm14.13,18.64c.01-.00995.02-.03.03-.04,1.47-1.77,2.93-3.53,4.39-5.3.97-1.16.34-3.49-1.37-3.56-.46-.01-.93-.03-1.39-.04a2.3537,2.3537,0,0,1-.29,2.27q-2.265,2.73-4.53,5.47l-.03.03c-.64.77-1.28,1.54-1.92005,2.32-.17.21-.34.41-.51.62.56,1.95,1.12006,3.91,1.68006,5.86.43,1.47.85,2.93005,1.27,4.4a2.24171,2.24171,0,0,1-2.96,2.83c-.27-.1-.53-.21-.8-.31-1.81-.71-3.61-1.42-5.42-2.13-.72-.28-1.43-.56-2.15-.84q-.615-.24-1.23-.48c-.17-.07-.33-.13-.5-.2-.16.11-.32.21-.48.32-.15.1-.29.2-.44.3-.27.18-.55.36-.82.55-.44.29-.87.58-1.31.87-.64.44-1.28.86-1.92,1.29-.23.16-.46.31-.69.47-1.11.74-2.22,1.49-3.33,2.23a2.80016,2.80016,0,0,1-.33.19,2.523,2.523,0,0,0,.14.33,1.87669,1.87669,0,0,0,.14.24.70708.70708,0,0,0,.1.14,1.881,1.881,0,0,0,.34.35,2.273,2.273,0,0,0,.32.22,1.73648,1.73648,0,0,0,.83.27,2.22151,2.22151,0,0,0,1.19-.21c.05005-.03.1-.06.16-.09a1.40049,1.40049,0,0,0,.16-.1c.29-.19.58-.39.87-.59.14-.09.27-.18005.41-.27.14-.09.28-.18.41-.28.64-.42,1.28-.85,1.91-1.28,1.12-.74,2.23-1.49,3.34-2.24.23-.14.45-.29.67-.44.16-.11.32-.21.47-.32.3-.2.61-.41.91-.61.28.11.55.22.83.33,1.8.7,3.59,1.4,5.39,2.11005,1.29.50995,2.59,1.00995,3.88,1.52a2.24168,2.24168,0,0,0,2.96-2.83c-.82995-2.89-1.67-5.79-2.5-8.68-.15-.53-.3-1.05-.45-1.58.1-.12.19-.23.29-.35Q35.51717,20.96,36.65719,19.58Z"/>
          </g>
          <g id="L_Balloon_Flat" data-name="L Balloon Flat">
            <path class="cls-2" d="M36.54714,50.74v.31q-.02994,2.1-.06,4.26c0,.52-.01,1.04-.01,1.56,0,.27-.00995.54-.00995.82-.07,6.57-.13,13.49-.17005,20.31h-.31c.04-6.76.1-13.65.17-20.25,0-.27.01-.54.01-.81,0-.59.01-1.17.01-1.75.02-1.39.04-2.77.06-4.12v-.33a.14727.14727,0,0,1,.15-.15h.01A.15379.15379,0,0,1,36.54714,50.74Z"/>
            <path class="cls-9" d="M42.75756,26.22953c2.63087,6.61663,3.52133,20.88381-3.12191,23.50415S21.33116,42.33525,18.70029,35.71862a12.93059,12.93059,0,0,1,24.05727-9.48909Z"/>
            <path class="cls-9" d="M36.30155,49.92745c-.12058.06844-.57248-.14656-.60288-.01168-.12327.547-.50687,2.0195-.79413,2.91095a14.49562,14.49562,0,0,1-.95715,2.23362.92558.92558,0,0,0,.88059.13066c.53726-.17481.27663-.4256.5683-.38232s1.12767.71882,1.42113.46541.12594-1.12671.43-1.16643.67553.6093,1.117.50512.83251-.72491.83251-.72491-.86412-.98629-1.15335-1.40138a24.49628,24.49628,0,0,1-.99374-2.39932,1.01068,1.01068,0,0,0-.74835-.15972Z"/>
            <path class="cls-10" d="M36.30155,49.92745c-.12058.06844-.57248-.14656-.60288-.01168-.12327.547-.50687,2.0195-.79413,2.91095a14.49562,14.49562,0,0,1-.95715,2.23362.92558.92558,0,0,0,.88059.13066c.53726-.17481.27663-.4256.5683-.38232s1.12767.71882,1.42113.46541.12594-1.12671.43-1.16643.67553.6093,1.117.50512.83251-.72491.83251-.72491-.86412-.98629-1.15335-1.40138a24.49628,24.49628,0,0,1-.99374-2.39932,1.01068,1.01068,0,0,0-.74835-.15972Z"/>
            <path class="cls-9" d="M54.49888,40.64483c-4.69573,5.364-17.0151,12.6978-22.40065,8.02087s-1.79788-19.59354,2.89785-24.95753a12.9152,12.9152,0,0,1,19.5028,16.93666Z"/>
            <path class="cls-10" d="M38.58167,20.80193a12.7875,12.7875,0,0,0-3.19445,2.3918,12.5939,12.5939,0,0,0-2.33466-1.72,12.95208,12.95208,0,0,0-9.23136-1.44688,12.97826,12.97826,0,0,1,13.11509-.30267A12.60043,12.60043,0,0,1,38.58167,20.80193Z"/>
            <path class="cls-10" d="M54.49929,40.64152c-3.1092,3.55446-9.56483,7.96894-15.13844,9.187l-.00742.00369c-.126.0406-.252.0775-.38169.11073a6.76759,6.76759,0,0,1-1.89.21039h-.05929c-.02223-.00369-.04447-.00369-.07041-.00739a.05508.05508,0,0,0-.02594.0037h-.01853a7.23509,7.23509,0,0,1-4.1172-.97444c-.04076-.01845-.08525-.03321-.126-.05168-5.63292-2.36224-11.629-8.24943-13.73763-12.81892.01483.01109.02965.01845.04446.02954,2.142,1.39519,5.14021,5.392,10.02083,7.08618a20.12944,20.12944,0,0,0,5.80728,1.28019c3.17592.07752,6.73689-1.79636,9.683-3.25431C48.833,39.298,52.361,36.06465,53.37271,33.48462c1.69358-4.32956-1.0821-8.16454-4.3692-11.02139a12.89967,12.89967,0,0,0-6.29257-2.986,13.02467,13.02467,0,0,1,2.7053-.17349,12.88675,12.88675,0,0,1,9.08305,21.3378Z"/>
            <path class="cls-11" d="M21.305,27.56069a1.18993,1.18993,0,0,1-.48415-.16935A1.20223,1.20223,0,0,1,20.422,25.735a16.00461,16.00461,0,0,1,4.0436-4.44324A1.20581,1.20581,0,1,1,25.918,23.217a13.62317,13.62317,0,0,0-3.4355,3.77817,1.20943,1.20943,0,0,1-1.17746.56555Z"/>
            <path class="cls-11" d="M20.94676,29.49569a1.14915,1.14915,0,1,1-.99928-1.27516,1.1478,1.1478,0,0,1,.99928,1.27516Z"/>
          </g>
          <g>
            <g>
              <g>
                <path class="cls-12" d="M2.89718,53.63c-.54-.51-.91-1.41-1.67-1.61a.07745.07745,0,0,0-.03-.00995.73059.73059,0,0,0,.07.19,1.37338,1.37338,0,0,0,.55.56995c.35.21.07.74005-.29.7-.22-.04-.75-.03-.75.31,0,.38.72,0,.87-.1.36-.21.85.19.55.55-.12.14-.64,1.1-.31,1.09.59-.02.88-1.19,1.08-1.64A.17938.17938,0,0,1,2.89718,53.63Zm9.76-8.41a7.74823,7.74823,0,0,0-3.15.85,26.50072,26.50072,0,0,0-3.05,1.44,8.56567,8.56567,0,0,0-2.57,2.1,3.45376,3.45376,0,0,0-.62,1.26,3.56324,3.56324,0,0,0,.32995,2.1.30792.30792,0,0,1,.03.13.38823.38823,0,0,1,.06.11,2.31316,2.31316,0,0,0,1.63,1.63,5.42443,5.42443,0,0,0,2.47-.07,15.16388,15.16388,0,0,0,2.37006-.75c.84-.33,1.68994-.64,2.51-1.03a8.76437,8.76437,0,0,0,1.96-1.22,3.92436,3.92436,0,0,0,1.51-2.25,3.40466,3.40466,0,0,0,.06-.46A3.61665,3.61665,0,0,0,12.65719,45.22Zm10.16,5.85a24.66041,24.66041,0,0,0-3.71-4.88,4.68858,4.68858,0,0,1-2.68.49,4.55148,4.55148,0,0,1,.46,3.13,4.43436,4.43436,0,0,1-1.26,2.19,13.88769,13.88769,0,0,0,2.91,4.04,2.81277,2.81277,0,0,0,4.13-.4,3.99812,3.99812,0,0,0,.75-2.05A4.465,4.465,0,0,0,22.81716,51.07Zm-.03,13.57995a1.54519,1.54519,0,0,0-.06994-.23c-.04-.14-.09-.27-.14-.4-.36-1.00995-.91-1.97-1.24-3a7.18181,7.18181,0,0,1-.32-3.5,3.67532,3.67532,0,0,1-1.79-.19,3.04667,3.04667,0,0,0-.44,1.01,7.19324,7.19324,0,0,0-.11,2.32c.02.29.05.58.08.85a42.4506,42.4506,0,0,1,.18,4.37c0,.53,0,1.05-.01,1.57a24.60331,24.60331,0,0,0,.03,2.85v.01a5.33729,5.33729,0,0,0,.55,1.96,3.01494,3.01494,0,0,0,2.71,1.72,5.35623,5.35623,0,0,1-.45-3.83,10.16419,10.16419,0,0,1,.71-1.78c.11-.25.22-.51.31-.77a4.1,4.1,0,0,0,.21-.97A5.37088,5.37088,0,0,0,22.78713,64.65Zm6.41-4.31a9.95745,9.95745,0,0,0-2.2-3.89,3.00518,3.00518,0,0,0-.42-.38,3.77494,3.77494,0,0,0-2.68-.98,5.52194,5.52194,0,0,1-.66,1.13,3.4137,3.4137,0,0,1-1.39,1.07.24347.24347,0,0,1,0,.12,7.14656,7.14656,0,0,0,.58,4.27,17.56982,17.56982,0,0,1,1.31,3.57,4.70912,4.70912,0,0,1,.06,1.12,6.342,6.342,0,0,1-.47,2.09c-.13.32-.3.63-.45.94a4.07956,4.07956,0,0,0-.19.42005,5.1059,5.1059,0,0,0-.26,1.22.56964.56964,0,0,0-.01.13c-.00995.11-.02.22-.02.33,0,.09.01.17.01.24a2.88314,2.88314,0,0,0,2.15,3c1.94.35,3.35-1,4.14-2.59.1-.21.2-.43.28-.65a17.26789,17.26789,0,0,0,.8-5.11A18.14277,18.14277,0,0,0,29.19717,60.34Zm9.83-10.41h-.01c-.01,0-.02-.01-.04-.02,0,0,0,.01-.00995,0-.09-.02-.19-.05-.29-.07a10.6768,10.6768,0,0,0-2.65-.23h-.01c-.42005.01-.83.04-1.22.07a2.478,2.478,0,0,0-.38.05,2.208,2.208,0,0,0-.36.04c-.7.08-1.39.2-2.09.32-.59.11-1.18006.21-1.78.29-1.26.16-2.62.23-3.92.5l-.36.09a8.0239,8.0239,0,0,0-1.96.75,4.86957,4.86957,0,0,1,.19,2.59,4.4183,4.4183,0,0,1,2.3.71,3.89653,3.89653,0,0,1,.41.30005,7.08926,7.08926,0,0,1,1.39,1.4,10.50228,10.50228,0,0,1,.9,1.41,8.398,8.398,0,0,0,2.48-.31c.89-.2,1.79-.32,2.69-.49005a1.98593,1.98593,0,0,0,.24-.04c.55-.11,1.08-.23,1.62-.35.11-.02.21-.05.31-.07.34-.08.67-.15,1.01-.23.59-.13,1.45-.13,1.84-.65a.284.284,0,0,1,.1-.09,4.80418,4.80418,0,0,1,.12-.63995,3.73241,3.73241,0,0,1,2.38-2.59A3.95423,3.95423,0,0,0,39.02718,49.93Zm1.75995,20.44a9.76942,9.76942,0,0,1,.16-4.68c.04-.2.08-.41.12-.61a6.40856,6.40856,0,0,0,.1-1.52,7.75465,7.75465,0,0,0-.21-1.17.0098.0098,0,0,1-.01-.01c-.13-.55-.32-1.1-.5-1.63a16.44232,16.44232,0,0,1-1.04-3.8,4.993,4.993,0,0,1-1.3.39h-.02a.03677.03677,0,0,0-.01.03,6.136,6.136,0,0,0-.3,1.01,5.14044,5.14044,0,0,0-.08,1.3c0,.04.01.08.01.12.06.65.31,3.67.44,5.81.03.47.06.89.07,1.24a11.27723,11.27723,0,0,0,.18,1.73,3.61035,3.61035,0,0,0,.79,1.77,2.81068,2.81068,0,0,0,2.03.84A2.66449,2.66449,0,0,1,40.78713,70.37Zm5.88-11.88c-.06-.3-.14-.6-.23-.9-.14-.52-.31-1.03-.5-1.54-.62-1.6-2.34-3.43-4.49-2.28a3.5194,3.5194,0,0,0-1.24,2.32,4.69734,4.69734,0,0,0-.01.65v.03a8.17,8.17,0,0,0,.34,1.69c.04.13.08.25.12006.38a18.79132,18.79132,0,0,1,1.31995,5.1,3.8396,3.8396,0,0,1,0,.48c-.09,1.48-.61,2.91-.6,4.41V68.95l.01.00995a3.083,3.083,0,0,0,.54,1.87,1.64542,1.64542,0,0,0,.42.37005.27184.27184,0,0,1,.12006.06,2.89255,2.89255,0,0,0,1.61.21.49871.49871,0,0,0,.13-.03,1.822,1.822,0,0,0,.4-.11,4.3294,4.3294,0,0,0,2.1-2.92,16.66161,16.66161,0,0,0,.55-5.07A22.655,22.655,0,0,0,46.66714,58.49Zm-1.22-13.77a1.39453,1.39453,0,0,0-1.54-.5,4.19057,4.19057,0,0,0-1.95,1.26c-.12.13-.23.27-.34.41a.02147.02147,0,0,0-.02.02,13.58153,13.58153,0,0,0-1.48,2.34c-.18.34-.34.68-.5,1.02.08.03.15.05005.23.08a2.92551,2.92551,0,0,1,.31006.14,1.22012,1.22012,0,0,1,.2.09h.01a4.55682,4.55682,0,0,1,2.31,2.93005,4.70384,4.70384,0,0,1,.53.03,20.86884,20.86884,0,0,0,2.13-3.84,8.6289,8.6289,0,0,0,.41-1.35v-.01A3.13586,3.13586,0,0,0,45.44717,44.72Zm1.8-5.12c-.08-.25-.33-.24-.54-.14-.42005.21-.69.84-.88,1.23l-.03.06c-.24.52-.41,1.07-.6,1.61-.09.26-.18.51-.28.76a3.6416,3.6416,0,0,1-.14.35,2.506,2.506,0,0,1,.93.42c.02-.03.03-.05.05-.08V43.8a9.866,9.866,0,0,0,.69-1.33c.06-.12.11-.25.17-.37a9.951,9.951,0,0,0,.51-1.38,3.44015,3.44015,0,0,0,.16-.87A.69015.69015,0,0,0,47.24716,39.6Zm-24.75-3.46a8.08564,8.08564,0,0,0-.09-.86c-.04-.34-.1-.68-.17-1.02a8.14213,8.14213,0,0,0-.31-1.07,6.26375,6.26375,0,0,0-1.48-2.39,3.80443,3.80443,0,0,0-.37-.33,4.08571,4.08571,0,0,0-1.34-.7,3.04928,3.04928,0,0,0-.87-.15,3.85641,3.85641,0,0,0-.68,0,1.592,1.592,0,0,0-1.51,1.44,4.87635,4.87635,0,0,0,.03,1.66c.02.14.05.28.08.42.05005.23.11005.45.17.67.11.35.23.7.35,1.05a5.53926,5.53926,0,0,1,.37,1.85,5.76459,5.76459,0,0,1-.06,1.01,7.442,7.442,0,0,1-.17.82c-.27,1.04-.7,2.03-1.01,3.05a6.05428,6.05428,0,0,0-.31,1.97,4.66767,4.66767,0,0,0,.09.8,2.74906,2.74906,0,0,0,.69995,1.45,4.02729,4.02729,0,0,0,3.14-.49,6.61878,6.61878,0,0,0,2.27-2.80005,11.7032,11.7032,0,0,0,.63-1.65.035.035,0,0,0,.01-.02,10.76277,10.76277,0,0,0,.37-1.61A12.88492,12.88492,0,0,0,22.49716,36.14Zm-6.99-1.13c-.06-.16-.11-.32-.16-.48-.03-.09-.06-.17-.08-.25a6.88847,6.88847,0,0,1-.35-3.61,2.41348,2.41348,0,0,1,.68-1.18,2.72464,2.72464,0,0,0-2.53.06,2.82924,2.82924,0,0,0-.87.98h-.01a5.84386,5.84386,0,0,0-.46,1.09c-.06.19-.11.38-.15.56a12.07076,12.07076,0,0,0-.29,1.7,19.323,19.323,0,0,0,.13,4.92c.09.62.19,1.24.32,1.84a17.86011,17.86011,0,0,0,.47,1.92l.01.01a6.20541,6.20541,0,0,0,.85,1.82.25008.25008,0,0,1,.04.07,4.50271,4.50271,0,0,1,1.4.4,6.79247,6.79247,0,0,1-.19-1.31,8.39107,8.39107,0,0,1,.56-2.84c.16-.5.35-1,.52-1.51a11.01209,11.01209,0,0,0,.38-1.36,3.85381,3.85381,0,0,0,.08-.58A5.18375,5.18375,0,0,0,15.50717,35.01Z"/>
                <path class="cls-12" d="M47.41714,58.13c-.13-.52-.26-1.06-.43-1.59a6.48691,6.48691,0,0,0-.26-.74,5.73631,5.73631,0,0,0-.66-1.28,4.98088,4.98088,0,0,0-2.09-1.75,16.59894,16.59894,0,0,0,2.26-4.25995,1.97621,1.97621,0,0,0,.08-.26,3.397,3.397,0,0,0,.08-.34,6.608,6.608,0,0,0,.2-1.04v-.01a3.64244,3.64244,0,0,0-.35-2.39c.05-.07.1-.15.14-.22a11.71362,11.71362,0,0,0,.94-1.83c.07-.15.13-.3.19-.45a4.22074,4.22074,0,0,0,.48-2.61.90718.90718,0,0,0-.17-.34,1.14165,1.14165,0,0,0-1.23-.36,2.321,2.321,0,0,0-1.2,1.17,8.24322,8.24322,0,0,0-.66,1.49005c-.1.28-.2.56-.29.84-.05.13-.1.26-.14.39a.03671.03671,0,0,0-.01.03c-.1.25-.2.5-.32.75a.4901.4901,0,0,0-.04.11,3.77456,3.77456,0,0,0-2.18,1.1,15.082,15.082,0,0,0-2.9,4.51v.01a12.68784,12.68784,0,0,0-3.84-.19c-.74.06-1.48005.17-2.21.29h-.03a.035.035,0,0,0-.02.01c-.94.15-1.88.32-2.82.44h-.03c-.61005.08-1.23.14-1.85.21a.12736.12736,0,0,1-.06.00995c-.61.08-1.23.17-1.83.3-.12.02-.24.05-.36.08a8.58142,8.58142,0,0,0-2.14.78,21.28921,21.28921,0,0,0-3.89-5.21,7.8529,7.8529,0,0,0,2.38-3.17,9.4727,9.4727,0,0,0,.4-1.05.035.035,0,0,0,.01-.02,13.75083,13.75083,0,0,0,.47-1.7,14.271,14.271,0,0,0,.27-3.45,12.75042,12.75042,0,0,0-.27-2.16.92935.92935,0,0,0-.04-.16,8.71679,8.71679,0,0,0-.4-1.32,7.53358,7.53358,0,0,0-1.17-2.07,4.375,4.375,0,0,0-.67-.69,4.58683,4.58683,0,0,0-2.02-1.04c-.09-.02-.18-.04-.28-.06a2.60617,2.60617,0,0,0-.48-.05,3.66773,3.66773,0,0,0-1.56.17c-.03-.01-.05-.03-.08-.04a4.1433,4.1433,0,0,0-2.92-.44,3.03626,3.03626,0,0,0-1.56,1.1,3.508,3.508,0,0,0-.27.4c-1.35,2.29-1.30005,5.34-1.07,7.9a24.37131,24.37131,0,0,0,.73,4.15,10.1533,10.1533,0,0,0,.9,2.37,1.35393,1.35393,0,0,0-.2.02,10.76007,10.76007,0,0,0-2.65.84,17.27765,17.27765,0,0,0-5.06,2.8,5.52062,5.52062,0,0,0-1.57,2.08,3.3502,3.3502,0,0,0-.17,1.74,1.95463,1.95463,0,0,0-.47-.39c-.34-.2-1.01-.52-1.37-.18-.43.4-.26.98.06995,1.44a1.04946,1.04946,0,0,0-.71,1.18c.11.62.59.76,1.09.7-.18.59-.15,1.24.52,1.39.99.22,1.49-.77,1.83-1.59,1.42,1.94,4.53,1.19,6.58.42a18.92338,18.92338,0,0,0,4.99005-2.37c.96,1.61,1.82,3.44,3.48,4.45-.86,1.34-.67,3.13-.53,4.64a64.3712,64.3712,0,0,1,.15,6.81c-.01,1.66-.01,3.32,1,4.74a3.6527,3.6527,0,0,0,3.68,1.55,3.75832,3.75832,0,0,0,4.09.47,5.02206,5.02206,0,0,0,1.97-1.74,3.77813,3.77813,0,0,0,.3-.51,8.795,8.795,0,0,0,.91-2.39,20.90965,20.90965,0,0,0,.46-3.7,24.08308,24.08308,0,0,0-.1-4.33,13.75333,13.75333,0,0,0-.93-3.59,4.86215,4.86215,0,0,0,1.01-.08c.45-.07.9-.18,1.35-.28.47-.1.95-.18,1.43-.26.57-.09,1.14-.18,1.71-.3.38-.09.77-.17,1.15-.26.1-.02.21-.05.31-.06.23-.06.47-.11.7-.16a5.7304,5.7304,0,0,0-.28,2.21c.09.91.53,6.06.55,7.9a4.7934,4.7934,0,0,0,1.47,3.54,4.23536,4.23536,0,0,0,3.22.78,3.1995,3.1995,0,0,0,1.94.32,2.5671,2.5671,0,0,0,.4-.07l.12-.03c1.69-.48,2.52-2.2,2.95-3.77a19.06222,19.06222,0,0,0,.49005-6.02A22.549,22.549,0,0,0,47.41714,58.13Zm-2.22-15.77c.19-.54.36-1.09.6-1.61l.03-.06c.19-.39.46-1.02.88-1.23.21-.1.46-.11.54.14a.69015.69015,0,0,1,.04.25,3.44015,3.44015,0,0,1-.16.87,9.951,9.951,0,0,1-.51,1.38c-.06.12-.11.25-.17.37a9.866,9.866,0,0,1-.69,1.33v.01c-.02.03-.03.05-.05.08a2.506,2.506,0,0,0-.93-.42,3.6416,3.6416,0,0,0,.14-.35C45.01718,42.87,45.10714,42.62,45.19717,42.36Zm-5.08,5.89a13.58153,13.58153,0,0,1,1.48-2.34.02147.02147,0,0,1,.02-.02c.11-.14.22-.28.34-.41a4.19057,4.19057,0,0,1,1.95-1.26,1.39453,1.39453,0,0,1,1.54.5,3.13586,3.13586,0,0,1,.3,2.62v.01a8.6289,8.6289,0,0,1-.41,1.35,20.86884,20.86884,0,0,1-2.13,3.84,4.70384,4.70384,0,0,0-.53-.03,4.55682,4.55682,0,0,0-2.31-2.93005h-.01a1.22012,1.22012,0,0,0-.2-.09,2.92551,2.92551,0,0,0-.31006-.14c-.07995-.03-.15-.05-.23-.08C39.77718,48.93,39.93716,48.59,40.11715,48.25Zm-22.93-18.63a3.85641,3.85641,0,0,1,.68,0,3.04928,3.04928,0,0,1,.87.15,4.08571,4.08571,0,0,1,1.34.7,3.80443,3.80443,0,0,1,.37.33,6.26375,6.26375,0,0,1,1.48,2.39,8.14213,8.14213,0,0,1,.31,1.07c.07.34.13.68.17,1.02a8.08564,8.08564,0,0,1,.09.86,12.88492,12.88492,0,0,1-.16,3.1,10.76277,10.76277,0,0,1-.37,1.61.035.035,0,0,1-.01.02,11.7032,11.7032,0,0,1-.63,1.65,6.61878,6.61878,0,0,1-2.27,2.80005,4.02729,4.02729,0,0,1-3.14.49,2.74906,2.74906,0,0,1-.69995-1.45,4.66767,4.66767,0,0,1-.09-.8,6.05428,6.05428,0,0,1,.31-1.97c.31-1.02.74-2.01,1.01-3.05a7.442,7.442,0,0,0,.17-.82,5.76459,5.76459,0,0,0,.06-1.01,5.53926,5.53926,0,0,0-.37-1.85c-.12-.35-.24-.7-.35-1.05-.06-.22-.12-.44-.17-.67-.03-.14-.06-.28-.08-.42a4.87635,4.87635,0,0,1-.03-1.66A1.592,1.592,0,0,1,17.18716,29.62Zm-5.9,4.26a12.07076,12.07076,0,0,1,.29-1.7c.04-.18.09-.37.15-.56a5.84386,5.84386,0,0,1,.46-1.09h.01a2.82924,2.82924,0,0,1,.87-.98,2.72464,2.72464,0,0,1,2.53-.06,2.41348,2.41348,0,0,0-.68,1.18,6.88847,6.88847,0,0,0,.35,3.61c.01995.08.05.16.08.25.05005.16.1.32.16.48a5.18375,5.18375,0,0,1,.35,2.25,3.85381,3.85381,0,0,1-.08.58,11.01209,11.01209,0,0,1-.38,1.36c-.17.51-.36005,1.01-.52,1.51a8.39107,8.39107,0,0,0-.56,2.84,6.79247,6.79247,0,0,0,.19,1.31,4.50271,4.50271,0,0,0-1.4-.4.25008.25008,0,0,0-.04-.07,6.20541,6.20541,0,0,1-.85-1.82l-.01-.01a17.86011,17.86011,0,0,1-.47-1.92c-.13-.6-.23-1.22-.32-1.84A19.323,19.323,0,0,1,11.28713,33.88Zm-9.4,21.44c-.33.00995.19-.95.31-1.09.3-.36-.19-.76-.55-.55-.15.1-.87.48-.87.1,0-.34.53-.35.75-.31.36.04.64-.49.29-.7a1.37338,1.37338,0,0,1-.55-.56995.73059.73059,0,0,1-.07-.19.07745.07745,0,0,1,.03.00995c.76.2,1.13,1.1,1.67,1.61a.17938.17938,0,0,0,.07.05C2.76718,54.13,2.47714,55.3,1.88717,55.32Zm10.78-2.33c-.82.39-1.67.7-2.50995,1.03a15.16388,15.16388,0,0,1-2.37006.75,5.42443,5.42443,0,0,1-2.47.07,2.31316,2.31316,0,0,1-1.63-1.63.38823.38823,0,0,0-.06-.11.30792.30792,0,0,0-.03-.13,3.56324,3.56324,0,0,1-.32995-2.1,3.45376,3.45376,0,0,1,.62-1.26,8.56567,8.56567,0,0,1,2.57-2.1,26.50072,26.50072,0,0,1,3.05-1.44,7.74823,7.74823,0,0,1,3.15-.85,3.61665,3.61665,0,0,1,3.54,3.84,3.40466,3.40466,0,0,1-.06.46,3.92436,3.92436,0,0,1-1.51,2.25A8.76437,8.76437,0,0,1,12.66714,52.99Zm2.96-.99a4.43436,4.43436,0,0,0,1.26-2.19,4.55148,4.55148,0,0,0-.46-3.13,4.68858,4.68858,0,0,0,2.68-.49,24.66041,24.66041,0,0,1,3.71,4.88,4.465,4.465,0,0,1,.6,2.52,3.99812,3.99812,0,0,1-.75,2.05,2.81277,2.81277,0,0,1-4.13.4A13.88769,13.88769,0,0,1,15.62716,52Zm6.59,21.99a3.01494,3.01494,0,0,1-2.71-1.72,5.33729,5.33729,0,0,1-.55-1.96V70.3a24.60331,24.60331,0,0,1-.03-2.85c.01-.52.01-1.04.01-1.57a42.4506,42.4506,0,0,0-.18-4.37c-.03-.27-.06-.56-.08-.85a7.19324,7.19324,0,0,1,.11-2.32,3.04667,3.04667,0,0,1,.44-1.01,3.67532,3.67532,0,0,0,1.79.19,7.18181,7.18181,0,0,0,.32,3.5c.33,1.03.88,1.99005,1.24,3a3.18125,3.18125,0,0,1,.14.4,1.54519,1.54519,0,0,1,.06994.23,5.37088,5.37088,0,0,1,.21,1.99005,4.1,4.1,0,0,1-.21.97c-.09.26-.2.52-.31.77a10.16419,10.16419,0,0,0-.71,1.78A5.35623,5.35623,0,0,0,22.21719,73.99Zm7.56-7.6a17.26789,17.26789,0,0,1-.8,5.11c-.08.22-.18.44-.28.65-.79,1.59-2.2,2.94-4.14,2.59a2.88314,2.88314,0,0,1-2.15-3c0-.07-.01-.15-.01-.24,0-.11.01-.22.02-.33a.56964.56964,0,0,1,.01-.13,5.1059,5.1059,0,0,1,.26-1.22,4.07956,4.07956,0,0,1,.19-.42005c.15-.31.32-.62.45-.94a6.342,6.342,0,0,0,.47-2.09,4.70912,4.70912,0,0,0-.06-1.12,17.56982,17.56982,0,0,0-1.31-3.57,7.14656,7.14656,0,0,1-.58-4.27.24347.24347,0,0,0,0-.12,3.4137,3.4137,0,0,0,1.39-1.07,5.52194,5.52194,0,0,0,.66-1.13,3.77494,3.77494,0,0,1,2.68.98,3.00518,3.00518,0,0,1,.42.38,9.95745,9.95745,0,0,1,2.2,3.89A18.14277,18.14277,0,0,1,29.77718,66.39Zm6.7-9.52c-.1.02-.2.05-.31.07-.54.12-1.07.24-1.62.35a1.98593,1.98593,0,0,1-.24.04c-.9.17-1.8.29-2.69.49005a8.398,8.398,0,0,1-2.48.31,10.50228,10.50228,0,0,0-.9-1.41,7.08926,7.08926,0,0,0-1.39-1.4,3.89653,3.89653,0,0,0-.41-.30005,4.4183,4.4183,0,0,0-2.3-.71,4.86957,4.86957,0,0,0-.19-2.59,8.0239,8.0239,0,0,1,1.96-.75l.36-.09c1.3-.27,2.66-.34,3.92-.5.6-.08,1.19-.18,1.78-.29.7-.12,1.39-.24,2.09-.32a2.208,2.208,0,0,1,.36-.04,2.478,2.478,0,0,1,.38-.05c.39-.03.8-.06,1.22-.07h.01a10.6768,10.6768,0,0,1,2.65.23c.1.02.2.05.29.07.00995.01.00995,0,.00995,0,.02.01.03.02.04.02h.01a3.95423,3.95423,0,0,1,2.9,2.74,3.73241,3.73241,0,0,0-2.38,2.59,4.80418,4.80418,0,0,0-.12.63995.284.284,0,0,0-.1.09c-.39.52-1.25.52-1.84.65C37.14718,56.72,36.81716,56.79,36.47714,56.87Zm2.71,13.48a3.61035,3.61035,0,0,1-.79-1.77,11.27723,11.27723,0,0,1-.18-1.73c-.01-.35-.04-.77-.07-1.24-.13-2.14-.38-5.16-.44-5.81,0-.04-.01-.08-.01-.12a5.14044,5.14044,0,0,1,.08-1.3,6.136,6.136,0,0,1,.3-1.01.03677.03677,0,0,1,.01-.03h.02a4.993,4.993,0,0,0,1.3-.39,16.44232,16.44232,0,0,0,1.04,3.8c.18.53.37,1.08.5,1.63a.0098.0098,0,0,0,.01.01,7.75465,7.75465,0,0,1,.21,1.17,6.40856,6.40856,0,0,1-.1,1.52c-.04.2-.08.41-.12.61a9.76942,9.76942,0,0,0-.16,4.68,2.66449,2.66449,0,0,0,.43006.82A2.81068,2.81068,0,0,1,39.18716,70.35Zm7.52-1.94a4.3294,4.3294,0,0,1-2.1,2.92,1.822,1.822,0,0,1-.4.11.49871.49871,0,0,1-.13.03,2.89255,2.89255,0,0,1-1.61-.21.27184.27184,0,0,0-.12006-.06,1.64542,1.64542,0,0,1-.42-.37005,3.083,3.083,0,0,1-.54-1.87l-.01-.00995V68.83c-.01-1.5.51-2.93.6-4.41a3.8396,3.8396,0,0,0,0-.48,18.79132,18.79132,0,0,0-1.31995-5.1c-.04-.13-.08-.25-.12006-.38a8.17,8.17,0,0,1-.34-1.69v-.03a4.69734,4.69734,0,0,1,.01-.65,3.5194,3.5194,0,0,1,1.24-2.32c2.15-1.15,3.87.68005,4.49,2.28.19.51.36,1.02.5,1.54.09.3.17.6.23.9a22.655,22.655,0,0,1,.59,4.85A16.66161,16.66161,0,0,1,46.70718,68.41Z"/>
                <path class="cls-13" d="M16.37716,49.9a.40164.40164,0,0,0-.24-.38.35418.35418,0,0,0-.39.04c-1.07.78-2.82,1.07-3.39,2.38a.411.411,0,0,0,.07.4l.03.04a.39551.39551,0,0,0,.38.14,4.89075,4.89075,0,0,0,1.79-.75,5.93527,5.93527,0,0,0,1.68-1.54A.37741.37741,0,0,0,16.37716,49.9Zm-.53-15.07995a.39853.39853,0,0,0-.25-.23.36131.36131,0,0,0-.25-.06.37748.37748,0,0,0-.37.42c.07.93-.25,2.02-.15,3a2.35677,2.35677,0,0,0,.39,1.13.477.477,0,0,0,.37.15h.05a.39461.39461,0,0,0,.32-.25,5.1696,5.1696,0,0,0,.31-1.99A6.11718,6.11718,0,0,0,15.84713,34.82Zm30.47,26.43a.3456.3456,0,0,0-.07-.12.35186.35186,0,0,0-.36-.09.38733.38733,0,0,0-.38.22c-.52,1.06-.21,2.25995-.21,3.38v.1a13.15649,13.15649,0,0,1-.68,4.14,1.7212,1.7212,0,0,1-.07.21.452.452,0,0,0-.01.28v.01a.46124.46124,0,0,0,.27.26l.06.06a.37118.37118,0,0,0,.56-.07,8.13061,8.13061,0,0,0,1.23-4.01A11.498,11.498,0,0,0,46.31716,61.25Zm-17.26,3.78a.33677.33677,0,0,0-.46-.31.4424.4424,0,0,0-.48.23.19071.19071,0,0,0-.05.1c-.07.26-.14.53-.2.8a62.6289,62.6289,0,0,1-1.43,6.17.43327.43327,0,0,0,.13.49,1.06143,1.06143,0,0,1,.11.09.4224.4224,0,0,0,.42.05,3.07323,3.07323,0,0,0,1.39-2.06,10.96974,10.96974,0,0,0,.23-1.08c.03-.17.06-.35.08-.51A18.28383,18.28383,0,0,0,29.05715,65.03Zm11.99-2.45a.37548.37548,0,0,0-.09-.19.0098.0098,0,0,1-.01-.01.45066.45066,0,0,0-.14-.1.39059.39059,0,0,0-.69.28,5.59178,5.59178,0,0,0,.26,2.41.42788.42788,0,0,0,.69.11.23836.23836,0,0,0,.06-.11A4.32532,4.32532,0,0,0,41.04714,62.58Zm-18.26,2.07a1.54519,1.54519,0,0,0-.06994-.23c-.04-.14-.09-.27-.14-.4a.46156.46156,0,0,0-.87.12005c.1,1.31995-.58,2.95.24,4.12995a.40048.40048,0,0,0,.38.16l.04-.01a.35878.35878,0,0,0,.11-.04.3636.3636,0,0,0,.22-.2,5.13645,5.13645,0,0,0,.3-1.54A6.30455,6.30455,0,0,0,22.78713,64.65Zm5.16-5.87a4.96874,4.96874,0,0,0-.79-1.14,2.78759,2.78759,0,0,0-.42-.35.76172.76172,0,0,0-.19-.12.37121.37121,0,0,0-.32-.04c-.25995.05-.49.29-.3.57.54.83.68,1.88,1.22,2.7a2.509,2.509,0,0,0,.32.41.28036.28036,0,0,0,.12.08.40842.40842,0,0,0,.54-.14C28.54714,60.16,28.23715,59.36,27.94717,58.78Zm16.67-3.61c-.37-.54-.98-1.31-1.72-.93a.41906.41906,0,0,0-.15.56c.39.65,1.05,1.11,1.38,1.79a2.60411,2.60411,0,0,0,.77,1.15.363.363,0,0,0,.49-.07.34256.34256,0,0,0,.16-.32A4.97141,4.97141,0,0,0,44.61715,55.17Zm.12-9.98c-.89.11-.94,1.35-1.05,2.03-.04.24-.27.79-.35,1.29l-.01.00995c-.07.42-.05.80005.25.92a.37655.37655,0,0,0,.59-.07,5.8597,5.8597,0,0,0,.73-1.58v-.01a8.81579,8.81579,0,0,0,.24-.95C45.20718,46.47,45.51718,45.09,44.73715,45.19Zm2.12-4.99a.09983.09983,0,0,0-.04-.05.33174.33174,0,0,0-.17-.16.41366.41366,0,0,0-.29,0,.43007.43007,0,0,0-.21.19.83772.83772,0,0,0-.09.19,2.83893,2.83893,0,0,0-.09.27v.02a.41348.41348,0,0,0,.24.4.4.4,0,0,0,.46-.12.82487.82487,0,0,0,.12-.27c.01-.04.02-.07.03-.11A.42009.42009,0,0,0,46.85714,40.2Zm-25.09-2.44c-.1-.33-.65-.55-.86-.19a2.67318,2.67318,0,0,0-.12006.24,8.15227,8.15227,0,0,0-.41.96.035.035,0,0,0-.01.02c-.27.75-.48,1.54-.8,2.27-.16.36-1.24,2.29-.02,2.35.83.04,1.31-1.25,1.49-1.84a11.26207,11.26207,0,0,0,.33-1.42005.03658.03658,0,0,0,.01-.03,2.55607,2.55607,0,0,0,.05-.27,10.5025,10.5025,0,0,1,.19-1.27,2.00926,2.00926,0,0,1,.16-.47A.36.36,0,0,0,21.76718,37.76Zm-1.76-6.66a2.559,2.559,0,0,0-.8-.67c-.32-.21-.96-.54-1.38-.32a.38008.38008,0,0,0-.13.09.5393.5393,0,0,0,.09.94.84476.84476,0,0,0,.27.13c.27.09.56.16.83.25.1.04.2.08.3.13.02,0,.03.01.05.02.09.05.13.16.1.04a.44452.44452,0,0,0,.5.34.34519.34519,0,0,0,.39-.32A1.04826,1.04826,0,0,0,20.00717,31.1Zm1.54,19.04c-.26-.35-1.8-2.38-2.31-2.28a.59426.59426,0,0,0-.48.53,1.19031,1.19031,0,0,0,.32.71c.33.43,1.84,2.21,2.13,2.66a.30123.30123,0,0,0,.19.13.46874.46874,0,0,0,.72-.29A2.19989,2.19989,0,0,0,21.54714,50.14Z"/>
              </g>
              <path class="cls-14" d="M42.65719,64.02c-.1-.35-.49-.31-.68005-.08a.56507.56507,0,0,0-.08.13.45465.45465,0,0,0-.08.27,28.414,28.414,0,0,1-.46,3.44,4.2301,4.2301,0,0,0,.02,1.17l.01.00995c.07.28.21.5.51.5.94.01.87-1.41.85-2.02a7.60255,7.60255,0,0,1,.04-1.43A4.07951,4.07951,0,0,0,42.65719,64.02Zm-3.79,1.99a.40076.40076,0,0,0-.24-.3.38459.38459,0,0,0-.48-.1.356.356,0,0,0-.22.37,5.57829,5.57829,0,0,0,.27,2.41.459.459,0,0,0,.2.18995.35719.35719,0,0,0,.54-.18995A4.38184,4.38184,0,0,0,38.86715,66.01Zm-19.25.1a.36311.36311,0,0,0-.24-.23.39185.39185,0,0,0-.44,0,.37232.37232,0,0,0-.18.36c.1,1.29-.55,2.89.2,4.06v.01c.01.02.03.04.04.06a.38548.38548,0,0,0,.37.15h.05a.39452.39452,0,0,0,.32-.25A5.9614,5.9614,0,0,0,19.61715,66.11Zm4.87.57a.41968.41968,0,0,0-.45-.34.48357.48357,0,0,0-.24.03.35865.35865,0,0,0-.21.38,3.47531,3.47531,0,0,1-.24005,1.13c-.16.5-.31995,1.01-.47,1.52-.02.06-.03.11005-.05.17005a10.536,10.536,0,0,0-.41,1.6c-.00995.11-.02.22-.02.33,0,.09.01.17.01.24a1.11933,1.11933,0,0,0,.25.6.64292.64292,0,0,0,1.1-.09,3.81731,3.81731,0,0,0,.22-1.54,6.17289,6.17289,0,0,1,.3-1.74,5.96835,5.96835,0,0,0,.31995-1.26A3.96611,3.96611,0,0,0,24.48715,66.68Zm-5.23-7.94a.39952.39952,0,0,0-.18-.29.45558.45558,0,0,0-.29-.11.32939.32939,0,0,0-.31994.25c-.01.02-.01.05-.02.07v.01a2.71539,2.71539,0,0,0-.09,1.1c.04.31.02.67.29.87.01.01.02.01.03.02a.42694.42694,0,0,0,.61-.19C19.57717,59.95,19.33718,59.29,19.25717,58.74Zm3.78-.97a.36677.36677,0,0,0-.56994-.3.41705.41705,0,0,0-.25.21,3.82655,3.82655,0,0,0-.23,2.12c.07.64.27,1.48.96,1.73a.42272.42272,0,0,0,.57-.33C23.71719,60.03,23.05715,58.93,23.03713,57.77Zm15.27.94a.40334.40334,0,0,0-.53-.33.03676.03676,0,0,0-.03.01.49853.49853,0,0,0-.22.21v.01a.4008.4008,0,0,0-.03.19c-.01.1-.01.21-.01.32,0,.06.01.11.01.17v.06a.035.035,0,0,0,.01.02.37449.37449,0,0,0,.16.29c.01.01.02.01.03.02a.41982.41982,0,0,0,.56-.1.6565.6565,0,0,0,.1-.43A3.291,3.291,0,0,0,38.30715,58.71Zm.41-8.75a.28425.28425,0,0,0-.04-.12.53049.53049,0,0,0-.15-.15,2.16949,2.16949,0,0,0-1.1-.21,9.71248,9.71248,0,0,0-1.2.1c-.06995.01-.13.02-.2.03h-.01a4.30569,4.30569,0,0,0-1.12.24c-.07.03-.13.06-.2.09l-.01.01a.74471.74471,0,0,0-.12.06995c-.29.2-.6.73-.18.98a1.62442,1.62442,0,0,0,1,.15c.05,0,.1-.01.15-.01.24005-.02.47-.05.7-.07.1-.01.21-.02.31-.02a1.49087,1.49087,0,0,1,.21-.02c.21-.01.43-.03.64-.05a2.01478,2.01478,0,0,0,1.08-.43.427.427,0,0,0,.14-.24.53287.53287,0,0,0,.11-.31v-.01A.03692.03692,0,0,0,38.71719,49.96Zm-9.61005,1.17a1.874,1.874,0,0,0-1.15-.13c-.4.03-.81.08-1.22.11-.14.01-.29.02-.44.03-.12.01-.24.03-.36.05a1.89764,1.89764,0,0,0-.92.39.46182.46182,0,0,0-.14.24005.39569.39569,0,0,0,.09.62,2.1512,2.1512,0,0,0,1.09.21h.07c.13,0,.25-.01.37-.02.26-.02.51-.05.77-.08a3.799,3.799,0,0,0,1.66-.44C29.21719,51.92,29.52718,51.39,29.10714,51.13Zm12.45,3.55a.35646.35646,0,0,0-.43-.24.326.326,0,0,0-.32.14,4.76994,4.76994,0,0,0-.61,2.16v.03a.34013.34013,0,0,0-.01.1,2.02844,2.02844,0,0,0,.35,1.59.79823.79823,0,0,0,.42005.21.42342.42342,0,0,0,.47-.35c.09-.75-.13-1.52.02-2.25A2.65463,2.65463,0,0,0,41.55715,54.68Zm1.59-9.44a.37985.37985,0,0,0-.58-.16,5.16606,5.16606,0,0,0-.95.81.02147.02147,0,0,0-.02.02,8.92417,8.92417,0,0,0-.91,1.14,3.19547,3.19547,0,0,0-.57,1.2.393.393,0,0,0,.31.47c.87.24,1.39-.88,1.76-1.47C42.41714,46.87,43.65719,45.75,43.14718,45.24Zm-30.3-4.52a6.65565,6.65565,0,0,0-.72-1.92.34486.34486,0,0,0-.52-.1.435.435,0,0,0-.19.1.30949.30949,0,0,0-.12.32c.18.83.2,1.69.41,2.51.08.29.22.8.5.93l.01.01a.4441.4441,0,0,0,.43-.07C13.13717,42.18,12.94717,41.18,12.84713,40.72Zm3.65-2.22a.09968.09968,0,0,0-.05.04.31934.31934,0,0,0-.13.24,6.21419,6.21419,0,0,1-.61,1.62,12.17138,12.17138,0,0,0-.58,1.63c-.16.56-.44,1.82.09,2.33l.06.06c.9.69,1.09-1.53,1.15-1.91.21-1.22.69-2.4.78-3.63A.44537.44537,0,0,0,16.49716,38.5Zm-4.03-7.96a.31955.31955,0,0,0-.27-.01h-.01a.37971.37971,0,0,0-.25.23,2.18664,2.18664,0,0,0-.17.25,4.327,4.327,0,0,0-.66,1.56c-.07.37-.21,1.06.18,1.31a.18514.18514,0,0,0,.09.07.96768.96768,0,0,0,.21.06c.49.04.75-.57.79-1,.03-.3.02-.61005.06-.91.05-.39.26-.73.31-1.12A.40659.40659,0,0,0,12.46719,30.54Zm4.41-.01a.33451.33451,0,0,0-.41-.28,1.274,1.274,0,0,0-.79.81,4.00234,4.00234,0,0,0-.19.51c-.11.42-.28,1.24.2,1.52a.46829.46829,0,0,0,.1.05c.5.23.81-.16.83-.68.01-.29,0-.58.02-.87a2.32482,2.32482,0,0,1,.05-.38c.02-.1.11-.16,0-.11A.42127.42127,0,0,0,16.87716,30.53Zm-9.62,17.28a.38108.38108,0,0,0-.45-.13.46639.46639,0,0,1-.1.05,1.67093,1.67093,0,0,0-.62.32,4.68826,4.68826,0,0,0-2.68,3.76,1.72276,1.72276,0,0,0,.21,1.05.73132.73132,0,0,0,.9.23c.67-.37.71-1.31.85-1.99.18-.88,1.03-1.25,1.62-1.83a1.44593,1.44593,0,0,0,.56-.89A.67436.67436,0,0,0,7.25717,47.81Z"/>
            </g>
            <path class="cls-2" d="M33.09713,78h-.31c-.42-6.13-.87-12.51-1.35-18.9a.15033.15033,0,0,1,.3-.02C32.21719,65.48,32.67715,71.86,33.09713,78Z"/>
            <path class="cls-2" d="M27.8304,49.80766a6.18751,6.18751,0,0,1,4.24281.08,5.68374,5.68374,0,0,1,2.81216,3.32415,6.63892,6.63892,0,0,1,.45515,2.21437,3.53707,3.53707,0,0,1-4.83969,3.475.05056.05056,0,0,1-.02491-.067.05714.05714,0,0,1,.05138-.02941,3.95682,3.95682,0,0,0,3.31-1.69017,4.39894,4.39894,0,0,0,.35264-3.66776,5.142,5.142,0,0,0-2.31831-3.15433,5.97756,5.97756,0,0,0-4.05345-.3856.04621.04621,0,0,1-.02119-.08986Z"/>
          </g>
        </g>
      </g>
    </g>
  </g>
</svg>
