<svg id="Layer_1" data-name="Layer 1" xmlns="http://www.w3.org/2000/svg" viewBox="0 0 80 80">
  <defs>
    <style>
      .cls-1 {
        fill: #a55b32;
      }

      .cls-2 {
        fill: #7a3218;
      }

      .cls-3 {
        fill: #9b5129;
      }

      .cls-4 {
        fill: #80381a;
      }

      .cls-5 {
        fill: #89421f;
      }

      .cls-6 {
        fill: #04047a;
      }

      .cls-7 {
        fill: #10069f;
      }

      .cls-8 {
        fill: #d1dbe5;
      }
    </style>
  </defs>
  <g>
    <g>
      <g>
        <rect class="cls-1" x="16.85209" y="12.82039" width="8.5859" height="13.52082" transform="translate(-5.20568 7.91203) rotate(-18.91542)"/>
        <polygon class="cls-2" points="27.392 24.586 19.27 27.37 18.445 30.096 29.712 26.235 27.392 24.586"/>
        <polygon class="cls-3" points="14.898 14.575 23.02 11.792 23.845 9.065 12.578 12.926 14.898 14.575"/>
        <polygon class="cls-4" points="27.392 24.586 29.712 26.235 23.845 9.065 23.02 11.792 27.392 24.586"/>
        <polygon class="cls-5" points="14.898 14.575 12.578 12.926 18.445 30.096 19.27 27.37 14.898 14.575"/>
      </g>
      <g>
        <rect class="cls-1" x="28.1193" y="8.95938" width="8.58588" height="13.52082" transform="translate(-3.3456 11.35604) rotate(-18.91542)"/>
        <polygon class="cls-2" points="38.659 20.725 30.537 23.509 29.712 26.235 40.979 22.374 38.659 20.725"/>
        <polygon class="cls-3" points="26.165 10.714 34.287 7.931 35.112 5.204 23.845 9.065 26.165 10.714"/>
        <polygon class="cls-4" points="38.659 20.725 40.979 22.374 35.112 5.204 34.287 7.931 38.659 20.725"/>
        <polygon class="cls-5" points="26.165 10.714 23.845 9.065 29.712 26.235 30.537 23.509 26.165 10.714"/>
      </g>
      <g>
        <path class="cls-1" d="M49.10116,14.44515l.82669,2.41924-8.12368,2.7838L39.4685,12.813a.28138.28138,0,0,0,.4044-.16171c-.5091,1.02129,2.34367,2.07524,2.532.93245-.18836,1.14279,2.56583,2.79507,2.44251,1.46758.12332,1.32749,2.60981.12375,2.20213-1.0693C47.30437,14.72769,48.45068,14.78374,49.10116,14.44515Z"/>
        <polygon class="cls-2" points="49.927 16.864 41.804 19.648 40.979 22.374 52.247 18.513 49.927 16.864"/>
        <path class="cls-3" d="M35.70557,5a4.54065,4.54065,0,0,0-.04112.59714l-.55332-.39344Z"/>
        <path class="cls-4" d="M50.41341,13.15324l1.83173,5.36043-2.31729-1.64928-.82669-2.41924c.39479-.2.61-.54684.3431-.969C49.749,13.95936,50.135,13.68366,50.41341,13.15324Z"/>
        <path class="cls-5" d="M39.4685,12.813l2.33567,6.83517-.82556,2.72627L35.11113,5.2037l.55332.39344c.00518.88212.26728,1.76872.758,1.60054-.948.32487,1.18273,3.232,1.892,2.57712C37.73969,10.305,38.78115,12.52564,39.4685,12.813Z"/>
      </g>
      <g>
        <rect class="cls-1" x="22.71932" y="29.99042" width="8.5859" height="13.52082" transform="translate(-10.45488 10.74124) rotate(-18.91542)"/>
        <polygon class="cls-2" points="33.259 41.756 25.137 44.54 24.312 47.266 35.579 43.405 33.259 41.756"/>
        <polygon class="cls-3" points="20.765 31.745 28.887 28.962 29.712 26.235 18.445 30.096 20.765 31.745"/>
        <polygon class="cls-4" points="33.259 41.756 35.579 43.405 29.712 26.235 28.887 28.962 33.259 41.756"/>
        <polygon class="cls-5" points="20.765 31.745 18.445 30.096 24.312 47.266 25.137 44.54 20.765 31.745"/>
      </g>
      <g>
        <rect class="cls-1" x="33.98653" y="26.12941" width="8.58588" height="13.52082" transform="translate(-8.5948 14.18525) rotate(-18.91542)"/>
        <polygon class="cls-2" points="44.527 37.895 36.404 40.679 35.58 43.405 46.847 39.544 44.527 37.895"/>
        <polygon class="cls-3" points="32.032 27.884 40.155 25.101 40.979 22.374 29.712 26.235 32.032 27.884"/>
        <polygon class="cls-4" points="44.527 37.895 46.847 39.544 40.979 22.374 40.155 25.101 44.527 37.895"/>
        <polygon class="cls-5" points="32.032 27.884 29.712 26.235 35.58 43.405 36.404 40.679 32.032 27.884"/>
      </g>
      <g>
        <rect class="cls-1" x="45.25372" y="22.26841" width="8.58587" height="13.52082" transform="matrix(0.946, -0.32417, 0.32417, 0.946, -6.73472, 17.62925)"/>
        <polygon class="cls-2" points="55.794 34.034 47.672 36.818 46.847 39.544 58.114 35.683 55.794 34.034"/>
        <polygon class="cls-3" points="43.3 24.023 51.422 21.24 52.247 18.513 40.98 22.374 43.3 24.023"/>
        <polygon class="cls-4" points="55.794 34.034 58.114 35.683 52.247 18.513 51.422 21.24 55.794 34.034"/>
        <polygon class="cls-5" points="43.3 24.023 40.98 22.374 46.847 39.544 47.672 36.818 43.3 24.023"/>
      </g>
    </g>
    <path class="cls-6" d="M31.65719,53.91079a9.04058,9.04058,0,0,1,2.46722-.78641,2.28785,2.28785,0,0,0,1.724-1.99052,5.64463,5.64463,0,0,1,.07922-1.25647c.17783-.53569.69746-.6845,1.042-1.0482.95479-1.00781.41076-3.4252,1.36-4.44106a2.4847,2.4847,0,0,1,1.4261-.59827c1.51258-.30014,3.11192-.87624,3.77292-2.5417a6.38353,6.38353,0,0,1,.50834-1.24822,3.98923,3.98923,0,0,1,.98047-.81666,6.74265,6.74265,0,0,0,1.47844-1.921q3.96407-6.62991,7.9281-13.25985l-.62335-1.82421L20.6637,37.4711l7.24488,21.20162q1.27475-1.72953,2.54955-3.45861A5.34008,5.34008,0,0,1,31.65719,53.91079Z"/>
    <path class="cls-7" d="M56.25081,29.34869l-1.82688-5.34622q-3.964,6.63-7.9281,13.25985a6.74265,6.74265,0,0,1-1.47844,1.921,3.98923,3.98923,0,0,0-.98047.81666,6.38353,6.38353,0,0,0-.50834,1.24822c-.661,1.66546-2.26034,2.24156-3.77292,2.5417a2.4847,2.4847,0,0,0-1.4261.59827c-.94924,1.01586-.40521,3.43325-1.36,4.44106-.34452.3637-.86415.51251-1.042,1.0482a5.64463,5.64463,0,0,0-.07922,1.25647,2.28785,2.28785,0,0,1-1.724,1.99052,9.04058,9.04058,0,0,0-2.46722.78641,5.34008,5.34008,0,0,0-1.19906,1.30332q-1.27487,1.72922-2.54955,3.45861l5.44933,15.94707C56.1934,58.62487,56.77792,36.70055,56.25081,29.34869Z"/>
    <path class="cls-6" d="M33.35791,74.61979,33.82955,76,68.17091,64.232,56.25081,29.34869C56.77792,36.70055,56.1934,58.62487,33.35791,74.61979Z"/>
    <path class="cls-8" d="M32.88256,47.31539a2.74213,2.74213,0,0,0,.13361.72314,1.13948,1.13948,0,0,1-1.33484,1.3026c-.69925-.07113-1.45906-.42318-2.06837-.12891a1.78079,1.78079,0,0,0-.72608.79566c-.78979,1.46656-.832,3.712-2.037,4.62753-.91075.692-2.32406.45479-2.952,1.53187-.28779.49364-.47953,1.28639-1.01334,1.18355a27.85035,27.85035,0,0,1-1.74432-5.76415c-.67924-4.5675,1.04429-9.03772-.557-13.43467a1.49425,1.49425,0,0,1-.14613-.7978.66608.66608,0,0,1,.42454-.422c2.48071-1.18123,5.16676-1.832,7.64368-3.02234,1.36036-.65372,2.6508-1.46692,3.95725-2.24215,6.86812-4.07553,14.19716-7.11184,21.52177-10.11406.15266-.06258.30728.179.23044.35289a4.82988,4.82988,0,0,0-.19765,3.01991c-.63321.14211-.93329.94547-1.23163,1.631-1.336,3.06972-3.8242,4.882-6.166,6.71392a7.66891,7.66891,0,0,0-2.83442,3.403,5.251,5.251,0,0,1-.64973,1.56558c-.52537.63428-1.472.60483-1.90633,1.34569-.40714.69446-.22982,1.85862-.68742,2.49689-.64916.90539-1.96011.15718-3.00815-.34964a6.26371,6.26371,0,0,0-3.01442-.659.84041.84041,0,0,0-.4567.1173c-.35441.25075-.33409.91641-.27911,1.48009q.13526,1.38684.27052,2.77364a1.635,1.635,0,0,1-.13818,1.11C33.62266,46.9173,32.94208,46.76851,32.88256,47.31539Z"/>
  </g>
</svg>
