<svg id="Layer_1" data-name="Layer 1" xmlns="http://www.w3.org/2000/svg" xmlns:xlink="http://www.w3.org/1999/xlink" viewBox="0 0 80 80">
  <defs>
    <style>
      .cls-1 {
        fill: none;
        clip-rule: evenodd;
      }

      .cls-2 {
        clip-path: url(#clip-path);
      }

      .cls-3, .cls-7 {
        fill: #d6c9ca;
      }

      .cls-4 {
        fill: #b7b0b1;
      }

      .cls-5 {
        fill: #562003;
      }

      .cls-5, .cls-7 {
        fill-rule: evenodd;
      }

      .cls-6 {
        fill: #10069e;
      }
    </style>
    <clipPath id="clip-path">
      <path class="cls-1" d="M59.32245,24.8001a11.38035,11.38035,0,0,0-5.19615,1.26445V18.11948C54.1263,13.63524,44.14955,10,31.84259,10S9.55888,13.63524,9.55888,18.11948V62.6869c0,4.4843,9.97675,8.11954,22.28371,8.11954S54.1263,67.1712,54.1263,62.6869V56.323a11.35664,11.35664,0,0,0,5.19615,1.26492A11.51273,11.51273,0,0,0,70.80591,46.10427v-9.838A11.50909,11.50909,0,0,0,59.32245,24.8001Zm6.84447,21.2342A6.82807,6.82807,0,0,1,54.1263,50.44376V31.92794c.11738-.13907.237-.27628.36462-.40577a6.83276,6.83276,0,0,1,11.676,4.83153Z"/>
    </clipPath>
  </defs>
  <g id="Coffee_Mug" data-name="Coffee Mug">
    <g class="cls-2">
      <g id="Mug">
        <rect class="cls-3" x="9.5589" y="18.11952" width="44.5674" height="44.5674" transform="translate(63.68519 80.80643) rotate(-180)"/>
        <ellipse class="cls-3" cx="31.8426" cy="18.11952" rx="22.2837" ry="8.11952"/>
        <ellipse class="cls-3" cx="31.8426" cy="62.68692" rx="22.2837" ry="8.11952"/>
        <ellipse class="cls-4" cx="31.8426" cy="18.11952" rx="18.68949" ry="6.80989"/>
        <path class="cls-5" d="M15.00875,21.084c3.03141,2.2736,9.4168,3.84541,16.82682,3.84541S45.64521,23.3576,48.67644,21.084c-3.03123-2.28747-9.43084-3.85936-16.84087-3.85936S18.04016,18.79653,15.00875,21.084Z"/>
        <g>
          <path class="cls-6" d="M29.88743,38.20978a.37439.37439,0,0,0-.28561-.17271.41338.41338,0,0,0-.21876.06873c-.80577.619-1.90792,3.26751-2.8111,6.76115q.39967.01939.7994.03645c1.57948.0673,3.21068.1091,4.82353.1272-.42538-1.61431-.8271-3.00013-1.19538-4.11968A12.96177,12.96177,0,0,0,29.88743,38.20978Z"/>
          <path class="cls-6" d="M31.68137,31.41986c-8.36212.014-15.11187,5.91876-15.10928,14.27777C16.5695,54.028,23.31925,61.65241,31.68137,61.63841c8.36213.014,15.11188-7.61034,15.10928-15.94078C46.79326,37.33868,40.04345,31.43388,31.68137,31.41986ZM42.551,46.37371l-.00364.00331c-.01575.014-.03277.028-.04972.04155l-.017.01287-.03516.024q-.01615.01153-.03335.02142h0a.84259.84259,0,0,1-.37171.12019q-3.57608.2698-7.16027.35306c.05774.23593.12153.50377.18835.79526.39248,1.68546,1.43571,6.1589,2.54339,6.1105l.02368-.001.01215-.00053.02125-.00093c.86534-.03879,1.30674-1.311,2.2742-4.10632l.01153-.03407c.156-.44934.33133-.95654.52067-1.4935l.04854-.13721h0a.36819.36819,0,0,1,.44876-.22411.31759.31759,0,0,1,.21861.30089.348.348,0,0,1-.01455.10053h0l-.04.13746c-.10073.33277-.20807.78425-.33186,1.30643-.57648,2.424-1.44686,6.10039-3.68366,6.1933l-.01579.00062c-1.44556.04461-2.30852-2.24851-2.67973-3.22571a58.78355,58.78355,0,0,1-1.71789-5.68462q-3.29831.02457-6.59562-.10886-.68446,2.15949-1.36873,4.31218l-.02-.01679a.677.677,0,0,1-.96035.16166.74405.74405,0,0,1-.32229-.60209v-.02366l.08255-.49023c.18875-1.11318.41513-2.26823.67374-3.43438q-1.39011-.07566-2.779-.17947l-.01031-.0111a1.15992,1.15992,0,0,1-.89252-1.10731.94673.94673,0,0,1,.85674-.96455,2.6524,2.6524,0,0,1,.32507.01007l.13526.00977c.88189.07837,1.82014.1513,2.84371.21685,1.45282-5.82645,3.13676-8.759,5.00537-8.74036,2.00534.02807,3.492,4.5695,4.68228,9.006l.00486.01751c2.44575.0024,5.05148-.04566,7.58093-.05378l.10612.00173a.83424.83424,0,0,1,.12129.0017l.01515-.00116.01274-.001.00667-.00052a.73292.73292,0,0,1,.62653.89181A.88493.88493,0,0,1,42.551,46.37371Z"/>
        </g>
        <path class="cls-7" d="M47.83872,36.26622v9.83809a11.48361,11.48361,0,1,0,22.96722,0V36.26622a11.48365,11.48365,0,0,0-22.96722,0Zm4.65653.08751a6.83585,6.83585,0,1,1,13.67169,0v9.6806a6.83585,6.83585,0,0,1-13.67169,0Z"/>
      </g>
    </g>
  </g>
</svg>
