<svg id="Layer_1" data-name="Layer 1" xmlns="http://www.w3.org/2000/svg" xmlns:xlink="http://www.w3.org/1999/xlink" viewBox="0 0 80 80">
  <defs>
    <style>
      .cls-1 {
        fill: none;
      }

      .cls-2 {
        clip-path: url(#clip-path);
      }

      .cls-3 {
        fill: #4c9c2e;
      }

      .cls-4 {
        fill: #b1b1b1;
      }

      .cls-5 {
        fill: #efe8e8;
      }
    </style>
    <clipPath id="clip-path">
      <path class="cls-1" d="M60.41708,20.45983a1.19349,1.19349,0,0,0,.36677-.87554v-.06508a1.20333,1.20333,0,0,0-.36677-.8164,1.18263,1.18263,0,0,0-.86964-.355H57.51231L57.329,16.84515,56.73737,12H23.27065L22.685,16.84515l-.18341,1.50268H20.89243a1.18263,1.18263,0,0,0-.86964.355,1.20311,1.20311,0,0,0-.36677.8164v.06508a1.19349,1.19349,0,0,0,.36677.87554,1.162,1.162,0,0,0,.86964.36682h.10649l-.4851,1.17727-.8105,1.93449h1.18911a1.24025,1.24025,0,0,0,.23071.31357,1.16248,1.16248,0,0,0,.71.355l.15379,1.22458,1.60323,12.33479h-.51467l2.84559,21.333h.43774l.11243.88148,1.2542,9.68445s2.47406,1.261,12.43493,1.261,12.44174-1.261,12.44174-1.261l1.26009-9.68445.11238-.88148h.40822l2.85743-21.333h-.497l1.59143-12.33479.16563-1.21868a1.16135,1.16135,0,0,0,.81051-.36088,1.18344,1.18344,0,0,0,.23071-.31357h1.195l-.79862-1.93449L59.441,20.82665h.10649A1.162,1.162,0,0,0,60.41708,20.45983Z"/>
    </clipPath>
  </defs>
  <g id="Coffee">
    <g class="cls-2">
      <g id="Center_Coffee" data-name="Center Coffee">
        <path class="cls-3" d="M58.33466,25.83155,56.74324,38.16636H50.5019v-.05324a9.13066,9.13066,0,0,0-1.67422-5.23564q-.25379-.355-.53836-.69217-.34253-.40819-.73358-.79274c-.24493-.23309-.49338-.45317-.74542-.66259a9.66784,9.66784,0,0,0-2.20665-1.35476,10.25767,10.25767,0,0,0-4.17076-.84007H40.214a10.09266,10.09266,0,0,0-4.3719,1.0353,10.25437,10.25437,0,0,0-2.53795,1.82212,9.98421,9.98421,0,0,0-1.0708,1.21869,9.13189,9.13189,0,0,0-1.88128,5.5551h-6.762L21.9869,25.83155Z"/>
        <path class="cls-3" d="M53.86218,60.38085,52.60207,70.0653s-2.4809,1.26106-12.44175,1.26106S27.72539,70.0653,27.72539,70.0653l-1.25418-9.68445Z"/>
        <polygon class="cls-3" points="53.975 59.499 53.862 60.381 26.471 60.381 26.359 59.499 53.975 59.499"/>
        <path class="cls-3" d="M58.50029,24.61286l-.16563,1.21869H21.9869l-.15382-1.2246c.05088.00355.10293.00591.15382.00591Z"/>
        <path class="cls-4" d="M60.78387,19.51921v.06507a1.19359,1.19359,0,0,1-.3668.87556,1.162,1.162,0,0,1-.86964.3668h-38.655a1.16194,1.16194,0,0,1-.86964-.3668,1.19355,1.19355,0,0,1-.3668-.87556v-.06507Z"/>
        <path class="cls-5" d="M57.2402,38.16636l-2.85743,21.333H25.921l-2.84559-21.333h7.27665a9.13189,9.13189,0,0,1,1.88128-5.5551,9.98421,9.98421,0,0,1,1.0708-1.21869,10.25437,10.25437,0,0,1,2.53795-1.82212,10.09266,10.09266,0,0,1,4.3719-1.0353h.2189a10.25767,10.25767,0,0,1,4.17076.84007A9.66784,9.66784,0,0,1,46.81032,30.73c.252.20942.50049.4295.74542.66259q.39045.38513.73358.79274.284.3372.53836.69217a9.13066,9.13066,0,0,1,1.67422,5.23564v.05324Z"/>
        <polygon class="cls-5" points="59.938 22.004 20.514 22.004 20.999 20.827 59.441 20.827 59.938 22.004"/>
        <path class="cls-4" d="M59.54151,23.93844a1.18493,1.18493,0,0,1-.23071.31355,1.16123,1.16123,0,0,1-.81051.36087H21.9869c-.05089,0-.10294-.00236-.15382-.00591a1.16225,1.16225,0,0,1-.70992-.355,1.23929,1.23929,0,0,1-.23072-.31355Z"/>
        <polygon class="cls-5" points="60.737 23.938 19.703 23.938 20.514 22.004 59.938 22.004 60.737 23.938"/>
        <path class="cls-5" d="M60.78387,19.51921H19.656a1.20329,1.20329,0,0,1,.3668-.81641,1.18259,1.18259,0,0,1,.86964-.355h38.655a1.1826,1.1826,0,0,1,.86964.355A1.20347,1.20347,0,0,1,60.78387,19.51921Z"/>
        <polygon class="cls-5" points="57.512 18.348 22.502 18.348 22.685 16.845 23.271 12 56.737 12 57.329 16.845 57.512 18.348"/>
      </g>
    </g>
  </g>
</svg>
