<svg id="Layer_1" data-name="Layer 1" xmlns="http://www.w3.org/2000/svg" viewBox="0 0 80 80">
  <defs>
    <style>
      .cls-1 {
        fill: #e65235;
      }

      .cls-2 {
        fill: #be3f28;
      }

      .cls-3 {
        fill: #e6e8ea;
      }

      .cls-4 {
        fill: #bbc2c6;
      }

      .cls-5 {
        fill: #c8ccd0;
      }
    </style>
  </defs>
  <g>
    <rect class="cls-1" x="18.29397" y="16.04608" width="31.1855" height="55.76549"/>
    <rect class="cls-2" x="49.47947" y="16.04608" width="11.93036" height="55.76549"/>
    <polygon class="cls-3" points="18.294 71.812 23.322 75.308 47.753 75.308 49.479 71.812 18.294 71.812"/>
    <polygon class="cls-4" points="47.753 75.308 56.382 75.308 61.41 71.812 49.479 71.812 47.753 75.308"/>
    <rect class="cls-3" x="24.07303" y="5" width="21.3349" height="2.85059"/>
    <rect class="cls-4" x="45.40793" y="5" width="10.22303" height="2.85059"/>
    <polygon class="cls-4" points="49.479 16.046 61.41 16.046 55.664 7.851 55.631 7.851 45.408 7.851 49.479 16.046"/>
    <polygon class="cls-3" points="45.408 7.851 24.073 7.851 24.04 7.851 18.294 16.046 49.479 16.046 45.408 7.851"/>
    <path class="cls-3" d="M46.63922,29.2698c-.39281.1566-.7789.34841-1.17766.52868-.38155.21307-.77711.418-1.15479.66333l-.566.37947c-.09963.06924-.17887.11591-.29565.205l-.24617.182c-.37981.29284-.72874.58216-1.06647.89061a31.08317,31.08317,0,0,0-3.617,4.041c-1.09135,1.41034-2.16765,2.888-3.15624,4.40979-1.00647,1.51431-1.93408,3.0798-2.79956,4.64581-.85326,1.57322-1.63038,3.15431-2.317,4.71259-.68488,1.55568-1.2709,3.06033-1.83552,4.43907-.56569,1.38261-1.11977,2.65052-1.69527,3.78256-.30192.57095-.56215,1.07928-.883,1.60022-.28825.48253-.58742.97052-.88128,1.40469-.59477.87254-1.14678,1.633-1.60128,2.26529-.92583,1.25235-1.442,2.00018-1.442,2.00018l.25144.25637s.76276-.48345,2.02139-1.4403a27.04467,27.04467,0,0,0,2.20939-1.84079c.41377-.384.8434-.78764,1.28805-1.27249.4121-.44606.87568-.98966,1.293-1.539a33.13313,33.13313,0,0,0,2.4359-3.75347c.77576-1.36227,1.50586-2.79449,2.2767-4.23233.7715-1.43343,1.57775-2.90721,2.44294-4.37766.85147-1.47764,1.75169-2.95809,2.68-4.42086.94051-1.45851,1.88529-2.9018,2.87566-4.29915a35.82929,35.82929,0,0,1,2.95809-3.82425c.25811-.27269.51867-.53993.76277-.77542l.22583-.20655c.04034-.0403.12838-.10837.19007-.16113l.405-.33894c.27182-.22269.5678-.40856.84272-.62144.29671-.17833.58216-.37314.88023-.53829a15.74681,15.74681,0,0,1,1.536-.73681v-2.834A14.42613,14.42613,0,0,0,46.63922,29.2698Z"/>
    <path class="cls-5" d="M59.5671,30.2051a6.24176,6.24176,0,0,0-.67714-.39836,8.295,8.295,0,0,0-.97917-.477,13.8818,13.8818,0,0,0-2.81673-.87427,14.477,14.477,0,0,0-3.88044-.22776c-.55829.04508-1.14185.12765-1.73415.23583v2.834a13.32121,13.32121,0,0,1,2.09188-.69227,15.17085,15.17085,0,0,1,6.03963-.26057,12.83218,12.83218,0,0,1,1.723.37c.40576.11325.62212.17374.62212.17374l.14939-.32647Z"/>
  </g>
</svg>
