<svg xmlns="http://www.w3.org/2000/svg" viewBox="0 0 80 80">
  <defs>
    <style>
      .cls-1 {
        isolation: isolate;
      }

      .cls-2 {
        fill: #e8af70;
      }

      .cls-3 {
        fill: #f47faf;
      }

      .cls-4 {
        opacity: 0.25;
      }

      .cls-5 {
        fill: #fff;
      }

      .cls-10, .cls-6, .cls-7, .cls-8, .cls-9 {
        fill: none;
        stroke-linecap: round;
        stroke-miterlimit: 10;
        stroke-width: 1.19902px;
      }

      .cls-6 {
        stroke: #2d7af1;
      }

      .cls-7 {
        stroke: #ff00fe;
      }

      .cls-8 {
        stroke: #ffb533;
      }

      .cls-9 {
        stroke: #f8f8fa;
      }

      .cls-10 {
        stroke: #7423e5;
      }

      .cls-11 {
        fill: #784026;
        opacity: 0.19;
        mix-blend-mode: multiply;
      }
    </style>
  </defs>
  <g class="cls-1">
    <g id="Layer_1" data-name="Layer 1">
      <g>
        <path class="cls-2" d="M39.80728,7.324A32.338,32.338,0,1,0,72.14693,39.6604,32.336,32.336,0,0,0,39.80728,7.324Zm0,42.22327a9.88686,9.88686,0,1,1,9.88687-9.88684A9.88442,9.88442,0,0,1,39.80728,49.54724Z"/>
        <g>
          <path class="cls-3" d="M68.34707,27.46213c-1.46425-3.531-6.98106-4.58386-9.64067-7.24345-2.66286-2.66284-4.58062-6.09671-8.11164-7.561-3.40468-1.41236-7.16248.64145-11.079.64145s-8.22179-3.382-11.62972-1.96959c-3.531,1.46421-6.42388,4.69724-9.08671,7.36008-2.65962,2.65959-3.12286,6.70569-4.58709,10.23348-1.41242,3.40793-3.43061,6.56641-3.43061,10.48293s1.70072,7.20458,3.11313,10.61251c1.46425,3.531.76775,8.91828,3.42737,11.58111,2.66283,2.6596,7.79741,2.57537,11.32842,4.03962,3.40469,1.41244,6.94867.00972,10.86521.00972s8.44854,3.78369,11.85321,2.37132c3.531-1.46425,4.61949-6.82235,7.27911-9.48194,2.65959-2.66284,5.601-4.75232,7.06529-8.28335a27.6228,27.6228,0,0,0,1.95016-10.849C67.66354,35.48955,69.75947,30.87006,68.34707,27.46213ZM39.81055,49.54563a9.88526,9.88526,0,1,1,9.88363-9.88688A9.8851,9.8851,0,0,1,39.81055,49.54563Z"/>
          <path class="cls-3" d="M68.34707,27.46213c-1.46425-3.531-6.98106-4.58386-9.64067-7.24345-2.66286-2.66284-4.58062-6.09671-8.11164-7.561-3.40468-1.41236-7.16248.64145-11.079.64145s-8.22179-3.382-11.62972-1.96959c-3.531,1.46421-6.42388,4.69724-9.08671,7.36008-2.65962,2.65959-3.12286,6.70569-4.58709,10.23348-1.41242,3.40793-3.43061,6.56641-3.43061,10.48293s1.70072,7.20458,3.11313,10.61251c1.46425,3.531.76775,8.91828,3.42737,11.58111,2.66283,2.6596,7.79741,2.57537,11.32842,4.03962,3.40469,1.41244,6.94867.00972,10.86521.00972s8.44854,3.78369,11.85321,2.37132c3.531-1.46425,4.61949-6.82235,7.27911-9.48194,2.65959-2.66284,5.601-4.75232,7.06529-8.28335a27.6228,27.6228,0,0,0,1.95016-10.849C67.66354,35.48955,69.75947,30.87006,68.34707,27.46213ZM39.81055,49.54563a9.88526,9.88526,0,1,1,9.88363-9.88688A9.8851,9.8851,0,0,1,39.81055,49.54563Z"/>
        </g>
        <g class="cls-4">
          <path class="cls-5" d="M24.62206,55.42626A20.56005,20.56005,0,0,1,16.98263,40.0771a22.04868,22.04868,0,0,1,1.49673-8.90144A22.22626,22.22626,0,0,1,31.06807,18.58111a22.07242,22.07242,0,0,1,8.90316-1.49753,20.5436,20.5436,0,0,1,15.34915,7.64436,23.27716,23.27716,0,0,0-15.34915-5.07131A21.36935,21.36935,0,0,0,19.54584,40.0771,23.25227,23.25227,0,0,0,24.62206,55.42626Z"/>
        </g>
        <g>
          <g>
            <line class="cls-6" x1="13.42585" y1="32.51311" x2="13.63775" y2="36.86534"/>
            <line class="cls-7" x1="20.44685" y1="40.10064" x2="17.5192" y2="43.32796"/>
            <line class="cls-8" x1="26.53467" y1="35.55945" x2="22.1995" y2="35.99885"/>
            <line class="cls-9" x1="24.16808" y1="32.33082" x2="20.79195" y2="29.5761"/>
            <line class="cls-10" x1="25.77295" y1="43.80096" x2="24.14879" y2="39.75759"/>
          </g>
          <g>
            <line class="cls-6" x1="23.07981" y1="23.09516" x2="26.16095" y2="26.17629"/>
            <line class="cls-7" x1="33.3779" y1="23.9976" x2="33.3779" y2="28.35498"/>
            <line class="cls-8" x1="34.83572" y1="16.54384" x2="31.92008" y2="19.78201"/>
            <line class="cls-9" x1="30.91363" y1="15.74261" x2="26.56222" y2="15.97067"/>
            <line class="cls-10" x1="39.8089" y1="23.15975" x2="35.88927" y2="21.25625"/>
          </g>
          <g>
            <line class="cls-6" x1="22.99848" y1="62.2627" x2="27.32819" y2="61.77241"/>
            <line class="cls-7" x1="30.12061" y1="54.77002" x2="33.52886" y2="57.4849"/>
            <line class="cls-8" x1="25.19873" y1="48.98565" x2="25.91496" y2="53.28376"/>
            <line class="cls-9" x1="22.12836" y1="51.55422" x2="19.59558" y2="55.09989"/>
            <line class="cls-10" x1="33.47212" y1="49.2178" x2="29.5411" y2="51.09767"/>
          </g>
          <g>
            <line class="cls-6" x1="53.20007" y1="15.55916" x2="48.8753" y2="16.09124"/>
            <line class="cls-7" x1="46.15063" y1="23.12027" x2="42.71632" y2="20.43843"/>
            <line class="cls-8" x1="51.12814" y1="28.85684" x2="50.37044" y2="24.56585"/>
            <line class="cls-9" x1="54.17357" y1="26.25874" x2="56.67198" y2="22.68877"/>
            <line class="cls-10" x1="42.8529" y1="28.70459" x2="46.76558" y2="26.78685"/>
          </g>
          <g>
            <line class="cls-6" x1="50.37044" y1="47.01293" x2="53.45157" y2="50.09406"/>
            <line class="cls-7" x1="60.66852" y1="47.91537" x2="60.66852" y2="52.27275"/>
            <line class="cls-8" x1="62.12634" y1="40.4616" x2="59.2107" y2="43.69978"/>
            <line class="cls-9" x1="58.20425" y1="39.66038" x2="53.85285" y2="39.88844"/>
            <line class="cls-10" x1="67.09952" y1="47.07752" x2="63.17989" y2="45.17402"/>
          </g>
          <g>
            <line class="cls-6" x1="38.78818" y1="52.23732" x2="38.00537" y2="56.52381"/>
            <line class="cls-7" x1="43.90097" y1="61.222" x2="40.31644" y2="63.69947"/>
            <line class="cls-8" x1="50.86158" y1="58.18328" x2="46.54" y2="57.62589"/>
            <line class="cls-9" x1="49.29072" y1="54.50127" x2="46.62903" y2="51.05132"/>
            <line class="cls-10" x1="48.24668" y1="66.03599" x2="47.584" y2="61.7293"/>
          </g>
        </g>
        <path class="cls-11" d="M71.7734,39.45818A32.33724,32.33724,0,0,1,16.02855,61.77163,32.34074,32.34074,0,0,0,56.13321,11.7607,32.31455,32.31455,0,0,1,71.7734,39.45818Z"/>
      </g>
    </g>
  </g>
</svg>
