<svg id="Layer_1" data-name="Layer 1" xmlns="http://www.w3.org/2000/svg" viewBox="0 0 80 80">
  <defs>
    <style>
      .cls-1 {
        fill: #e33090;
      }

      .cls-1, .cls-2, .cls-3, .cls-4, .cls-5, .cls-6, .cls-7, .cls-8 {
        fill-rule: evenodd;
      }

      .cls-2 {
        fill: #fccfdc;
      }

      .cls-3 {
        fill: #f755ab;
      }

      .cls-4 {
        fill: #fefefe;
      }

      .cls-5 {
        fill: #141515;
      }

      .cls-6 {
        fill: #cf1377;
      }

      .cls-7, .cls-9 {
        fill: #f03c9c;
      }

      .cls-8 {
        fill: #ffd6ec;
      }
    </style>
  </defs>
  <g id="Flamingo_Floatie" data-name="Flamingo Floatie">
    <path class="cls-1" d="M72.23007,49.76857C76.9599,64.87169,55.47977,68.99518,43.0409,69.57333c-7.19681.3345-30.18347-1.26791-33.82562-12.28925-1.28349-3.884-2.08375-5.68022-1.11938-9.4622,8.66855,8.3965,20.65834,12.30652,32.58026,12.39525A50.583,50.583,0,0,0,72.23007,49.76857Z"/>
    <path class="cls-1" d="M67.75048,44.59255a20.34455,20.34455,0,0,1,9.76634-4.03739c1.94028,4.68567-2.3346,8.39047-6.221,10.21445-.80886-1.27637-3.083-5.25489-3.54537-6.17706Z"/>
    <path class="cls-2" d="M5.72466,18.75843c-7.54342,6.94467-2.60786,15.6624,6.51365,15.87442.71372-4.61795-2.82194-5.77074.20116-12.02376,2.942-6.53522.28331-5.51549-5.55448-4.90916-.47941.0622-.89677.72919-1.16033,1.0585Z"/>
    <path class="cls-3" d="M71.93854,50.57068l-.00474-.117c-.0079-.15647-.0158-.29556-.03162-.43307-.00631-.05058-.01263-.10116-.02054-.15331a10.42959,10.42959,0,0,0-3.00149-6.06463c-.01422-.0158-.03-.03-.04425-.04584a3.00364,3.00364,0,0,0-.36669-.33981,38.947,38.947,0,0,0-8.31534-4.60893l-.02372-.00948-.02845.0411a7.062,7.062,0,0,1,.54846.89144c.01581.0316.03319.06163.04742.09483.02212.04109.04267.08377.06163.12644.01582.03.03.06164.04427.09484.01421.0316.02844.06321.04109.09483.02845.06322.05374.128.079.19283.02528.06638.05058.13118.0727.19757.01423.04109.02845.08218.0411.12328l.00474.01423a.17243.17243,0,0,1,.0079.02687c.01107.03319.02055.0648.03.098.01422.04742.02845.09483.0411.14383a6.97552,6.97552,0,0,1,.24657,1.86981,6.49888,6.49888,0,0,1-1.089,3.61316c-.27186.40147-.6022.76342-.8788,1.1633a22.3295,22.3295,0,0,1-2.84184,3.22751,15.48922,15.48922,0,0,1-1.46361,1.22967c-.36827.27818-.71125.5943-1.10481.83771a10.45823,10.45823,0,0,1-1.56951.86773c-.03318.01422-.06638.02528-.09956.03635s-.06639.02055-.09958.03a.49948.49948,0,0,1-.06639.01423c-.02055.00473-.0411.0079-.06164.01105a.38391.38391,0,0,1-.07271.01107,1.33284,1.33284,0,0,1-.25131.00158H51.7674c-.03952-.00474-.07746-.00948-.117-.01738h-.00316c-.13277.02686-.26553.05374-.39988.07744l-.05374.01107a55.8859,55.8859,0,0,1-8.151.62116c-.44572-.019-1.18859-.07113-1.57425-.1059h-.00631a41.57733,41.57733,0,0,1-9.66989-1.76865l-.00158-.00158-.02845-.00948-.02688-.00949a.1028.1028,0,0,1-.02054-.00631l-.01422-.00633c-.0743-.02845-.14858-.0569-.22287-.08693s-.14857-.06165-.22285-.09168c-.07587-.03-.15174-.06321-.226-.09641q-.26554-.11617-.51685-.24182c-.09958-.05058-.196-.09958-.2924-.15174-.18967-.10116-.37618-.20863-.55794-.31927-.02055-.01264-.03952-.02371-.05848-.03794-.07745-.049-.15331-.098-.22761-.14857-.14224-.09483-.27975-.19441-.4141-.29873a8.34642,8.34642,0,0,1-1.36877-1.31345,9.00894,9.00894,0,0,1-.85192-1.32451,15.49517,15.49517,0,0,1,.14067-7.81272,29.77837,29.77837,0,0,0,.37618-4.552l.00473-.07271v-.00315c.00949-.15806.02213-.3098.03793-.45837.00159-.02687.00317-.05216.00633-.07745.02055-.226.04267-.45045.0569-.68754.00474-.06006.0079-.12171.01107-.18493.04109-.93727.049-1.65959.14224-2.63638.00475-.03951.00948-.08218.01423-.12486.67332-6.5704,3.08842-10.81264-2.26969-16.22607a10.96728,10.96728,0,0,0-3.43772-2.19856,13.46608,13.46608,0,0,0-10.261-.53265c-2.9683,1.22968-4.27226,2.992-5.68528,5.59362-.00317.00632-.00632.00948-.00632.01422v.00158c-.01423.03478.00948.02845-.0174.0648a5.73914,5.73914,0,0,1,6.1563-.14066,2.353,2.353,0,0,1,.89144,1.10955l.0079.01423a2.59544,2.59544,0,0,1,.25921,1.217c.00159.05848.00317.11854.00317.17861a3.43479,3.43479,0,0,1-.51527,1.70226c.24815.07587.54213.166.8219.23708l.01422.00316c.14857.03952.2924.07271.422.09642a5.86294,5.86294,0,0,0,1.7244.07429,5.50792,5.50792,0,0,0,2.57157-1.06688l.00791-.00475c.00791-.00474.01264-.01738.03-.01738,1.45569,4.22642,2.19382,7.76689.95465,12.14347a8.61973,8.61973,0,0,1-2.18275,3.776c-.02529.02213-.05058.04585-.07587.068-3.34131,3.01887-7.64518,5.16528-8.84483,9.80264-.00632.019-.01107.03793-.01581.05691l-.00474.01738c-.45679,10.16934,10.56764,14.233,18.65539,16.25136.26869.068.8614.21653,1.05581.23708l.03319.00474h.00316a.13935.13935,0,0,0,.02687.00316l.01107.00158c.03161.00316.06164.0079.09325.01107l.03319.00473c.8946.10906,1.66434.275,2.51468.44572h.00158c.46626.09326.95466.18809,1.50312.2766l.0079.00159q.1304.01659.32718.04266c1.157.15806,5.35652.60536,7.96919.69546h.00317c.35088.01106.67174.01738.95466.01422,1.2281-.01106,3.395.03,4.77488-.05216.03319-.00158.06638-.00474.098-.00632.06322-.00474.14383-.00948.22761-.01264h.00157c.12329-.00633.25289-.01107.34614-.01581a67.05115,67.05115,0,0,0,8.85274-1.11745c6.602-1.46361,12.8974-3.72539,16.087-9.94965A25.41668,25.41668,0,0,0,71.93854,50.57068Z"/>
    <path class="cls-4" d="M15.34425,19.20625a2.87233,2.87233,0,0,0,2.89063-2.60075,2.39574,2.39574,0,0,0-2.6339-2.45265c-1.46244-.01607-3.31756.9417-3.29111,2.53562a2.83721,2.83721,0,0,0,3.03438,2.51778Z"/>
    <path class="cls-5" d="M15.61711,18.05934A1.49505,1.49505,0,0,0,17.14038,16.71a1.254,1.254,0,0,0-1.35616-1.30366c-.74728-.00519-1.61964.502-1.61335,1.31914a1.35737,1.35737,0,0,0,1.44624,1.33387Z"/>
    <path class="cls-1" d="M52.15955,59.44074c-7.0418,2.42027-12.92135-6.91506-21.7238-3.17416-5.54573,5.13995-4.1675,8.46525,2.43049,11.2577,8.65338,1.78867,14.3436-.5898,19.29331-8.08354Z"/>
    <path class="cls-6" d="M52.0374,59.26951c-5.07007,6.40726-20.37387,11.03708-24.95366,1.91263-.1298,3.71456,2.67164,5.19579,5.78961,6.339,6.5593,1.26438,12.54788.01447,17.45056-4.57006,1.15548-1.0805,2.08478-2.23022,1.71349-3.68157Z"/>
    <path class="cls-5" d="M2.83133,22.48434C-.34912,29.56571,5.89671,34.85753,12.235,35.0582c.54236-1.24509-.92563-4.1811-1.17659-5.47452-1.91591-3.10406-4.71708-6.00919-8.22709-7.09934Z"/>
    <path class="cls-7" d="M12.4435,22.6983a7.82277,7.82277,0,0,0,3.269.34533,5.57192,5.57192,0,0,0,2.46932-1.06013c2.10822,5.48766,2.59495,11.28833-1.34091,16.077,6.78459-2.38509,6.172-11.58424,3.74441-17.057a.8951.8951,0,0,0-.64982-.61212c-2.18661-.61381-4.10222,1.04236-6.29677.05215a2.59682,2.59682,0,0,1-.722-.84279,3.82054,3.82054,0,0,0-.50682,1.27381A4.7288,4.7288,0,0,0,12.4435,22.6983Z"/>
    <path class="cls-7" d="M41.80321,54.42959c-.05219-.003-.23111.006-.33549.00905h-.006c-.01789.00151-.03281.00151-.04474.00151-4.13615-.0181-10.00488-.0543-13.48945-1.74959-7.55958-3.68169-4.68634-7.4599-2.86429-13.4447.97962-3.21714,1.11828-5.49613,2.46619-8.39654-.02088.38913-.003.7285-.00895,1.086,0,.0347-.00149.0709-.003.10558-.01491.8914-.07008,1.74959-.14016,2.64249l-.01342.178c-.01938.23378-.03876.457-.05815.68777-.003.02564-.00447.05127-.006.07692-.01341.14781-.02534.29864-.03727.45851v.003l-.00447.0739a29.81872,29.81872,0,0,1-.37724,4.552,15.50108,15.50108,0,0,0-.14016,7.81132,9.17282,9.17282,0,0,0,.85139,1.32577,8.51023,8.51023,0,0,0,1.36878,1.3137c.13419.10407.27286.20362.41451.29864.07455.04977.15059.09954.22812.14781a.55643.55643,0,0,0,.05816.0377c.18042.11312.3668.22021.55764.31976.09543.05279.19384.10256.29225.15082.37723.18854.77236.359,1.18836.51885a.33317.33317,0,0,0,.03578.01207l.02684.009.02833.009A60.50023,60.50023,0,0,0,41.80321,54.42959Z"/>
    <path class="cls-8" d="M11.52657,43.94384c1.13975-.60456,1.97808-.37408.83416.57975a6.63137,6.63137,0,0,0-1.93782,3.1334c-.25249,1.68522.72254,3.60777-.70293,4.50787-1.46278-2.945-.26978-5.94651,1.80659-8.221Z"/>
    <path class="cls-8" d="M13.1741,42.82687c.39781.06692,1.78513-.89765,1.38527-1.26888-.62855-.58361-1.73748.59727-1.38527,1.26888Z"/>
    <path class="cls-3" d="M35.00781,55.93724c3.56.66529,9.94446,4.68825,14.09542,5.15361,4.151.46537-10.42134,3.73421-11.97783,3.68136-1.55642-.05286-9.27387-.99115-8.772-4.16208a5.41649,5.41649,0,0,1,6.65445-4.67289Z"/>
    <path class="cls-8" d="M31.13306,58.27932c-.60887.76445.32194.92092.907.77991,2.25476-1.41488,4.169-.65016,6.63572.13389.20745.06594.64537-.35358.11873-.6511-2.50992-1.41808-5.24888-2.34035-7.66147-.2627Z"/>
    <path class="cls-3" d="M69.87723,43.98061c1.08063-1.16674,5.73724-3.65528,6.86743-2.52117,1.13025,1.13411-3.574,5.73571-4.158,5.82434-.58392.08863-1.52853-3.20068-2.70943-3.30317Z"/>
    <path class="cls-4" d="M16.10636,16.77022a.59653.59653,0,0,0,.61475-.53939.51641.51641,0,0,0-.55268-.53648.59136.59136,0,0,0-.61981.531.52785.52785,0,0,0,.55774.54486Z"/>
    <path class="cls-4" d="M4.26455,29.35456c.43293-.72579-1.02971-2.53031-1.30933-3.25029-.18708.93792.16957,3.1159,1.30933,3.25029Z"/>
    <path class="cls-9" d="M61.68385,43.12465a6.49885,6.49885,0,0,1-1.089,3.61316c-.27186.40147-.60219.76342-.87879,1.16331a22.33063,22.33063,0,0,1-2.84185,3.2275,15.48933,15.48933,0,0,1-1.46361,1.22968c-.36827.27818-.71125.59429-1.10481.8377a10.45862,10.45862,0,0,1-1.5695.86773,1.33719,1.33719,0,0,1-.86615.06638,4.71331,4.71331,0,0,1-.67648-.20705l.05374-.01107.39988-.07744h.00316a.7739.7739,0,0,0,.117.01738H51.769a1.21462,1.21462,0,0,0,.25131-.00158.38391.38391,0,0,0,.07271-.01107.28054.28054,0,0,0,.06164-.01105A.49948.49948,0,0,0,52.221,53.814c.03319-.0079.06638-.019.09958-.03s.06638-.02213.09956-.03635a10.45823,10.45823,0,0,0,1.56951-.86773c.39356-.24341.73654-.55953,1.10481-.83771a15.48922,15.48922,0,0,0,1.46361-1.22967A22.3295,22.3295,0,0,0,59.39993,47.585c.2766-.39988.60694-.76183.8788-1.1633a6.49888,6.49888,0,0,0,1.089-3.61316,6.97552,6.97552,0,0,0-.24657-1.86981c-.01265-.049-.02688-.09641-.0411-.14383-.00948-.03319-.019-.0648-.03-.098a.17243.17243,0,0,0-.0079-.02687l-.00474-.01423c-.01265-.0411-.02687-.08219-.0411-.12328-.02212-.06639-.04742-.13119-.0727-.19757-.02529-.06481-.05058-.12961-.079-.19283-.01265-.03162-.02688-.06323-.04109-.09483-.01423-.0332-.02845-.06481-.04427-.09484-.019-.04267-.03951-.08535-.06163-.12644-.01423-.0332-.03161-.06323-.04742-.09483a7.062,7.062,0,0,0-.54846-.89144l.02845-.0411.02372.00948a6.684,6.684,0,0,1,1.28341,2.44671A6.97512,6.97512,0,0,1,61.68385,43.12465Z"/>
  </g>
</svg>
