<svg id="Layer_1" data-name="Layer 1" xmlns="http://www.w3.org/2000/svg" viewBox="0 0 80 80">
  <defs>
    <style>
      .cls-1 {
        fill: #257dc1;
      }

      .cls-2 {
        fill: #f7dd48;
      }
    </style>
  </defs>
  <g id="Insight">
    <g id="Lightbulb">
      <path class="cls-1" d="M54.34933,58.91263v4.97919a1.04369,1.04369,0,0,1-1.13018.91787H27.26593a1.03849,1.03849,0,0,1-1.13018-.91787V58.91263a1.0431,1.0431,0,0,1,1.13018-.91788H53.21915A1.04838,1.04838,0,0,1,54.34933,58.91263Z"/>
      <path class="cls-1" d="M54.08952,66.79673c-.61314,1.159-2.32075,2.42926-4.73056,3.40279a2.702,2.702,0,0,1-1.00054.18555H32.1598a2.69737,2.69737,0,0,1-.99591-.18414c-2.39466-.9637-4.10619-2.2133-4.74854-3.3516-.27985-.47984.1244-1.01017.7618-1.01017l26.11964,0C53.90488,65.83915,54.32959,66.343,54.08952,66.79673Z"/>
      <path class="cls-1" d="M46.0729,71.41337c.13256,0,.25283.08831.25161.196-.01779,1.56553-2.73113,2.83465-6.07524,2.83465-3.35906,0-6.07308-1.26912-6.0909-2.83464-.00123-.10766.11905-.196.25161-.196Z"/>
      <g>
        <path class="cls-2" d="M40.74131,24.57872c-2.179-.03251-4.39056-.065-6.5208-.08943L33.131,24.48115c1.22775-4.77272,2.71568-8.3909,3.80517-9.24461a.627.627,0,0,1,.29274-.09757.50075.50075,0,0,1,.39026.22769A17.62417,17.62417,0,0,1,39.1233,19.0092C39.61926,20.5215,40.16406,22.39155,40.74131,24.57872Z"/>
        <path class="cls-2" d="M51.482,37.02683a34.68513,34.68513,0,0,0-2.58556,9.04949c-.55288,3.51247-1.0082,7.34206-1.366,10.84639H32.944c-.35775-3.50433-.81307-7.33392-1.37409-10.84639a34.68673,34.68673,0,0,0-2.58556-9.04949,26.89491,26.89491,0,0,1-2.34165-9.80563h3.27665c-.34961,1.59364-.65045,3.171-.91063,4.69144l-.1138.67486v.02436a.94447.94447,0,0,0,1.73994.5041l.02441.02442L32.513,27.2212h8.91942c.68295,2.57747,1.39032,5.228,2.32537,7.716.5041,1.33344,1.66678,4.45566,3.62631,4.47189h.02437c3.02465,0,4.20356-4.87843,4.98413-8.11444.16262-.69109.309-1.29275.44718-1.73184l.05692-.17885a.46754.46754,0,0,0-.30083-.59358.473.473,0,0,0-.59353.29274l-.06506.17886c-.252.70736-.48782,1.38223-.69923,1.97575l-.01628.04878c-1.309,3.69952-1.91069,5.39067-3.08152,5.39067h-.0732c-1.50416,0-2.91075-6.08989-3.44741-8.38276-.08942-.3984-.17076-.75615-.252-1.0814h9.456A26.94892,26.94892,0,0,1,51.482,37.02683Z"/>
        <path class="cls-2" d="M65.95465,26.25364a13.9281,13.9281,0,0,1-.20327,2.34165,17.65371,17.65371,0,0,1-1.86191,5.52079,18.36693,18.36693,0,0,1-1.27653,2.10582,21.32984,21.32984,0,0,1-2.65876,3.0978,19.0752,19.0752,0,0,0-1.309,1.39037,20.85216,20.85216,0,0,0-1.553,2.07332,18.07656,18.07656,0,0,0-2.90267,8.84622c-.01627.34962-.03255.67486-.03255,1.01634v2.82947a1.32771,1.32771,0,0,1-.6098,1.07326,1.9604,1.9604,0,0,1-1.17892.374H49.15662c.35776-3.43118.80493-7.16315,1.34968-10.5862a32.73084,32.73084,0,0,1,2.47986-8.68359c1.10581-2.64249,2.14651-5.13862,2.56119-11.692a.80708.80708,0,0,0-.67486-.84558.45027.45027,0,0,0-.13821-.04878H54.6855a1.08873,1.08873,0,0,0-.16263-.00814l-.14635-.01628c-3.423-.24391-7.39078-.34961-10.7-.41467l-.00814-.02437c-1.60991-6.033-3.61817-12.18793-6.32572-12.18793-2.52864.00814-4.80522,4.05722-6.77284,12.03345-1.39037-.01628-2.65876-.04065-3.854-.05692H26.537a2.64215,2.64215,0,0,0-.439.01627,1.39784,1.39784,0,0,0-1.1546,1.34154.15841.15841,0,0,0-.00814.06506.88806.88806,0,0,0-.00809.14635c.40654,6.55335,1.44724,9.04948,2.553,11.692a32.66889,32.66889,0,0,1,2.488,8.68359c.5448,3.42305.992,7.155,1.34973,10.5862H28.13061a2.02455,2.02455,0,0,1-1.13832-.34147,1.34439,1.34439,0,0,1-.65044-1.10582V53.15005c0-.439-.01628-.89436-.04878-1.34159A19.149,19.149,0,0,0,23.35784,42.824a19.983,19.983,0,0,0-1.53667-2.0896,19.589,19.589,0,0,0-1.37409-1.48789,20.50794,20.50794,0,0,1-2.56119-3.02465,16.63392,16.63392,0,0,1-1.29276-2.10582,17.29747,17.29747,0,0,1-1.85382-5.52079,14.83367,14.83367,0,0,1-.19513-2.34165,2.63132,2.63132,0,0,1-.01628-.35775,16.90405,16.90405,0,0,1,.91877-5.537,14.32269,14.32269,0,0,1,.92692-2.22781,19.59825,19.59825,0,0,1,3.82958-5.32561,22.19361,22.19361,0,0,1,1.9432-1.74812,25.57471,25.57471,0,0,1,6.30944-3.72383A24.095,24.095,0,0,1,31.082,6.366,30.04977,30.04977,0,0,1,38.7981,5.04064C39.27779,5.00809,39.75752,5,40.23721,5c.40653,0,.79684.00809,1.20337.02437.08943,0,.17072.01627.26019.01627a30.08858,30.08858,0,0,1,7.74041,1.366,23.69,23.69,0,0,1,2.63434.98383,24.96476,24.96476,0,0,1,6.22815,3.7076,22.2426,22.2426,0,0,1,1.95948,1.73185,21.02313,21.02313,0,0,1,3.86209,5.30119,18.38264,18.38264,0,0,1,.92691,2.22781,17.0714,17.0714,0,0,1,.84558,3.93528A17.57669,17.57669,0,0,1,65.95465,26.25364Z"/>
      </g>
    </g>
  </g>
</svg>
