<svg xmlns="http://www.w3.org/2000/svg" viewBox="0 0 80 80">
  <defs>
    <style>
      .cls-1 {
        isolation: isolate;
      }

      .cls-2, .cls-3 {
        fill: #b2b9c9;
      }

      .cls-13, .cls-14, .cls-15, .cls-3 {
        fill-rule: evenodd;
      }

      .cls-3 {
        opacity: 0.1;
      }

      .cls-21, .cls-25, .cls-3 {
        mix-blend-mode: multiply;
      }

      .cls-12, .cls-15, .cls-24, .cls-4 {
        fill: #fff;
      }

      .cls-5 {
        fill: #eb2027;
      }

      .cls-6 {
        fill: #f16623;
      }

      .cls-7 {
        fill: #ffdd0f;
      }

      .cls-8 {
        fill: #00a04a;
      }

      .cls-9 {
        fill: #257dc1;
      }

      .cls-10 {
        fill: #804097;
      }

      .cls-11 {
        fill: #007fd2;
      }

      .cls-12 {
        stroke: #fff;
        stroke-linejoin: round;
        stroke-width: 0.93191px;
      }

      .cls-14 {
        fill: #262626;
      }

      .cls-16 {
        fill: #2b2729;
      }

      .cls-17 {
        fill: red;
      }

      .cls-18 {
        fill: #2b2522;
        opacity: 0.15;
        mix-blend-mode: darken;
      }

      .cls-19 {
        fill: #e5dbc8;
      }

      .cls-20 {
        fill: #fc6677;
      }

      .cls-21 {
        fill: #d3669c;
        opacity: 0.5;
      }

      .cls-22 {
        fill: #ffb700;
      }

      .cls-23, .cls-25 {
        fill: #89358b;
      }

      .cls-24, .cls-25 {
        opacity: 0.3;
      }

      .cls-24 {
        mix-blend-mode: overlay;
      }

      .cls-26 {
        fill: #f6ecd6;
      }

      .cls-27 {
        fill: #ff8500;
      }

      .cls-28 {
        fill: #e8988b;
      }

      .cls-29 {
        fill: #8a92a0;
      }
    </style>
  </defs>
  <g class="cls-1">
    <g id="Layer_1" data-name="Layer 1">
      <g id="Whole_Laptop" data-name="Whole Laptop">
        <g>
          <rect class="cls-2" x="5.22041" y="19.62848" width="68.82239" height="41.74294" rx="1.8308" transform="translate(40.24562 -16.16162) rotate(45)"/>
          <path class="cls-3" d="M77.48927,51.30984,50.44258,78.3565a1.74756,1.74756,0,0,1-2.46918,0l-.06238-.06238L74.89013,51.30984a1.74757,1.74757,0,0,0,0-2.46919L28.76056,2.71109l.06238-.06759a1.74756,1.74756,0,0,1,2.46918,0L77.48927,48.84065A1.74757,1.74757,0,0,1,77.48927,51.30984Z"/>
          <g>
            <circle class="cls-4" cx="22.79042" cy="32.55169" r="4.18832"/>
            <g>
              <path class="cls-5" d="M26.33994,33.196a1.94235,1.94235,0,0,0-.83963-1.57833,1.60492,1.60492,0,0,0-1.43827-.28185.5173.5173,0,0,1-.05559.00913.10254.10254,0,0,1-.00511-.02632c.00364-.01955.008-.039.01317-.05822a1.51477,1.51477,0,0,0,.00374-.81595,1.89637,1.89637,0,0,0-.69972-1.02465,1.92666,1.92666,0,0,0-1.79926-.32678l4.7364,4.7364A1.90148,1.90148,0,0,0,26.33994,33.196Z"/>
              <path class="cls-6" d="M23.29989,31.54918a.07127.07127,0,0,0-.01608-.06229.08163.08163,0,0,0-.0399-.02013,1.58281,1.58281,0,0,0-.65457.19665l.46473.46472.02929-.05728A2.47325,2.47325,0,0,0,23.29989,31.54918Z"/>
              <path class="cls-6" d="M25.91842,34.46481a2.0005,2.0005,0,0,0,.33725-.63543l-4.7364-4.7364c-.03233.00969-.06472.01989-.09723.03108a1.96582,1.96582,0,0,0-.81952.55252l1.71708,1.71709c.6356-.309,1.05577-.36748,1.2522-.17286.19462.19462.04074.66658-.22466,1.2004l2.31933,2.31933A2.39264,2.39264,0,0,0,25.91842,34.46481Z"/>
              <path class="cls-7" d="M21.92043,32.01868l.10839.111c.21438.21915.43556.44556.65352.67019.14837-.25443.273-.47967.37173-.67175l-.46473-.46472A7.47675,7.47675,0,0,0,21.92043,32.01868Z"/>
              <path class="cls-7" d="M20.95415,31.32086a.20209.20209,0,0,1,.25916-.02359.52582.52582,0,0,1,.04669.04264l.01858.01858c.119.12327.2456.25369.38483.3965q.35938-.21724.65619-.36132l-1.71708-1.71709a2.726,2.726,0,0,0-.21369.26781,3.04382,3.04382,0,0,0-.35124.66762l.85729.8573A.204.204,0,0,1,20.95415,31.32086Z"/>
              <path class="cls-7" d="M22.97736,33.10014l-.00167.0031c.32872.3423.67662.71.99928,1.08265l.01334.016.01524.0181.00465.00465a.15484.15484,0,0,1-.11754.24049l.84124.84123c.069-.02646.13762-.05483.2056-.08571a2.66777,2.66777,0,0,0,.729-.48007l-2.31933-2.31933C23.23737,32.642,23.10853,32.8734,22.97736,33.10014Z"/>
              <path class="cls-8" d="M23.86134,34.46483l-.00047-.00048-.012-.00178-.004-.00072-.00763-.0019L23.83,34.458a.15624.15624,0,0,1-.0636-.03859L22.783,33.436c-.02477.0405-.05288.08623-.08385.13554a7.01531,7.01531,0,0,0-.43165.77071l.39056.39056c.11121-.04741.24512-.1113.40721-.18867l.00608-.003c.0817-.03906.174-.083.272-.12887l.025-.01167a.0672.0672,0,0,1,.05967.12042l-.02394.013c-.0586.03073-.13435.07694-.22165.13042-.11259.06876-.24109.14719-.37456.21822l.69682.69682a4.635,4.635,0,0,0,1.22719-.27317l-.84124-.84123A.15457.15457,0,0,1,23.86134,34.46483Z"/>
              <path class="cls-8" d="M22.48427,33.13944l-.90543-.90542-.78787.412-.00059-.00488a.1352.1352,0,0,1-.12542-.2269l.00322-.00321.0792-.05657c.18032-.1284.37161-.25751.569-.38387l-.38185-.38185v-.00286a.20357.20357,0,0,1-.03961-.11655l-.85729-.8573a4.14439,4.14439,0,0,0-.1846.64152,5.52043,5.52043,0,0,0-.0882.586l2.219,2.219C22.133,33.74537,22.31074,33.4377,22.48427,33.13944Z"/>
              <path class="cls-9" d="M21.85373,34.98126l-.00214-.00214c-.19688-.2.00119-.63506.08552-.8211.0151-.03324.03087-.06636.04665-.09948l-2.219-2.219a7.48872,7.48872,0,0,0-.00486,1.2848q.00862.11565.02014.23084l2.20814,2.20814a7.93445,7.93445,0,0,0,1.40285.02608q.057-.00444.11365-.00994l-.69682-.69682C22.45889,35.0684,22.07584,35.20337,21.85373,34.98126Z"/>
              <path class="cls-9" d="M22.19794,34.77116l.00774.00774c.081.081.21464.05525.45236-.04608l-.39056-.39056C22.18,34.53868,22.13456,34.70778,22.19794,34.77116Z"/>
              <path class="cls-10" d="M20.09085,35.12408a.15418.15418,0,0,0,.12864.129,13.97545,13.97545,0,0,0,1.48168.27831q.14344.01774.287.032l-2.20814-2.20814A13.10831,13.10831,0,0,0,20.09085,35.12408Z"/>
            </g>
          </g>
          <g>
            <path class="cls-4" d="M25.70908,20.691a3.96109,3.96109,0,1,1-.00436-5.59675A3.957,3.957,0,0,1,25.70908,20.691Z"/>
            <g>
              <path id="Shape" class="cls-11" d="M24.17744,15.92157a.101.101,0,0,0-.0228-.08852.11624.11624,0,0,0-.0567-.02857,4.648,4.648,0,0,0-1.87991.784l.15407.15762c.30449.31134.61868.63287.92826.9519.23191-.39771.4234-.74576.56951-1.0354A3.51449,3.51449,0,0,0,24.17744,15.92157Z"/>
              <path class="cls-11" d="M25.85213,14.94608a4.16289,4.16289,0,1,0,.00525,5.89245A4.16657,4.16657,0,0,0,25.85213,14.94608ZM24.975,20.063l-.00071-.00071-.01716-.0025-.00557-.00107-.011-.00273-.01006-.00273a.221.221,0,0,1-.09045-.05475l-1.39674-1.39673c-.03509.05735-.075.12239-.11921.1924-.25415.40739-.92786,1.48778-.71185,1.7038l.00462.00461.00237.00237.00415.00415c.16876.16876.49838.01133,1.22078-.33353l.00876-.00425c.116-.05539.247-.11787.38627-.183l.0356-.01666a.09545.09545,0,0,1,.08476.17105l-.03407.01843c-.08314.04383-.19063.1094-.31492.18537-.57793.35291-1.451.88612-1.88708.45007l-.00319-.0032c-.2795-.284.0018-.90185.12142-1.16619.22437-.49368.50472-.97843.77727-1.44686l-1.286-1.286-1.119.58517-.00084-.007a.192.192,0,0,1-.17824-.32223l.00461-.00461.11257-.08036c.256-.18234.52763-.36562.808-.5451l-.5424-.5424v-.004a.29022.29022,0,0,1,.02794-.37636.28719.28719,0,0,1,.36819-.03375.74039.74039,0,0,1,.0662.06076l.02641.02641c.16912.175.349.36036.54667.56323,1.43294-.86615,2.34474-1.12138,2.71056-.75887.39081.39081-.20744,1.56865-.84421,2.66942l-.00248.00438c.46709.48625.96108,1.00837,1.41958,1.5378l.01883.02261a.22264.22264,0,0,1,.02156.02582l.00284.00284.00249.00248.0013.00131a.22038.22038,0,0,1-.20853.34117Z"/>
            </g>
          </g>
          <path class="cls-12" d="M12.57429,31.37a2.50358,2.50358,0,0,0,1.341-.65616,2.65161,2.65161,0,0,0,.71719-2.61256,1.84162,1.84162,0,0,0-.088-.24374c.342-.49764.63862-.67131.75247-1.34162a2.73524,2.73524,0,0,1-1.02309.80392c-.01715-.02824-.03451-.05612-.0522-.08292a3.67038,3.67038,0,0,0-.30387-.38008q.33546-.32922.67068-.657c.0093.02164.0208.03809.03637.0392.04273.003.09806-.07841.12489-.0578s.005.1004.04757.12668a.2016.2016,0,0,0,.12171.00817s.00984-.14464.01978-.19971a2.22737,2.22737,0,0,1,.10756-.25773.8307.8307,0,0,0,.06808.06313l.01735.01415.03263.02426.01262.00826c.01834.01221.0371.02352.05635.03375l.01505.00826a3.06113,3.06113,0,0,0,.95445.37177l.001.00021c.12743.02864.2545.05085.37747.06654l.0095.00117q.05667.0071.11191.01234l.00778.00077c.078.00722.15341.01162.22534.01324l.01148.00019q.04863.00089.09486.00006l.00979-.00015c.03352-.00075.06638-.00194.09768-.00407a1.42728,1.42728,0,0,0,.96284-2.37973l-.01563-.01609-.03541-.03644-.00145-.00146a1.4293,1.4293,0,0,0-.59109-.355,1.43105,1.43105,0,0,0-.44625-.86978l-.02324-.021-.02217-.01947a1.4267,1.4267,0,0,0-.60579-.30851l.01178.008a1.42722,1.42722,0,0,0-1.64008.82149c-.0095.02194-.01855.04485-.02723.06852l-.001-.005a3.31362,3.31362,0,0,0,.06764,2.07541l.00578.01388.00645.02344c.00424.01586.009.03156.01448.04706.00454.01284.009.0257.01437.03829l.01631.03446.01176.0234.02008.03491.01261.01992c.00788.01212.01585.02419.02446.036l.00825.01075.02156.0281c-.06258.03846-.18836.11182-.27139.1545a1.60839,1.60839,0,0,1-.24958.10026.10181.10181,0,0,0,.05845.07892c.0556.02821.05491-.01175.07427.01438a.844.844,0,0,1,.03489.10033l-.68193.64874a6.06237,6.06237,0,0,0-.95946-.8816c-.043-.029-.08536-.05555-.12714-.08076a3.371,3.371,0,0,1,.76451-1.07578,3.54965,3.54965,0,0,0-1.32918.81054c-.0862-.02958-.14178-.04371-.15151-.04692a2.45953,2.45953,0,0,0-2.63216.70069,2.65767,2.65767,0,0,0-.6895,1.35858,3.43367,3.43367,0,0,0,.01049.86833c.004.03824.00954.07247.01013.114l-.00216-.0039a1.26684,1.26684,0,0,0-.57535.06886c-.3411.1128-.68282.22689-1.01423.36452q-.03815.01584-.07582.03308l.13256-.426a.79179.79179,0,0,0,.11507.02069.80729.80729,0,0,0,.22567-.01019.8195.8195,0,0,0,.22867-.07979.09788.09788,0,0,0,.01568.01822c.03748.03287.13135-.01193.22446-.10607a.84084.84084,0,0,0,.21989-.40219c.00331-.01583.006-.03213.00834-.04866l.00121-.00839q.00314-.024.00486-.0488l.00056-.00922c.001-.01706.00165-.0343.00164-.05179l-.00007-.00354c-.00008-.01731-.00073-.03483-.00186-.05246l-.00035-.00635c-.00128-.0179-.00316-.03593-.00553-.05405l-.00116-.00846c-.00259-.01841-.00567-.03687-.00945-.05537l-.00088-.004c-.004-.01916-.00858-.03832-.01389-.05744l-.0003-.00116c-.00532-.01906-.01142-.03805-.01808-.057l-.00218-.00615-.01151-.0301a.06506.06506,0,0,0-.05722-.11633l-.01532-.02468-.00224-.00354q-.01723-.02665-.0368-.05229l-.0027-.00347a.811.811,0,0,0-.091-.09956l-.00156-.00148q-.02492-.023-.05244-.04425l-.00448-.00343-.02246-.01674.00289-.0068a.06.06,0,0,0-.10423-.0553.949.949,0,0,0-.14063-.05951.937.937,0,0,0-.29864-.04649.065.065,0,0,0-.12472-.00164l-.00233.01141a.82753.82753,0,0,0-.21878.06335.0369.0369,0,0,0-.0234-.02279.03757.03757,0,0,0-.047.0247.03695.03695,0,0,0,.00494.03153.77385.77385,0,0,0-.25716.23782.80556.80556,0,0,0-.07388.13322l0-.00019-.00018.00045-.00568.01449c-.00682.01651-.01333.033-.01891.04943l-.00766.02507-.011.03843-.00612.02689-.0071.03563-.00417.02686-.00412.03424-.00228.02574-.00157.03365-.00061.0236c0,.01189.00037.02335.00081.0348l.00067.01925c.00106.017.00253.0334.00448.04913l.00138.0092.006.03787.00342.01581.006.02584.00438.0153.0066.021.00486.01323.00717.01721.005.0106.00763.01344.00479.00755.00823.00957.00393.00414.01139.00587a.04018.04018,0,0,0,.02195-.00484.82033.82033,0,0,0,.18405.27525.8.8,0,0,0,.25393.16835l-.17156.53559c-.12934.06836-.25466.14584-.37621.22614-.20622.13627-.19347.29529.01732.42747a.69587.69587,0,0,0,.13181.05534l-.10858.339.12234.04565.10874-.34939.0385.009a2.53751,2.53751,0,0,0,.38054.03964c-.15843.22461-.256.40383-.28652.43475a.31145.31145,0,0,1-.14824.0817,3.22709,3.22709,0,0,1-1.484-.03809c-.02724-.0069-.05479-.01243-.10173-.023a2.50007,2.50007,0,0,0,.52146.50311c.19421.13521.40127.25193.60643.37907-.02088.03708-.0487.08545-.07564.13433a4.82792,4.82792,0,0,0-.38569.87125.277.277,0,0,0,.34014.34014,1.96858,1.96858,0,0,0,.48119-.17319,3.11327,3.11327,0,0,0,.3884-.21408l.82837.82838a2.06991,2.06991,0,0,0-.23087.37161,2.54148,2.54148,0,0,0-.18937.465.28583.28583,0,0,0,.36773.36774,5.53293,5.53293,0,0,0,.99394-.473c.31609-.17086.78331-.40645,1.19711-.65528l.00149.00283q.09691-.0606.18283-.11721a3.84911,3.84911,0,0,0,.43569-.31658l.06689-.05855.01153-.0101.06726-.06021.04378-.04a1.76093,1.76093,0,0,0,.683-1.0907c.03953.00487.10542.00288.13675.0057A3.01214,3.01214,0,0,0,12.57429,31.37Z"/>
          <g>
            <g>
              <path id="Left_Tail" data-name="Left Tail" class="cls-13" d="M8.78926,28.494a3.4336,3.4336,0,0,1-.01049-.86832,2.65767,2.65767,0,0,1,.6895-1.35859,2.45954,2.45954,0,0,1,2.63217-.70069,2.89535,2.89535,0,0,1,.84332.39293A6.21393,6.21393,0,0,1,14.22147,27.237a3.76585,3.76585,0,0,1,.41084.86436,2.6516,2.6516,0,0,1-.71718,2.61256,2.50375,2.50375,0,0,1-1.34095.65616,3.01259,3.01259,0,0,1-.826.08285c-.03133-.00282-.09722-.00082-.13675-.0057a2.05783,2.05783,0,0,1-.87247,1.25953A11.68925,11.68925,0,0,1,8.92189,33.793a5.53221,5.53221,0,0,1-.99394.473.28583.28583,0,0,1-.36773-.36774,2.54144,2.54144,0,0,1,.18938-.465,2.07043,2.07043,0,0,1,.23086-.37161l-.82837-.82837a3.11384,3.11384,0,0,1-.3884.21408,1.96891,1.96891,0,0,1-.48118.17319.277.277,0,0,1-.34014-.34014,4.8262,4.8262,0,0,1,.38569-.87125c.02693-.04889.05475-.09725.07563-.13434-.20515-.12713-.41222-.24386-.60643-.37907a2.5003,2.5003,0,0,1-.52146-.50311c.04695.01055.0745.01608.10173.023a3.2271,3.2271,0,0,0,1.484.03809.31145.31145,0,0,0,.14824-.0817,6.59792,6.59792,0,0,1,.58447-.81c.39191-.43322.75887-.88594,1.20509-.9269A.85236.85236,0,0,0,8.78926,28.494Z"/>
              <g id="Left_Arm_Down" data-name="Left Arm Down">
                <path d="M6.91574,29.89761a1.14961,1.14961,0,0,1-.29281-.0995c-.21078-.13217-.22353-.29119-.01731-.42746a3.64466,3.64466,0,0,1,.602-.33321c.3314-.13763.67312-.25172,1.01422-.36451a1.26675,1.26675,0,0,1,.57535-.06887c.17855.26143-1.356,1.34365-1.35815,1.33515A2.89114,2.89114,0,0,1,6.91574,29.89761Z"/>
              </g>
              <g id="RIght_Arms_together" data-name="RIght Arms together">
                <path id="Path-8" class="cls-14" d="M10.12049,33.14056a5.77649,5.77649,0,0,0,.58476-.40727,4.90745,4.90745,0,0,0,.40739-.37518q-.11439-.31472-.18293-.49148t-.23551-.52969a2.99186,2.99186,0,0,0-.40848-.61783.438.438,0,0,0-.294-.15844h0a.12266.12266,0,0,0-.08714.033.32936.32936,0,0,0-.06779.09668,2.69655,2.69655,0,0,0-.1088,1.03824,3.36492,3.36492,0,0,0,.15361.90447A3.65333,3.65333,0,0,0,10.12049,33.14056Z"/>
              </g>
              <g>
                <path id="Left_Ear" data-name="Left Ear" class="cls-13" d="M13.58112,24.80275a3.63414,3.63414,0,0,0-1.34945.826c.191.0921.38723.1707.57612.26748A3.39633,3.39633,0,0,1,13.58112,24.80275Z"/>
                <path id="Right_Ear" data-name="Right Ear" class="cls-13" d="M15.29676,26.516c-.11745.69153-.42943.85446-.78507,1.38986-.0998-.18391-.18457-.37549-.28554-.559A2.85927,2.85927,0,0,0,15.29676,26.516Z"/>
              </g>
              <g id="Eyes">
                <path id="right-eye-white" class="cls-15" d="M12.41869,28.7418a.66274.66274,0,0,0-.20092.55069.67862.67862,0,1,0,.7296-.73874A.65906.65906,0,0,0,12.41869,28.7418Z"/>
                <path id="right-pupil" class="cls-13" d="M12.9165,28.93772a.168.168,0,0,0-.051.13936.17169.17169,0,1,0,.18477-.18709A.16709.16709,0,0,0,12.9165,28.93772Z"/>
                <path id="left-eye-white" class="cls-15" d="M11.36525,27.73071a.6989.6989,0,0,0,.21063-.53728.67455.67455,0,1,0-.21063.53728Z"/>
                <path id="left-pupil" class="cls-13" d="M10.922,26.94325a.168.168,0,0,0-.051.13935.17169.17169,0,1,0,.18477-.18708A.167.167,0,0,0,10.922,26.94325Z"/>
              </g>
              <g id="Eybrows">
                <path id="Shape-2" data-name="Shape" class="cls-4" d="M13.46265,28.171a.63375.63375,0,0,1,.40613.51372.39477.39477,0,0,0-.40591-.51508c-.00657-.00211-.01314-.00422.00225.00071C13.44893,28.17447,13.45578,28.17272,13.46265,28.171Zm-2.12938-1.98389a.75191.75191,0,0,1,.41939.25715c.02191.026.04787.04849.08576.08638a.39915.39915,0,0,0-.50476-.34007c-.005.00081-.01.00166-.00461.00077Z"/>
              </g>
              <g id="L_Balloon_Flat" data-name="L Balloon Flat">
                <path class="cls-16" d="M8.83149,31.66592c.0654.07017.171.02862.23743-.02265.07212-.05136.04628-.16168.08606-.24647.03382-.11981.17909-.08014.24449-.08939.08669-.01748.12129-.1067.18964-.17311l.75752-.78271,1.5322-1.54715c1.02135-1.03154,2.05636-2.04957,3.1324-3.02521l.00775.00038-.0001.00747c-1.00162,1.05174-2.03614,2.06943-3.07677,3.08121l-1.55318,1.52548-.77031.76833c-.06155.05471-.10618.15816-.2115.17821-.09967.00984-.19342-.03368-.22817.067-.04078.07427-.013.18741-.09919.251-.069.051-.186.09407-.25627.01508l.00023-.00775Z"/>
                <path class="cls-17" d="M17.36255,24.42789c-.313.72337-1.36081,1.91013-2.08419,1.59717S14.43,24.01793,14.743,23.29455a1.42711,1.42711,0,0,1,2.61957,1.13334Z"/>
                <path class="cls-17" d="M15.00313,25.78018c-.01477-.00405-.03318-.05613-.04611-.04794-.05245.03322-.19769.11861-.28991.166a1.60914,1.60914,0,0,1-.24957.10027.10176.10176,0,0,0,.05845.07891c.05559.02822.0549-.01175.07427.01439s.03166.14425.07439.14729.09806-.07841.12489-.0578.005.10041.04757.12669a.20157.20157,0,0,0,.12171.00816s.00984-.14464.01978-.19971a2.72389,2.72389,0,0,1,.11039-.26541c.00462-.01476-.03094-.06678-.04586-.07087Z"/>
                <path class="cls-18" d="M15.00313,25.78018c-.01477-.00405-.03318-.05613-.04611-.04794-.05245.03322-.19769.11861-.28991.166a1.60914,1.60914,0,0,1-.24957.10027.10176.10176,0,0,0,.05845.07891c.05559.02822.0549-.01175.07427.01439s.03166.14425.07439.14729.09806-.07841.12489-.0578.005.10041.04757.12669a.20157.20157,0,0,0,.12171.00816s.00984-.14464.01978-.19971a2.72389,2.72389,0,0,1,.11039-.26541c.00462-.01476-.03094-.06678-.04586-.07087Z"/>
                <path class="cls-17" d="M17.14946,26.47261c-.78634.0538-2.32157-.33277-2.37538-1.1191s1.3942-1.67466,2.18053-1.72847a1.42711,1.42711,0,0,1,.19485,2.84757Z"/>
                <path class="cls-18" d="M17.46188,23.67712a1.41118,1.41118,0,0,0-.43647-.06186,1.39,1.39,0,0,0-.0474-.3168,1.42378,1.42378,0,0,0-.60674-.83335,1.427,1.427,0,0,1,1.04668.99927A1.38949,1.38949,0,0,1,17.46188,23.67712Z"/>
                <path class="cls-4" d="M15.98157,25.54022a1.405,1.405,0,0,1-.83883-.78178l.20372-.21178a1.96866,1.96866,0,0,0,.13917.22414l.6187-.63131c-.08-.07423-.16023-.14529-.239-.21154l.28894-.30867q.02646.01671.05732.03411a.68869.68869,0,0,0,.28216.09666.32529.32529,0,0,0,.28354-.11009,1.39926,1.39926,0,0,1,.3902.44812L15.99723,25.246a1.61708,1.61708,0,0,0,.16428.10641Z"/>
                <path class="cls-18" d="M17.14975,26.47238a3.58014,3.58014,0,0,1-1.90025-.46133l-.00087-.00029c-.013-.00665-.02572-.01359-.03844-.0211a.74363.74363,0,0,1-.16389-.13094l-.00463-.00463-.00491-.00607-.00231-.00173-.00145-.00145a.79552.79552,0,0,1-.24483-.39745l-.00578-.01387a3.31366,3.31366,0,0,1-.06764-2.07542l.00116.00579a4.08173,4.08173,0,0,0,.22667,1.33655,2.213,2.213,0,0,0,.35271.55322,2.53372,2.53372,0,0,0,1.01013.50042,2.073,2.073,0,0,0,1.31693.07,1.11192,1.11192,0,0,0,.52233-1.20391,1.42043,1.42043,0,0,0-.257-.72466,1.42423,1.42423,0,0,1-.73795,2.57692Z"/>
              </g>
            </g>
            <g>
              <polygon class="cls-19" points="7.179 28.53 6.646 30.192 6.769 30.238 7.3 28.53 7.179 28.53"/>
              <path class="cls-20" d="M7.71122,27.14079a.78546.78546,0,1,0,.49931,1.00128A.80478.80478,0,0,0,7.71122,27.14079Z"/>
              <path class="cls-21" d="M7.71122,27.14079a.78546.78546,0,1,0,.49931,1.00128A.80478.80478,0,0,0,7.71122,27.14079Zm.35318.94616a.69342.69342,0,1,1-.4331-.86851A.694.694,0,0,1,8.0644,28.087Z"/>
              <path class="cls-20" d="M7.418,27.08546a.06511.06511,0,1,1-.04282-.08151A.06511.06511,0,0,1,7.418,27.08546Z"/>
              <circle class="cls-22" cx="7.90448" cy="27.19185" r="0.0601"/>
              <path class="cls-23" d="M7.717,27.0949a.83841.83841,0,0,0-.96712.29789.704.704,0,0,0-.05642.77736c.061.00838.17363-.20034.3101-.17907s.03541.329.21085.37829.34488-.12056.47716-.06879.083.2272.15792.29292.37549-.17916.44434-.50827A.85745.85745,0,0,0,7.717,27.0949Z"/>
              <path class="cls-24" d="M7.45194,27.10436c-.30426-.02438-.63337.20469-.61295.36915.0182.1466.31557.25364.55487.23.22141-.02187.49343-.16552.48669-.32377C7.87443,27.2361,7.64031,27.11944,7.45194,27.10436Z"/>
              <path class="cls-25" d="M8.29383,28.08523a.865.865,0,0,0-.37076-.893c.392.44506.05844,1.02964-.05361.97727-.08579-.04009-.10953-.14793-.2152-.14581-.09869.002-.2781.13191-.3944.07248-.10545-.05389-.08872-.18337-.23032-.21576-.10914-.025-.23477.05243-.29778.06072-.08731.01147-.09933-.26331-.05571-.41534a.65165.65165,0,0,0,.01741.64433c.061.00838.17363-.20034.3101-.17907s.03541.329.21085.37828.34488-.12055.47716-.06879.083.22721.15792.29292S8.225,28.41434,8.29383,28.08523Z"/>
              <path class="cls-26" d="M7.68588,27.41142a.06588.06588,0,1,1-.04333-.08248A.06588.06588,0,0,1,7.68588,27.41142Z"/>
              <circle class="cls-22" cx="7.12185" cy="27.32989" r="0.04805"/>
              <path class="cls-26" d="M7.65381,27.16674a.05465.05465,0,1,1-.03594-.06841A.05465.05465,0,0,1,7.65381,27.16674Z"/>
              <path class="cls-20" d="M8.025,27.4401a.04507.04507,0,1,1-.02964-.05643A.04508.04508,0,0,1,8.025,27.4401Z"/>
              <circle class="cls-26" cx="7.98796" cy="27.78248" r="0.0601"/>
              <path class="cls-27" d="M8.27362,27.54618a.06537.06537,0,1,1-.043-.08184A.06538.06538,0,0,1,8.27362,27.54618Z"/>
              <path class="cls-20" d="M7.80278,27.58071a.05008.05008,0,1,1-.03294-.0627A.05008.05008,0,0,1,7.80278,27.58071Z"/>
              <path class="cls-27" d="M7.33133,27.20216a.05233.05233,0,1,1-.03441-.06551A.05232.05232,0,0,1,7.33133,27.20216Z"/>
              <path class="cls-20" d="M7.43372,27.46389a.04757.04757,0,1,1-.03129-.05957A.04759.04759,0,0,1,7.43372,27.46389Z"/>
              <path class="cls-26" d="M7.07572,27.65764a.05008.05008,0,1,1-.03294-.0627A.05009.05009,0,0,1,7.07572,27.65764Z"/>
              <circle class="cls-27" cx="7.03797" cy="27.13461" r="0.03756"/>
              <path class="cls-26" d="M6.95178,27.39215a.05259.05259,0,1,1-.03459-.06583A.05259.05259,0,0,1,6.95178,27.39215Z"/>
              <circle class="cls-22" cx="8.19566" cy="27.81648" r="0.0601"/>
              <path class="cls-27" d="M7.98232,28.0152a.04136.04136,0,1,1-.0272-.05178A.04136.04136,0,0,1,7.98232,28.0152Z"/>
              <circle class="cls-27" cx="7.69679" cy="27.7735" r="0.03829"/>
              <circle class="cls-28" cx="6.76847" cy="27.63449" r="0.03829"/>
            </g>
          </g>
        </g>
        <path class="cls-29" d="M40.38952,44.05333a3.049,3.049,0,0,1-4.25641-4.36617c.70548-.70548,1.95183-.8231,2.22621-1.019a6.3017,6.3017,0,0,0,.85834-.64668,2.04459,2.04459,0,0,1,2.68083-.18033.96.96,0,0,0,.2273-.45465,1.15569,1.15569,0,0,0-.09408-.72118.28273.28273,0,0,1,.12942-.37227.27518.27518,0,0,1,.36837.13322,1.68149,1.68149,0,0,1,.13719,1.07785,1.57528,1.57528,0,0,1-.37627.729,2.04458,2.04458,0,0,1-.18032,2.68083,6.967,6.967,0,0,0-.631.72512,1.32883,1.32883,0,0,0-1.57954,2.10466A1.28257,1.28257,0,0,0,40.38952,44.05333Z"/>
      </g>
    </g>
  </g>
</svg>
