<svg id="Layer_1" data-name="Layer 1" xmlns="http://www.w3.org/2000/svg" xmlns:xlink="http://www.w3.org/1999/xlink" viewBox="0 0 80 80">
  <defs>
    <style>
      .cls-1 {
        fill: none;
        clip-rule: evenodd;
      }

      .cls-2 {
        clip-path: url(#clip-path);
      }

      .cls-3 {
        fill: #6c006c;
      }

      .cls-3, .cls-4, .cls-5, .cls-6, .cls-7, .cls-8, .cls-9 {
        fill-rule: evenodd;
      }

      .cls-4 {
        fill: #a603a6;
      }

      .cls-5 {
        fill: #4e1738;
      }

      .cls-6 {
        fill: #1d95e4;
      }

      .cls-7 {
        fill: #004b7d;
      }

      .cls-8 {
        fill: #7b216e;
      }

      .cls-9 {
        fill: #5c6f83;
      }
    </style>
    <clipPath id="clip-path">
      <path class="cls-1" d="M51.44431,71.3565q-1.77395-16.93368-3.8507-33.8345c-.38645-3.19314-.77464-6.38594-1.18494-9.57615a.626.626,0,0,0-.11818-.29237.67992.67992,0,0,0,.44176-.5782,6.89173,6.89173,0,0,0-.22084-1.92423.4596.4596,0,0,0-.09311-.19243,7.9311,7.9311,0,0,0,.533-1.14232l.00041.00041.00178-.00583a8.88269,8.88269,0,0,0,.30794-1.01469l.00059-.002-.00015-.00015a11.17228,11.17228,0,0,0,.2781-2.97132.9262.9262,0,0,0,.26967-.58311,9.89239,9.89239,0,0,0-.31838-2.7727.65578.65578,0,0,0-.63174-.52822c-.02363-.074-.04677-.14937-.07115-.22137a5.2531,5.2531,0,0,0-.72265-1.40006l.00007-.00008-.0052-.00605a5.67782,5.67782,0,0,0-.54766-.64032c-.01311-.01334-.0233-.02947-.03652-.04269l-.00379.00535A7.04437,7.04437,0,0,0,43.9982,12.521l.0049-.00665c-.03886-.02241-.081-.03946-.12027-.06131-.173-.09615-.34977-.18484-.52934-.26978-.05874-.02782-.11407-.06175-.1734-.08839l-.00316.0042a11.79222,11.79222,0,0,0-2.05012-.69007l.003-.00427c-.03689-.00892-.07241-.01345-.10923-.022-.32131-.075-.64021-.141-.95224-.192-.02519-.00413-.04871-.00647-.07382-.01044-.29133-.04611-.57334-.0807-.84839-.10824-.03686-.00371-.07736-.01114-.11384-.01452l.00386.00412c-.26532-.02456-.52053-.04221-.76271-.0515l.0016-.00271c-.02946-.00115-.05495-.00041-.084-.00133-.1031-.00335-.19929-.00394-.297-.00476-.0927-.00078-.18555-.00212-.273-.00078-.09114.00141-.17418.00513-.25908.00866-.05963.00245-.12625.00263-.18258.00609l-.00163.00279c-.03928.00245-.085.003-.12254.0059-.29478.02289-.58493.0641-.87213.11451l-.003-.003c-.01159.002-.02263.00583-.03422.00791-.21955.0395-.43352.09508-.6479.14992-.09924.02538-.20108.04325-.29917.07178-.22883.0667-.451.1494-.67276.23292-.07464.02809-.15267.04845-.22646.0784l-.00085.00156a9.552,9.552,0,0,0-1.63209.85734l-.00163-.00178-.02334.01665c-.06632.04362-.12837.09281-.19354.13806-.14453.10021-.29054.19848-.42921.30627l.0048.0055a9.84839,9.84839,0,0,0-1.50785,1.443l-.00044-.00048q-.1841.21975-.35509.4502l.00654.00728a9.578,9.578,0,0,0-1.47939,2.89862l-.00353-.0035q-.09852.32052-.17432.649l.005.00517a9.08912,9.08912,0,0,0-.226,1.84023c-.067.02229-.13473.04432-.20153.06661a.65724.65724,0,0,0-.36489.7104c.25465.91107.5193,1.81653.79172,2.72247.09259.30752.38556.64946.75472.53762.03032-.00917.06146-.01635.09181-.02545.11065.19306.23311.38767.36241.58225l-.00089.00178.02065.02824q.22773.34014.49461.67688c.00917.0116.01631.02345.02556.035l.00078-.00152a10.09086,10.09086,0,0,0,.731.82127l-.00008.00014.00621.00569c.18035.18065.37262.35579.57266.52648.01364.01163.02534.02434.03909.03593l.00074-.00141a9.35232,9.35232,0,0,0,1.12412.81294l-.00186.00312c.024.01483.05083.02727.07509.04191.03633.02192.0713.045.10812.06654a.4649.4649,0,0,0-.12759.40688c.17682.63226.36043,1.2607.54963,1.88946.0642.21335.26751.45076.52369.37311l.02248-.00624a.76566.76566,0,0,0,.01854.15282c1.10226,4.7326,7.432,27.8509,8.87445,33.17088.81335,2.99964,1.61113,6.00411,2.4415,8.999.11225.40506.59548.778,1.0183.50935a7.66745,7.66745,0,0,1,4.4425-1.21143A.73479.73479,0,0,0,51.44431,71.3565Z"/>
    </clipPath>
  </defs>
  <g id="Microphone">
    <g class="cls-2">
      <g id="Center_Microphone" data-name="Center Microphone">
        <g id="Group-19">
          <g id="Group-18">
            <g id="Group-16">
              <path id="Fill-204" class="cls-3" d="M37.05518,11.024A9.59879,9.59879,0,0,0,28.334,21.4895c.2816,2.51822,3.7399,9.0701,11.93282,7.47764s7.92412-9.10483,6.52159-13.24983C45.38605,11.57241,39.46319,10.83693,37.05518,11.024Z"/>
              <path id="Fill-205" class="cls-4" d="M36.93893,13.38817a1.36561,1.36561,0,0,0-1.18808-1.06948A5.22636,5.22636,0,0,0,31.68234,14.292l-.04218.03618a2.68926,2.68926,0,0,0-1.048,2.31819,1.17733,1.17733,0,0,0,.63667,1.18278,2.357,2.357,0,0,0,2.29931.42452A2.95742,2.95742,0,0,0,34.60972,17.55a4.0683,4.0683,0,0,0,1.25054-.96859,3.245,3.245,0,0,0,.47076-.46227,2.95158,2.95158,0,0,0,.60791-2.73094"/>
              <path id="Fill-206" class="cls-5" d="M45.07852,20.62724q-.9877-1.02015-1.95207-2.06266.69342-1.01631,1.3927-2.02861,1.141,1.03568,2.33131,2.01178-.80257,1.12692-1.59241,2.26347C45.19827,20.74974,45.138,20.68877,45.07852,20.62724Zm-1.91825,3.19755q-.727-.75548-1.44984-1.51482c-.21683-.22838-.43217-.4583-.64855-.68718q.75193-1.12584,1.51131-2.24672,1.04873,1.133,2.1256,2.23777Q43.93,22.71979,43.16027,23.82479Zm-1.569,2.25321q-.54381-.55111-1.07947-1.10994-.49325-.51438-.98326-1.032.50744-.77214,1.01867-1.5417,1.03749,1.09965,2.08321,2.1913Q42.11015,25.33124,41.59123,26.078Zm-1.54042,2.22175q-.72984-.62209-1.45533-1.24879-.3504-.3028-.6982-.60861.58314-.90383,1.17154-1.80407,1.0097,1.07581,2.045,2.12564Q40.58119,27.53114,40.05081,28.29975ZM35.72467,24.511c.07747-.12129.15395-.24336.23171-.36457q.54309-.84715,1.09595-1.688.71087.77658,1.427,1.54905-.60471.9429-1.20222,1.89023Q36.49669,25.209,35.72467,24.511Zm.11813,3.69057q-.1816-.17479-.363-.34935-.57831-.55737-1.1574-1.11373.50707-.81762,1.02257-1.63018.76752.70959,1.54434,1.40887Q36.36307,27.35748,35.8428,28.20153Zm-3.21048-3.08909q.45953-.84094.93084-1.67514.57663.5487,1.1584,1.09126-.50316.81433-.997,1.63467Q33.17865,25.63759,32.63232,25.11244Zm-1.409-1.35595q.44286-.85336.89142-1.70353.399.384.79887.76558-.46124.84066-.91118,1.68761Q31.61278,24.1314,31.22328,23.75649Zm-.64038-.61609q-.31761-.30542-.635-.611.40382-.89883.81-1.79631.3468.34173.69543.68086Q31.0136,22.27485,30.5829,23.1404Zm.89153-3.956q.43992-.92589.89591-1.8435l.77227.84357q-.70152,1.3107-1.38228,2.63252-.36222-.3477-.72248-.69732Q31.25381,19.651,31.47443,19.18439Zm2.17063-4.34651q.40973.46127.81988.9219-.49326.8876-.97658,1.78093-.39813-.42176-.79608-.8434Q33.16153,15.76383,33.64506,14.83788Zm1.76044-3.26836q.45126.47178.89859.94739-.711,1.23-1.40693,2.46884-.42192-.46224-.84409-.92444Q34.71733,12.80884,35.4055,11.56952ZM36.975,13.23427q.51544.55412,1.02729,1.11242-.53546.81728-1.06064,1.64134c-.15376.24221-.30432.48672-.45646.73015q-.46128-.501-.92173-1.00263Q36.26258,14.47093,36.975,13.23427Zm2.832,3.099.17538.19453q-.32353.46512-.645.93081-.463.671-.91913,1.34679-.64022-.68754-1.278-1.37752.74662-1.19039,1.51623-2.36533Q39.233,15.69609,39.807,16.3333Zm.5733-3.84515q.70814.736,1.42946,1.45751-.64659.89338-1.27871,1.79664-.67548-.73709-1.35429-1.47073Q39.77164,13.37487,40.38031,12.48815ZM39.04575,19.478q.77326-1.13416,1.56043-2.2585.67584.7485,1.35668,1.49366-.32.47467-.63947.94951-.43838.65514-.87186,1.31337Q39.74713,20.22854,39.04575,19.478Zm-.51562.75906q.70359.75939,1.4123,1.51389-.50908.77644-1.01262,1.55654-.7194-.75778-1.43666-1.51793Q38.00825,21.01116,38.53013,20.2371Zm-2.8728-.39506q.49594-.82485,1.00318-1.6427l.05183.05746q.59655.65655,1.19807,1.30882-.52185.78206-1.03486,1.56977Q36.26622,20.48862,35.65733,19.842Zm-1.68667,2.87351q.63657-1.112,1.29321-2.21283.20184.22036.40359.441.38978.42569.77906.85228-.68574,1.06433-1.3552,2.13925-.59751-.54547-1.1903-1.09647C33.9245,22.7979,33.94721,22.75659,33.97066,22.71555Zm.18741-4.46532q.48084-.87808.96738-1.75311.44179.49221.88593.9823-.51011.83073-1.00571,1.67006Q34.58223,18.69964,34.15807,18.25023Zm.46415,1.55116q-.70307,1.20386-1.3794,2.42325-.40746-.38256-.81323-.76711.07383-.13924.14738-.27857.60643-1.14037,1.22377-2.27507Q34.21155,19.35263,34.62222,19.80139Zm9.24069-3.86951q-.67963.98188-1.35105,1.96913-.6761-.73278-1.34886-1.469.65031-.91791,1.30915-1.82942Q43.15908,15.27626,43.86291,15.93188Zm2.026,5.52025q.64464-.93,1.28974-1.85976c.10793-.156.21323-.3135.319-.47078-.04043-.4704-.1042-.9311-.186-1.37592q-1.16042-.95234-2.27523-1.95446.339-.48775.67874-.9751.17493-.24994.3506-.49893a5.70053,5.70053,0,0,0-.58937-.68907q-.55317.77937-1.10019,1.56339-.69951-.6426-1.38406-1.30121c.1652-.22591.32955-.45264.49556-.67788q.25735-.3493.51536-.698a9.148,9.148,0,0,0-.823-.41951q-.43137.56982-.85563,1.14509-.73563-.72309-1.45655-1.46213c.0866-.1246.17454-.24876.26189-.37308a14.76387,14.76387,0,0,0-2.09751-.34721q.34022.36847.684.73361-.60624.88179-1.198,1.77357-.53514-.5714-1.07605-1.13706.1754-.30183.35105-.60371.23931-.40906.48171-.81651c-.40792-.01581-.77858-.01157-1.0957.00788q-.20814.35457-.41584.70931c-.03167-.03241-.063-.06517-.09465-.09758-.16141-.16522-.32553-.3281-.48881-.49156a9.25417,9.25417,0,0,0-1.88049.54094q-.45543.83013-.899,1.66685-.36791-.40465-.73564-.80976-.3326.21751-.64607.461.42175.48483.8468.96679c.04416.04989.08867.09944.13283.14933q-.48948.94534-.96378,1.8986-.75522-.78883-1.51934-1.56674-.1841.21978-.3551.45023c.48786.5519.97808,1.1018,1.47635,1.64625l.08891.09716q-.693,1.4101-1.35255,2.83655c-.56643-.55542-1.12731-1.11707-1.68907-1.67757q-.09856.32052-.17435.649.781.82664,1.58609,1.63146-.41239.90468-.81073,1.81581-.13728-.13184-.27432-.26385-.35892-.34458-.72068-.686c.00932.182.02347.36467.04406.54794a5.06879,5.06879,0,0,0,.15387.76606q.22548.2187.451.43725c-.0563.13374-.11005.26852-.16532.40262a9.61969,9.61969,0,0,0,.47233.99961c.11418-.25721.22825-.51426.34423-.77071q.30421.29506.60843.59-.23926.48488-.47652.97088c.16478.24782.34512.49555.54085.74014q.2811-.55147.56394-1.1019l.45657.44269q.15867.15357.317.30776-.30528.58458-.60587,1.17131.29153.29251.618.5681.30093-.5708.60634-1.13911.53059.51506,1.06132,1.03007c-.18308.307-.363.61579-.54469.92371q.32885.20256.68453.38224.224-.36767.44848-.735.74871.7266,1.49968,1.45069a9.90083,9.90083,0,0,0,1.48094.24442q-.21573-.20784-.4315-.41582.45264-.71472.9089-1.42709c.05648-.08811.1136-.17579.17021-.26392q1.05287.9394,2.12212,1.8603l-.11777.17062q.37577-.05173.76579-.12727c.15979-.03106.31516-.065.46856-.10054q.50964-.731,1.0189-1.46253.43524.42979.87787.85215.41611-.1782.78965-.38321-.60216-.56943-1.19086-1.15331.51464-.7393,1.02952-1.4781.67794.70508,1.35777,1.40782c.07674.07921.15472.15705.2317.23607a7.38216,7.38216,0,0,0,.64774-.63673q-.85287-.886-1.70758-1.77005.77223-1.11183,1.543-2.2249.79653.795,1.61867,1.5629a8.8943,8.8943,0,0,0,.31031-1.02253Q46.56738,22.13183,45.88893,21.45213Z"/>
              <path id="Fill-207" class="cls-6" d="M45.52837,27.34563a58.785,58.785,0,0,0-10.99023,2.45876.82362.82362,0,0,0-.63272.94806c1.10224,4.73258,7.432,27.85088,8.87442,33.17087.81338,2.99963,1.61115,6.0041,2.44153,8.999.11223.40506.59549.778,1.01828.50936a7.66717,7.66717,0,0,1,4.44252-1.21143.73478.73478,0,0,0,.76214-.86377q-1.774-16.93373-3.8507-33.83449c-.38646-3.19316-.77464-6.386-1.18492-9.57618a.7658.7658,0,0,0-.88032-.60022"/>
              <path id="Fill-211" class="cls-7" d="M42.95525,36.25718a1.65989,1.65989,0,0,0-1.20531-.24969,1.77774,1.77774,0,0,0-1.024.683,1.21663,1.21663,0,0,0-.22633.57585,1.23093,1.23093,0,0,0-.01653.63977q.06924.20625.13859.41234a1.624,1.624,0,0,0,.54195.6238,1.66,1.66,0,0,0,1.20531.24969,1.777,1.777,0,0,0,1.024-.683,1.217,1.217,0,0,0,.22636-.57571,1.23325,1.23325,0,0,0,.01663-.63993q-.06941-.206-.13872-.41231A1.62468,1.62468,0,0,0,42.95525,36.25718Z"/>
              <path id="Fill-212" class="cls-7" d="M42.95238,42.35836a1.03079,1.03079,0,1,0,.76983.15945,1.05248,1.05248,0,0,0-.76983-.15945"/>
              <path id="Fill-214" class="cls-8" d="M33.64506,14.83788q.40973.46127.81988.9219-.49326.8876-.97658,1.78093-.39813-.42176-.79608-.8434Q33.16153,15.76383,33.64506,14.83788Zm-2.41627,2.99124a2.17217,2.17217,0,0,0,.70011.41067q.21909-.45045.44144-.8989l.77227.84357c-.03236.06045-.064.12118-.09636.18149a2.26449,2.26449,0,0,0,.48185-.11231,2.8913,2.8913,0,0,0,.94578-.57562c.21665-.39381.43277-.78821.65157-1.1809q.195.2173.39116.43383a3.72666,3.72666,0,0,0,.34365-.34957,3.33114,3.33114,0,0,0,.2731-.24591q-.28518-.30984-.56986-.61992.67126-1.19515,1.35542-2.3828a1.65211,1.65211,0,0,0-.68744-.89223l.07261.07639q-.711,1.23-1.40693,2.46884-.42192-.46224-.84409-.92444.44514-.8394.90275-1.67218a5.32558,5.32558,0,0,0-1.23234.34952c-.10809.20131-.21634.40252-.32289.60464l-.27566-.3034a5.11609,5.11609,0,0,0-.66332.46015c.13477.15369.26885.30807.40407.46126.04416.04989.08867.09944.13283.14933q-.48948.94534-.96378,1.8986-.49161-.51343-.98752-1.0213a2.88559,2.88559,0,0,0-.30722.5569q.44539.499.89665.99414l.08891.09716q-.28344.57678-.56014,1.157C31.18613,17.80539,31.207,17.81762,31.22879,17.82912Z"/>
            </g>
            <path id="Fill-208" class="cls-9" d="M47.49128,16.46691a.65558.65558,0,0,0-.745-.53115q-4.68246.91556-9.32033,2.03645-.6095.14812-1.218.29939a42.71385,42.71385,0,0,0-8.12084,2.08454.65731.65731,0,0,0-.36491.71041c.25469.911.51932,1.81653.79176,2.72245.09258.30753.38552.64948.7547.53762,1.86294-.56454,3.80368-.93382,5.69806-1.38056,1.83982-.4339,3.67872-.87111,5.52282-1.28649,1.844-.41522,3.68849-.8272,5.52488-1.27519.70409-.17167,1.703-.23216,1.79523-1.14478a9.89157,9.89157,0,0,0-.31837-2.77269"/>
            <path id="Fill-209" class="cls-9" d="M46.51139,25.151a.45535.45535,0,0,0-.51741-.36849q-3.24964.63538-6.46833,1.41319-.423.10311-.84537.20789a29.65036,29.65036,0,0,0-5.63588,1.44658.45653.45653,0,0,0-.25332.4931c.17679.63227.36042,1.2607.54962,1.88945.06421.21335.2675.45076.52369.37312,1.2929-.39179,2.63984-.64816,3.95444-.95812,1.2769-.3011,2.55306-.60456,3.833-.89274,1.27967-.28828,2.55979-.57426,3.83412-.885.48877-.11923,1.182-.16123,1.24629-.7947a6.89128,6.89128,0,0,0-.22087-1.92425"/>
          </g>
        </g>
      </g>
    </g>
  </g>
</svg>
