<svg id="Layer_1" data-name="Layer 1" xmlns="http://www.w3.org/2000/svg" viewBox="0 0 80 80">
  <defs>
    <style>
      .cls-1 {
        fill: #f9efe1;
      }

      .cls-2 {
        fill: #ff0061;
      }

      .cls-3 {
        fill: #f3f1fa;
        stroke: #f3f1fa;
        stroke-miterlimit: 10;
        stroke-width: 0.49997px;
      }

      .cls-4 {
        fill: #0adbdb;
      }

      .cls-5 {
        fill: #f9e4c2;
      }
    </style>
  </defs>
  <g>
    <path class="cls-1" d="M61.47884,31.07513a3.1731,3.1731,0,0,0,2.6522-4.91964c.08577.00727.16845.02608.25734.02608a3.17653,3.17653,0,1,0-1.87428-5.72969,3.2581,3.2581,0,0,0,.062-.6233,3.16416,3.16416,0,0,0-1.72031-2.8083,3.17,3.17,0,0,0-2.56135-5.7865l.00722.01448a3.8115,3.8115,0,0,0-3.468-2.2416c-.02265,0-.04283.0062-.06558.00676a3.8122,3.8122,0,0,0-7.56731.66149,3.89742,3.89742,0,0,0,.091.81263,3.7809,3.7809,0,0,0-6.27883.41585A3.77944,3.77944,0,0,0,36.1898,9.3373a3.806,3.806,0,1,0-6.85229,2.58511,3.80345,3.80345,0,0,0-4.27908,2.30713,3.76218,3.76218,0,0,0-5.99834,3.63516,3.80131,3.80131,0,1,0-3.78524,6.59061A3.80409,3.80409,0,0,0,17.1,31.60333Z"/>
    <g>
      <path class="cls-2" d="M61.13371,31.54037A5.72554,5.72554,0,0,0,50.0938,30.48982a5.7265,5.7265,0,0,0-10.81057.11341,5.72945,5.72945,0,0,0-10.87872.07335,5.72765,5.72765,0,0,0-11.10711.86379h-.078L23.17642,78H55.25418l5.957-46.45961Z"/>
      <path class="cls-3" d="M50.038,30.353a5.72341,5.72341,0,0,0-10.75478.25028L39.28318,78h8.58295l2.20492-47.3234Z"/>
      <path class="cls-3" d="M22.95218,26.71a5.729,5.729,0,0,0-5.65478,4.83034h-.078L23.17642,78h7.434l-2.20588-47.3234A5.73309,5.73309,0,0,0,22.95218,26.71Z"/>
      <path class="cls-4" d="M51.24061,46.55173c0,4.10625-5.354,7.43452-11.95738,7.43447-6.60276,0-11.95591-3.32822-11.95591-7.43447,0-4.10554,5.35315-7.43432,11.95591-7.43432C45.88656,39.11741,51.24061,42.44619,51.24061,46.55173Z"/>
    </g>
    <path class="cls-5" d="M36.1898,9.3373a3.77944,3.77944,0,0,1,4.82308,1.56609,3.7809,3.7809,0,0,1,6.27883-.41585,3.89742,3.89742,0,0,1-.091-.81263,3.79309,3.79309,0,0,1,.50011-1.88332l-.07644-.10821a3.77639,3.77639,0,0,0-1.20729-1.64181,3.81472,3.81472,0,0,0-4.25068-.28413,3.7978,3.7978,0,0,0-7.451.88523A3.82322,3.82322,0,0,1,36.1898,9.3373Z"/>
    <path class="cls-5" d="M14.02215,18.87388a3.77657,3.77657,0,0,1,5.03794-1.00918,3.48549,3.48549,0,0,1,.279-2.117l-.15185-.10852c-.03521-.07875-.05792-.16013-.10135-.23736a3.17654,3.17654,0,1,0-5.568,3.05933Z"/>
    <path class="cls-5" d="M20.75659,13.88034l.10493.15548a3.775,3.775,0,0,1,4.19691.19372,3.80345,3.80345,0,0,1,4.27908-2.30713,3.78464,3.78464,0,0,1,.50313-5.06589l-.28-.43522A3.165,3.165,0,0,0,24.1797,8.5784a3.16639,3.16639,0,1,0-3.42311,5.30194Z"/>
  </g>
</svg>
