<svg id="Layer_1" data-name="Layer 1" xmlns="http://www.w3.org/2000/svg" xmlns:xlink="http://www.w3.org/1999/xlink" viewBox="0 0 80 80">
  <defs>
    <style>
      .cls-1 {
        fill: none;
      }

      .cls-2 {
        clip-path: url(#clip-path);
      }

      .cls-3 {
        fill: #231f20;
      }

      .cls-4 {
        fill: #0a0909;
      }

      .cls-5 {
        fill: #d6055b;
      }
    </style>
    <clipPath id="clip-path">
      <path class="cls-1" d="M39.79263,10A30.45183,30.45183,0,1,0,70.24448,40.45182,30.45372,30.45372,0,0,0,39.79263,10Zm0,30.99947a.55088.55088,0,1,1,.55413-.54765A.55095.55095,0,0,1,39.79263,40.99947Z"/>
    </clipPath>
  </defs>
  <g id="Record">
    <g class="cls-2">
      <g id="Record-2" data-name="Record">
        <g>
          <path class="cls-3" d="M39.79248,70.40332A29.95166,29.95166,0,1,1,69.74414,40.45166,29.98561,29.98561,0,0,1,39.79248,70.40332Zm0-40.84326a10.88843,10.88843,0,1,0,10.89209,10.8916A10.90075,10.90075,0,0,0,39.79248,29.56006Z"/>
          <path class="cls-4" d="M39.79262,11A29.45184,29.45184,0,1,1,10.34078,40.45184,29.4852,29.4852,0,0,1,39.79262,11m0,40.83714a11.38857,11.38857,0,1,0-11.3853-11.3853,11.40146,11.40146,0,0,0,11.3853,11.3853m0-41.83714A30.45184,30.45184,0,1,0,70.24446,40.45184,30.45372,30.45372,0,0,0,39.79262,10Zm0,40.83714a10.38857,10.38857,0,1,1,10.39183-10.3853,10.38355,10.38355,0,0,1-10.39183,10.3853Z"/>
        </g>
        <path class="cls-5" d="M39.79262,30.06A10.38857,10.38857,0,1,0,50.18445,40.45184,10.38912,10.38912,0,0,0,39.79262,30.06Zm0,10.93947a.55089.55089,0,1,1,.55413-.54764A.55094.55094,0,0,1,39.79262,40.99948Z"/>
      </g>
    </g>
  </g>
</svg>
