<svg id="Layer_1" data-name="Layer 1" xmlns="http://www.w3.org/2000/svg" xmlns:xlink="http://www.w3.org/1999/xlink" viewBox="0 0 80 80">
  <defs>
    <style>
      .cls-1 {
        fill: none;
      }

      .cls-2 {
        clip-path: url(#clip-path);
      }

      .cls-3 {
        fill: #da5d23;
      }

      .cls-4 {
        fill: #ff6a2e;
      }

      .cls-5 {
        fill: #ff8c46;
      }

      .cls-6 {
        fill: #ffa747;
      }
    </style>
    <clipPath id="clip-path">
      <circle class="cls-1" cx="40" cy="40.10833" r="28.10785"/>
    </clipPath>
  </defs>
  <g id="Stroopwafel">
    <g class="cls-2">
      <g id="Stroopwafel-2" data-name="Stroopwafel">
        <path class="cls-3" d="M40,12V68.21668A28.10834,28.10834,0,0,0,40,12Z"/>
        <path class="cls-4" d="M64.714,40.10834C64.714,24.58433,53.64925,12,40,12a28.10834,28.10834,0,0,0,0,56.21668C53.64925,68.21668,64.714,55.63235,64.714,40.10834Z"/>
        <path class="cls-5" d="M40,15.39345V64.82323a24.71489,24.71489,0,0,0,0-49.42978Z"/>
        <path class="cls-6" d="M61.3207,40.10834C61.3207,26.45862,51.775,15.39345,40,15.39345a24.71489,24.71489,0,0,0,0,49.42978C51.775,64.82323,61.3207,53.75806,61.3207,40.10834Z"/>
        <path class="cls-5" d="M55.67616,25.63171a.84856.84856,0,0,0-1.2-1.20006l-2.47938,2.47946-2.79933-2.79942,1.94242-1.94206A.84825.84825,0,1,0,49.94026,20.97l-1.94242,1.94205-2.79933-2.79942.184-.184a.8484.8484,0,0,0-1.19959-1.20006l-.184.18443-.53225-.53227a.84826.84826,0,0,0-1.19959,1.19964l.53182.53226L40,22.91205l-2.79933-2.79942.53225-.53226a.84826.84826,0,0,0-1.19959-1.19964l-.53225.53227-.18442-.184a.84825.84825,0,0,0-1.19959,1.19963l.184.184-2.79933,2.79942L30.05974,20.97a.84825.84825,0,1,0-1.19959,1.19963l1.942,1.94249-2.79933,2.79942-2.47938-2.47947a.84826.84826,0,0,0-1.19959,1.19964l2.47939,2.47946L24.0039,30.9106l-1.94242-1.94249a.8484.8484,0,0,0-1.19959,1.20006l1.942,1.94206-2.79933,2.79942-.184-.184A.84825.84825,0,0,0,18.621,35.92529l.184.184-.53225.53226a.84856.84856,0,0,0,1.2,1.20006l.53182-.53226,2.79976,2.799L20.005,42.90777l-.53225-.53227a.84825.84825,0,1,0-1.19959,1.19963l.53225.53227-.184.18443A.84825.84825,0,0,0,19.821,45.49146l.184-.184,2.79933,2.79942-1.942,1.94206a.84825.84825,0,0,0,1.19959,1.19963l1.94242-1.94205,2.79932,2.79942-2.47938,2.47947A.84825.84825,0,0,0,25.52386,55.785l2.47938-2.47947L30.80257,56.105l-1.94242,1.94248a.8484.8484,0,0,0,1.2,1.19963l1.942-1.94205,2.79933,2.79942-.184.184a.84825.84825,0,0,0,1.19959,1.19963l.184-.184.53225.53227a.84856.84856,0,1,0,1.2-1.20006l-.53225-.53184,2.79933-2.79942,2.79933,2.79942-.53225.53184a.8484.8484,0,1,0,1.19959,1.20006l.53225-.53227.184.184a.8484.8484,0,0,0,1.2-1.19963l-.18442-.184,2.79933-2.79942,1.94241,1.94205a.84825.84825,0,1,0,1.19959-1.19963l-1.942-1.94248,2.79932-2.79943L54.477,55.785a.84825.84825,0,1,0,1.19958-1.19963L53.1972,52.10594l2.79933-2.79942,1.942,1.94205a.8484.8484,0,0,0,1.2-1.19963l-1.94242-1.94206,2.79933-2.79942.18442.184a.84825.84825,0,1,0,1.19959-1.19963l-.184-.18443.53225-.53227a.8484.8484,0,0,0-1.2-1.19963l-.53225.53227-2.79976-2.79943L59.995,37.30892l.53225.53226a.84825.84825,0,1,0,1.19959-1.19963l-.53225-.53226.184-.18443A.84825.84825,0,1,0,60.179,34.72523l-.184.184L57.19569,32.1098l1.942-1.94206a.84825.84825,0,1,0-1.19959-1.19963l-1.94242,1.94206-2.79932-2.79943Zm-4.879,2.47946L47.99784,30.9106l-2.79933-2.79943,2.79933-2.79942ZM47.99784,46.90682,45.19851,44.1074,47.99784,41.308l.99973.99977a.8484.8484,0,1,0,1.2-1.19963l-.99973-.99977,2.79933-2.79942,2.79932,2.79942ZM38.80041,32.11023l-2.79933,2.79942-2.79933-2.79942,2.79933-2.79943Zm-1.59974-3.99906L40,25.31175l2.79933,2.79942L40,30.9106Zm3.99892,11.99717,2.79933-2.79942,2.79933,2.79942-2.79933,2.79943Zm1.59974,3.99906L40,46.90682,37.20067,44.1074,40,41.308ZM40,38.90871l-2.79933-2.79942L40,33.30986l2.79933,2.79943Zm-5.19851-2.79942-2.79933,2.79942-2.79933-2.79942,2.79933-2.79943Zm1.19959,1.19963,2.79933,2.79942-2.79933,2.79943-2.79933-2.79943ZM34.80149,44.1074l-2.79933,2.79942L29.20283,44.1074,32.00216,41.308ZM36.00108,45.307l2.79933,2.79943-2.79933,2.79942-2.79933-2.79942ZM40,49.30609l2.79933,2.79942L40,54.90494l-2.79933-2.79943Zm1.19959-1.19963L43.99892,45.307l2.79933,2.79943-2.79933,2.79942Zm6.79825-9.19775-2.79933-2.79942,2.79933-2.79943,2.79933,2.79943Zm-3.99892-3.99906-2.79933-2.79942,2.79933-2.79943,2.79933,2.79943Zm0-13.597,2.79933,2.79943-2.79933,2.79942-2.79933-2.79942Zm-7.99784,0,2.79933,2.79943-2.79933,2.79942-2.79933-2.79942Zm-3.99892,3.99906,2.79933,2.79942L32.00216,30.9106l-2.79933-2.79943ZM28.00324,29.3108l2.79933,2.79943-2.79933,2.79942-2.79933-2.79942ZM21.205,36.10929l2.79933-2.79943,2.79932,2.79943-2.79932,2.79942Zm0,7.99811,6.79824-6.79848,2.79933,2.79942-2.79933,2.79943-.99973-.99977a.8484.8484,0,0,0-1.2,1.19963l.99973.99977L24.0039,46.90682Zm3.99891,3.99906L28.00324,45.307l2.79933,2.79943-2.79933,2.79942Zm3.99892,3.99905,2.79933-2.79942,2.79933,2.79942-2.79933,2.79943ZM36.00108,58.904l-2.79933-2.79942,2.79933-2.79943,2.79933,2.79943Zm7.99784,0-2.79933-2.79942,2.79933-2.79943,2.79933,2.79943Zm3.99892-3.999-2.79933-2.79943,2.79933-2.79942,2.79933,2.79942Zm3.99892-3.99906-2.79933-2.79942L51.99676,45.307l2.79933,2.79943ZM58.795,44.1074l-2.79933,2.79942L53.19635,44.1074,55.99567,41.308Zm0-7.99811-2.79933,2.79942-2.79932-2.79942,2.79932-2.79943Zm-3.99891-3.99906-2.79933,2.79942-2.79933-2.79942,2.79933-2.79943Z"/>
      </g>
    </g>
  </g>
</svg>
