<svg id="Layer_1" data-name="Layer 1" xmlns="http://www.w3.org/2000/svg" xmlns:xlink="http://www.w3.org/1999/xlink" viewBox="0 0 80 80"><defs><style>.cls-1{fill:none;}.cls-2{clip-path:url(#clip-path);}.cls-3{fill:#ff8500;}.cls-4{fill:#f90;}.cls-5{fill:#7e3527;}.cls-6{fill:#cd6133;}.cls-7{fill:#ffd0a7;}.cls-8{fill:#5c241a;}.cls-9{fill:#fff;opacity:0.45;isolation:isolate;}.cls-10{fill:#ffc185;}</style><clipPath id="clip-path"><path class="cls-1" d="M77.22,72.56A9.15,9.15,0,0,1,74.94,70a8.5,8.5,0,0,1-.76-1.58c-.06-.16-.12-.32-.17-.49h0A17.73,17.73,0,0,1,73.33,62V59.87l.09-1.43c.06-.91.12-1.82.16-2.73V54a11.06,11.06,0,0,0,0-1.35.49.49,0,0,1,0-.17,10.67,10.67,0,0,0-2.76-6.91,8.3,8.3,0,0,0-.69-.64,10.43,10.43,0,0,0-1-.75c-.26-.17-.52-.33-.78-.47l-.3-.18a7.55,7.55,0,0,0-3.5-.67,8.25,8.25,0,0,0-1.4.18l-.2-.08a8.21,8.21,0,0,0-2.18-.55h0A6.31,6.31,0,0,0,56,43.52l-.35.29a5.29,5.29,0,0,0-.77.93,5.38,5.38,0,0,0-.58,4.34,6.9,6.9,0,0,0,.56,1.45,17.25,17.25,0,0,1-1.61,1.2l-1,.64A15,15,0,0,1,50,53.56a2.81,2.81,0,0,1-1.83.15,6.27,6.27,0,0,1-2-.74,3.59,3.59,0,0,1-1.49-2.26,3.78,3.78,0,0,1-.1-.57,8,8,0,0,1,.21-2.49,31,31,0,0,1,1-2.95c.11-.35.22-.69.34-1,.26-.79.54-1.58.83-2.36s.47-1.25.71-1.87a5,5,0,0,0,1,.83,6.63,6.63,0,0,0,1.74.83h.26a28.26,28.26,0,0,0,3.9.15,20.79,20.79,0,0,0,3.93-.47h0l.39-.1.16.13-.15-.13c2.31-.63,4.21-1.89,4.27-4.33.11-4.67-8.52-3.89-13-3.16-.93.15-1.69.3-2.16.39l-.3-.16a19.89,19.89,0,0,0,.61-3.91h0V27.37a3,3,0,0,0-.07-.79v-.15L48,25.79a1.31,1.31,0,0,1,0-.28,2.13,2.13,0,0,0-.1-.49c0-.16,0-.22-.07-.32l-.11-.44-.09-.35a.33.33,0,0,1,0-.14h0A13.82,13.82,0,0,0,46.88,22h0v-.07l-.21-.46-.13-.27-.21-.41-.17-.31c-.07-.12-.14-.25-.22-.37s-.13-.22-.2-.32l-.23-.35-.24-.34L45,18.76l-.48-.6-.24-.27-.3-.33-.28-.28-.22-.23h0l-.18-.19A17.37,17.37,0,0,0,36.39,13c-1-2.74-4.95-12.94-8.49-9.89-3,2.58-3.16,7.5-3,9.92a18.5,18.5,0,0,0-7.68,4.49l-.34.34-.19.19h0l-.21.22A20.14,20.14,0,0,0,15,20.2h0A16.82,16.82,0,0,0,13.37,23h0a18.68,18.68,0,0,0-1.21,3.56c-2.44,0-7.3.52-9.66,3.67-2.81,3.73,7.62,7,10.42,7.84a17.18,17.18,0,0,0,4.32,6.65l.19.18h0l.11.09.37.32.19.16.39.3.18.14.45.31.14.1c.4.26.81.5,1.23.73l.17.08.45.23.24.11.39.17.28.11.37.14.16.07h0a16.8,16.8,0,0,0,1.84.53h.11l.47.1h.2l.53.09h.15l.65.07h0c.47,0,.95.07,1.43.07h1.58l.6-.06h0a19.51,19.51,0,0,0,6.49-2h0l-.07.13c-1.1,2.92-1.68,6.34.6,8.07-2.28-1.73-1.7-5.15-.6-8.07-1.56,3.38-3,8.28.54,10.11,2,1,3.66-.25,5.06-2.32A16.64,16.64,0,0,0,43.71,57a32.8,32.8,0,0,0-6.29,4.35c-1.28,1.25-2.07,2.59-1.53,3.76,1.56,3.33,8,4.4,10.36,2.13a22.33,22.33,0,0,0,3.24-4.48,20.94,20.94,0,0,0,1-1.85,12,12,0,0,0,11.25-5.67h0a5.85,5.85,0,0,0,5.71-2.39A4.68,4.68,0,0,0,68,51.63a5.56,5.56,0,0,0,.23-1.46,1.07,1.07,0,0,0,.07.19v.15a3.58,3.58,0,0,1,.11.35V51c0,.11.06.23.08.34v.11l.09.44h0a15.67,15.67,0,0,1,.4,3.61v.37h0v2c0,.48-.06,1-.08,1.44h0a36,36,0,0,0,0,4.41h0v.75a19.09,19.09,0,0,0,.44,3.11v.07h0a14.19,14.19,0,0,0,1.38,3.73c.13.25.28.49.43.73a13.31,13.31,0,0,0,2.06,2.55h0a14.21,14.21,0,0,0,1.23,1.1,2.13,2.13,0,0,0,2.15.35A2.35,2.35,0,0,0,78,74.38,1.91,1.91,0,0,0,77.22,72.56ZM55,57.65Zm-.32,0Zm1.64-.32-.22.06Zm-.34.09-.28.07Zm-.33.08-.36.07Zm1.13-.31-.31.1Zm1-.36.15-.07.14-.07.24-.11h.1l.24-.12.25-.14h0l.23-.13.29-.18a12.15,12.15,0,0,1-1.79.93Zm-.35.14-.17.07Zm-.29.11-.34.11Zm-2.48.58h0ZM51,57.51h0ZM49.44,57h0Zm-1-.48.08,0Zm1.55.7-.31-.11h0Zm-5.41-4.43c.07.12.16.24.24.35h0l.26.34.26.33a8.42,8.42,0,0,0,.55.64,15.05,15.05,0,0,1-2-2.76h0c.07.13.15.26.23.39l.24.39ZM40.74,55.3a.57.57,0,0,0,.13-.08c-.08.06-.16.1-.24.15l.09-.06Zm-.2.12-.19.09h.08Zm-.22.1h0Zm-.19.08h0Zm-.23.07a1.36,1.36,0,0,1-.29.06h.17Zm-.31.07h0Zm-1.25-.11h.09l-.19-.06Zm-.22-.08h0Zm.42.14h0Zm.26.05Zm.09,0h0Zm.49,0Zm1.51-.54.1-.07Zm.14-.11h0l.1-.07.08-.07.09-.07.12-.1a3.39,3.39,0,0,1-.42.33Zm.49-.39a.47.47,0,0,0,.1-.1.4.4,0,0,1-.1.12Zm.15-.14.12-.12.12-.12Zm10.19,3.1.64.06Zm.78.07h0Zm1.45,0Zm-.4,0ZM59.46,56l.28-.19Zm.35-.24.24-.17.27-.2.19-.15.19-.15h0c-.29.21-.58.43-.89.64Z"/></clipPath></defs><g class="cls-2"><g id="Tiger"><path class="cls-3" d="M78,74.38a2.39,2.39,0,0,1-1.47,1.77,2.13,2.13,0,0,1-2.15-.35,14.33,14.33,0,0,1-1.24-1.1,13.73,13.73,0,0,1-2.49-3.28,14.19,14.19,0,0,1-1.38-3.73h0a20.81,20.81,0,0,1-.49-3.93c-.07-1.44,0-2.91,0-4.41h0c0-.65.07-1.3.1-2,0-.5.06-1,.08-1.51v-.37a15.34,15.34,0,0,0-.24-3.58,2.21,2.21,0,0,0,0-.25v-.41a.34.34,0,0,0,0-.22l-.06-.21a.81.81,0,0,0-.08-.25l-.12-.37h0c-.11-.29-.24-.57-.37-.84l-.13-.23a3.28,3.28,0,0,0-.2-.31c0-.07-.09-.14-.14-.21l-.15-.18a3.34,3.34,0,0,0-.83-.76,3,3,0,0,0-1.5-.47H63.63l-.21.06h-.17c-.23.08-.46.17-.7.28l-.24.11L62,48c-.28.14-.56.31-.83.48A14.84,14.84,0,0,0,58.27,51a19.47,19.47,0,0,0-1.56,1.94c-.14.2-.28.38-.39.56a2.22,2.22,0,0,1-2,1,2.34,2.34,0,0,1-1.92-1.22,1.78,1.78,0,0,1-.17-.88l1-.64a17.25,17.25,0,0,0,1.61-1.2,6.9,6.9,0,0,1-.56-1.45c.48-.57,1-1.11,1.49-1.64l.57-.55a17.68,17.68,0,0,1,4.08-3,9.69,9.69,0,0,1,1.24-.54,9.15,9.15,0,0,1,1.05-.33l.34-.08a8.25,8.25,0,0,1,1.4-.18,7.55,7.55,0,0,1,3.5.67,8.08,8.08,0,0,1,1.22.68,10.25,10.25,0,0,1,1.69,1.39,10.67,10.67,0,0,1,2.76,6.91,29.91,29.91,0,0,1,0,3.28c0,.91-.1,1.82-.16,2.73l-.09,1.43c0,.72-.07,1.43-.08,2.13A17.92,17.92,0,0,0,74,67.88,9.79,9.79,0,0,0,74.94,70a9.2,9.2,0,0,0,2.28,2.61A1.92,1.92,0,0,1,78,74.38Z"/><path class="cls-4" d="M63.29,52.22q-.13.21-.3.42c-.09.13-.19.26-.29.38h0l-.26.31c-.08.09-.16.19-.25.28L61.9,54l-.18.18-.23.22a1.07,1.07,0,0,1-.19.18l-.33.3-.23.2h0l-.19.15-.19.15-.27.2-.27.19-.34.23-.31.19-.23.13h0l-.25.39-.24.12h-.1l-.24.11L58,57l-.15.07-.3.12-.33.12c-.11,0-.23-.16-.35-.13l-.34.11h0a1.89,1.89,0,0,1-.34.09l-.37.34-.42.08h-2a11.69,11.69,0,0,1-1.56-.11l-.41-.06-.27-.06h-.56l-.25-.08-.21-.07-.34-.12-.16-.06h-.24l-.22-.1-.1-.06-.23-.36h-.05l-.27-.15-.23-.13-.17-.11h0l-.19-.12L47.56,56h0l-.29-.22L47,55.54l-.13-.1-.21-.2h0L46.41,55l-.48-.5c-.19-.2-.37-.42-.55-.64l-.26-.33-.26-.34h0c-.08-.11-.17-.23-.24-.35l-.21-.31-.24-.39c-.08-.13-.16-.26-.23-.39l-.06-.1-.06-.1c-.06-.11-.12-.21-.17-.32h0l-.24-.45-.09-.19-.09-.19-.15-.31V50c-.07-.13-.13-.27-.19-.41l-.15-.36c-.05-.11-.09-.23-.14-.35-.22-.54-.41-1.09-.59-1.63l-.12-.39v-.15c-.07-.21-.13-.42-.19-.62s-.14-.5-.2-.74L41.33,45l-.09-.38c-.05-.21-.1-.41-.14-.62v-.15a.43.43,0,0,0-.05-.25,2.32,2.32,0,0,1-.1-.49h0a4,4,0,0,0-.11-.6c0-.19-.07-.34-.1-.5l-.06-.38a4.43,4.43,0,0,0-.09-.65v-.92L42,38.32l4.84-5.27.78.4.3.16.61.34h0l.23.13.25.14.25.13.28.16,1.22.71.56.33.16.1,1.68,1c.58.34,1.07.68,1.61,1l.55.38.18.11.55.39h.06c.93.66,1.84,1.35,2.7,2l.15.13-.16-.13-.39.1h0a20.79,20.79,0,0,1-3.93.47,28.26,28.26,0,0,1-3.9-.15h-.26a6.63,6.63,0,0,1-1.74-.83,5,5,0,0,1-1-.83c-.24.62-.48,1.24-.71,1.87s-.57,1.57-.83,2.36c-.12.34-.23.68-.34,1a31,31,0,0,0-1,3A8,8,0,0,0,44.49,50a3.78,3.78,0,0,0,.1.57A3.62,3.62,0,0,0,46.09,53a6.27,6.27,0,0,0,2,.74,2.81,2.81,0,0,0,1.83-.15A15,15,0,0,0,52.2,52.4l1-.64a17.25,17.25,0,0,0,1.61-1.2,6.9,6.9,0,0,1-.56-1.45,5.38,5.38,0,0,1,.58-4.34,5.29,5.29,0,0,1,.77-.93l.35-.29a6.33,6.33,0,0,1,4.69-1.16h0l.09.09.1.1c.29.28.56.57.8.85l.38.44a10.55,10.55,0,0,1,1.11,1.62l.16.32a7.07,7.07,0,0,1,.47,1.5A9.77,9.77,0,0,1,63.29,52.22Z"/><path class="cls-5" d="M75.13,72.86c-.42-.83-2.34-1.4-4.5-1.44a13.73,13.73,0,0,0,2.49,3.28C74.45,74.09,75.43,73.42,75.13,72.86Z"/><path class="cls-5" d="M72.87,65.17c-.4-.77-2.12-1.33-4.11-1.42a20.81,20.81,0,0,0,.49,3.93C71.28,66.93,73.27,66,72.87,65.17Z"/><path class="cls-5" d="M71.77,57.75c-.21-.69-1.31-1.4-2.79-1.89a9.56,9.56,0,0,1-.08,1.51c0,.66-.07,1.31-.1,2C70.53,59,72,58.45,71.77,57.75Z"/><path class="cls-5" d="M71.3,49.92c-.38-.77-2-1.37-4-1.52a7.79,7.79,0,0,1,1.46,3.51C70.35,51.28,71.61,50.56,71.3,49.92Z"/><path class="cls-5" d="M65,47.17c-.13-1.27-.41-2.2-1-2.13-.87.1-2,1.53-2.81,3.39a8.77,8.77,0,0,1,.84-.49A6,6,0,0,1,65,47.17Z"/><path class="cls-5" d="M70.86,45.55a10.25,10.25,0,0,0-1.69-1.39A7.59,7.59,0,0,0,68,43.48c-.58,1.34-.87,2.8.65,2.73A5.72,5.72,0,0,0,70.86,45.55Z"/><path class="cls-5" d="M73.62,52.46c-1.4.11-2.93.5-2.41,1.71a3.07,3.07,0,0,0,2.44,1.57A25.64,25.64,0,0,0,73.62,52.46Z"/><path class="cls-5" d="M73.41,59.9c-1,.12-1.94.44-1.17,1.32a3.11,3.11,0,0,0,1.09.81C73.34,61.33,73.37,60.62,73.41,59.9Z"/><path class="cls-5" d="M74.94,70A9.79,9.79,0,0,1,74,67.88c-1.14.53-2.2,1.25-1.12,1.75A4.05,4.05,0,0,0,74.94,70Z"/><path class="cls-6" d="M49.49,62.77a22.33,22.33,0,0,1-3.24,4.48c-2.39,2.27-8.8,1.2-10.36-2.13-.54-1.17.25-2.51,1.53-3.76a2,2,0,0,0,.14,1.17c1.56,3.33,8,4.4,10.35,2.12A14.17,14.17,0,0,0,49.49,62.77Z"/><path class="cls-3" d="M51.31,59.39s-.75,1.57-1.82,3.38a14.17,14.17,0,0,1-1.58,1.88c-2.38,2.28-8.79,1.21-10.35-2.12a2,2,0,0,1-.14-1.17A36.68,36.68,0,0,1,44,56.82Z"/><path class="cls-3" d="M46.07,43.67c-.12.34-.23.68-.34,1a31,31,0,0,0-1,2.95,8,8,0,0,0-.21,2.49h0v.21h0l-.16.33-.13.27-.27.52-.15.28c-.09.17-.19.33-.28.49l-.15.25-.15.24-.09.14h0L43,53a2.2,2.2,0,0,1-.17.25l-.18.24c-.09.12-.18.24-.28.35l-.14.16-.14.16-.16.17-.16.16c-.1.1-.21.44-.32.53l-.09.07h0l-.08.07h-.09l-.14.08-.13.09,0,.06-.14.07-.12.06-.12.15-.14.06-.16.11H39.6a2.44,2.44,0,0,1-.54,0l-.34-.07h-.17l-.21,0L38,55.75l-.17-.08c-3-1.55-2.62-5.14-1.23-8.72l.07-.13a29.25,29.25,0,0,1,1.8-3.3s.11-.13.32-.33a7.07,7.07,0,0,1,1.57-1.08h0L40.7,42a4.13,4.13,0,0,1,2.5-.25h0A5.28,5.28,0,0,1,46.07,43.67Z"/><path class="cls-6" d="M44.48,50.19c-1.61,4.12-4.16,8.51-7.35,6.87C33.58,55.23,35,50.33,36.59,47c-1.19,3.16-1.78,6.92,1.23,8.47C40.59,56.84,42.87,53.73,44.48,50.19Z"/><path class="cls-3" d="M63.29,52.22c-1.68,4.87-6.66,9.53-13.12,8.66-10.46-1.42-11.51-19-11.51-19L40.42,40c.48,4.09,2.66,16.48,11.38,17.66A12,12,0,0,0,63.29,52.22Z"/><path class="cls-3" d="M36.63,13.66S32-.41,27.9,3.1,25,14.44,25,14.44Z"/><path class="cls-7" d="M34.42,12.68s-3.1-9.36-5.81-7-1.94,7.55-1.94,7.55Z"/><path class="cls-3" d="M13.57,38.24s-14.33-3.73-11.09-8,11.13-3.63,11.13-3.63Z"/><path class="cls-7" d="M12.46,36.1s-9.54-2.48-7.39-5.34,7.41-2.42,7.41-2.42Z"/><path class="cls-3" d="M37,46.64a21.1,21.1,0,0,0,5.61-4.28c7.2-7.69,7.52-19.1.71-25.49S23.87,10.35,16.66,18c-.07.08-.14.15-.2.23,7.09-3.52,16.09-2.38,21.47,2.66,6.81,6.39,6.49,17.8-.72,25.49Z"/><path class="cls-4" d="M17.22,44.71c5.22,4.9,13.13,5.42,19.78,1.93l.21-.22c7.21-7.69,7.53-19.35.72-25.74-5.38-5-14.38-5.93-21.47-2.41C9.48,26,10.47,38.39,17.22,44.71Z"/><path class="cls-5" d="M27.44,20.1c1.23-1,.39-4.92-.35-7.56a19.43,19.43,0,0,0-5.61,1.88C23.33,17.22,26.2,21.07,27.44,20.1Z"/><path class="cls-5" d="M11.76,28.72c2.68.58,6.8,1.2,7.7-.11s-3.2-4-6.11-5.62A19.4,19.4,0,0,0,11.76,28.72Z"/><path class="cls-5" d="M14.88,20.25c1.86,1.66,5.06,4.27,7.54,5a1.53,1.53,0,0,0,1.9-1,1.6,1.6,0,0,0,0-1c-.89-2.42-3.67-5.42-5.45-7.17a16.86,16.86,0,0,0-2.22,2l-.21.22A20.4,20.4,0,0,0,14.88,20.25Z"/><path class="cls-5" d="M46.89,22a15,15,0,0,0-3.39-4.92,32.41,32.41,0,0,1-1.84,4.77C40,25.25,43.61,25,46.89,22Z"/><path class="cls-5" d="M48.2,29.54a17.29,17.29,0,0,0-.66-5.77,30.39,30.39,0,0,1-2.69,3.5C42.67,29.72,45,30.63,48.2,29.54Z"/><path class="cls-5" d="M17.41,44.89A15,15,0,0,0,22.53,48c2.85-3.47,2.84-7.1-.49-5.21A32.68,32.68,0,0,1,17.41,44.89Z"/><path class="cls-5" d="M24.37,48.48a17.38,17.38,0,0,0,5.8.29c.89-3.28-.17-5.52-2.48-3.19A32.67,32.67,0,0,1,24.37,48.48Z"/><path class="cls-8" d="M31.28,27.51a1.67,1.67,0,1,0-.08-2.36h0A1.67,1.67,0,0,0,31.28,27.51Z"/><path class="cls-9" d="M31.3,26.77c.23.07.52-.19.64-.58s0-.77-.2-.84-.51.19-.63.58S31.07,26.69,31.3,26.77Z"/><path class="cls-8" d="M21.64,37.93a1.67,1.67,0,1,0-.08-2.36h0a1.66,1.66,0,0,0,.07,2.35Z"/><path class="cls-9" d="M21.73,37.2c.23,0,.48-.24.56-.64s0-.76-.26-.81-.49.24-.57.64S21.5,37.16,21.73,37.2Z"/><path class="cls-7" d="M26.23,44.18C22.72,39.44,29,33.07,29,33.07s5.94-6.63,10.9-3.44.63,9.55-4.56,9.39C35.79,44.19,29.73,48.92,26.23,44.18Z"/><path class="cls-5" d="M38.12,33A4.48,4.48,0,0,1,35,37.68c-1.68.4-2.91-1-3.33-2.53-.14-.52.67-.76.81-.24.32,1.16,1.21,2.32,2.54,1.89A3.7,3.7,0,0,0,37.28,33a.42.42,0,1,1,.84,0Z"/><path class="cls-5" d="M29.48,42.23a4.51,4.51,0,0,0,4.46-3.42c.29-1.71-1.23-2.84-2.74-3.16a.43.43,0,0,0-.51.31.43.43,0,0,0,.32.51h0c1.18.25,2.4,1.06,2.06,2.42a3.74,3.74,0,0,1-3.62,2.5.42.42,0,0,0,0,.84Z"/><path class="cls-8" d="M31.49,37.45a3.06,3.06,0,0,0,1.28-.8A3,3,0,0,0,33,32.88c-.64-.61-1.88-.37-2.92.51a1.72,1.72,0,0,1,1.76.18,3,3,0,0,1-.28,3.77Z"/><path class="cls-5" d="M29,37.16a2.6,2.6,0,0,0,2.47.29l.11-.11a3,3,0,0,0,.28-3.77,1.72,1.72,0,0,0-1.76-.18h0a4.89,4.89,0,0,0-.4.39C28.6,35,28.29,36.48,29,37.16Z"/><path class="cls-9" d="M29.16,36.39c.23.1.56-.17.74-.59s.14-.85-.08-.95-.56.17-.75.6S28.93,36.3,29.16,36.39Z"/><path class="cls-5" d="M41.31,45.39c.26.63-.4,2-1.49,3.26-.27-1-.49-2-.65-2.91C40.2,45.24,41.13,44.94,41.31,45.39Z"/><path class="cls-5" d="M44.32,50c.33.8-.81,2.85-2.43,4.16a24.75,24.75,0,0,1-1.27-3C42.09,50.35,44.05,49.34,44.32,50Z"/><path class="cls-5" d="M47.72,53.93c.52.8-.44,3.44-2.06,5a12.11,12.11,0,0,1-2.25-2.33C44.55,55.56,47.22,53.15,47.72,53.93Z"/><path class="cls-5" d="M50.69,57.19c.53.46.57,2.12.11,3.76l-.63-.07a9.1,9.1,0,0,1-2.4-.66C48.68,58.74,50.1,56.68,50.69,57.19Z"/><path class="cls-5" d="M51.49,35.66h0a10.59,10.59,0,0,1-2.91,4.6,5,5,0,0,1-1-.83c-.24.62-.48,1.24-.71,1.87a1.69,1.69,0,0,1-1.25-.07c-.49-.24.15-1.93,1-3.67.69-1.45,1.51-2.94,1.89-3.62h0l.23.13.25.14.25.13.28.16,1.22.71.56.33Z"/><path class="cls-5" d="M56.12,38.66a8.83,8.83,0,0,1-1.64,2.62,28.26,28.26,0,0,1-3.9-.15,32.23,32.23,0,0,1,2.59-4.43c.53.33,1.07.68,1.61,1l.55.38.18.11.55.39Z"/><path class="cls-5" d="M58.81,40.71l-.39.1.23-.23Z"/><path class="cls-5" d="M61.14,42.84a4.75,4.75,0,0,1-.72,1.1,11.42,11.42,0,0,1-4.08,3,5.3,5.3,0,0,1-.67.23,1.27,1.27,0,0,1-1.08,0c-.61-.51,0-1.75,1-3,.14-.19.28-.36.42-.54a6.33,6.33,0,0,1,4.69-1.16h0l.09.09.1.1Z"/><path class="cls-10" d="M68.07,51.64a4.68,4.68,0,0,1-.57,1.22,5.85,5.85,0,0,1-5.71,2.39,8,8,0,0,1-1.09-.19,9.08,9.08,0,0,1-2.77-1.19,9.21,9.21,0,0,1-1.22-.94,8.73,8.73,0,0,1-1.87-2.4,6.9,6.9,0,0,1-.56-1.45,5.38,5.38,0,0,1,.58-4.34,5.29,5.29,0,0,1,.77-.93,2.33,2.33,0,0,0-.07.25,5.78,5.78,0,0,0,.11,3.06,3,3,0,0,0,.1.32,7.72,7.72,0,0,0,.85,1.7A8.6,8.6,0,0,0,58.27,51a8,8,0,0,0,1,.73,8.79,8.79,0,0,0,3.42,1.33H63A6.29,6.29,0,0,0,68.07,51.64Z"/><path class="cls-7" d="M68.3,50.17h0a5.64,5.64,0,0,1-.23,1.47A6.31,6.31,0,0,1,63,53.09h-.28a8.79,8.79,0,0,1-3.42-1.33,8,8,0,0,1-1-.73,8.55,8.55,0,0,1-1.65-1.85,7.72,7.72,0,0,1-.85-1.7,3,3,0,0,1-.1-.32,5.78,5.78,0,0,1-.11-3.06,2.33,2.33,0,0,1,.07-.25l.35-.29A6.33,6.33,0,0,1,60.7,42.4h0a8.21,8.21,0,0,1,2.18.55l.2.08a9.26,9.26,0,0,1,1.39.74,8.41,8.41,0,0,1,3.64,4.75A6.53,6.53,0,0,1,68.3,50.17Z"/><path class="cls-4" d="M63.09,36.38c-.06,2.44-2,3.7-4.27,4.33h0l-.39.1h0a20.79,20.79,0,0,1-3.93.47,28.26,28.26,0,0,1-3.9-.15h-.26a6.63,6.63,0,0,1-1.74-.83,5,5,0,0,1-1-.83,4.06,4.06,0,0,1-1-1.87,4.62,4.62,0,0,1-.08-1.11,6.73,6.73,0,0,1,.83-2.73h.16l.37-.09c.47-.09,1.23-.24,2.16-.39C54.57,32.49,63.2,31.71,63.09,36.38Z"/></g></g></svg>