<svg xmlns="http://www.w3.org/2000/svg" width="468" height="440" viewBox="0 0 468 440">
  <path fill-rule="evenodd" d="M27.932057,117.860967 C23.1914264,114.023075 17.722815,109.604615 12.7307972,103.022334 C5.55169657,93.5562509 1.15688957,78.5038091 1.15688957,67.5951025 C1.15688957,40.8011981 12.7307972,20.9292527 34.567164,9.9440889 C35.1966223,9.62742899 43.4519788,4.58068455 55.9515747,2.1532557 C68.4511706,-0.274173154 91.0273532,0.287246431 100.154479,2.1532557 C109.281605,4.01926497 119.945376,8.55247974 122.212692,9.9980719 C143.153186,23.3492834 155.151199,42.2295491 154.998423,67.5951025 C154.922034,80.293354 150.275317,91.793183 143.153186,102.140653 C139.199008,107.885169 135.583213,113.450477 130.299303,117.860967 C129.708533,118.354084 128.60337,119.528232 127.835162,120.127804 C135.561194,129.127137 135.561194,142.526639 134.530445,157.006538 C133.499696,171.486438 125.839345,193.979838 121.888079,207.228368 C118.521852,218.515272 117.480354,223.172531 112.876457,232.602559 C110.170622,238.144843 103.096587,237.962689 100.154479,232.602559 C97.2123711,227.242429 97.0557332,225.694063 95.3869542,221.283353 C93.7181752,216.872643 93.1505331,212.110595 92.9523559,210.861787 L64.2944783,210.861787 C63.6293233,214.061182 62.8125646,216.921697 61.2791378,221.283353 C59.745711,225.645009 58.7871053,228.023378 55.9515747,232.602559 C53.1160441,237.18174 46.8467457,237.131071 44.1841675,232.602559 C41.5215893,228.074047 37.9549147,218.350315 35.7850536,210.860347 C35.4052738,209.548919 35.049996,208.231013 34.7696652,207.228368 C29.0218031,208.577944 23.4209526,210.140574 17.722815,211.161213 C12.0441348,212.180413 6.26456432,212.169616 0,211.478633 C0.994489678,210.848831 1.56668156,210.468071 2.15688957,210.116101 C12.8195485,203.759778 21.7245549,195.539959 28.4856435,185.105396 C29.210612,183.986868 29.6451608,182.460947 29.636513,181.127925 C29.6259495,179.50876 26.3495298,169.274578 25.73523,157.006538 C25.0205415,142.733657 23.5371948,128.555152 30.5472245,120.127804 C29.636513,119.13543 28.8183988,118.578527 27.932057,117.860967 Z" transform="translate(157 168)"/>
</svg>
